<?xml version="1.0" standalone="no"?>
<!DOCTYPE svg PUBLIC "-//W3C//DTD SVG 1.1//EN" "http://www.w3.org/Graphics/SVG/1.1/DTD/svg11.dtd" >
<svg xmlns="http://www.w3.org/2000/svg">
<metadata>
This is a custom SVG webfont generated by Font Squirrel.
Copyright   : Bij regeling van 16 juni 2008 Stcrt 2008 nr 115 heeft de Staat der Nederlanden Ministerie van Algemene Zaken een auteursrechtelijk voorbehoud gemaakt als bedoeld in artikel 15b van de Auteurswet 1912 met betrekking tot het gebruik en de toepassing van het ontwerp van het voor de Rijksoverheid algemeen geldende Rijkslogo en de huisstijl waaronder begrepen het gebruik van de lettertypes RijksoverheidSerif en RijksoverheidSans   Genoemd voorbehoud is niet van toepassing op partijen aan wie door of vanwege de Rijksoverheid het Rijkslogo en de huisstijl ter beschikking is gesteld met het oog op het gebruik bij de uitoefening van werkzaamheden of diensten in opdracht van de Rijksoverheid Ieder gebruik in welke vorm of wijze hetzij elektronisch mechanisch door fotokopien opnamen of enige andere manier is verboden tenzij er voorafgaand schriftelijke toestemming van de Rijksoverheid is verkregen Voor toestemming kunt u zich wenden tot de Rijksvoorlichtingsdienst   Auteur Peter Verheul
Designer    : Peter Verheul
Foundry     : Peter Verheul
Foundry URL : httpwwwfarhillnl
</metadata>
<defs>
<font id="RijksoverheidSansTextBdIt" horiz-adv-x="1064" >
<font-face units-per-em="2048" ascent="1657" descent="-391" />
<missing-glyph horiz-adv-x="366" />
<glyph unicode=" "  horiz-adv-x="366" />
<glyph unicode="&#x09;" horiz-adv-x="366" />
<glyph unicode="&#xa0;" horiz-adv-x="366" />
<glyph unicode="!" horiz-adv-x="610" d="M113 141q0 84 49 135.5t121 51.5q68 0 108.5 -40t40.5 -120q0 -82 -49 -130t-127 -48q-66 0 -104.5 38.5t-38.5 112.5zM178 422l78 911l254 23l-68 -613l-28 -313z" />
<glyph unicode="&#x22;" horiz-adv-x="659" d="M106 965l7 448h229l-59 -448h-177zM412 965l6 448h229l-59 -448h-176z" />
<glyph unicode="#" horiz-adv-x="1189" d="M0 344l33 168h235l62 322h-238l33 167h237l64 342h174l-65 -342h247l64 342h170l-64 -342h224l-33 -167h-223l-60 -322h225l-32 -168h-224l-63 -344h-172l63 344h-245l-66 -344h-172l66 344h-240zM442 512h246l62 322h-246z" />
<glyph unicode="$" d="M96 8v217q166 -35 307 -35q119 0 184.5 45.5t65.5 108.5q0 59 -27.5 99t-113.5 96l-160 102q-94 63 -135 135t-41 174q0 137 89 239.5t237 143.5l16 226h172l-12 -203q137 0 250 -27l-17 -211q-123 29 -249 29q-102 0 -164 -43t-62 -103q0 -57 30 -96t120 -94l147 -92 q102 -63 143.5 -133t41.5 -178q0 -152 -97.5 -260.5t-263.5 -147.5l-16 -215h-174l14 195q-144 -1 -285 28z" />
<glyph unicode="%" horiz-adv-x="1583" d="M51 913q0 217 102.5 331t254.5 114q131 0 214 -86t83 -256q0 -211 -104.5 -321.5t-256.5 -110.5q-131 0 -212 77.5t-81 251.5zM256 926q0 -172 100 -172q63 0 102.5 61.5t39.5 185.5q0 188 -101 189q-59 0 -100 -63.5t-41 -200.5zM406 8l614 1383l151 -66l-612 -1382z M877 315q0 217 102 331t252 114q131 0 214 -85t83 -257q0 -211 -105.5 -321.5t-255.5 -110.5q-131 0 -210.5 77.5t-79.5 251.5zM1079 328q0 -172 103 -172q61 0 100 61.5t39 185.5q0 188 -100 189q-57 0 -99.5 -63.5t-42.5 -200.5z" />
<glyph unicode="&#x26;" horiz-adv-x="1409" d="M63 338q0 125 81 222t227 140v7q-88 31 -141.5 100.5t-53.5 163.5q0 168 124 274.5t323 106.5q158 0 254 -35l-17 -191q-90 18 -221 19q-96 0 -152.5 -46t-56.5 -114q0 -197 303 -197v-192q-397 6 -397 -215q0 -186 274 -186q184 0 298 122.5t114 352.5h-125v182h453 v-182h-113q0 -315 -185.5 -500.5t-486.5 -185.5q-242 0 -372 91t-130 263z" />
<glyph unicode="'" horiz-adv-x="354" d="M106 965l7 448h229l-59 -448h-177z" />
<glyph unicode="(" horiz-adv-x="534" d="M41 508q53 465 371 835h170q-154 -199 -241 -398.5t-114 -430.5q-23 -213 29.5 -443.5t169.5 -426.5h-168q-264 393 -217 864z" />
<glyph unicode=")" horiz-adv-x="534" d="M-63 -356q154 199 240.5 398.5t113.5 430.5q23 213 -29.5 443.5t-169.5 426.5h168q264 -393 217 -864q-53 -465 -371 -835h-169z" />
<glyph unicode="*" horiz-adv-x="974" d="M98 1063l66 164l252 -111l47 -14l4 49l6 289h166l-45 -289l-2 -49l45 16l270 111l41 -166l-284 -72l-46 -14l25 -43l164 -217l-145 -107l-125 244l-31 45l-31 -43l-166 -242l-133 101l203 219l35 45l-47 10z" />
<glyph unicode="+" d="M137 514l19 186h286l27 310h190l-26 -310h289l-19 -186h-291l-24 -311h-191l27 311h-287z" />
<glyph unicode="," horiz-adv-x="481" d="M-6 -225l139 239q-80 35 -80 125q0 86 47 137.5t123 51.5q68 0 108 -43t40 -117q0 -70 -56.5 -166t-122 -161.5t-94.5 -65.5h-104z" />
<glyph unicode="-" horiz-adv-x="776" d="M123 481v211h528v-211h-528z" />
<glyph unicode="." horiz-adv-x="481" d="M53 141q0 84 49.5 135.5t120.5 51.5q66 0 107 -40t41 -120q0 -82 -48.5 -130t-125.5 -48q-68 0 -106 38.5t-38 112.5z" />
<glyph unicode="/" horiz-adv-x="604" d="M-154 -328l717 1712l168 -69l-721 -1712z" />
<glyph unicode="0" d="M82 416q0 297 142.5 459.5t367.5 162.5q184 0 291.5 -116.5t107.5 -325.5q0 -287 -146.5 -451.5t-359.5 -164.5q-188 0 -295.5 109.5t-107.5 326.5zM322 438q0 -133 52 -198.5t140 -65.5q92 0 165 109.5t73 294.5q0 127 -51.5 195.5t-131.5 68.5q-106 0 -176.5 -108 t-70.5 -296z" />
<glyph unicode="1" horiz-adv-x="770" d="M82 778v189q184 57 387 57h131l-94 -1024h-234l76 809q-147 0 -266 -31z" />
<glyph unicode="2" horiz-adv-x="944" d="M49 195q80 186 264 284l142 76q82 45 110.5 78t28.5 76q0 104 -166 104q-139 0 -270 -41v213q160 45 307 45q174 0 271.5 -76.5t97.5 -203.5q0 -129 -53.5 -203t-184.5 -133l-141 -64q-129 -57 -179 -135v-4h580v-211h-786z" />
<glyph unicode="3" horiz-adv-x="909" d="M-12 -150h159q190 0 297 73t107 194q0 68 -48 125t-136 90q-115 -57 -238 -80l-29 178q336 96 510 377h-520v209h717l20 -205q-111 -219 -297 -340v-4q121 -33 191 -116t70 -199q0 -217 -178.5 -357.5t-465.5 -140.5h-159v196z" />
<glyph unicode="4" horiz-adv-x="1073" d="M39 156q39 297 220 543.5t439 320.5h228l-68 -821h148v-199h-166l-25 -346h-233l30 346h-538zM260 199h373l49 626q-170 -90 -283.5 -252.5t-138.5 -373.5z" />
<glyph unicode="5" horiz-adv-x="911" d="M35 -150h180q170 0 273.5 81t103.5 206q0 193 -264 193q-100 0 -230 -15l56 701h675v-209h-485l-22 -279q72 6 116 7q193 0 293 -92.5t100 -260.5q0 -242 -176 -385t-465 -143h-155v196z" />
<glyph unicode="6" horiz-adv-x="1021" d="M78 436q0 420 216 668t593 248h100v-197h-121q-358 0 -497 -328l4 -4q113 66 235 66q160 0 252 -97.5t92 -271.5q0 -258 -128 -398t-337 -140q-182 0 -295.5 116.5t-113.5 337.5zM317 444q0 -143 54.5 -210.5t142.5 -67.5q86 0 142.5 75.5t56.5 227.5q0 109 -50.5 164 t-140.5 55q-92 0 -180 -20q-25 -105 -25 -224z" />
<glyph unicode="7" horiz-adv-x="858" d="M27 807l4 209h803l16 -195q-248 -272 -365.5 -552.5t-140.5 -614.5h-229q29 639 477 1147v6h-565z" />
<glyph unicode="8" horiz-adv-x="1021" d="M45 287q0 227 287 387l-56 45q-135 104 -135 246q0 164 127 280.5t310 116.5q176 0 278 -86t102 -217q0 -215 -262 -361l72 -49q92 -66 130 -126t38 -146q0 -170 -137 -282.5t-355 -112.5q-188 0 -293.5 83t-105.5 222zM285 328q0 -74 52 -118t144 -44q100 0 157.5 50 t57.5 122q0 84 -112 164l-127 88q-172 -119 -172 -262zM379 995q0 -70 78 -133l112 -86q150 106 150 250q0 72 -42 113t-118 41q-82 0 -131 -52.5t-49 -132.5z" />
<glyph unicode="9" horiz-adv-x="1021" d="M33 -150h121q174 0 304 87.5t195 259.5l-4 4q-109 -66 -235 -66q-154 0 -249 94.5t-95 264.5q0 262 132 403t333 141q180 0 294.5 -119.5t114.5 -336.5q0 -420 -216 -674t-593 -254h-102v196zM309 549q0 -106 50.5 -160.5t138.5 -54.5q102 0 182 22q23 96 22 219 q0 143 -53 211t-143 68q-86 0 -141.5 -79t-55.5 -226z" />
<glyph unicode=":" horiz-adv-x="481" d="M53 141q0 84 49.5 135.5t120.5 51.5q66 0 107 -40t41 -120q0 -82 -48.5 -130t-125.5 -48q-68 0 -106 38.5t-38 112.5zM117 793q0 84 49 135t121 51q68 0 108.5 -40t40.5 -120q0 -82 -49 -130t-127 -48q-66 0 -104.5 39t-38.5 113z" />
<glyph unicode=";" horiz-adv-x="481" d="M-4 -229l135 245q-78 35 -78 125q0 84 47 135.5t123 51.5q68 0 108 -42t40 -116q0 -72 -56.5 -169t-122 -163.5t-94.5 -66.5h-102zM117 793q0 84 49 135t121 51q68 0 108.5 -40t40.5 -120q0 -82 -49 -130t-127 -48q-66 0 -104.5 39t-38.5 113z" />
<glyph unicode="&#x3c;" d="M164 545l8 131l643 391l82 -180l-471 -277l-2 -4l422 -278l-113 -174z" />
<glyph unicode="=" d="M121 328l16 188h766l-16 -188h-766zM156 698l16 189h766l-16 -189h-766z" />
<glyph unicode="&#x3e;" d="M164 328l471 276l2 4l-422 279l115 174l567 -391l-8 -131l-643 -392z" />
<glyph unicode="?" horiz-adv-x="905" d="M145 141q0 84 49.5 135.5t120.5 51.5q68 0 109 -40t41 -120q0 -82 -49 -130t-127 -48q-66 0 -105 38.5t-39 112.5zM147 1104v207q152 47 322 47q188 0 293.5 -83t105.5 -210q0 -242 -200 -328l-146 -65q-113 -49 -112 -135q0 -61 8 -103l-191 -12q-37 51 -37 133 q0 84 43 149.5t150 120.5l119 62q102 53 102 139q0 49 -46 82t-134 33q-134 0 -277 -37z" />
<glyph unicode="@" horiz-adv-x="1744" d="M76 248q0 250 75.5 460t203.5 349t296 216t357 77q291 0 476 -181.5t185 -476.5q0 -315 -152.5 -512.5t-345.5 -197.5q-98 0 -146 43t-60 139h-9q-127 -184 -313 -184q-106 0 -171.5 89t-65.5 273q0 326 155.5 507t380.5 181q88 0 150 -20l174 22l-74 -809q-8 -82 47 -82 q94 0 192.5 157t98.5 378q0 258 -142.5 400.5t-394.5 142.5q-152 0 -292 -67t-248.5 -186.5t-173 -302t-64.5 -395.5q0 -264 122 -398t316 -134q123 0 279 47v-119q-84 -33 -144.5 -45t-160.5 -12q-240 0 -395.5 169t-155.5 472zM647 362q0 -170 101 -169q51 0 112.5 47 t114.5 133l41 450q-37 10 -94 11q-113 0 -194 -118t-81 -354z" />
<glyph unicode="A" horiz-adv-x="1132" d="M-57 0l503 1343h363l278 -1343h-284l-58 301h-436l-104 -301h-262zM377 508h338l-105 629h-16z" />
<glyph unicode="B" horiz-adv-x="1105" d="M100 0l101 1343h344q221 0 331.5 -81.5t110.5 -225.5q0 -244 -225 -327v-2q117 -18 181.5 -91t64.5 -184q0 -203 -143.5 -317.5t-385.5 -114.5h-379zM367 190h94q135 0 206.5 56.5t71.5 159.5q0 186 -280 186h-64zM410 774h75q115 0 176.5 56.5t61.5 160.5q0 82 -51 122 t-166 40h-68z" />
<glyph unicode="C" horiz-adv-x="1038" d="M82 588q0 356 203.5 563t490.5 207q141 0 258 -27l-18 -213q-129 25 -244 25q-174 0 -298 -139.5t-124 -393.5q0 -195 98.5 -302t249.5 -107q129 0 271 30v-206q-129 -39 -301 -39q-270 0 -428 159.5t-158 442.5z" />
<glyph unicode="D" horiz-adv-x="1314" d="M100 0l101 1343h374q326 0 492 -151.5t166 -431.5q0 -354 -201 -557t-536 -203h-396zM369 205h149q209 0 327 128t118 398q0 408 -420 408h-105z" />
<glyph unicode="E" horiz-adv-x="874" d="M100 0l101 1343h663l-16 -206h-410l-24 -346h381l-15 -207h-383l-28 -377h428v-207h-697z" />
<glyph unicode="F" horiz-adv-x="862" d="M100 0l101 1343h669l-14 -206h-418l-26 -361h401l-16 -207h-400l-43 -569h-254z" />
<glyph unicode="G" horiz-adv-x="1224" d="M82 571q0 379 207 583t538 204q176 0 312 -27l-13 -215q-145 27 -313 27q-213 0 -338 -139.5t-125 -397.5q0 -186 99.5 -297.5t252.5 -111.5q92 0 154 6l21 270h-185v207h443l-48 -655q-164 -39 -403 -39q-281 0 -441.5 154.5t-160.5 430.5z" />
<glyph unicode="H" horiz-adv-x="1284" d="M100 0l101 1343h254l-41 -546h485l41 546h254l-100 -1343h-254l43 578h-486l-43 -578h-254z" />
<glyph unicode="I" horiz-adv-x="544" d="M100 0l101 1343h254l-101 -1343h-254z" />
<glyph unicode="J" horiz-adv-x="630" d="M-14 4v213q49 -12 114 -12q43 0 75 27.5t34 70.5l78 1040h254l-76 -1017q-14 -178 -99 -258t-262 -80q-69 0 -118 16z" />
<glyph unicode="K" horiz-adv-x="1124" d="M100 0l101 1343h254l-43 -552h69l406 550h289l-488 -616l447 -725h-308l-356 596h-74l-43 -596h-254z" />
<glyph unicode="L" horiz-adv-x="847" d="M100 0l101 1343h254l-84 -1136h426v-207h-697z" />
<glyph unicode="M" horiz-adv-x="1558" d="M47 0l191 1343h374l146 -854h10l311 854h363l-45 -1343h-260l61 1104h-14l-334 -877h-256l-164 877h-12l-137 -1104h-234z" />
<glyph unicode="N" horiz-adv-x="1243" d="M100 0l101 1343h360l279 -1058h10l76 1058h227l-100 -1343h-361l-276 1059h-10l-78 -1059h-228z" />
<glyph unicode="O" horiz-adv-x="1325" d="M80 551q0 387 179 597t482 210q229 0 366.5 -157t137.5 -445q0 -365 -185.5 -568.5t-473.5 -203.5q-233 0 -369.5 143t-136.5 424zM350 578q0 -188 75 -280.5t202 -92.5q158 0 253 128t95 394q0 209 -75 309.5t-202 100.5q-156 0 -252 -146.5t-96 -412.5z" />
<glyph unicode="P" horiz-adv-x="1038" d="M100 0l101 1343h356q236 0 352.5 -99t116.5 -277q0 -238 -141.5 -369t-399.5 -131q-37 0 -94 10l-37 -477h-254zM403 676q49 -10 99 -10q119 0 186.5 69.5t67.5 194.5q0 213 -238 213h-80z" />
<glyph unicode="Q" horiz-adv-x="1325" d="M80 551q0 387 179 597t482 210q229 0 366.5 -157t137.5 -445q0 -274 -107.5 -458.5t-291.5 -262.5l287 -389h-302l-233 338h-12q-233 0 -369.5 143t-136.5 424zM350 578q0 -188 75 -280.5t202 -92.5q158 0 253 128t95 394q0 209 -75 309.5t-202 100.5q-156 0 -252 -146.5 t-96 -412.5z" />
<glyph unicode="R" horiz-adv-x="1087" d="M100 0l101 1343h379q223 0 338.5 -98t115.5 -282q0 -143 -69.5 -246t-190.5 -146l137 -264q78 -145 189 -307h-295q-92 119 -158 260l-115 250h-141l-37 -510h-254zM406 702h139q98 0 157.5 62.5t59.5 181.5q0 197 -223 197h-101z" />
<glyph unicode="S" horiz-adv-x="880" d="M-4 8v217q166 -35 307 -35q119 0 184.5 45.5t65.5 108.5q0 59 -27.5 99t-113.5 96l-160 102q-94 63 -135 135t-41 174q0 176 143 291t356 115q139 0 254 -27l-18 -211q-123 29 -250 29q-102 0 -163.5 -43t-61.5 -103q0 -55 29.5 -95t119.5 -95l148 -92q102 -63 144 -133 t42 -178q0 -188 -148.5 -308t-387.5 -120q-146 -1 -287 28z" />
<glyph unicode="T" horiz-adv-x="946" d="M37 1141l14 202h953l-17 -202h-352l-84 -1141h-254l84 1141h-344z" />
<glyph unicode="U" horiz-adv-x="1236" d="M115 463l65 880h254l-63 -856q-2 -20 -2 -39q0 -237 239 -237q240 0 258 254l68 878h233l-63 -864q-39 -496 -522 -495q-256 0 -371 118q-99 102 -99 296q0 32 3 65z" />
<glyph unicode="V" horiz-adv-x="1040" d="M33 1343h280l181 -1107h16l354 1107h256l-461 -1343h-366z" />
<glyph unicode="W" horiz-adv-x="1701" d="M35 1343h278l168 -1107h11l282 823l-61 284h276l205 -1107h10l289 1107h256l-412 -1343h-342l-137 700h-6l-240 -700h-346z" />
<glyph unicode="X" horiz-adv-x="1017" d="M-45 0l393 678l-280 665h284l170 -452h15l237 452h250l-356 -614l338 -729h-283l-227 504h-11l-264 -504h-266z" />
<glyph unicode="Y" horiz-adv-x="919" d="M-12 1343h286l197 -550h6l289 550h258l-461 -792l-41 -551h-254l43 549z" />
<glyph unicode="Z" horiz-adv-x="937" d="M6 0v184l627 942v9h-543l12 208h832l6 -180l-627 -946v-8h564v-209h-871z" />
<glyph unicode="[" horiz-adv-x="546" d="M109 -365l147 1708h340l-12 -145h-164l-123 -1417h166l-12 -146h-342z" />
<glyph unicode="\" horiz-adv-x="598" d="M-41 1321l182 57l471 -1712l-184 -57z" />
<glyph unicode="]" horiz-adv-x="546" d="M-47 -365l12 146h164l123 1417h-166l12 145h342l-147 -1708h-340z" />
<glyph unicode="^" d="M86 920l446 448l447 -448l-137 -138l-310 312l-309 -312z" />
<glyph unicode="_" horiz-adv-x="1032" d="M2 -82h1024v-188h-1024v188z" />
<glyph unicode="`" horiz-adv-x="858" d="M164 1425h252l112 -297h-178z" />
<glyph unicode="a" horiz-adv-x="999" d="M59 342q0 326 156 507t381 181q86 0 147 -20l177 22l-93 -1032h-229l18 164h-6q-123 -184 -313 -184q-106 0 -172 89t-66 273zM301 362q0 -170 100 -169q51 0 114 48t114 134l41 448q-35 10 -95 11q-113 0 -193.5 -118t-80.5 -354z" />
<glyph unicode="b" horiz-adv-x="985" d="M78 -18l129 1435l235 19l-53 -553h6q111 150 271 149q266 0 266 -373q0 -334 -151.5 -504.5t-381.5 -170.5q-88 0 -151 20zM328 190q37 -10 88 -10q119 0 195.5 111.5t76.5 357.5q0 92 -27.5 127t-80.5 35q-98 0 -207 -102z" />
<glyph unicode="c" horiz-adv-x="679" d="M66 360q0 340 132 506t339 166q96 0 178 -20l-15 -203q-86 14 -161 14q-229 0 -230 -430q0 -106 44 -158.5t118 -52.5q82 0 176 31v-193q-96 -37 -213 -36q-182 0 -275 89.5t-93 286.5z" />
<glyph unicode="d" horiz-adv-x="999" d="M59 342q0 326 156 507t381 181q55 0 90 -8l35 395l235 19l-129 -1436h-229l18 164h-6q-125 -184 -313 -184q-106 0 -172 89t-66 273zM301 362q0 -170 100 -169q51 0 112.5 47t115.5 135l41 448q-35 10 -95 11q-113 0 -193.5 -118t-80.5 -354z" />
<glyph unicode="e" horiz-adv-x="870" d="M68 358q0 336 130 505t337 169q307 0 307 -246q0 -188 -144.5 -304.5t-392.5 -116.5q0 -182 156 -183q137 0 289 68v-189q-158 -78 -336 -77q-346 -1 -346 374zM315 524q135 0 211 61.5t76 162.5q0 106 -98 106q-61 0 -118 -85t-71 -245z" />
<glyph unicode="f" horiz-adv-x="577" d="M74 -391l102 1235h-102v172h121l8 78q33 342 393 342q92 0 152 -17l-21 -184q-66 12 -141 12q-61 0 -103.5 -40t-50.5 -111l-6 -80h207l-17 -172h-206l-105 -1235h-231z" />
<glyph unicode="g" horiz-adv-x="999" d="M41 -162q160 -53 324 -53q211 0 237 231l16 152h-6q-127 -188 -315 -188q-106 0 -172 89t-66 273q0 326 156 507t381 181q86 0 147 -20l177 22l-91 -1018q-16 -190 -146 -302.5t-314 -112.5q-188 0 -328 32v207zM301 362q0 -170 100 -169q51 0 112.5 47t115.5 135l41 448 q-35 10 -95 11q-113 0 -193.5 -118t-80.5 -354z" />
<glyph unicode="h" horiz-adv-x="1007" d="M80 0l127 1417l235 19l-51 -547h6q131 143 289 143q229 0 229 -277q0 -33 -4 -71l-65 -684h-234l62 655q2 23 2 42q0 47 -14 68q-20 30 -74 30q-98 0 -213 -95l-62 -700h-233z" />
<glyph unicode="i" horiz-adv-x="485" d="M80 0l90 1008l236 18l-93 -1026h-233zM174 1284q0 70 39 109t106 39q59 0 92 -34t33 -89q0 -68 -38.5 -108t-108.5 -40q-123 0 -123 123z" />
<glyph unicode="j" horiz-adv-x="485" d="M-86 -197q145 0 160 140l96 1065l236 18l-97 -1067q-14 -164 -111.5 -257t-230.5 -93h-53v194zM174 1284q0 70 39 109t106 39q59 0 92 -34t33 -89q0 -68 -38.5 -108t-108.5 -40q-123 0 -123 123z" />
<glyph unicode="k" horiz-adv-x="956" d="M80 0l127 1417l235 19l-47 -512h11q111 109 243 108q127 0 200 -68.5t73 -187.5q0 -121 -64.5 -216t-173.5 -138l113 -217q53 -102 133 -205h-281q-55 61 -98 152l-84 184l-127 -21l-27 -315h-233zM352 477l84 17q113 23 179.5 86t66.5 137q0 102 -111 102 q-106 0 -194 -71z" />
<glyph unicode="l" horiz-adv-x="485" d="M80 0l127 1417l235 19l-129 -1436h-233z" />
<glyph unicode="m" horiz-adv-x="1503" d="M80 0l90 1008l229 18l-12 -139h6q80 80 143.5 112.5t141.5 32.5q164 0 203 -155h4q162 156 307 155q219 0 219 -271q0 -36 -4 -77l-66 -684h-233l61 655q2 23 3 42q0 45 -14 67q-19 31 -71 31q-82 0 -196 -93l-62 -702h-233l59 655q3 28 3 49q0 46 -12 64q-17 27 -71 27 q-86 0 -200 -95l-62 -700h-233z" />
<glyph unicode="n" horiz-adv-x="1007" d="M80 0l90 1008l229 18l-12 -139h6q139 145 293 145q229 0 229 -271q0 -36 -4 -77l-65 -684h-234l62 655q2 23 2 42q0 47 -14 68q-20 30 -76 30q-96 0 -211 -95l-62 -700h-233z" />
<glyph unicode="o" horiz-adv-x="983" d="M70 401q0 297 133 467t334 170q178 0 277 -109.5t99 -318.5q0 -291 -134 -460.5t-328 -169.5q-381 -1 -381 421zM309 420q0 -246 158 -246q82 0 145.5 103.5t63.5 300.5q0 264 -158 264q-88 0 -148.5 -107.5t-60.5 -314.5z" />
<glyph unicode="p" horiz-adv-x="985" d="M45 -391l125 1399l231 18l-14 -145h6q125 152 273 151q266 0 266 -373q0 -330 -150.5 -502.5t-373.5 -172.5q-39 0 -97 8l-32 -383h-234zM328 190q37 -10 94 -10q115 0 190.5 114t75.5 355q0 92 -27.5 127t-82.5 35q-96 0 -205 -102z" />
<glyph unicode="q" horiz-adv-x="999" d="M59 342q0 326 156 507t381 181q84 0 145 -20l179 22l-127 -1423h-234l57 555h-6q-127 -184 -313 -184q-104 0 -171 89t-67 273zM301 362q0 -170 100 -169q53 0 113.5 48t114.5 134l41 448q-35 10 -99 11q-109 0 -189.5 -119.5t-80.5 -352.5z" />
<glyph unicode="r" horiz-adv-x="651" d="M80 0l90 1008l225 18l-18 -201h10q59 117 107.5 159t117.5 42q43 0 84 -16l-24 -236q-43 8 -80 8q-121 0 -223 -145l-56 -637h-233z" />
<glyph unicode="s" horiz-adv-x="708" d="M18 217q121 -35 234 -35q166 0 166 88q0 35 -18.5 59.5t-73.5 61.5l-105 68q-76 53 -110.5 109.5t-34.5 138.5q0 137 102.5 226t278.5 89q129 0 215 -14l-10 -203q-156 18 -203 18q-154 0 -154 -82q0 -57 84 -110l96 -58q100 -59 137 -115.5t37 -144.5 q0 -139 -117.5 -235t-297.5 -96q-125 0 -224 26z" />
<glyph unicode="t" horiz-adv-x="634" d="M80 844v172h110l19 217l235 22l-24 -239h198l-16 -172h-196l-48 -498q-3 -25 -2 -46q0 -117 76 -118q59 0 135 29v-193q-102 -37 -225 -36q-223 0 -223 264q0 36 4 78l51 520h-94z" />
<glyph unicode="u" horiz-adv-x="1001" d="M94 338l64 670l235 18l-63 -666q-2 -30 -3 -53q0 -57 14 -81q19 -34 75 -33q88 0 209 139l59 676l236 18l-93 -1026h-229l16 143h-6q-145 -164 -293 -163q-226 0 -225 274q-1 39 4 84z" />
<glyph unicode="v" horiz-adv-x="843" d="M53 1016h248l82 -828h14l64 146q119 270 186 682h225q-59 -397 -229 -737l-139 -279h-318z" />
<glyph unicode="w" horiz-adv-x="1368" d="M53 1016h248l82 -828h12l60 142q102 244 166 504l-33 182h241l117 -828h10l56 148q94 256 149 680h225q-53 -418 -196 -737l-127 -279h-307l-62 561h-8q-39 -174 -119 -366l-82 -195h-299z" />
<glyph unicode="x" horiz-adv-x="858" d="M-20 0q100 229 225 399l94 129l-225 488h250l129 -328h6l63 103q57 94 103 225h227q-57 -176 -180 -338l-107 -139l248 -539h-252l-155 365h-7l-69 -115q-66 -104 -123 -250h-227z" />
<glyph unicode="y" horiz-adv-x="778" d="M-92 -205q72 -10 123 -10q63 0 128.5 54.5t96.5 146.5l12 37h-59l-197 993h248l115 -760h12l66 174q86 223 145 586h225q-41 -227 -84 -369.5t-137 -349.5l-131 -291q-96 -223 -202.5 -315t-245.5 -92q-63 0 -115 14v182z" />
<glyph unicode="z" horiz-adv-x="712" d="M-2 0v188l453 625v8h-390l21 195h618l15 -180l-457 -633v-8h414v-195h-674z" />
<glyph unicode="{" horiz-adv-x="624" d="M39 418l14 149q117 16 175.5 61.5t62.5 104.5l35 367q10 121 81.5 189.5t186.5 68.5q61 0 92 -8l-14 -131q-88 0 -126 -20.5t-44 -78.5l-33 -358q-23 -242 -328 -275v-4q156 -10 223.5 -65.5t59.5 -165.5l-35 -371q-6 -66 28 -89t126 -23l-8 -127q-51 -14 -93 -15 q-129 0 -187 52.5t-48 156.5l37 391q6 63 -42 112.5t-163 78.5z" />
<glyph unicode="|" horiz-adv-x="464" d="M135 -356v1699h193v-1699h-193z" />
<glyph unicode="}" horiz-adv-x="624" d="M-55 -365l12 132q90 0 128 20t44 78l33 358q23 242 325 275v4q-154 10 -221 65.5t-59 165.5l35 371q6 66 -28 89.5t-126 23.5l8 126q47 14 92 15q129 0 186.5 -52.5t47.5 -156.5l-37 -391q-6 -63 43 -112.5t164 -78.5l-14 -149q-117 -16 -175.5 -61.5t-62.5 -104.5 l-35 -367q-10 -121 -82.5 -189.5t-187.5 -68.5q-59 0 -90 8z" />
<glyph unicode="~" d="M139 639q117 150 258 149q68 0 166.5 -77.5t145.5 -77.5q88 0 165 98l48 -153q-55 -74 -109.5 -110t-132.5 -36q-61 0 -163.5 78t-151.5 78q-90 0 -177 -105z" />
<glyph unicode="&#xa1;" horiz-adv-x="610" d="M125 -340l68 612l26 314l236 8l-76 -909zM203 850q0 80 48 129t126 49q66 0 104.5 -40t38.5 -114q0 -84 -49 -135t-121 -51q-68 0 -107.5 41t-39.5 121z" />
<glyph unicode="&#xa2;" d="M145 668q18 197 123 332t258 178l17 208h172l-17 -190q76 -2 158 -25l-37 -227q-88 16 -160 17q-113 0 -185.5 -74t-86.5 -209q-12 -154 52.5 -230.5t181.5 -76.5q84 0 172 24v-213q-59 -18 -168 -30l-11 -195h-172l13 207q-345 66 -310 504z" />
<glyph unicode="&#xa3;" d="M31 0l20 199h90q57 63 68 176l18 243h-118l18 185h119l16 164q16 182 130 284.5t313 102.5q115 0 198 -25l-20 -209q-84 25 -211 25q-139 0 -156 -170l-16 -172h256l-19 -185h-254l-18 -229q-8 -109 -53 -190h250q119 0 235 41l-20 -203q-90 -37 -248 -37h-598z" />
<glyph unicode="&#xa4;" d="M115 324l121 118q-43 70 -43 164q0 92 43 164l-121 119l133 133l119 -121q74 43 163 43q88 0 164 -43l119 121l135 -133l-125 -119q45 -84 45 -164q0 -92 -43 -166l121 -114l-133 -131l-119 116q-70 -43 -164 -43t-163 43l-119 -121zM369 606.5q0 -67.5 47 -115 t114.5 -47.5t114.5 47.5t47 115t-47 114.5t-114.5 47t-114.5 -47t-47 -114.5z" />
<glyph unicode="&#xa5;" d="M80 1343h285l194 -546h6l289 546h258l-375 -647h197l-12 -184h-273l-12 -150h274l-14 -184h-272l-15 -178h-254l15 178h-262l16 184h258l12 150h-262l12 184h193z" />
<glyph unicode="&#xa6;" horiz-adv-x="464" d="M135 209h191v-565h-191v565zM135 778v565h191v-565h-191z" />
<glyph unicode="&#xa7;" horiz-adv-x="987" d="M23 -119q166 -33 331 -33q133 0 207 54.5t74 124.5q0 61 -45 100q-49 -12 -98 -12q-168 0 -281 112.5t-113 280.5q0 127 70 217q-51 78 -51 199q0 203 139 318.5t395 115.5q141 0 273 -27l-33 -221q-133 27 -268 27q-256 0 -256 -174q0 -39 22 -74q45 12 103 12 q168 0 279.5 -111.5t111.5 -281.5q0 -123 -64 -215q72 -82 72 -207q0 -205 -152.5 -332t-406.5 -127q-170 0 -309 25v229zM305 508q0 -82 54.5 -136.5t132 -54.5t130 54.5t52.5 136.5t-52.5 135t-130 53t-132 -53t-54.5 -135z" />
<glyph unicode="&#xa8;" horiz-adv-x="864" d="M166 1255q0 63 31.5 106.5t93.5 43.5q45 0 73.5 -28.5t28.5 -71.5q0 -66 -32.5 -110t-96.5 -44q-43 0 -70.5 29.5t-27.5 74.5zM508 1255q0 63 31.5 106.5t93.5 43.5q45 0 73.5 -28.5t28.5 -71.5q0 -66 -32.5 -110t-96.5 -44q-43 0 -70.5 29.5t-27.5 74.5z" />
<glyph unicode="&#xa9;" horiz-adv-x="1585" d="M94 670q0 285 205 488.5t491.5 203.5t490.5 -204t204 -488q0 -287 -204 -491t-490.5 -204t-491.5 204t-205 491zM215 669.5q0 -239.5 168 -411.5t408 -172q238 0 405.5 172t167.5 411.5t-168 410.5t-405 171q-240 0 -408 -171t-168 -410.5zM420 614q0 215 135 339 t330 124q53 0 151 -16l-4 -160q-104 12 -149 12q-115 0 -190 -75.5t-75 -208.5q0 -104 62.5 -159.5t169.5 -55.5q57 0 151 18l-2 -156q-82 -25 -170 -24q-188 0 -298.5 96t-110.5 266z" />
<glyph unicode="&#xaa;" horiz-adv-x="720" d="M102 907q0 215 110 331t280 116q51 0 104 -15l143 15l-65 -676h-193l11 100h-5q-94 -115 -223 -114q-72 0 -117 58t-45 185zM305 926q0 -94 53 -95q76 0 138 80l30 283q-20 6 -51 6q-76 0 -123 -65.5t-47 -208.5z" />
<glyph unicode="&#xab;" horiz-adv-x="1148" d="M76 514l348 438h229l-327 -428l264 -448h-230zM498 514l346 438h229l-325 -428l262 -448h-230z" />
<glyph unicode="&#xac;" d="M127 692v199h807v-531h-199v332h-608z" />
<glyph unicode="&#xad;" horiz-adv-x="776" d="M123 481v211h528v-211h-528z" />
<glyph unicode="&#xae;" horiz-adv-x="1585" d="M94 670q0 285 205 488.5t491.5 203.5t490.5 -204t204 -488q0 -287 -204 -491t-490.5 -204t-491.5 204t-205 491zM215 669.5q0 -239.5 168 -411.5t408 -172q238 0 405.5 172t167.5 411.5t-168 410.5t-405 171q-240 0 -408 -171t-168 -410.5zM475 260l64 809h264 q141 0 220 -62.5t79 -170.5q0 -182 -160 -250l82 -142q47 -86 125 -184h-219q-63 82 -99 152l-69 137h-76l-22 -289h-189zM696 692h78q57 0 92 35t35 92q0 109 -137 109h-51z" />
<glyph unicode="&#xaf;" horiz-adv-x="784" d="M127 1141l10 157h516l-10 -157h-516z" />
<glyph unicode="&#xb0;" horiz-adv-x="761" d="M70 1042.5q0 131.5 91 223.5t222 92t223 -92t92 -223.5t-92 -222.5t-223 -91t-222 91t-91 222.5zM244 1042.5q0 -61.5 40 -102.5t99 -41t101 41t42 102.5t-42 103.5t-101 42t-99 -42t-40 -103.5z" />
<glyph unicode="&#xb1;" d="M100 0l17 186h766l-17 -186h-766zM147 539l19 186h287l26 309h191l-27 -309h289l-19 -186h-288l-27 -287h-190l26 287h-287z" />
<glyph unicode="&#xb2;" horiz-adv-x="765" d="M84 672q47 158 209 260l96 61q98 66 98 150q0 96 -135 96q-92 0 -188 -37v178q104 33 246 33q143 0 216.5 -64.5t73.5 -181.5q0 -96 -42 -158.5t-152 -127.5l-76 -45q-121 -72 -149 -138h411v-168h-602z" />
<glyph unicode="&#xb3;" horiz-adv-x="765" d="M102 518v162h131q256 0 256 133q0 92 -92 131q-94 -51 -190 -65l-25 139q219 61 365 217h-377v168h539l10 -184q-78 -90 -199 -158v-4q76 -23 124 -83.5t48 -133.5q0 -150 -126 -236t-341 -86h-123z" />
<glyph unicode="&#xb4;" horiz-adv-x="858" d="M346 1128l166 297h254l-240 -297h-180z" />
<glyph unicode="&#xb5;" horiz-adv-x="1001" d="M51 -82l107 1090l235 18l-63 -666q-10 -96 10 -135t74 -39q80 0 209 146l61 676l234 18l-58 -702q-10 -141 55 -142q37 0 70 8v-192q-76 -16 -164 -16q-152 0 -209 149h-6q-135 -147 -291 -147q-20 0 -36 8l-5 -55q-14 -180 29 -328h-229q-39 145 -23 309z" />
<glyph unicode="&#xb6;" horiz-adv-x="1361" d="M59 668q0 315 167 497.5t468 182.5q35 0 88.5 -2.5t79.5 -2.5h477l-176 -1880h-237l159 1690h-176l-159 -1690h-170l69 746q-63 -23 -174 -23q-190 0 -303 118t-113 364z" />
<glyph unicode="&#xb7;" horiz-adv-x="481" d="M98 608q0 84 49.5 135.5t120.5 51.5q66 0 107 -40t41 -120q0 -82 -48.5 -130t-125.5 -48q-68 0 -106 38.5t-38 112.5z" />
<glyph unicode="&#xb8;" horiz-adv-x="1591" d="M199 -258h100q141 0 141 49q0 23 -23.5 33t-94.5 10h-58l25 109h147q174 0 174 -121q0 -92 -82 -152.5t-243 -60.5h-86v133z" />
<glyph unicode="&#xb9;" horiz-adv-x="765" d="M162 1225v129q160 49 291 49h116l-71 -873h-215l59 707q-82 0 -180 -12z" />
<glyph unicode="&#xba;" horiz-adv-x="698" d="M88 940q0 195 97.5 304.5t248.5 109.5q129 0 206 -74t77 -211q0 -193 -97.5 -302.5t-240.5 -109.5q-135 0 -213 70t-78 213zM295 950q0 -131 98 -131q47 0 86 57.5t39 165.5q0 152 -98 152q-53 0 -89 -59.5t-36 -184.5z" />
<glyph unicode="&#xbb;" horiz-adv-x="1148" d="M82 76l328 428l-265 448h230l284 -438l-348 -438h-229zM504 76l327 428l-264 448h230l284 -438l-348 -438h-229z" />
<glyph unicode="&#xbc;" horiz-adv-x="1667" d="M240 1225v129q156 49 290 49h117l-72 -873h-215l58 707q-80 0 -178 -12zM307 -221l922 1622l141 -84l-921 -1622zM870 -2q45 162 160 313.5t262 253.5h213l-49 -547h98v-163h-112l-12 -162h-193l14 162h-352zM1040 18h224l36 369h-4q-168 -146 -256 -369z" />
<glyph unicode="&#xbd;" horiz-adv-x="1667" d="M240 1225v129q156 49 290 49h117l-72 -873h-215l58 707q-80 0 -178 -12zM307 -221l922 1622l141 -84l-921 -1622zM969 -166q47 158 209 260l96 62q98 66 98 149q0 96 -135 96q-92 0 -188 -36v178q104 33 245 32q143 0 217 -64.5t74 -180.5q0 -96 -42 -158.5t-152 -128.5 l-76 -45q-121 -72 -150 -137h412v-168h-602z" />
<glyph unicode="&#xbe;" horiz-adv-x="1667" d="M139 518v162h131q256 0 256 133q0 92 -92 131q-94 -51 -190 -65l-25 139q219 61 365 217h-377v168h538l11 -184q-78 -90 -199 -158v-4q76 -23 124 -83.5t48 -133.5q0 -150 -126 -236t-341 -86h-123zM307 -221l922 1622l141 -84l-921 -1622zM870 -2q45 162 160 313.5 t262 253.5h213l-49 -547h98v-163h-112l-12 -162h-193l14 162h-352zM1040 18h224l36 369h-4q-168 -146 -256 -369z" />
<glyph unicode="&#xbf;" horiz-adv-x="905" d="M35 -49q0 242 198 328l146 65q66 29 90.5 60.5t24.5 76.5q0 53 -11 101l193 12q37 -53 37 -131q0 -86 -43 -150.5t-150 -119.5l-121 -64q-55 -29 -77.5 -59.5t-22.5 -79.5t45 -82t133 -33q135 0 277 37v-207q-160 -47 -320 -47q-188 0 -293.5 84t-105.5 209zM438 850 q0 80 48.5 129t125.5 49q68 0 106 -40t38 -114q0 -84 -49.5 -135t-120.5 -51q-66 0 -107 41t-41 121z" />
<glyph unicode="&#xc0;" horiz-adv-x="1132" d="M-57 0l503 1343h363l278 -1343h-284l-58 301h-436l-104 -301h-262zM326 1774h252l112 -297h-178zM377 508h338l-105 629h-16z" />
<glyph unicode="&#xc1;" horiz-adv-x="1132" d="M-57 0l503 1343h363l278 -1343h-284l-58 301h-436l-104 -301h-262zM377 508h338l-105 629h-16zM477 1477l166 297h254l-240 -297h-180z" />
<glyph unicode="&#xc2;" horiz-adv-x="1132" d="M-57 0l503 1343h363l278 -1343h-284l-58 301h-436l-104 -301h-262zM317 1477l246 297h213l174 -297h-207l-94 172h-12l-125 -172h-195zM377 508h338l-105 629h-16z" />
<glyph unicode="&#xc3;" horiz-adv-x="1132" d="M-57 0l503 1343h363l278 -1343h-284l-58 301h-436l-104 -301h-262zM326 1642q90 127 204 127q49 0 134.5 -59t119.5 -59q63 0 119 69l33 -147q-76 -111 -184 -111q-43 0 -128 59.5t-126 59.5q-68 0 -140 -86zM377 508h338l-105 629h-16z" />
<glyph unicode="&#xc4;" horiz-adv-x="1132" d="M-57 0l503 1343h363l278 -1343h-284l-58 301h-436l-104 -301h-262zM330 1567q0 63 32.5 106t94.5 43q45 0 72.5 -28.5t27.5 -71.5q0 -68 -31.5 -111t-97.5 -43q-43 0 -70.5 31t-27.5 74zM377 508h338l-105 629h-16zM692 1567q0 63 32 106t93 43q45 0 74 -28.5t29 -71.5 q0 -66 -33 -110t-96 -44q-43 0 -71 30t-28 75z" />
<glyph unicode="&#xc5;" horiz-adv-x="1132" d="M-57 0l503 1343h363l278 -1343h-284l-58 301h-436l-104 -301h-262zM377 508h338l-105 629h-16zM459 1620q0 88 58 146.5t142 58.5q70 0 117 -48t47 -120q0 -90 -55 -147.5t-143 -57.5q-70 0 -118 49t-48 119zM573 1632q0 -74 64 -73q35 0 55.5 23.5t20.5 59.5 q0 35 -18.5 56.5t-47.5 21.5q-35 0 -54.5 -24.5t-19.5 -63.5z" />
<glyph unicode="&#xc6;" horiz-adv-x="1538" d="M-78 0l807 1343h797l-15 -206h-409l-25 -346h381l-16 -207h-381l-29 -377h428v-207h-696l22 301h-428l-172 -301h-264zM481 508h320l47 622h-10z" />
<glyph unicode="&#xc7;" horiz-adv-x="1038" d="M82 588q0 356 203.5 563t490.5 207q141 0 258 -27l-18 -213q-129 25 -244 25q-174 0 -298 -139.5t-124 -393.5q0 -195 98.5 -302t249.5 -107q129 0 271 30v-206q-129 -39 -301 -39q-270 0 -428 159.5t-158 442.5zM338 -254h111q145 0 145 49q0 23 -24.5 33t-102.5 10h-61 l20 113h127q209 0 209 -129q0 -94 -83 -153.5t-245 -59.5h-96v137z" />
<glyph unicode="&#xc8;" horiz-adv-x="874" d="M100 0l101 1343h663l-16 -206h-410l-24 -346h381l-15 -207h-383l-28 -377h428v-207h-697zM283 1774h252l112 -297h-178z" />
<glyph unicode="&#xc9;" horiz-adv-x="874" d="M100 0l101 1343h663l-16 -206h-410l-24 -346h381l-15 -207h-383l-28 -377h428v-207h-697zM440 1477l166 297h254l-239 -297h-181z" />
<glyph unicode="&#xca;" horiz-adv-x="874" d="M100 0l101 1343h663l-16 -206h-410l-24 -346h381l-15 -207h-383l-28 -377h428v-207h-697zM215 1477l246 297h213l174 -297h-207l-94 172h-12l-125 -172h-195z" />
<glyph unicode="&#xcb;" horiz-adv-x="874" d="M100 0l101 1343h663l-16 -206h-410l-24 -346h381l-15 -207h-383l-28 -377h428v-207h-697zM260 1567q0 63 33 106t94 43q45 0 72.5 -28.5t27.5 -71.5q0 -68 -31.5 -111t-97.5 -43q-43 0 -70.5 31t-27.5 74zM623 1567q0 63 31.5 106t93.5 43q45 0 73.5 -28.5t28.5 -71.5 q0 -66 -33 -110t-96 -44q-43 0 -70.5 30t-27.5 75z" />
<glyph unicode="&#xcc;" horiz-adv-x="544" d="M76 1774h252l112 -297h-178zM100 0l101 1343h254l-101 -1343h-254z" />
<glyph unicode="&#xcd;" horiz-adv-x="544" d="M100 0l101 1343h254l-101 -1343h-254zM207 1477l166 297h254l-240 -297h-180z" />
<glyph unicode="&#xce;" horiz-adv-x="544" d="M16 1477l246 297h213l174 -297h-207l-94 172h-12l-125 -172h-195zM100 0l101 1343h254l-101 -1343h-254z" />
<glyph unicode="&#xcf;" horiz-adv-x="544" d="M55 1567q0 63 33 106t94 43q45 0 73 -28.5t28 -71.5q0 -68 -32 -111t-97 -43q-43 0 -71 31t-28 74zM100 0l101 1343h254l-101 -1343h-254zM418 1567q0 63 31.5 106t93.5 43q45 0 73.5 -28.5t28.5 -71.5q0 -66 -32.5 -110t-96.5 -44q-43 0 -70.5 30t-27.5 75z" />
<glyph unicode="&#xd0;" horiz-adv-x="1314" d="M-4 575l16 218h146l43 550h374q326 0 492 -151.5t166 -431.5q0 -354 -201 -557t-536 -203h-396l43 575h-147zM371 205h147q209 0 327 128t118 398q0 408 -420 408h-105l-26 -346h264l-14 -218h-265z" />
<glyph unicode="&#xd1;" horiz-adv-x="1243" d="M100 0l101 1343h360l279 -1058h10l76 1058h227l-100 -1343h-361l-276 1059h-10l-78 -1059h-228zM412 1642q90 127 204 127q49 0 134.5 -59t119.5 -59q63 0 119 69l33 -147q-76 -111 -184 -111q-43 0 -128 59.5t-126 59.5q-68 0 -140 -86z" />
<glyph unicode="&#xd2;" horiz-adv-x="1325" d="M80 551q0 387 179 597t482 210q229 0 366.5 -157t137.5 -445q0 -365 -185.5 -568.5t-473.5 -203.5q-233 0 -369.5 143t-136.5 424zM350 578q0 -188 75 -280.5t202 -92.5q158 0 253 128t95 394q0 209 -75 309.5t-202 100.5q-156 0 -252 -146.5t-96 -412.5zM455 1774h252 l112 -297h-178z" />
<glyph unicode="&#xd3;" horiz-adv-x="1325" d="M80 551q0 387 179 597t482 210q229 0 366.5 -157t137.5 -445q0 -365 -185.5 -568.5t-473.5 -203.5q-233 0 -369.5 143t-136.5 424zM350 578q0 -188 75 -280.5t202 -92.5q158 0 253 128t95 394q0 209 -75 309.5t-202 100.5q-156 0 -252 -146.5t-96 -412.5zM612 1477 l166 297h254l-239 -297h-181z" />
<glyph unicode="&#xd4;" horiz-adv-x="1325" d="M80 551q0 387 179 597t482 210q229 0 366.5 -157t137.5 -445q0 -365 -185.5 -568.5t-473.5 -203.5q-233 0 -369.5 143t-136.5 424zM350 578q0 -188 75 -280.5t202 -92.5q158 0 253 128t95 394q0 209 -75 309.5t-202 100.5q-156 0 -252 -146.5t-96 -412.5zM434 1477 l246 297h213l174 -297h-207l-94 172h-12l-125 -172h-195z" />
<glyph unicode="&#xd5;" horiz-adv-x="1325" d="M80 551q0 387 179 597t482 210q229 0 366.5 -157t137.5 -445q0 -365 -185.5 -568.5t-473.5 -203.5q-233 0 -369.5 143t-136.5 424zM350 578q0 -188 75 -280.5t202 -92.5q158 0 253 128t95 394q0 209 -75 309.5t-202 100.5q-156 0 -252 -146.5t-96 -412.5zM424 1642 q90 127 205 127q49 0 134 -59t120 -59q63 0 118 69l33 -147q-76 -111 -184 -111q-43 0 -128 59.5t-126 59.5q-68 0 -139 -86z" />
<glyph unicode="&#xd6;" horiz-adv-x="1325" d="M80 551q0 387 179 597t482 210q229 0 366.5 -157t137.5 -445q0 -365 -185.5 -568.5t-473.5 -203.5q-233 0 -369.5 143t-136.5 424zM350 578q0 -188 75 -280.5t202 -92.5q158 0 253 128t95 394q0 209 -75 309.5t-202 100.5q-156 0 -252 -146.5t-96 -412.5zM434 1567 q0 63 33 106t94 43q45 0 73 -28.5t28 -71.5q0 -68 -32 -111t-98 -43q-43 0 -70.5 31t-27.5 74zM797 1567q0 63 31.5 106t93.5 43q45 0 73.5 -28.5t28.5 -71.5q0 -66 -33 -110t-96 -44q-43 0 -70.5 30t-27.5 75z" />
<glyph unicode="&#xd7;" d="M156 373l241 231l-202 234l149 139l197 -234l243 234l115 -137l-237 -232l198 -233l-145 -142l-197 236l-244 -231z" />
<glyph unicode="&#xd8;" horiz-adv-x="1325" d="M80 551q0 387 179 597t482 210q98 0 193 -33l59 100l113 -61l-59 -102q199 -156 198 -506q0 -365 -185.5 -568.5t-473.5 -203.5q-141 0 -248 53l-68 -121l-112 61l73 134q-151 147 -151 440zM342 578q0 -135 37 -222l438 762q-51 27 -119 27q-156 0 -256 -150.5 t-100 -416.5zM461 248q63 -51 166 -51q160 0 258 132t98 398q0 195 -68 305z" />
<glyph unicode="&#xd9;" horiz-adv-x="1236" d="M115 463l65 880h254l-63 -856q-20 -276 237 -276q240 0 258 254l68 878h233l-63 -864q-39 -496 -522 -495q-256 0 -370.5 118.5t-96.5 360.5zM426 1774h252l113 -297h-179z" />
<glyph unicode="&#xda;" horiz-adv-x="1236" d="M115 463l65 880h254l-63 -856q-20 -276 237 -276q240 0 258 254l68 878h233l-63 -864q-39 -496 -522 -495q-256 0 -370.5 118.5t-96.5 360.5zM584 1477l166 297h254l-240 -297h-180z" />
<glyph unicode="&#xdb;" horiz-adv-x="1236" d="M115 463l65 880h254l-63 -856q-20 -276 237 -276q240 0 258 254l68 878h233l-63 -864q-39 -496 -522 -495q-256 0 -370.5 118.5t-96.5 360.5zM360 1477l246 297h213l174 -297h-207l-94 172h-12l-125 -172h-195z" />
<glyph unicode="&#xdc;" horiz-adv-x="1236" d="M115 463l65 880h254l-63 -856q-20 -276 237 -276q240 0 258 254l68 878h233l-63 -864q-39 -496 -522 -495q-256 0 -370.5 118.5t-96.5 360.5zM387 1567q0 63 33 106t94 43q45 0 72.5 -28.5t27.5 -71.5q0 -68 -31.5 -111t-97.5 -43q-43 0 -70.5 31t-27.5 74zM750 1567 q0 63 31.5 106t92.5 43q45 0 74 -28.5t29 -71.5q0 -66 -33 -110t-96 -44q-43 0 -70.5 30t-27.5 75z" />
<glyph unicode="&#xdd;" horiz-adv-x="919" d="M-12 1343h286l197 -550h6l289 550h258l-461 -792l-41 -551h-254l43 549zM434 1477l166 297h254l-240 -297h-180z" />
<glyph unicode="&#xde;" horiz-adv-x="1026" d="M88 0l100 1343h254l-16 -210h102q236 0 352.5 -99.5t116.5 -277.5q0 -238 -141 -369t-399 -131q-37 0 -95 10l-20 -266h-254zM375 463q29 -8 98 -8q119 0 186.5 68.5t67.5 195.5q0 213 -238 213h-77z" />
<glyph unicode="&#xdf;" horiz-adv-x="1095" d="M80 -391l127 1478q14 166 123.5 257.5t292.5 91.5q152 0 245 -84t93 -224q0 -66 -31 -125t-67 -95t-66.5 -82t-30.5 -89q0 -55 90 -133l70 -59q70 -61 97.5 -115.5t27.5 -138.5q0 -129 -110 -219t-271 -90q-117 0 -209 20v197q84 -29 219 -29q139 0 139 86q0 57 -61 109 l-74 69q-78 72 -108.5 130.5t-30.5 137.5q0 57 33.5 116t74.5 97.5t75 92t34 102.5q0 61 -43 99t-115 38q-154 0 -164 -151l-127 -1487h-233z" />
<glyph unicode="&#xe0;" horiz-adv-x="999" d="M59 342q0 326 156 507t381 181q86 0 147 -20l177 22l-93 -1032h-229l18 164h-6q-123 -184 -313 -184q-106 0 -172 89t-66 273zM301 362q0 -170 100 -169q51 0 114 48t114 134l41 448q-35 10 -95 11q-113 0 -193.5 -118t-80.5 -354zM379 1425h252l112 -297h-178z" />
<glyph unicode="&#xe1;" horiz-adv-x="999" d="M59 342q0 326 156 507t381 181q86 0 147 -20l177 22l-93 -1032h-229l18 164h-6q-123 -184 -313 -184q-106 0 -172 89t-66 273zM301 362q0 -170 100 -169q51 0 114 48t114 134l41 448q-35 10 -95 11q-113 0 -193.5 -118t-80.5 -354zM434 1128l166 297h254l-240 -297h-180z " />
<glyph unicode="&#xe2;" horiz-adv-x="999" d="M59 342q0 326 156 507t381 181q86 0 147 -20l177 22l-93 -1032h-229l18 164h-6q-123 -184 -313 -184q-106 0 -172 89t-66 273zM260 1128l246 297h213l174 -297h-207l-94 172h-12l-125 -172h-195zM301 362q0 -170 100 -169q51 0 114 48t114 134l41 448q-35 10 -95 11 q-113 0 -193.5 -118t-80.5 -354z" />
<glyph unicode="&#xe3;" horiz-adv-x="999" d="M59 342q0 326 156 507t381 181q86 0 147 -20l177 22l-93 -1032h-229l18 164h-6q-123 -184 -313 -184q-106 0 -172 89t-66 273zM287 1292q90 127 205 127q49 0 126.5 -59.5t112.5 -59.5q63 0 119 70l33 -143q-76 -111 -185 -111q-43 0 -120.5 59.5t-118.5 59.5 q-68 0 -140 -86zM301 362q0 -170 100 -169q51 0 114 48t114 134l41 448q-35 10 -95 11q-113 0 -193.5 -118t-80.5 -354z" />
<glyph unicode="&#xe4;" horiz-adv-x="999" d="M59 342q0 326 156 507t381 181q86 0 147 -20l177 22l-93 -1032h-229l18 164h-6q-123 -184 -313 -184q-106 0 -172 89t-66 273zM301 362q0 -170 100 -169q51 0 114 48t114 134l41 448q-35 10 -95 11q-113 0 -193.5 -118t-80.5 -354zM305 1255q0 63 32 106.5t93 43.5 q45 0 73.5 -28.5t28.5 -71.5q0 -66 -32.5 -110t-96.5 -44q-43 0 -70.5 29.5t-27.5 74.5zM647 1255q0 63 32 106.5t93 43.5q45 0 73.5 -28.5t28.5 -71.5q0 -66 -32.5 -110t-96.5 -44q-43 0 -70.5 29.5t-27.5 74.5z" />
<glyph unicode="&#xe5;" horiz-adv-x="999" d="M59 342q0 326 156 507t381 181q86 0 147 -20l177 22l-93 -1032h-229l18 164h-6q-123 -184 -313 -184q-106 0 -172 89t-66 273zM301 362q0 -170 100 -169q51 0 114 48t114 134l41 448q-35 10 -95 11q-113 0 -193.5 -118t-80.5 -354zM416 1272q0 88 57 146.5t141 58.5 q70 0 116 -48.5t46 -119.5q0 -90 -54 -147.5t-142 -57.5q-70 0 -117 49t-47 119zM528 1284q0 -74 64 -74q35 0 55.5 23.5t20.5 60.5q0 35 -18.5 56.5t-47.5 21.5q-35 0 -54.5 -24.5t-19.5 -63.5z" />
<glyph unicode="&#xe6;" horiz-adv-x="1425" d="M59 338q0 328 156 510t383 182q43 0 145 -24l177 26l-5 -41h5q72 41 170 41q307 0 307 -246q0 -190 -144.5 -305.5t-392.5 -115.5q0 -104 31 -143.5t106 -39.5q154 0 308 68v-189q-156 -78 -367 -77q-131 0 -200.5 52t-90.5 167h-2q-152 -223 -338 -223q-117 0 -182.5 88 t-65.5 270zM301 350q0 -158 100.5 -157.5t227.5 174.5l39 454q-18 12 -72 13q-127 0 -211 -115t-84 -369zM870 524q135 0 211 61.5t76 166.5q0 47 -25.5 74.5t-68.5 27.5q-68 0 -123.5 -83t-69.5 -247z" />
<glyph unicode="&#xe7;" horiz-adv-x="679" d="M66 360q0 340 132 506t339 166q96 0 178 -20l-15 -203q-86 14 -161 14q-229 0 -230 -430q0 -106 44 -158.5t118 -52.5q82 0 176 31v-193q-96 -37 -213 -36q-182 0 -275 89.5t-93 286.5zM143 -258h101q141 0 141 49q0 23 -23.5 33t-95.5 10h-57l24 109h148q174 0 174 -121 q0 -92 -82 -152.5t-244 -60.5h-86v133z" />
<glyph unicode="&#xe8;" horiz-adv-x="870" d="M68 358q0 336 130 505t337 169q307 0 307 -246q0 -188 -144.5 -304.5t-392.5 -116.5q0 -182 156 -183q137 0 289 68v-189q-158 -78 -336 -77q-346 -1 -346 374zM244 1425h252l112 -297h-178zM315 524q135 0 211 61.5t76 162.5q0 106 -98 106q-61 0 -118 -85t-71 -245z " />
<glyph unicode="&#xe9;" horiz-adv-x="870" d="M68 358q0 336 130 505t337 169q307 0 307 -246q0 -188 -144.5 -304.5t-392.5 -116.5q0 -182 156 -183q137 0 289 68v-189q-158 -78 -336 -77q-346 -1 -346 374zM315 524q135 0 211 61.5t76 162.5q0 106 -98 106q-61 0 -118 -85t-71 -245zM403 1128l166 297h254l-239 -297 h-181z" />
<glyph unicode="&#xea;" horiz-adv-x="870" d="M68 358q0 336 130 505t337 169q307 0 307 -246q0 -188 -144.5 -304.5t-392.5 -116.5q0 -182 156 -183q137 0 289 68v-189q-158 -78 -336 -77q-346 -1 -346 374zM207 1128l246 297h213l174 -297h-207l-94 172h-13l-125 -172h-194zM315 524q135 0 211 61.5t76 162.5 q0 106 -98 106q-61 0 -118 -85t-71 -245z" />
<glyph unicode="&#xeb;" horiz-adv-x="870" d="M68 358q0 336 130 505t337 169q307 0 307 -246q0 -188 -144.5 -304.5t-392.5 -116.5q0 -182 156 -183q137 0 289 68v-189q-158 -78 -336 -77q-346 -1 -346 374zM248 1255q0 63 31.5 106.5t93.5 43.5q45 0 73.5 -28.5t28.5 -71.5q0 -66 -32.5 -110t-96.5 -44 q-43 0 -70.5 29.5t-27.5 74.5zM315 524q135 0 211 61.5t76 162.5q0 106 -98 106q-61 0 -118 -85t-71 -245zM590 1255q0 63 31.5 106.5t93.5 43.5q45 0 73.5 -28.5t28.5 -71.5q0 -66 -32.5 -110t-96.5 -44q-43 0 -70.5 29.5t-27.5 74.5z" />
<glyph unicode="&#xec;" horiz-adv-x="485" d="M31 1425h252l112 -297h-178zM80 0l88 1008l235 18l-90 -1026h-233z" />
<glyph unicode="&#xed;" horiz-adv-x="485" d="M80 0l88 1008l235 18l-90 -1026h-233zM201 1128l166 297h254l-240 -297h-180z" />
<glyph unicode="&#xee;" horiz-adv-x="485" d="M-6 1128l246 297h213l174 -297h-207l-94 172h-13l-125 -172h-194zM80 0l88 1008l235 18l-90 -1026h-233z" />
<glyph unicode="&#xef;" horiz-adv-x="485" d="M37 1255q0 63 31.5 106.5t93.5 43.5q45 0 73.5 -28.5t28.5 -71.5q0 -66 -32.5 -110t-96.5 -44q-43 0 -70.5 29.5t-27.5 74.5zM80 0l88 1008l235 18l-90 -1026h-233zM379 1255q0 63 31.5 106.5t93.5 43.5q45 0 73.5 -28.5t28.5 -71.5q0 -66 -32.5 -110t-96.5 -44 q-43 0 -70.5 29.5t-27.5 74.5z" />
<glyph unicode="&#xf0;" horiz-adv-x="991" d="M68 1225l12 190q96 20 201 21q172 0 292 -56l109 113l106 -96l-88 -92q119 -102 169.5 -246t50.5 -391q0 -324 -138.5 -506t-332.5 -182q-188 0 -283.5 105t-95.5 331q0 285 133 451.5t329 166.5q76 0 127 -45l9 4q-12 49 -44 98.5t-71 75.5l-86 -88l-90 86l53 54 q-84 29 -166 28q-98 1 -196 -22zM309 438q0 -264 158 -264q92 0 157.5 106.5t65.5 313.5q0 160 -4 203q-66 47 -164 47q-86 0 -149.5 -106.5t-63.5 -299.5z" />
<glyph unicode="&#xf1;" horiz-adv-x="1007" d="M80 0l90 1008l229 18l-12 -139h6q139 145 293 145q260 0 225 -348l-65 -684h-234l62 655q8 80 -12.5 110t-75.5 30q-96 0 -211 -95l-62 -700h-233zM264 1292q90 127 205 127q49 0 127 -59.5t113 -59.5q63 0 118 70l33 -143q-76 -111 -184 -111q-43 0 -121 59.5t-119 59.5 q-68 0 -139 -86z" />
<glyph unicode="&#xf2;" horiz-adv-x="983" d="M70 401q0 297 133 467t334 170q178 0 277 -109.5t99 -318.5q0 -291 -134 -460.5t-328 -169.5q-381 -1 -381 421zM281 1425h251l113 -297h-178zM309 420q0 -246 158 -246q82 0 145.5 103.5t63.5 300.5q0 264 -158 264q-88 0 -148.5 -107.5t-60.5 -314.5z" />
<glyph unicode="&#xf3;" horiz-adv-x="983" d="M70 401q0 297 133 467t334 170q178 0 277 -109.5t99 -318.5q0 -291 -134 -460.5t-328 -169.5q-381 -1 -381 421zM309 420q0 -246 158 -246q82 0 145.5 103.5t63.5 300.5q0 264 -158 264q-88 0 -148.5 -107.5t-60.5 -314.5zM442 1128l166 297h254l-239 -297h-181z" />
<glyph unicode="&#xf4;" horiz-adv-x="983" d="M70 401q0 297 133 467t334 170q178 0 277 -109.5t99 -318.5q0 -291 -134 -460.5t-328 -169.5q-381 -1 -381 421zM242 1128l245 297h213l174 -297h-206l-95 172h-12l-125 -172h-194zM309 420q0 -246 158 -246q82 0 145.5 103.5t63.5 300.5q0 264 -158 264 q-88 0 -148.5 -107.5t-60.5 -314.5z" />
<glyph unicode="&#xf5;" horiz-adv-x="983" d="M70 401q0 297 133 467t334 170q178 0 277 -109.5t99 -318.5q0 -291 -134 -460.5t-328 -169.5q-381 -1 -381 421zM262 1292q90 127 205 127q49 0 127 -59.5t113 -59.5q63 0 118 70l33 -143q-76 -111 -184 -111q-43 0 -121 59.5t-119 59.5q-68 0 -139 -86zM309 420 q0 -246 158 -246q82 0 145.5 103.5t63.5 300.5q0 264 -158 264q-88 0 -148.5 -107.5t-60.5 -314.5z" />
<glyph unicode="&#xf6;" horiz-adv-x="983" d="M70 401q0 297 133 467t334 170q178 0 277 -109.5t99 -318.5q0 -291 -134 -460.5t-328 -169.5q-381 -1 -381 421zM287 1255q0 63 31.5 106.5t93.5 43.5q45 0 73.5 -28.5t28.5 -71.5q0 -66 -32.5 -110t-96.5 -44q-43 0 -70.5 29.5t-27.5 74.5zM309 420q0 -246 158 -246 q82 0 145.5 103.5t63.5 300.5q0 264 -158 264q-88 0 -148.5 -107.5t-60.5 -314.5zM629 1255q0 63 31.5 106.5t93.5 43.5q45 0 73.5 -28.5t28.5 -71.5q0 -66 -32.5 -110t-96.5 -44q-43 0 -70.5 29.5t-27.5 74.5z" />
<glyph unicode="&#xf7;" d="M137 514l19 186h766l-19 -186h-766zM393 291q16 113 117 112q49 0 75.5 -29.5t20.5 -82.5q-12 -113 -114 -113q-49 0 -76 30t-23 83zM453 924q12 113 114 112q49 0 76 -29.5t23 -82.5q-16 -113 -117 -113q-49 0 -75.5 30t-20.5 83z" />
<glyph unicode="&#xf8;" horiz-adv-x="983" d="M63 -35l87 135q-80 100 -80 301q0 297 133 467t334 170q106 0 194 -47l82 123l92 -61l-86 -131q94 -111 94 -312q0 -291 -134 -460.5t-328 -169.5q-133 0 -215 47l-80 -123zM301 420q0 -63 4 -90l316 477q-39 43 -103 43q-88 0 -152.5 -108.5t-64.5 -321.5zM350 217 q43 -51 117 -51q82 0 149.5 107.5t67.5 304.5q0 74 -12 122z" />
<glyph unicode="&#xf9;" horiz-adv-x="1001" d="M94 338l64 670l235 18l-63 -666q-8 -100 11 -133.5t75 -33.5q88 0 209 139l59 676l236 18l-93 -1026h-229l16 143h-6q-145 -164 -293 -163q-258 0 -221 358zM289 1425h252l112 -297h-178z" />
<glyph unicode="&#xfa;" horiz-adv-x="1001" d="M94 338l64 670l235 18l-63 -666q-8 -100 11 -133.5t75 -33.5q88 0 209 139l59 676l236 18l-93 -1026h-229l16 143h-6q-145 -164 -293 -163q-258 0 -221 358zM451 1128l165 297h254l-239 -297h-180z" />
<glyph unicode="&#xfb;" horiz-adv-x="1001" d="M94 338l64 670l235 18l-63 -666q-8 -100 11 -133.5t75 -33.5q88 0 209 139l59 676l236 18l-93 -1026h-229l16 143h-6q-145 -164 -293 -163q-258 0 -221 358zM258 1128l246 297h213l174 -297h-207l-94 172h-12l-125 -172h-195z" />
<glyph unicode="&#xfc;" horiz-adv-x="1001" d="M94 338l64 670l235 18l-63 -666q-8 -100 11 -133.5t75 -33.5q88 0 209 139l59 676l236 18l-93 -1026h-229l16 143h-6q-145 -164 -293 -163q-258 0 -221 358zM295 1255q0 63 31.5 106.5t93.5 43.5q45 0 73.5 -28.5t28.5 -71.5q0 -66 -32.5 -110t-96.5 -44 q-43 0 -70.5 29.5t-27.5 74.5zM637 1255q0 63 31.5 106.5t93.5 43.5q45 0 73.5 -28.5t28.5 -71.5q0 -66 -32.5 -110t-96.5 -44q-43 0 -70.5 29.5t-27.5 74.5z" />
<glyph unicode="&#xfd;" horiz-adv-x="778" d="M-92 -205q72 -10 123 -10q63 0 128.5 54.5t96.5 146.5l12 37h-59l-197 993h248l115 -760h12l66 174q86 223 145 586h225q-41 -227 -84 -369.5t-137 -349.5l-131 -291q-96 -223 -202.5 -315t-245.5 -92q-63 0 -115 14v182zM332 1128l166 297h254l-240 -297h-180z" />
<glyph unicode="&#xfe;" horiz-adv-x="983" d="M45 -391l162 1808l235 19l-55 -555h6q125 152 277 151q262 0 262 -373q0 -334 -150.5 -504.5t-378.5 -170.5q-45 0 -92 10l-32 -385h-234zM328 190q39 -10 92 -10q117 0 192.5 111.5t75.5 357.5q0 92 -28.5 127t-81.5 35q-94 0 -205 -102z" />
<glyph unicode="&#xff;" horiz-adv-x="778" d="M-92 -205q72 -10 123 -10q63 0 128.5 54.5t96.5 146.5l12 37h-59l-197 993h248l115 -760h12l66 174q86 223 145 586h225q-41 -227 -84 -369.5t-137 -349.5l-131 -291q-96 -223 -202.5 -315t-245.5 -92q-63 0 -115 14v182zM168 1255q0 63 31.5 106.5t93.5 43.5 q45 0 73.5 -28.5t28.5 -71.5q0 -66 -32.5 -110t-96.5 -44q-43 0 -70.5 29.5t-27.5 74.5zM510 1255q0 63 31.5 106.5t93.5 43.5q45 0 73.5 -28.5t28.5 -71.5q0 -66 -32.5 -110t-96.5 -44q-43 0 -70.5 29.5t-27.5 74.5z" />
<glyph unicode="&#x152;" horiz-adv-x="1673" d="M80 551q0 387 180 597t481 210q152 0 254 -80l4 65h662l-14 -206h-410l-25 -346h381l-16 -207h-381l-29 -377h428v-207h-696l6 74q-133 -90 -319 -90q-233 0 -369.5 143t-136.5 424zM350 578q0 -188 75 -280.5t202 -92.5q188 0 299 162l51 641q-100 129 -279 129 q-156 0 -252 -145.5t-96 -413.5z" />
<glyph unicode="&#x153;" horiz-adv-x="1456" d="M70 403q0 297 131 467t334 170q188 0 284 -145q121 139 303 139q305 0 305 -246q0 -188 -145 -305.5t-393 -117.5q6 -182 166 -183q135 0 284 70v-191q-162 -78 -335 -77q-197 0 -275 125q-119 -129 -280 -129q-178 0 -278.5 103t-100.5 320zM309 420q0 -248 154 -248 q84 0 147.5 103.5t63.5 302.5q0 268 -156 268q-86 0 -147.5 -109.5t-61.5 -316.5zM901 537q137 0 213 58t76 159q0 47 -26.5 73.5t-73.5 26.5q-61 0 -119 -82.5t-70 -234.5z" />
<glyph unicode="&#x178;" horiz-adv-x="919" d="M-12 1343h286l197 -550h6l289 550h258l-461 -792l-41 -551h-254l43 549zM248 1567q0 63 32.5 106t94.5 43q45 0 72.5 -28.5t27.5 -71.5q0 -68 -31.5 -111t-97.5 -43q-43 0 -70.5 31t-27.5 74zM610 1567q0 63 32 106t93 43q45 0 74 -28.5t29 -71.5q0 -66 -33 -110t-96 -44 q-43 0 -71 30t-28 75z" />
<glyph unicode="&#x2c6;" horiz-adv-x="751" d="M31 1128l245 297h213l175 -297h-207l-95 172h-12l-125 -172h-194z" />
<glyph unicode="&#x2dc;" horiz-adv-x="796" d="M53 1292q90 127 205 127q49 0 127 -59.5t113 -59.5q63 0 118 70l33 -143q-76 -111 -184 -111q-43 0 -121 59.5t-119 59.5q-68 0 -139 -86z" />
<glyph unicode="&#x2000;" horiz-adv-x="911" />
<glyph unicode="&#x2001;" horiz-adv-x="1824" />
<glyph unicode="&#x2002;" horiz-adv-x="911" />
<glyph unicode="&#x2003;" horiz-adv-x="1824" />
<glyph unicode="&#x2004;" horiz-adv-x="608" />
<glyph unicode="&#x2005;" horiz-adv-x="454" />
<glyph unicode="&#x2006;" horiz-adv-x="303" />
<glyph unicode="&#x2007;" horiz-adv-x="303" />
<glyph unicode="&#x2008;" horiz-adv-x="227" />
<glyph unicode="&#x2009;" horiz-adv-x="364" />
<glyph unicode="&#x200a;" horiz-adv-x="100" />
<glyph unicode="&#x2010;" horiz-adv-x="776" d="M123 481v211h528v-211h-528z" />
<glyph unicode="&#x2011;" horiz-adv-x="776" d="M123 481v211h528v-211h-528z" />
<glyph unicode="&#x2012;" horiz-adv-x="776" d="M123 481v211h528v-211h-528z" />
<glyph unicode="&#x2013;" horiz-adv-x="1024" d="M59 492v190h906v-190h-906z" />
<glyph unicode="&#x2014;" horiz-adv-x="2048" d="M59 492v190h1930v-190h-1930z" />
<glyph unicode="&#x2018;" horiz-adv-x="481" d="M131 1030q0 70 56.5 166t122 160.5t93.5 64.5h105l-139 -239q80 -31 80 -125q0 -86 -47.5 -137.5t-122.5 -51.5q-68 0 -108 43t-40 119z" />
<glyph unicode="&#x2019;" horiz-adv-x="481" d="M88 866l139 240q-80 33 -80 127q0 84 47.5 135t122.5 51q68 0 108 -43t40 -116q0 -70 -56.5 -166.5t-122 -162t-93.5 -65.5h-105z" />
<glyph unicode="&#x201a;" horiz-adv-x="481" d="M-6 -225l139 239q-80 35 -80 125q0 86 47 137.5t123 51.5q68 0 108 -43t40 -117q0 -70 -56.5 -166t-122 -161.5t-94.5 -65.5h-104z" />
<glyph unicode="&#x201c;" horiz-adv-x="878" d="M131 1030q0 70 56.5 166t122 160.5t93.5 64.5h105l-139 -239q80 -31 80 -125q0 -86 -47.5 -137.5t-122.5 -51.5q-68 0 -108 43t-40 119zM526 1030q0 104 112 247.5t163 143.5h102l-137 -239q80 -33 80 -125q0 -86 -47 -137.5t-123 -51.5q-68 0 -109 43t-41 119z" />
<glyph unicode="&#x201d;" horiz-adv-x="878" d="M88 866l139 240q-80 33 -80 127q0 84 47.5 135t122.5 51q68 0 108 -43t40 -116q0 -70 -56.5 -166.5t-122 -162t-93.5 -65.5h-105zM485 866l138 240q-80 35 -80 127q0 84 47 135t123 51q68 0 108.5 -43t40.5 -116q0 -104 -111.5 -249t-162.5 -145h-103z" />
<glyph unicode="&#x201e;" horiz-adv-x="878" d="M-6 -225l139 239q-80 35 -80 125q0 86 47 137.5t123 51.5q68 0 108 -43t40 -117q0 -70 -56.5 -166t-122 -161.5t-94.5 -65.5h-104zM391 -225l137 239q-80 35 -79 125q0 86 47 137.5t122 51.5q68 0 109 -43t41 -117q0 -104 -111.5 -248.5t-162.5 -144.5h-103z" />
<glyph unicode="&#x2022;" horiz-adv-x="724" d="M137 567q0 274 242 275q90 0 147.5 -52.5t57.5 -138.5q0 -276 -240 -276q-92 0 -149.5 52t-57.5 140z" />
<glyph unicode="&#x2026;" horiz-adv-x="1335" d="M53 141q0 84 49.5 135.5t120.5 51.5q66 0 107 -40t41 -120q0 -82 -48.5 -130t-125.5 -48q-68 0 -106 38.5t-38 112.5zM479 141q0 84 49.5 135.5t120.5 51.5q66 0 107 -40t41 -120q0 -82 -48.5 -130t-125.5 -48q-66 0 -105 38.5t-39 112.5zM905 141q0 84 49.5 135.5 t120.5 51.5q68 0 109 -40t41 -120q0 -82 -49.5 -130t-126.5 -48q-66 0 -105 38.5t-39 112.5z" />
<glyph unicode="&#x202f;" horiz-adv-x="364" />
<glyph unicode="&#x2039;" horiz-adv-x="727" d="M76 514l348 438h229l-327 -428l264 -448h-230z" />
<glyph unicode="&#x203a;" horiz-adv-x="727" d="M88 76l326 428l-262 448h229l283 -438l-347 -438h-229z" />
<glyph unicode="&#x205f;" horiz-adv-x="454" />
<glyph unicode="&#x20ac;" d="M61 426l11 154h114q0 59 9 157h-111l12 158h131q66 229 215.5 345t358.5 116q98 0 198 -25l2 -225q-141 25 -219 24q-205 0 -286 -235h338l-15 -158h-360q-8 -98 -8 -157h356l-10 -154h-340q43 -227 243 -227q111 0 226 26v-209q-129 -33 -260 -32q-201 0 -323 111.5 t-150 330.5h-132z" />
<glyph unicode="&#x2122;" horiz-adv-x="1619" d="M102 1200l11 143h538l-10 -143h-176l-43 -586h-180l45 586h-185zM678 614l72 729h243l119 -374h8l156 374h231l2 -729h-174l4 525h-4l-178 -406h-119l-147 406h-4l-47 -525h-162z" />
<glyph unicode="&#xe000;" horiz-adv-x="1014" d="M0 1015h1015v-1015h-1015v1015z" />
<glyph unicode="&#xfb01;" horiz-adv-x="1060" d="M74 -391l102 1235h-102v172h121l8 78q18 186 132 264t398 78q174 0 299 -17l-22 -184q-113 12 -312 12q-158 0 -207 -30.5t-59 -120.5l-6 -80h322l233 8l-92 -1026h-232l74 846h-319l-107 -1235h-231z" />
<glyph unicode="&#xfb02;" horiz-adv-x="1060" d="M74 -391l102 1235h-102v172h121l8 78q16 176 117.5 259t295.5 83q100 0 183 -19l219 19l-129 -1436h-232l109 1237q-82 10 -160 10q-160 0 -174 -151l-6 -80h186l-16 -172h-184l-107 -1235h-231z" />
<glyph unicode="&#xfb03;" horiz-adv-x="1638" d="M74 -391l102 1235h-102v172h121l8 78q33 342 393 342q92 0 152 -17l-21 -184q-66 12 -141 12q-139 0 -154 -151l-6 -80h346l6 78q18 186 133 264t398 78q174 0 299 -17l-21 -184q-113 12 -313 12q-158 0 -206 -30.5t-58 -120.5l-9 -80h322l236 8l-93 -1026h-233l76 846 h-320l-106 -1235h-234l105 1235h-342l-107 -1235h-231z" />
<glyph unicode="&#xfb04;" horiz-adv-x="1638" d="M74 -391l102 1235h-102v172h121l8 78q33 342 393 342q92 0 152 -17l-21 -184q-66 12 -141 12q-139 0 -154 -151l-6 -80h346l6 78q18 176 119.5 259t296.5 83q96 0 180 -19l221 19l-129 -1436h-233l108 1237q-78 10 -157 10q-160 0 -174 -151l-9 -80h187l-17 -172h-182 l-106 -1235h-234l105 1235h-342l-107 -1235h-231z" />
<glyph horiz-adv-x="315" />
</font>
</defs>
</svg>
