<?xml version="1.0" standalone="no"?>
<!DOCTYPE svg PUBLIC "-//W3C//DTD SVG 1.1//EN" "http://www.w3.org/Graphics/SVG/1.1/DTD/svg11.dtd" >
<svg xmlns="http://www.w3.org/2000/svg">
<metadata>
This is a custom SVG webfont generated by Font Squirrel.
Copyright   : Copyright 20082009 OurType  Peter Verheul wwwourtypecom
Designer    : Peter VerheulHet lettertype is afkomstig van OurType BVBA en is een aangepaste versie van de OT Versa auteur Peter Verheulwwwourtypecom
Foundry     : OurType  Peter Verheul
Foundry URL : httpwwwourtypecom
</metadata>
<defs>
<font id="RijksoverheidSerifRegular" horiz-adv-x="1064" >
<font-face units-per-em="2048" ascent="1516" descent="-532" />
<missing-glyph horiz-adv-x="401" />
<glyph unicode=" "  horiz-adv-x="401" />
<glyph unicode="&#x09;" horiz-adv-x="401" />
<glyph unicode="&#xa0;" horiz-adv-x="401" />
<glyph unicode="!" horiz-adv-x="624" d="M182 96q0 49 35 84t84 35t84 -35t35 -84t-35 -84t-84 -35t-84 35t-35 84zM217 623q0 72 29.5 275.5t29.5 279.5q0 92 -28 165q133 33 276 33l-61 -143l-68 -383q-20 -119 -20 -254q0 -133 31 -238q-82 0 -135.5 69t-53.5 196z" />
<glyph unicode="&#x22;" horiz-adv-x="817" d="M172 1315h176l-6 -160q-4 -82 -43 -276h-76q-41 195 -45 274zM473 1315h176l-6 -160q-4 -82 -43 -276h-76q-41 195 -43 274z" />
<glyph unicode="#" d="M31 332l12 104h250l55 457h-248l13 104h247l46 363h106l-45 -363h281l45 363h104l-45 -363h246l-15 -104h-243l-56 -457h244l-14 -104h-244l-45 -363h-104l43 363h-279l-45 -363h-107l46 363h-248zM393 432h287l55 463h-284z" />
<glyph unicode="$" d="M127 16v297h59l15 -51q23 -84 87 -123t181 -39h35l2 471l-150 86q-195 111 -194 312q0 135 96 228t250 120l2 145h68l-3 -137q16 2 48 2q168 0 286 -47l-18 -289h-60l-8 41q-20 94 -68 130t-153 36q-6 0 -14 -1t-13 -1l-2 -444l125 -64q231 -121 232 -315 q0 -147 -100.5 -254t-260.5 -135v-148h-67v139q-14 -2 -43 -2q-209 0 -332 43zM328 1006q0 -123 159 -207l19 -11l2 400q-84 -16 -132 -65t-48 -117zM571 111q84 20 133.5 72.5t49.5 129.5q0 115 -181 222z" />
<glyph unicode="%" horiz-adv-x="1458" d="M84 954q0 168 83 264.5t222 96.5q131 0 207 -83t76 -237q0 -160 -86 -260t-217 -100t-208 82.5t-77 236.5zM236 -68l878 1469l76 -43l-879 -1469zM236 971q0 -254 139 -254q66 0 105.5 67.5t39.5 194.5q0 254 -139 254q-66 0 -105.5 -67.5t-39.5 -194.5zM784 303 q0 168 83 264.5t223 96.5q131 0 206.5 -83t75.5 -237q0 -160 -86 -260t-217 -100t-208 82.5t-77 236.5zM936 319q0 -254 139 -253q66 0 106 67.5t40 194.5q0 254 -140 254q-66 0 -105.5 -68t-39.5 -195z" />
<glyph unicode="&#x26;" horiz-adv-x="1261" d="M100 283q0 109 70 203t197 153v2l-56 55q-123 121 -123 266.5t109 251t254 105.5q135 0 225 -84t90 -207q0 -119 -78.5 -220t-197.5 -161v-2l340 -317q70 127 69 309l-129 33v45q113 33 211 33q86 0 162 -21v-39q-121 -31 -121 -74q0 -193 -114 -346q129 -106 280 -174 q-14 -53 -49 -85t-80 -32q-63 0 -149 74l-88 76q-166 -172 -416 -172q-190 0 -298 88t-108 240zM272 311q0 -111 72 -175t191 -64q195 0 303 118l-408 388q-72 -41 -115 -114t-43 -153zM344 995q0 -119 88 -207l88 -88q88 43 139.5 125t51.5 180.5t-49.5 153.5t-129.5 55 q-76 0 -132 -64.5t-56 -154.5z" />
<glyph unicode="'" horiz-adv-x="518" d="M172 1323h176l-6 -160q-4 -82 -43 -276h-76q-41 195 -45 274z" />
<glyph unicode="(" horiz-adv-x="614" d="M113 426q0 203 48 400.5t116.5 328.5t138 212t116.5 81q37 0 52 -37q-135 -100 -235.5 -365.5t-100.5 -574.5q0 -201 39 -378t99 -289.5t127 -178t126 -65.5q-43 -57 -123 -58q-135 0 -269 260.5t-134 663.5z" />
<glyph unicode=")" horiz-adv-x="614" d="M-25 1393q43 57 123 57q135 0 269.5 -260t134.5 -664q0 -203 -48 -400.5t-117 -328.5t-138.5 -212t-116.5 -81q-37 0 -51 37q135 98 235.5 363.5t100.5 576.5q0 201 -39 378t-99.5 290t-127.5 178.5t-126 65.5z" />
<glyph unicode="*" horiz-adv-x="1024" d="M141 1011.5q0 30.5 30 53t85 22.5q59 0 128 -24.5t114 -58.5l2 2q-47 168 -119 268q39 66 80 65q45 0 75.5 -51t30.5 -145q0 -96 -22 -148l2 -2q145 94 221 197q55 -16 72.5 -33.5t17.5 -44.5q0 -59 -97 -112.5t-210 -53.5v-2q131 -106 256 -149q0 -68 -16.5 -90.5 t-51.5 -22.5q-55 0 -132 78t-99 166h-2q-59 -160 -64 -289q-41 -16 -73 -16q-25 0 -42.5 23.5t-17.5 57.5q0 55 49.5 133t116.5 126v2q-158 0 -295 -29q-39 47 -39 77.5z" />
<glyph unicode="+" d="M98 410v104h379v408h111v-408h379v-104h-379v-410h-111v410h-379z" />
<glyph unicode="," horiz-adv-x="563" d="M98 -256q127 133 127 299l-71 90q57 90 131 90q49 0 79.5 -31.5t30.5 -85.5q0 -131 -83 -242.5t-158 -133.5z" />
<glyph unicode="-" horiz-adv-x="622" d="M59 473l39 150l473 20l-28 -147z" />
<glyph unicode="." horiz-adv-x="563" d="M162 96q0 49 34.5 84t84 35t84 -35t34.5 -84t-34.5 -84t-84 -35t-84 35t-34.5 84z" />
<glyph unicode="/" horiz-adv-x="665" d="M43 -473l481 1948l101 -21l-480 -1948z" />
<glyph unicode="0" horiz-adv-x="1060" d="M113 451q0 256 127 400t317 144q168 0 282.5 -127t114.5 -360q0 -256 -127 -400.5t-317 -144.5q-168 0 -282.5 127.5t-114.5 360.5zM305 475q0 -195 60.5 -297t160.5 -102q104 0 170 107.5t66 302t-60.5 296t-160.5 101.5q-104 0 -170 -107.5t-66 -300.5z" />
<glyph unicode="1" horiz-adv-x="729" d="M113 821v66q143 88 297 88q10 0 34.5 -1t32.5 -1q-18 -92 -18 -160v-715l133 -30v-31q-94 -55 -256 -55q-115 0 -189 18v39q61 16 105.5 59t44.5 90v639z" />
<glyph unicode="2" horiz-adv-x="905" d="M63 125l388 352q141 125 141 228q0 66 -47 106.5t-125 40.5q-150 0 -295 -150q-20 47 -21 111q0 70 88.5 119t253.5 49q147 0 239.5 -70.5t92.5 -171.5q0 -94 -50 -169.5t-179 -176.5l-328 -256v-2h166q238 0 436 70q12 -37 13 -88q0 -66 -47.5 -96.5t-163.5 -30.5 q-45 0 -238.5 5t-314.5 5z" />
<glyph unicode="3" horiz-adv-x="886" d="M51 -213q0 29 10 55q127 -80 271 -80q109 0 193.5 71t84.5 179q0 111 -86 173.5t-239 62.5q-43 0 -84 -10l-21 110l80 4q141 6 242.5 93t101.5 206q0 92 -60.5 146.5t-160.5 54.5q-133 0 -279 -141q-23 55 -22 104q0 68 89 117t249 49q162 0 261 -84t99 -213 q0 -111 -90 -216.5t-215 -145.5v-3q137 0 224 -72.5t87 -201.5q0 -158 -147 -278.5t-322 -120.5q-266 0 -266 141z" />
<glyph unicode="4" horiz-adv-x="989" d="M72 123q57 254 242.5 512t377.5 350l88 -20q-16 -188 -16 -381v-426h55q43 0 105 30q14 -29 14 -69q0 -100 -125 -101h-49v-149q0 -121 -32 -171t-97 -50q-41 0 -74 20q41 88 41 185v167h-524zM215 158h389v403q0 156 12 232l-4 4q-115 -90 -237.5 -284.5t-159.5 -354.5z " />
<glyph unicode="5" horiz-adv-x="886" d="M55 -211q0 31 11 55q125 -82 268 -82q123 0 214 82t91 207q0 117 -86 184.5t-236 67.5q-100 0 -180 -27l33 701q66 -8 188 -8q233 0 465 24q8 -29 8 -59q0 -59 -40.5 -87t-147.5 -28h-352l-17 -397q78 16 144 16q172 0 280.5 -93t108.5 -253q0 -184 -147.5 -315 t-344.5 -131q-260 0 -260 143z" />
<glyph unicode="6" horiz-adv-x="1003" d="M88 467q0 195 57.5 359.5t151.5 271t213 166t244 59.5q117 0 164 -22.5t47 -67.5q0 -41 -25 -80q-90 53 -209 53q-133 0 -256 -113.5t-170 -310.5l2 -2q96 55 209 56q184 0 294 -104.5t110 -285.5q0 -207 -130.5 -345t-295.5 -138q-172 0 -289 137.5t-117 366.5zM268 502 q0 -205 67.5 -315.5t172.5 -110.5q94 0 161.5 84t67.5 237q0 158 -76.5 238t-203.5 80q-98 0 -172 -27q-17 -94 -17 -186z" />
<glyph unicode="7" horiz-adv-x="872" d="M53 981q207 -16 471 -16q121 0 281 12l33 -55l-222 -480q-195 -422 -321 -798q-152 0 -152 80q0 47 71 197.5t259 514.5l195 377h-465q-84 0 -117 37t-33 131z" />
<glyph unicode="8" horiz-adv-x="974" d="M78 283q0 117 79 216t222 154v2l-117 88q-127 96 -127 248q0 127 110.5 226.5t270.5 99.5q154 0 253 -84t99 -215q0 -96 -66.5 -188.5t-170.5 -147.5v-2l139 -105q72 -53 101.5 -108t29.5 -135q0 -150 -128 -259.5t-294 -109.5q-182 0 -291.5 90.5t-109.5 229.5zM240 301 q0 -100 72.5 -162.5t181.5 -62.5q96 0 168.5 61.5t72.5 161.5q0 59 -35.5 110.5t-119.5 116.5l-115 82q-104 -51 -164.5 -132t-60.5 -175zM289 1022q0 -66 32.5 -116t114.5 -107l109 -76q76 47 123 123t47 158q0 90 -58.5 145t-154.5 55q-94 0 -153.5 -54t-59.5 -128z" />
<glyph unicode="9" horiz-adv-x="1003" d="M59 -219q0 10 11 51q119 -70 252 -70q121 0 244.5 129t142.5 306l-2 2q-96 -51 -213 -52q-176 0 -290 107.5t-114 282.5q0 188 123 315t291 127q178 0 296 -133t118 -375q0 -190 -55.5 -351t-145.5 -262.5t-200.5 -157.5t-223.5 -56q-127 0 -180.5 33.5t-53.5 103.5z M264 563q0 -141 78 -224t193 -83q90 0 188 33q10 68 10 143q0 217 -72.5 324.5t-175.5 107.5q-92 0 -156.5 -83t-64.5 -218z" />
<glyph unicode=":" horiz-adv-x="563" d="M162 96q0 49 34.5 84t84 35t84 -35t34.5 -84t-34.5 -84t-84 -35t-84 35t-34.5 84zM162 868.5q0 49.5 34.5 84t84 34.5t84 -34.5t34.5 -84t-34.5 -84t-84 -34.5t-84 34.5t-34.5 84z" />
<glyph unicode=";" horiz-adv-x="563" d="M98 -256q127 133 127 299l-71 90q57 90 131 90q49 0 79.5 -31.5t30.5 -85.5q0 -131 -83 -242.5t-158 -133.5zM162 868.5q0 49.5 34.5 84t84 34.5t84 -34.5t34.5 -84t-34.5 -84t-84 -34.5t-84 34.5t-34.5 84z" />
<glyph unicode="&#x3c;" d="M158 455l614 499l70 -86l-510 -409l512 -402l-74 -92z" />
<glyph unicode="=" d="M100 272v107h863v-107h-863zM100 545v106h863v-106h-863z" />
<glyph unicode="&#x3e;" d="M223 53l512 408l-512 403l74 90l610 -489l-612 -498z" />
<glyph unicode="?" horiz-adv-x="890" d="M133 1180q0 88 85 143t257 55q162 0 257 -72.5t95 -195.5q0 -86 -64.5 -173t-256.5 -241l-123 -98q20 -111 78 -213q-33 -8 -53 -8q-61 0 -105.5 42t-44.5 107q0 55 28.5 104.5t108.5 121.5l133 120q115 102 115 211q0 82 -52 127t-147 45q-78 0 -155.5 -55t-120.5 -135 q-35 47 -35 115zM242 96q0 49 34.5 84t84 35t84 -35t34.5 -84t-34.5 -84t-84 -35t-84 35t-34.5 84z" />
<glyph unicode="@" horiz-adv-x="1714" d="M72 428q0 385 255 640t621 255q303 0 507 -196.5t204 -505.5q0 -274 -169 -465t-345 -191q-70 45 -103 101q-45 -43 -120.5 -71t-155.5 -28q-115 0 -187.5 64.5t-72.5 163.5q0 141 144.5 237t387.5 96v56q0 160 -41 214t-141 54q-174 0 -307 -133q-6 31 -6 61 q0 207 336 207q156 0 242.5 -73.5t86.5 -200.5q0 -27 -4 -110t-4 -97l-6 -332q25 -61 72 -98q102 41 188 192.5t86 335.5q0 283 -177 452t-429 169q-315 0 -523 -222.5t-208 -556.5q0 -315 153.5 -489t352.5 -174q156 0 305 53q8 -16 8 -41q0 -51 -84 -91t-223 -40 q-254 0 -448.5 209t-194.5 555zM682 225q0 -63 41 -99t119 -36q104 0 196 55v287q-166 0 -261 -59.5t-95 -147.5z" />
<glyph unicode="A" horiz-adv-x="1107" d="M-29 0v39q49 16 75 44t46 87l406 1135l143 18l377 -1231l106 -35v-43q-84 -35 -202 -34q-121 0 -213 20v39q98 22 98 85q0 13 -4 28l-70 254h-414l-94 -320l121 -27v-45q-111 -35 -225 -34q-76 0 -150 20zM354 516h353l-162 590h-2z" />
<glyph unicode="B" horiz-adv-x="1093" d="M88 1241v45q150 29 410 29q440 0 440 -303q0 -115 -89 -211t-210 -119v-2q162 0 259 -84t97 -225q0 -170 -146.5 -284t-379.5 -114q-240 0 -371 27v39q119 29 119 151v1008zM391 94q55 -8 109 -8q127 0 214 76t87 190q0 260 -344 260h-66v-518zM391 711q168 0 264.5 74.5 t96.5 207.5q0 100 -69 155.5t-200 55.5q-41 0 -92 -6v-487z" />
<glyph unicode="C" horiz-adv-x="1105" d="M88 612q0 313 182.5 513t434.5 200q197 0 303 -55l-17 -285h-55l-8 37q-25 96 -78 137t-162 41q-162 0 -280.5 -152.5t-118.5 -408.5q0 -266 111.5 -406.5t269.5 -140.5q113 0 175 38t95 120l21 49h55l-21 -270q-123 -63 -356 -64q-236 0 -393.5 170t-157.5 477z" />
<glyph unicode="D" horiz-adv-x="1306" d="M88 1241v45q170 29 416 29q328 0 521.5 -161t193.5 -452q0 -328 -216.5 -525t-529.5 -197q-231 0 -375 20v39q59 18 89 53t30 103v1003zM393 109q74 -8 101 -9q225 0 375.5 151.5t150.5 416.5q0 248 -146.5 388t-373.5 140q-51 0 -107 -6v-1081z" />
<glyph unicode="E" horiz-adv-x="960" d="M88 1255v48h772l-16 -302h-60l-6 37q-12 80 -49 112t-129 32h-205v-471h209q117 0 141 75l15 50h55v-387h-55l-10 47q-20 104 -105 104h-250v-479h244q82 0 126 26.5t75 83.5l20 39h58l-44 -270h-776v47q63 16 91 51t28 101v1001z" />
<glyph unicode="F" horiz-adv-x="890" d="M88 1257v46h772l-14 -302h-60l-6 37q-12 80 -50 112t-128 32h-207v-490h207q117 0 146 103l12 45h57v-400h-57l-10 54q-16 88 -113 88h-242v-490l150 -33v-45q-115 -35 -244 -34q-123 0 -203 20v39q119 31 119 149v1012z" />
<glyph unicode="G" horiz-adv-x="1212" d="M88 600q0 330 186.5 527.5t454.5 197.5q211 0 332 -57l-21 -283h-57l-8 39q-20 94 -84 135t-184 41q-174 0 -296 -150.5t-122 -404.5q0 -266 108.5 -409.5t280.5 -143.5q119 0 215 41v397l-129 33v45q113 33 233 33q113 0 189 -20v-39q-119 -31 -119 -142v-465 q-63 0 -97 14.5t-61 51.5q-98 -76 -288 -76q-229 0 -381 173t-152 462z" />
<glyph unicode="H" horiz-adv-x="1349" d="M88 1237v45q125 33 240 33q104 0 186 -21v-39q-119 -33 -119 -143v-373h561v465l-131 33v45q125 33 240 33q106 0 188 -21v-39q-121 -33 -120 -143v-1020l131 -33v-45q-121 -35 -240 -34q-104 0 -186 20v39q119 33 118 149v428h-561v-524l129 -33v-45q-121 -35 -239 -34 q-104 0 -187 20v39q119 33 119 149v1016z" />
<glyph unicode="I" horiz-adv-x="612" d="M88 1237v45q123 33 236 33q109 0 190 -21v-39q-66 -18 -92.5 -52t-26.5 -95v-1016l129 -33v-45q-115 -35 -235 -34q-111 0 -191 20v39q119 35 119 158v1007z" />
<glyph unicode="J" horiz-adv-x="595" d="M59 -211q70 43 114 137t44 224v1054l-129 33v45q123 33 236 33q96 0 190 -21v-39q-63 -18 -91 -51t-28 -98v-926q0 -211 -70.5 -323.5t-166.5 -112.5q-53 0 -99 18v27z" />
<glyph unicode="K" horiz-adv-x="1140" d="M88 1237v45q111 33 234 33q109 0 192 -21v-39q-66 -18 -92.5 -51t-26.5 -100v-1012l129 -33v-45q-121 -35 -243 -34q-113 0 -183 20v39q66 20 92.5 56t26.5 102v1007zM401 653v9l486 550v2l-111 25v43q111 33 223 33q84 0 142 -19v-39q-86 -41 -150 -108l-409 -457 l364 -463q51 -66 99.5 -101.5t128.5 -72.5v-41q-68 -45 -146 -45q-76 0 -130 35t-126 135z" />
<glyph unicode="L" horiz-adv-x="921" d="M88 1237v45q125 33 231.5 33t194.5 -21v-39q-66 -23 -92.5 -54.5t-26.5 -94.5v-985h230q168 0 223 112l22 48h52l-48 -281h-776v47q119 27 119 146v1011z" />
<glyph unicode="M" horiz-adv-x="1593" d="M39 0v37q113 33 121 121l90 1046l-119 35v59q106 14 279 15h73l322 -994h2l311 994h88q152 0 248 -15v-59l-127 -31l90 -1126l119 -23v-45q-76 -35 -199 -34q-135 0 -225 20v39q121 29 121 144v12l-51 929h-4l-365 -1136l-80 -11l-368 1145l-3 -2l-63 -1026l133 -35v-45 q-115 -35 -235 -34q-72 0 -158 20z" />
<glyph unicode="N" horiz-adv-x="1292" d="M88 1239v59q109 14 225 15h76l569 -936l5 2v831l-132 33v43q115 35 205 35q98 0 172 -23v-36q-70 -23 -93 -61t-23 -132v-1073l-97 -23l-647 1067l-2 -2v-946l125 -33v-45q-92 -35 -186 -34q-117 0 -187 20v39q68 18 93.5 57t25.5 123v985z" />
<glyph unicode="O" horiz-adv-x="1337" d="M88 616q0 311 184.5 511t434.5 200q231 0 386.5 -169t155.5 -447q0 -340 -179 -543t-437 -203q-233 0 -389 177t-156 474zM291 641q0 -256 106.5 -400.5t255.5 -144.5q162 0 279 148.5t117 429.5q0 254 -105.5 388t-259.5 134q-158 0 -275.5 -149.5t-117.5 -405.5z" />
<glyph unicode="P" horiz-adv-x="1075" d="M88 1241v45q166 29 422 29q246 0 376 -100.5t130 -286.5q0 -195 -148.5 -329t-343.5 -134q-68 0 -129 31v-404l150 -33v-45q-109 -35 -248 -34q-123 0 -199 20v39q119 33 119 149v1010zM393 602q66 -16 131 -16q131 0 216 87t85 232q0 139 -88 218t-241 79q-49 0 -103 -6 v-594z" />
<glyph unicode="Q" horiz-adv-x="1337" d="M88 616q0 305 182.5 508t436.5 203q233 0 387.5 -172t154.5 -444q0 -285 -131 -473.5t-348 -249.5v-2q80 -29 162 -76l135 -78q150 -86 219 -86q57 0 111 10v-39q-66 -106 -191 -106q-127 0 -282 108l-355 252q-215 33 -348 203t-133 442zM291 641q0 -256 106.5 -398.5 t255.5 -142.5q162 0 279 147.5t117 426.5q0 254 -104.5 386t-260.5 132q-158 0 -275.5 -147.5t-117.5 -403.5z" />
<glyph unicode="R" horiz-adv-x="1122" d="M88 1241v45q176 31 408 31q457 0 456 -346q0 -150 -77.5 -249t-217.5 -142l289 -387q76 -100 191 -140v-39q-66 -45 -156 -45q-68 0 -116 32t-103 114l-270 409h-97v-432l129 -33v-45q-115 -35 -233 -34q-109 0 -193 20v39q61 18 90 53t29 103v1005zM395 623h80 q127 0 209 81.5t82 235.5q0 125 -75 194.5t-208 69.5q-35 0 -88 -8v-573z" />
<glyph unicode="S" horiz-adv-x="923" d="M72 16v297h59l14 -51q23 -86 80.5 -124t172 -38t191.5 60.5t77 152.5q0 125 -179 230l-194 114q-186 111 -187 312q0 152 124 255t305 103q170 0 286 -47l-18 -289h-60l-8 41q-20 94 -68.5 130t-152.5 36q-106 0 -174 -57.5t-68 -134.5q0 -127 152 -207l203 -111 q215 -115 215 -315q0 -162 -135.5 -281t-319.5 -119q-192 0 -315 43z" />
<glyph unicode="T" horiz-adv-x="950" d="M-2 1010v299q211 -6 491 -6q260 0 463 16v-309h-63l-8 47q-18 137 -131 137h-187v-1102l152 -33v-45q-115 -35 -246 -34q-129 0 -203 20v39q121 37 121 149v1006h-154q-127 0 -159 -137l-13 -47h-63z" />
<glyph unicode="U" horiz-adv-x="1300" d="M57 1237v45q125 33 234 33q104 0 194 -19v-41q-68 -16 -94 -51t-26 -110v-684q0 -141 80.5 -224.5t220 -83.5t221.5 90.5t82 270.5v741l-131 33v45q121 35 219 35q80 0 174 -23v-39q-68 -23 -93.5 -56.5t-25.5 -96.5v-615q0 -252 -129 -384t-340 -132q-221 0 -338 105.5 t-117 298.5v829z" />
<glyph unicode="V" horiz-adv-x="1075" d="M-12 1241v43q100 33 202 33q98 0 189 -19v-38q-71 -20 -71 -83q0 -20 7 -44l246 -840h2l266 911l-129 35v43q117 35 222 35q72 0 139 -21v-39q-82 -31 -117 -141l-362 -1128l-82 -6l-402 1224z" />
<glyph unicode="W" horiz-adv-x="1634" d="M-37 1239v43q104 35 209 35q111 0 182 -19v-38q-70 -16 -69 -77q0 -18 6 -40l223 -826h2l217 887l-108 33v45q111 33 223 33q106 0 166 -21v-39q-44 -15 -44 -66q0 -18 5 -40l199 -830h2l225 883l-125 39v43q111 33 215 33q74 0 133 -21v-36q-76 -49 -102 -144 l-336 -1126l-80 -8l-285 1081h-2l-282 -1073l-78 -8l-383 1222z" />
<glyph unicode="X" horiz-adv-x="1062" d="M-23 0v39q104 35 154 113l307 503l-305 555l-110 27v45q88 35 194 35q98 0 197 -23v-39q-37 -8 -52.5 -29.5t-5.5 -43.5l193 -387l221 409l-119 33v45q106 33 217 33q88 0 158 -21v-39q-76 -20 -131 -110l-270 -445l350 -612l106 -31v-43q-88 -29 -190 -28q-96 0 -199 14 v37q37 8 51.5 34.5t-2.5 61.5l-227 414l-254 -459l133 -29v-47q-119 -27 -239 -26q-97 0 -177 14z" />
<glyph unicode="Y" horiz-adv-x="1019" d="M-27 1241v43q104 33 207 33q92 0 193 -19v-38q-73 -20 -73 -74q0 -21 11 -47l230 -439h2l248 504l-123 35v43q111 33 213 33q78 0 141 -19v-39q-39 -16 -61.5 -42.5t-53.5 -86.5l-309 -548v-488l131 -33v-45q-119 -35 -240 -34q-106 0 -188 20v39q121 29 121 147v387 l-338 635z" />
<glyph unicode="Z" horiz-adv-x="948" d="M39 51l647 1131h-358q-123 0 -168 -140l-15 -45h-65l24 306h797l19 -46l-644 -1136h363q96 0 139 31.5t74 113.5l12 39h66l-33 -305h-840z" />
<glyph unicode="[" horiz-adv-x="563" d="M207 -481v1929h325l-16 -86h-194v-1759h210l-16 -84h-309z" />
<glyph unicode="\" horiz-adv-x="665" d="M43 1454l100 21l482 -1948l-103 -21z" />
<glyph unicode="]" horiz-adv-x="563" d="M33 -481l16 86h195v1759h-211l16 84h309v-1929h-325z" />
<glyph unicode="^" d="M41 305l500 615l487 -613l-90 -74l-403 515l-408 -512z" />
<glyph unicode="_" horiz-adv-x="1024" d="M0 -160h1024v-104h-1024v104z" />
<glyph unicode="`" horiz-adv-x="921" d="M313 1350q0 41 30 59t101 18q18 -86 73.5 -193.5t109.5 -166.5l-17 -12q-74 0 -185.5 106.5t-111.5 188.5z" />
<glyph unicode="a" horiz-adv-x="917" d="M68 197q0 141 144 237t388 96v56q0 160 -41 214t-141 54q-174 0 -307 -133q-6 31 -7 61q0 207 336 207q156 0 243 -73.5t87 -200.5q0 -27 -4 -110t-4 -97l-6 -332q23 -59 82 -104q-49 -59 -140 -105q-57 37 -94 101q-45 -43 -120.5 -71t-155.5 -28q-115 0 -187.5 65 t-72.5 163zM244 227q0 -63 41 -99t118 -36q104 0 197 55v287q-166 0 -261 -59.5t-95 -147.5z" />
<glyph unicode="b" horiz-adv-x="1069" d="M59 1389v45q131 37 246 36h70l-13 -114v-463q109 94 259 94q162 0 266 -114.5t104 -317.5q0 -272 -151.5 -425t-372.5 -153q-139 0 -293 31q20 123 21 201v1124zM360 109q55 -16 109 -17q154 0 250 105.5t96 318.5q0 156 -74.5 245t-185.5 89q-109 0 -195 -49v-692z" />
<glyph unicode="c" horiz-adv-x="825" d="M78 440q0 248 137 397.5t344 149.5q221 0 221 -121q0 -51 -24 -106q-119 94 -238 94q-111 0 -186.5 -102.5t-75.5 -274.5q0 -176 82 -271t207 -95q123 0 233 82q10 -20 10 -52q0 -76 -78.5 -124t-220.5 -48q-172 0 -291.5 131t-119.5 340z" />
<glyph unicode="d" horiz-adv-x="1044" d="M78 418q0 266 140 417.5t349 151.5q84 0 142 -14v360l-140 56v45q131 37 254 36h66l-12 -114v-1174q25 -72 77 -119q-53 -47 -143 -96q-63 51 -98 123q-49 -51 -124 -84t-138 -33q-160 0 -266.5 122t-106.5 323zM256 451q0 -160 71.5 -252.5t174.5 -92.5q129 0 209 66 v678q-63 23 -150 22q-137 0 -221 -108t-84 -313z" />
<glyph unicode="e" horiz-adv-x="927" d="M78 438q0 254 128 402.5t300 148.5q166 0 260 -102.5t94 -280.5q0 -80 -2 -131h-604q0 -168 86 -265t217 -97q160 0 289 88q8 -20 8 -54q0 -72 -97.5 -125t-254.5 -53q-180 0 -302 129t-122 340zM258 582h438q0 145 -56 221t-151 76q-86 0 -158.5 -89t-72.5 -208z" />
<glyph unicode="f" horiz-adv-x="612" d="M90 829v72l113 45v152q-2 166 103.5 269t289.5 103q203 0 203 -98q0 -33 -11 -67q-123 43 -272 43q-66 0 -108.5 -59.5t-42.5 -164.5q0 -94 8 -184h262l-23 -111h-241v-743l129 -31v-39q-98 -35 -252 -34q-92 0 -154 18v35q45 16 77 46t32 64v684h-113z" />
<glyph unicode="g" horiz-adv-x="970" d="M53 -274q0 80 54.5 141t140.5 86v2q-121 43 -121 160q0 57 42 110.5t101 73.5v2q-76 31 -130 107.5t-54 177.5q0 170 120 287.5t288 117.5q61 0 127.5 -21.5t93.5 -45.5q29 27 81 46t99 19t88 -12l-14 -135q-102 23 -219 22v-2q51 -39 83.5 -100.5t32.5 -122.5 q0 -174 -122.5 -286.5t-292.5 -112.5q-68 0 -127 24q-25 -14 -45.5 -42.5t-20.5 -55.5q0 -94 131 -94l287 2h8q123 0 190 -58q70 -59 70 -172q0 -147 -144.5 -252.5t-355.5 -105.5q-186 0 -288.5 67t-102.5 173zM209 -240q0 -66 69.5 -110.5t192.5 -44.5q141 0 232.5 58 t91.5 136q0 125 -152 125h-330q-45 -20 -74.5 -66.5t-29.5 -97.5zM266 598q0 -123 57.5 -189.5t139.5 -66.5q98 0 160.5 73.5t62.5 217.5q0 123 -58.5 188.5t-146.5 65.5q-90 0 -152.5 -80t-62.5 -209z" />
<glyph unicode="h" horiz-adv-x="1126" d="M72 1389v45q127 37 245 36h66l-10 -114v-490q117 113 297 113q133 0 209.5 -82t76.5 -238v-573l107 -31v-39q-88 -35 -217 -34q-82 0 -131 18v35q74 35 73 135v391q0 276 -208 277q-121 0 -207 -64v-688l114 -31v-39q-98 -35 -237 -34q-92 0 -154 18v35q109 41 109 110 v1188z" />
<glyph unicode="i" horiz-adv-x="557" d="M74 893v43q135 39 243 39h66l-10 -111v-778l114 -31v-39q-98 -35 -237 -34q-92 0 -154 18v35q109 41 109 110v693zM182 1280q0 49 33 85t84 36q45 0 76 -31t31 -80q0 -53 -33 -90t-82 -37q-47 0 -78 33t-31 84z" />
<glyph unicode="j" horiz-adv-x="528" d="M18 -418q74 0 126.5 82t52.5 230v944l-131 55v43q137 39 245 39h66l-12 -115v-919q0 -440 -232 -441q-78 0 -115 49v33zM174 1280q0 49 33 85t84 36q45 0 75.5 -31t30.5 -80q0 -53 -32.5 -90t-81.5 -37q-47 0 -78 33t-31 84z" />
<glyph unicode="k" horiz-adv-x="964" d="M70 1389v45q131 37 245 36h70l-12 -114v-819l112 98q86 74 148.5 167t62.5 161q49 16 109 16q43 0 82 -18q-4 -72 -75 -169.5t-204 -191.5l-71 -51l315 -383q82 -98 152 -98v-43q-63 -43 -151.5 -43t-145.5 77l-334 441v-414l106 -33v-39q-100 -33 -231 -32 q-92 0 -154 18v35q45 16 78 46t33 64v1188z" />
<glyph unicode="l" horiz-adv-x="548" d="M72 1389v45q127 37 245 36h66l-10 -114v-1270l114 -31v-39q-98 -35 -237 -34q-92 0 -154 18v35q45 16 77 46t32 64v1188z" />
<glyph unicode="m" horiz-adv-x="1669" d="M72 893v45q131 37 245 37h50v-111q119 115 301 115q72 0 136 -35t95 -90q49 49 140 87t175 38q133 0 209 -82t76 -244v-567l107 -31v-39q-88 -35 -217 -34q-82 0 -132 18v35q74 33 74 135v399q0 268 -209 269q-109 0 -196 -47q12 -66 12 -154v-551l106 -31v-39 q-88 -35 -215 -34q-80 0 -133 18v35q74 33 74 135v377q0 164 -47 227.5t-148 63.5q-125 0 -202 -64v-688l114 -31v-39q-102 -35 -237 -34q-92 0 -154 18v35q45 16 77 46t32 64v693z" />
<glyph unicode="n" horiz-adv-x="1126" d="M72 893v45q131 37 245 37h50v-111q115 115 303 115q131 0 208.5 -83t77.5 -237v-573l107 -31v-39q-86 -35 -215 -34q-80 0 -133 18v35q74 33 73 135v391q0 276 -204 277q-129 0 -211 -64v-688l114 -31v-39q-98 -35 -237 -34q-92 0 -154 18v35q45 16 77 46t32 64v693z" />
<glyph unicode="o" horiz-adv-x="1091" d="M82 440q0 244 142.5 397.5t338.5 153.5q193 0 320 -131t127 -342q0 -244 -143.5 -397.5t-336 -153.5t-320.5 128t-128 345zM268 461q0 -178 79 -276.5t196 -98.5q113 0 196.5 108.5t83.5 305.5q0 172 -79.5 272t-194.5 100t-198 -109t-83 -302z" />
<glyph unicode="p" horiz-adv-x="1071" d="M61 893v45q131 37 246 37h49v-94q49 47 122 75.5t143 28.5q162 0 267 -113.5t105 -316.5q0 -272 -145.5 -425t-353.5 -153q-76 0 -132 25v-401l136 -29v-41q-100 -33 -258 -33q-92 0 -154 19v34q45 14 77 44t32 67v1176zM360 106q49 -14 132 -14q145 0 235 103.5 t90 312.5q0 160 -77.5 250t-190.5 90q-111 0 -189 -47v-695z" />
<glyph unicode="q" horiz-adv-x="1040" d="M78 422q0 260 140 411.5t355 151.5q92 0 152 -29l113 39h47l-13 -172v-1222l119 -29v-41q-100 -33 -239 -33q-94 0 -156 19v34q45 14 77 44t32 67v426q-47 -47 -124 -81t-143 -34q-154 0 -257 121t-103 328zM256 451q0 -164 68.5 -254.5t169.5 -90.5q63 0 123.5 19.5 t89.5 44.5v680q-57 25 -142 24q-141 0 -225 -108t-84 -315z" />
<glyph unicode="r" horiz-adv-x="688" d="M72 893v45q131 37 245 37h50v-144h2l57 64q84 90 180 90q106 0 107 -88q0 -61 -33 -123q-59 47 -127 47q-92 0 -180 -84v-651l141 -31v-39q-98 -35 -254 -34q-102 0 -164 18v35q45 16 77 46t32 64v693z" />
<glyph unicode="s" horiz-adv-x="757" d="M66 137q0 51 18 84q137 -129 289 -129q84 0 129 36t45 91t-38 93t-138 81l-103 43q-184 80 -184 254q0 125 100.5 213t255.5 88q229 0 230 -127q0 -39 -11 -86q-113 78 -233 78q-94 0 -143.5 -36t-49.5 -91t35 -91t125 -71l111 -43q109 -43 156 -102.5t47 -151.5 q0 -123 -106.5 -212t-274.5 -89q-260 0 -260 168z" />
<glyph unicode="t" horiz-adv-x="634" d="M78 831v68l221 219l68 8l-9 -184h271l-15 -111h-262l-4 -258q-2 -86 -2 -239q0 -223 125 -223q86 0 152 53l20 -8q-12 -182 -221 -183q-125 0 -184.5 69t-59.5 216q0 18 6 301l6 272h-112z" />
<glyph unicode="u" horiz-adv-x="1087" d="M68 895v43q135 39 229 39h68l-13 -115v-463q0 -156 48.5 -220t150.5 -64q111 0 201 59v664l-119 57v43q137 39 231 39h68l-12 -115v-692q18 -43 77 -107q-49 -53 -139 -96q-68 47 -96 119q-45 -41 -126 -75t-169 -34q-283 0 -283 336v525z" />
<glyph unicode="v" horiz-adv-x="847" d="M-41 926v49h391v-49l-117 -49l222 -650h2l227 643l-117 56v49h316v-49l-58 -47l-364 -904l-70 -4l-348 895z" />
<glyph unicode="w" horiz-adv-x="1366" d="M-41 926v49h397v-49l-118 -49l182 -658h2l203 653l-113 54v49h348v-49l-59 -45l184 -660h2l211 649l-117 56v49h316v-49l-56 -45l-344 -906l-86 -4l-227 754h-2l-236 -750l-92 -4l-307 893z" />
<glyph unicode="x" horiz-adv-x="872" d="M-20 0v35q84 27 126 92l246 354l-250 393l-90 52v49h369v-49l-90 -39l170 -314l178 304l-109 49v49h314v-49l-62 -45l-256 -369l277 -426l86 -31v-39q-88 -35 -191 -34q-88 0 -149 18v35q60 19 59 50q0 12 -8 26l-184 292l-195 -319l111 -29v-39q-102 -35 -213 -34 q-73 0 -139 18z" />
<glyph unicode="y" horiz-adv-x="817" d="M-57 -342q39 -8 92 -8q72 0 153.5 82t141.5 237l35 92l-324 805l-78 60v49h377v-49l-111 -49l217 -625h3l194 618l-115 56v49h308v-49l-52 -45l-288 -799q-111 -309 -223.5 -446.5t-204.5 -137.5q-63 0 -94 36t-31 124z" />
<glyph unicode="z" horiz-adv-x="798" d="M35 31l504 819h-240q-117 0 -147 -88l-19 -51h-61l22 256l656 -2l16 -37l-498 -813h252q76 0 113 18.5t57 59.5l33 67h55l-28 -260h-699z" />
<glyph unicode="{" horiz-adv-x="563" d="M-63 459v45q137 27 209.5 81t72.5 126v506q0 109 60.5 178t158.5 69q88 0 88 -75q-195 0 -194 -152v-510q0 -102 -81 -167.5t-241 -78.5v-2q322 -23 322 -241v-494q0 -166 207 -166q0 -35 -25 -56.5t-70 -21.5q-104 0 -164.5 58.5t-60.5 152.5v488q1 162 -282 260z" />
<glyph unicode="|" horiz-adv-x="614" d="M252 -541v2048h110v-2048h-110z" />
<glyph unicode="}" horiz-adv-x="563" d="M29 1384q0 35 24.5 56.5t69.5 21.5q104 0 164.5 -58t60.5 -153v-487q0 -162 283 -260v-45q-137 -27 -210 -81t-73 -126v-506q0 -109 -60.5 -178.5t-158.5 -69.5q-88 0 -88 76q195 0 195 152v510q0 102 80.5 167.5t240.5 77.5v2q-322 23 -321 242v494q0 165 -207 165z" />
<glyph unicode="~" d="M227 539q0 49 36 78.5t102 29.5q55 0 141 -26l98 -27q53 -16 98 -16q37 0 68 30.5t31 69.5q51 -45 51 -109q0 -51 -42 -85.5t-101 -34.5q-61 0 -138 20l-100 31q-57 18 -100 18q-37 0 -64.5 -25.5t-27.5 -60.5q-52 41 -52 107z" />
<glyph unicode="&#xa1;" horiz-adv-x="624" d="M102 -4l62 143l67 383q20 119 21 254q0 133 -31 238q82 0 135.5 -68.5t53.5 -195.5q0 -72 -30 -276t-30 -279q0 -92 29 -166q-134 -33 -277 -33zM207 1276q0 49 34.5 84t84 35t84 -35t34.5 -84t-34.5 -84t-84 -35t-84 35t-34.5 84z" />
<glyph unicode="&#xa2;" d="M174 440q0 236 126 384.5t321 160.5v174h65v-172q190 -8 191 -121q0 -51 -25 -106q-84 66 -166 86v-733q100 14 188 80q10 -20 11 -52q0 -59 -52.5 -104t-146.5 -60v-165h-65v159q-12 -2 -35 -2q-172 0 -292 131t-120 340zM352 477q0 -168 75 -263t194 -103v743h-7 q-111 0 -186.5 -102.5t-75.5 -274.5z" />
<glyph unicode="&#xa3;" d="M137 0v47q63 16 91 51t28 101l18 405h-118v80l125 25l10 299q4 139 120.5 230t282.5 91q258 0 258 -84q0 -43 -22 -94q-113 66 -271 66q-90 0 -146 -54.5t-60 -148.5l-13 -303h363l-15 -107h-352l-14 -483h293q82 0 126 26.5t74 83.5l21 39h57l-43 -270h-813z" />
<glyph unicode="&#xa4;" d="M152 406l90 88q-72 98 -72 219q0 125 74 217l-92 90l73 74l90 -93q100 74 217 74q125 0 218 -74l90 93l73 -74l-92 -90q74 -96 74 -217t-72 -219l90 -88l-73 -74l-90 90q-94 -72 -218 -72q-121 0 -217 74l-90 -92zM285 712.5q0 -102.5 72.5 -175t175 -72.5t175 72.5 t72.5 175t-72.5 175.5t-175 73t-175 -73t-72.5 -175.5z" />
<glyph unicode="&#xa5;" d="M12 1241v43q104 33 207 33q92 0 193 -19v-38q-102 -29 -62 -121l221 -439h2l240 504l-123 35v43q111 33 213 33q78 0 141 -19v-39q-39 -16 -61 -42.5t-53 -86.5l-295 -530h332v-84h-342v-102h342v-84h-342v-236l131 -33v-45q-119 -35 -236 -34q-106 0 -188 20v39 q121 29 121 147v142h-326v84h326v102h-326v84h313l-317 610z" />
<glyph unicode="&#xa6;" horiz-adv-x="614" d="M252 309h110v-850h-110v850zM252 659v848h110v-848h-110z" />
<glyph unicode="&#xa7;" horiz-adv-x="1024" d="M143 862q0 184 130 320.5t317 136.5q152 0 270 -47l-18 -289h-60l-8 41q-18 90 -66.5 127t-132.5 37q-68 0 -114.5 -67.5t-46.5 -159.5q0 -117 151 -312l209 -268q127 -160 127 -350q0 -213 -148.5 -371t-338.5 -158q-156 0 -267 60v280h60l14 -51q23 -82 85.5 -125 t150.5 -43q72 0 126 68.5t54 183.5q0 162 -135 342l-219 291q-140 182 -140 354zM240 887q0 -150 133 -326l221 -289q133 -178 133 -356q0 -76 -34 -152.5t-83 -125.5q57 0 127 113.5t70 256.5q0 170 -127 332l-203 258q-147 186 -147 334q0 195 127 280q-78 0 -147.5 -96 t-69.5 -229z" />
<glyph unicode="&#xa8;" horiz-adv-x="921" d="M217 1262q0 41 28.5 69.5t69.5 28.5t70 -28.5t29 -69.5t-29 -70t-70 -29t-69.5 29t-28.5 70zM537 1262q0 41 28.5 69.5t69.5 28.5t69.5 -28.5t28.5 -69.5t-28.5 -70t-69.5 -29t-69.5 29t-28.5 70z" />
<glyph unicode="&#xa9;" horiz-adv-x="1740" d="M182 641q0 285 206 488.5t491 203.5q287 0 483.5 -195.5t196.5 -480t-206 -490.5t-490.5 -206t-482.5 197.5t-198 482.5zM293 649q0 -250 168 -425t409.5 -175t409.5 175t168 425q0 246 -169 421t-408.5 175t-408.5 -175t-169 -421zM532 653q0 178 119 296t271 118 q133 0 213 -45l-19 -172h-33l-10 33q-31 100 -164 100q-86 0 -151.5 -86t-65.5 -227q0 -143 64.5 -224t154.5 -81q131 0 164 100l10 33h33l-10 -168q-100 -55 -225 -56q-139 0 -245 106.5t-106 272.5z" />
<glyph unicode="&#xaa;" horiz-adv-x="647" d="M47 795q0 92 101.5 153.5t271.5 61.5v34q0 100 -29 135t-94 35q-121 0 -215 -90q-6 25 -6 52q0 133 239 133q117 0 179.5 -47.5t62.5 -133.5q0 -12 -3 -63t-3 -72l-4 -213q16 -37 57 -67q-29 -35 -110 -72q-39 23 -68 66q-29 -23 -86 -42.5t-107 -19.5q-82 0 -134 42 t-52 108zM186 815q0 -84 107 -84q72 0 127 31v182q-109 0 -171.5 -37t-62.5 -92z" />
<glyph unicode="&#xab;" horiz-adv-x="921" d="M76 518l110 162q150 219 236 219q53 0 104 -39q-125 -102 -239 -248l-60 -77l99 -164q74 -123 174 -215q-63 -25 -119 -25q-86 0 -172 152zM438 518l111 162q152 219 235 219q53 0 105 -39q-131 -109 -240 -248l-59 -77l98 -164q74 -123 174 -215q-63 -25 -119 -25 q-86 0 -172 152z" />
<glyph unicode="&#xac;" d="M100 541v104h863v-401h-113v297h-750z" />
<glyph unicode="&#xad;" horiz-adv-x="622" d="M59 473l39 150l473 20l-28 -147z" />
<glyph unicode="&#xae;" horiz-adv-x="1740" d="M182 641q0 285 206 488.5t491 203.5q287 0 483.5 -195.5t196.5 -480t-206 -490.5t-490.5 -206t-482.5 197.5t-198 482.5zM293 649q0 -250 168 -425t409.5 -175t409.5 175t168 425q0 246 -169 421t-408.5 175t-408.5 -175t-169 -421zM565 999v35q119 23 309 23 q141 0 215 -54.5t74 -146.5q0 -78 -50 -139.5t-132 -85.5l113 -150q72 -96 172 -129v-22q-47 -47 -119 -47q-100 0 -199 155l-90 142h-82v-220l82 -24v-25q-72 -27 -143 -26q-59 0 -144 18v29q70 20 70 92v553zM776 647h58q78 0 130 50.5t52 133.5q0 66 -45 105t-121 39 q-29 0 -74 -4v-324z" />
<glyph unicode="&#xaf;" horiz-adv-x="921" d="M188 1178v120h545v-120h-545z" />
<glyph unicode="&#xb0;" horiz-adv-x="901" d="M160 1036q0 121 86 208t205 87q121 0 206.5 -84t85.5 -207q0 -117 -88 -201.5t-206.5 -84.5t-203.5 82.5t-85 199.5zM264 1040.5q0 -79.5 56.5 -139t130 -59.5t131 58t57.5 138q0 82 -57.5 143.5t-131 61.5t-130 -61.5t-56.5 -141z" />
<glyph unicode="&#xb1;" d="M100 0v106h863v-106h-863zM100 541v104h377v279h113v-279h373v-104h-373v-297h-113v297h-377z" />
<glyph unicode="&#xb2;" horiz-adv-x="667" d="M47 729l262 211q115 92 115 178q0 51 -37 82t-102 31q-104 0 -199 -94q-16 33 -16 67q0 47 61.5 81t181.5 34q129 0 197 -47t68 -123q0 -131 -175 -252l-198 -141h137q141 0 270 32q10 -27 11 -59q0 -39 -31 -56.5t-109 -17.5q-29 0 -186.5 3.5t-241.5 3.5z" />
<glyph unicode="&#xb3;" horiz-adv-x="667" d="M72 729q0 25 18 53q100 -61 191 -61q72 0 120 31.5t48 78.5q0 45 -55.5 74t-166.5 29q-27 0 -63 -4l-14 82h53q92 -2 160.5 36.5t68.5 94.5q0 90 -129 90q-106 0 -190 -70q-16 29 -17 68q0 35 62.5 61.5t177.5 26.5q121 0 184.5 -42t63.5 -108q0 -61 -61.5 -111 t-155.5 -67v-2q113 0 174 -39t61 -104q0 -84 -91 -142.5t-224 -58.5q-215 0 -215 84z" />
<glyph unicode="&#xb4;" horiz-adv-x="921" d="M295 1067q53 59 108.5 166.5t73.5 193.5q72 0 101.5 -18t29.5 -59q0 -82 -111.5 -188.5t-185.5 -106.5z" />
<glyph unicode="&#xb5;" horiz-adv-x="1087" d="M170 961q72 16 135 16h68l-13 -115v-565q0 -98 47.5 -140t151.5 -42q111 0 201 59v664l-17 125q59 14 129 14h68l-12 -115v-653q0 -123 78 -123h75v-45q-68 -68 -172 -68t-139 113q-43 -39 -130 -74t-163 -35q-109 0 -158 50v-93q0 -139 18.5 -215.5t53.5 -107.5t103 -43 v-45q-59 -27 -148 -27q-80 0 -121 66.5t-41 228.5q0 70 4.5 203t4.5 221v623z" />
<glyph unicode="&#xb6;" horiz-adv-x="1024" d="M125 801q0 227 157.5 371.5t383.5 144.5q170 0 340 -27v-39q-61 -16 -91 -46.5t-30 -96.5v-1481l139 -39v-45q-143 -43 -297 -43q-117 0 -235 29v39q119 33 118 149v752q-63 -37 -157 -37q-141 0 -234.5 98.5t-93.5 270.5zM705 -410h88v1639h-88v-1639z" />
<glyph unicode="&#xb7;" horiz-adv-x="563" d="M164 506q0 49 34.5 84t84 35t84 -35t34.5 -84t-34.5 -84t-84 -35t-84 35t-34.5 84z" />
<glyph unicode="&#xb8;" horiz-adv-x="552" d="M102 -285q86 -53 168 -53q49 0 81 25.5t32 54.5q0 74 -125 74l35 196h69v-118q74 0 115 -32t41 -83q0 -82 -82 -148.5t-182 -66.5q-72 0 -112 39.5t-40 111.5z" />
<glyph unicode="&#xb9;" horiz-adv-x="667" d="M127 1212v54q100 47 246 47q43 0 59 -2q-12 -61 -12 -101v-465l158 -30v-17q-94 -55 -256 -55q-115 0 -189 19v24q150 35 150 150v387z" />
<glyph unicode="&#xba;" horiz-adv-x="780" d="M55 948q0 160 105.5 259.5t249.5 99.5q135 0 224 -85t89 -216q0 -168 -105.5 -267.5t-242.5 -99.5t-228.5 86t-91.5 223zM213 958q0 -109 49 -171t121 -62q76 0 129 67.5t53 198.5q0 109 -48 169.5t-122 60.5q-76 0 -129 -67t-53 -196z" />
<glyph unicode="&#xbb;" horiz-adv-x="921" d="M31 172q135 109 239 248l60 78l-99 164q-66 113 -172 215q59 25 119 24q84 0 170 -151l135 -236l-112 -162q-150 -219 -234 -219q-53 0 -106 39zM395 172q135 111 238 248l61 78l-98 164q-74 123 -174 215q63 25 119 24q86 0 172 -151l133 -236l-111 -162 q-152 -219 -235 -219q-54 0 -105 39z" />
<glyph unicode="&#xbc;" horiz-adv-x="1458" d="M143 1212v54q100 47 246 47q43 0 60 -2q-12 -61 -13 -101v-465l158 -30v-17q-94 -55 -256 -55q-115 0 -188 19v24q150 35 149 150v387zM260 -68l879 1469l75 -43l-878 -1469zM739 145q0 147 134.5 302t312.5 202h63q-14 -109 -14 -207v-202h35q33 0 61 14q8 -23 8 -47 q0 -35 -17 -49.5t-58 -14.5h-31v-90l96 -24v-23q-63 -25 -158 -24q-98 0 -161 18v25q88 16 88 71v49h-359zM852 240h250v159q0 82 6 138l-2 2q-80 -39 -155.5 -129t-98.5 -170z" />
<glyph unicode="&#xbd;" horiz-adv-x="1458" d="M143 1212v54q100 47 246 47q43 0 60 -2q-12 -61 -13 -101v-465l158 -30v-17q-106 -63 -256 -63q-82 0 -188 27v24q150 35 149 150v387zM236 -68l878 1469l76 -43l-879 -1469zM801 68l262 211q115 92 115 178q0 51 -37 81.5t-103 30.5q-104 0 -198 -94q-16 33 -17 68 q0 47 61.5 80.5t182.5 33.5q129 0 196.5 -47t67.5 -123q0 -131 -174 -251l-199 -142h138q141 0 270 33q10 -27 10 -59q0 -39 -30.5 -56.5t-108.5 -17.5q-29 0 -186.5 3t-241.5 3z" />
<glyph unicode="&#xbe;" horiz-adv-x="1458" d="M88 729q0 25 18 53q100 -61 191 -61q72 0 120 31.5t48 78.5q0 45 -55.5 74t-165.5 29q-27 0 -64 -4l-14 82h53q92 -2 161 36.5t69 94.5q0 90 -130 90q-106 0 -190 -70q-16 29 -16 68q0 35 62.5 61.5t176.5 26.5q121 0 184.5 -42t63.5 -108q0 -61 -61.5 -111t-155.5 -67 v-2q113 0 174 -39t61 -104q0 -84 -91 -142.5t-224 -58.5q-215 0 -215 84zM252 -68l878 1469l76 -43l-878 -1469zM739 145q0 147 134.5 302t312.5 202h63q-14 -109 -14 -207v-202h35q33 0 61 14q8 -23 8 -47q0 -35 -17 -49.5t-58 -14.5h-31v-90l96 -24v-23q-63 -25 -158 -24 q-98 0 -161 18v25q88 16 88 71v49h-359zM852 240h250v159q0 82 6 138l-2 2q-80 -39 -155.5 -129t-98.5 -170z" />
<glyph unicode="&#xbf;" horiz-adv-x="890" d="M63 260q0 86 65 173t257 241l123 98q-20 111 -78 213q33 8 53 8q61 0 105.5 -42t44.5 -107q0 -55 -29 -104.5t-108 -121.5l-134 -120q-115 -102 -114 -211q0 -82 52 -127t146 -45q78 0 156 55t121 135q35 -47 35 -115q0 -88 -85 -143t-257 -55q-162 0 -257.5 72.5 t-95.5 195.5zM412 1274q0 49 34.5 84t84 35t84 -35t34.5 -84t-34.5 -84t-84 -35t-84 35t-34.5 84z" />
<glyph unicode="&#xc0;" horiz-adv-x="1107" d="M-29 0v39q49 16 75 44t46 87l406 1135l143 18l377 -1231l106 -35v-43q-84 -35 -202 -34q-121 0 -213 20v39q119 27 94 113l-70 254h-414l-94 -320l121 -27v-45q-111 -35 -225 -34q-76 0 -150 20zM354 516h353l-162 590h-2zM385 1657q0 41 28.5 59.5t100.5 18.5 q18 -86 73.5 -193.5t108.5 -167.5l-16 -12q-72 0 -183.5 106.5t-111.5 188.5z" />
<glyph unicode="&#xc1;" horiz-adv-x="1107" d="M-29 0v39q49 16 75 44t46 87l406 1135l143 18l377 -1231l106 -35v-43q-84 -35 -202 -34q-121 0 -213 20v39q119 27 94 113l-70 254h-414l-94 -320l121 -27v-45q-111 -35 -225 -34q-76 0 -150 20zM354 516h353l-162 590h-2zM449 1374q53 59 108 167t74 194 q72 0 100.5 -18.5t28.5 -59.5q0 -82 -111.5 -188.5t-185.5 -106.5z" />
<glyph unicode="&#xc2;" horiz-adv-x="1107" d="M-29 0v39q49 16 75 44t46 87l406 1135l143 18l377 -1231l106 -35v-43q-84 -35 -202 -34q-121 0 -213 20v39q119 27 94 113l-70 254h-414l-94 -320l121 -27v-45q-111 -35 -225 -34q-76 0 -150 20zM279 1466l274 260l74 13l288 -316l-28 -28q-106 0 -199 92 q-66 66 -100 135l-232 -233q-50 28 -77 77zM354 516h353l-162 590h-2z" />
<glyph unicode="&#xc3;" horiz-adv-x="1107" d="M-29 0v39q49 16 75 44t46 87l406 1135l143 18l377 -1231l106 -35v-43q-84 -35 -202 -34q-121 0 -213 20v39q119 27 94 113l-70 254h-414l-94 -320l121 -27v-45q-111 -35 -225 -34q-76 0 -150 20zM268 1524q0 49 37 77.5t101 28.5q61 0 141 -24l98 -29q53 -16 98 -16 q37 0 68 30.5t31 69.5q51 -45 51 -107q0 -51 -42 -86.5t-101 -35.5q-66 0 -138 22l-100 31q-61 16 -100 16q-37 0 -65 -25.5t-28 -60.5q-51 41 -51 109zM354 516h353l-162 590h-2z" />
<glyph unicode="&#xc4;" horiz-adv-x="1107" d="M-29 0v39q49 16 75 44t46 87l406 1135l143 18l377 -1231l106 -35v-43q-84 -35 -202 -34q-121 0 -213 20v39q119 27 94 113l-70 254h-414l-94 -320l121 -27v-45q-111 -35 -225 -34q-76 0 -150 20zM311 1499q0 41 29 69.5t70 28.5t69.5 -28.5t28.5 -69.5t-28.5 -69.5 t-69.5 -28.5t-70 28.5t-29 69.5zM354 516h353l-162 590h-2zM631 1499q0 41 28.5 69.5t69.5 28.5t69.5 -28.5t28.5 -69.5t-28.5 -69.5t-69.5 -28.5t-69.5 28.5t-28.5 69.5z" />
<glyph unicode="&#xc5;" horiz-adv-x="1107" d="M-29 0v39q49 16 75 44t46 87l406 1135l143 18l377 -1231l106 -35v-43q-84 -35 -202 -34q-121 0 -213 20v39q119 27 94 113l-70 254h-414l-94 -320l121 -27v-45q-111 -35 -225 -34q-76 0 -150 20zM354 516h353l-162 590h-2zM375 1513q0 76 52 130.5t124 54.5 q78 0 131 -50.5t53 -129.5q0 -74 -53 -126.5t-127 -52.5q-76 0 -128 48t-52 126zM457 1516q0 -47 27.5 -77t68.5 -30q45 0 70.5 28.5t25.5 78t-26.5 82t-69.5 32.5t-69.5 -32.5t-26.5 -81.5z" />
<glyph unicode="&#xc6;" horiz-adv-x="1445" d="M-23 0v39q37 16 60.5 45t52.5 86l561 1133h695l-17 -302h-59l-6 37q-12 80 -49 112t-130 32h-204v-471h209q117 0 141 75l14 50h55v-387h-55l-10 47q-23 104 -105 104h-249v-479h243q82 0 126 26.5t75 83.5l21 39h57l-43 -270h-776v47q63 16 90.5 51t27.5 101v213h-348 l-139 -326l129 -27v-45q-111 -35 -225 -34q-68 0 -142 20zM397 516h305v655h-2z" />
<glyph unicode="&#xc7;" horiz-adv-x="1105" d="M88 612q0 313 182.5 513t434.5 200q197 0 303 -55l-17 -285h-55l-8 37q-25 96 -78 137t-162 41q-162 0 -280.5 -152.5t-118.5 -408.5q0 -266 111.5 -406.5t269.5 -140.5q113 0 175 38t95 120l21 49h55l-21 -270q-121 -61 -342 -64v-76q74 0 115 -31.5t41 -82.5 q0 -82 -82 -148.5t-182 -66.5q-72 0 -112 40t-40 111q86 -53 168 -53q49 0 81 25.5t32 54.5q0 74 -125 74l26 157q-213 23 -350 190.5t-137 452.5z" />
<glyph unicode="&#xc8;" horiz-adv-x="960" d="M88 1255v48h772l-16 -302h-60l-6 37q-12 80 -49 112t-129 32h-205v-471h209q117 0 141 75l15 50h55v-387h-55l-10 47q-20 104 -105 104h-250v-479h244q82 0 126 26.5t75 83.5l20 39h58l-44 -270h-776v47q63 16 91 51t28 101v1001zM317 1657q0 41 29 59.5t100 18.5 q18 -86 73.5 -193.5t109.5 -167.5l-15 -12q-74 0 -185.5 106.5t-111.5 188.5z" />
<glyph unicode="&#xc9;" horiz-adv-x="960" d="M88 1255v48h772l-16 -302h-60l-6 37q-12 80 -49 112t-129 32h-205v-471h209q117 0 141 75l15 50h55v-387h-55l-10 47q-20 104 -105 104h-250v-479h244q82 0 126 26.5t75 83.5l20 39h58l-44 -270h-776v47q63 16 91 51t28 101v1001zM430 1374q53 59 108.5 167t73.5 194 q72 0 101.5 -18.5t29.5 -59.5q0 -82 -111.5 -188.5t-185.5 -106.5z" />
<glyph unicode="&#xca;" horiz-adv-x="960" d="M88 1255v48h772l-16 -302h-60l-6 37q-12 80 -49 112t-129 32h-205v-471h209q117 0 141 75l15 50h55v-387h-55l-10 47q-20 104 -105 104h-250v-479h244q82 0 126 26.5t75 83.5l20 39h58l-44 -270h-776v47q63 16 91 51t28 101v1001zM217 1464l275 260l73 13l287 -316 l-29 -28q-104 0 -198 92q-57 57 -99 135l-233 -234q-53 29 -76 78z" />
<glyph unicode="&#xcb;" horiz-adv-x="960" d="M88 1255v48h772l-16 -302h-60l-6 37q-12 80 -49 112t-129 32h-205v-471h209q117 0 141 75l15 50h55v-387h-55l-10 47q-20 104 -105 104h-250v-479h244q82 0 126 26.5t75 83.5l20 39h58l-44 -270h-776v47q63 16 91 51t28 101v1001zM272 1544q0 41 29 69.5t70 28.5 t69.5 -28.5t28.5 -69.5t-28.5 -69.5t-69.5 -28.5t-70 28.5t-29 69.5zM592 1544q0 41 28.5 69.5t69.5 28.5t69.5 -28.5t28.5 -69.5t-28.5 -69.5t-69.5 -28.5t-69.5 28.5t-28.5 69.5z" />
<glyph unicode="&#xcc;" horiz-adv-x="612" d="M88 1237v45q123 33 236 33q109 0 190 -21v-39q-66 -18 -92.5 -52t-26.5 -95v-1016l129 -33v-45q-115 -35 -235 -34q-111 0 -191 20v39q119 35 119 158v1007zM129 1657q0 41 28.5 59.5t100.5 18.5q18 -86 73.5 -194.5t108.5 -166.5l-16 -14q-72 0 -183.5 106.5 t-111.5 190.5z" />
<glyph unicode="&#xcd;" horiz-adv-x="612" d="M88 1237v45q123 33 236 33q109 0 190 -21v-39q-66 -18 -92.5 -52t-26.5 -95v-1016l129 -33v-45q-115 -35 -235 -34q-111 0 -191 20v39q119 35 119 158v1007zM176 1374q53 59 108.5 167t73.5 194q72 0 100.5 -18.5t28.5 -59.5q0 -82 -111.5 -188.5t-182.5 -106.5z" />
<glyph unicode="&#xce;" horiz-adv-x="612" d="M-8 1466l274 260l74 13l289 -316l-29 -28q-106 0 -199 92q-66 66 -100 135l-231 -233q-51 28 -78 77zM88 1237v45q123 33 236 33q109 0 190 -21v-39q-66 -18 -92.5 -52t-26.5 -95v-1016l129 -33v-45q-115 -35 -235 -34q-111 0 -191 20v39q119 35 119 158v1007z" />
<glyph unicode="&#xcf;" horiz-adv-x="612" d="M66 1544q0 41 28.5 69.5t69.5 28.5t69.5 -28.5t28.5 -69.5t-28.5 -69.5t-69.5 -28.5t-69.5 28.5t-28.5 69.5zM88 1237v45q123 33 236 33q109 0 190 -21v-39q-66 -18 -92.5 -52t-26.5 -95v-1016l129 -33v-45q-115 -35 -235 -34q-111 0 -191 20v39q119 35 119 158v1007z M385 1544q0 41 28.5 69.5t69.5 28.5t70 -28.5t29 -69.5t-29 -69.5t-70 -28.5t-69.5 28.5t-28.5 69.5z" />
<glyph unicode="&#xd0;" horiz-adv-x="1306" d="M49 612v105h168v481l-129 43v45q170 29 416 29q328 0 521.5 -161t193.5 -452q0 -328 -216.5 -525t-529.5 -197q-231 0 -375 20v39q59 18 89 53t30 103v417h-168zM393 109q74 -8 101 -9q225 0 375.5 151.5t150.5 416.5q0 248 -146.5 388t-373.5 140q-51 0 -107 -6v-473 h297v-105h-297v-503z" />
<glyph unicode="&#xd1;" horiz-adv-x="1292" d="M88 1239v59q109 14 225 15h76l569 -936l5 2v831l-132 33v43q115 35 205 35q98 0 172 -23v-36q-70 -23 -93 -61t-23 -132v-1073l-97 -23l-647 1067l-2 -2v-946l125 -33v-45q-92 -35 -186 -34q-117 0 -187 20v39q68 18 93.5 57t25.5 123v985zM383 1479q0 49 36 78.5 t101 29.5q55 0 142 -26l98 -27q53 -16 98 -16q37 0 67.5 30.5t30.5 69.5q51 -45 52 -109q0 -51 -42 -85.5t-102 -34.5q-66 0 -137 20l-100 31q-57 18 -101 18q-37 0 -64.5 -25.5t-27.5 -60.5q-51 41 -51 107z" />
<glyph unicode="&#xd2;" horiz-adv-x="1337" d="M88 616q0 311 184.5 511t434.5 200q231 0 386.5 -169t155.5 -447q0 -340 -179 -543t-437 -203q-233 0 -389 177t-156 474zM291 641q0 -256 106.5 -400.5t255.5 -144.5q162 0 279 148.5t117 429.5q0 254 -105.5 388t-259.5 134q-158 0 -275.5 -149.5t-117.5 -405.5z M512 1657q0 41 29.5 59.5t101.5 18.5q18 -86 73.5 -193.5t108.5 -167.5l-16 -12q-74 0 -185.5 106.5t-111.5 188.5z" />
<glyph unicode="&#xd3;" horiz-adv-x="1337" d="M88 616q0 311 184.5 511t434.5 200q231 0 386.5 -169t155.5 -447q0 -340 -179 -543t-437 -203q-233 0 -389 177t-156 474zM291 641q0 -256 106.5 -400.5t255.5 -144.5q162 0 279 148.5t117 429.5q0 254 -105.5 388t-259.5 134q-158 0 -275.5 -149.5t-117.5 -405.5z M526 1374q53 59 108.5 167t74.5 194q72 0 101.5 -18.5t29.5 -59.5q0 -82 -112 -188.5t-185 -106.5z" />
<glyph unicode="&#xd4;" horiz-adv-x="1337" d="M88 616q0 311 184.5 511t434.5 200q231 0 386.5 -169t155.5 -447q0 -340 -179 -543t-437 -203q-233 0 -389 177t-156 474zM291 641q0 -256 106.5 -400.5t255.5 -144.5q162 0 279 148.5t117 429.5q0 254 -105.5 388t-259.5 134q-158 0 -275.5 -149.5t-117.5 -405.5z M389 1466l277 260l73 13l287 -316l-29 -28q-104 0 -198 92q-61 61 -99 135l-233 -233q-51 28 -78 77z" />
<glyph unicode="&#xd5;" horiz-adv-x="1337" d="M88 616q0 311 184.5 511t434.5 200q231 0 386.5 -169t155.5 -447q0 -340 -179 -543t-437 -203q-233 0 -389 177t-156 474zM291 641q0 -256 106.5 -400.5t255.5 -144.5q162 0 279 148.5t117 429.5q0 254 -105.5 388t-259.5 134q-158 0 -275.5 -149.5t-117.5 -405.5z M389 1524q0 49 37 78.5t100 29.5q53 0 144 -26l96 -27q53 -16 98 -16q37 0 68 30.5t31 69.5q51 -45 51 -109q0 -51 -42 -85.5t-102 -34.5q-61 0 -137 20l-98 31q-61 18 -103 18q-35 0 -63.5 -26.5t-28.5 -59.5q-51 44 -51 107z" />
<glyph unicode="&#xd6;" horiz-adv-x="1337" d="M88 616q0 311 184.5 511t434.5 200q231 0 386.5 -169t155.5 -447q0 -340 -179 -543t-437 -203q-233 0 -389 177t-156 474zM291 641q0 -256 106.5 -400.5t255.5 -144.5q162 0 279 148.5t117 429.5q0 254 -105.5 388t-259.5 134q-158 0 -275.5 -149.5t-117.5 -405.5z M444 1501q0 41 29 69.5t70 28.5t69.5 -28.5t28.5 -69.5t-28.5 -69.5t-69.5 -28.5t-70 28.5t-29 69.5zM764 1501q0 41 28.5 69.5t69.5 28.5t70 -28.5t29 -69.5t-29 -69.5t-70 -28.5t-69.5 28.5t-28.5 69.5z" />
<glyph unicode="&#xd7;" d="M168 748l78 75l289 -291l286 291l76 -75l-289 -289l289 -287l-76 -76l-286 289l-289 -289l-76 78l289 285z" />
<glyph unicode="&#xd8;" horiz-adv-x="1337" d="M88 616q0 311 184.5 511t434.5 200q150 0 272 -76l111 185l67 -35l-117 -193q209 -172 209 -497q0 -340 -179 -543t-437 -203q-158 0 -289 86l-121 -201l-67 35l129 215q-197 180 -197 516zM291 641q0 -233 92 -379l512 852q-90 82 -211 82q-158 0 -275.5 -149.5 t-117.5 -405.5zM432 197q94 -100 221 -101q162 0 279 148.5t117 429.5q0 240 -101 381z" />
<glyph unicode="&#xd9;" horiz-adv-x="1300" d="M57 1237v45q125 33 234 33q104 0 194 -19v-41q-68 -16 -94 -51t-26 -110v-684q0 -141 80.5 -224.5t220 -83.5t221.5 90.5t82 270.5v741l-131 33v45q121 35 219 35q80 0 174 -23v-39q-68 -23 -93.5 -56.5t-25.5 -96.5v-615q0 -252 -129 -384t-340 -132q-221 0 -338 105.5 t-117 298.5v829zM463 1657q0 41 29.5 59.5t101.5 18.5q18 -86 73.5 -193.5t108.5 -167.5l-16 -12q-74 0 -185.5 106.5t-111.5 188.5z" />
<glyph unicode="&#xda;" horiz-adv-x="1300" d="M57 1237v45q125 33 234 33q104 0 194 -19v-41q-68 -16 -94 -51t-26 -110v-684q0 -141 80.5 -224.5t220 -83.5t221.5 90.5t82 270.5v741l-131 33v45q121 35 219 35q80 0 174 -23v-39q-68 -23 -93.5 -56.5t-25.5 -96.5v-615q0 -252 -129 -384t-340 -132q-221 0 -338 105.5 t-117 298.5v829zM528 1374q53 59 108.5 167t74.5 194q72 0 101.5 -18.5t29.5 -59.5q0 -82 -112 -188.5t-185 -106.5z" />
<glyph unicode="&#xdb;" horiz-adv-x="1300" d="M57 1237v45q125 33 234 33q104 0 194 -19v-41q-68 -16 -94 -51t-26 -110v-684q0 -141 80.5 -224.5t220 -83.5t221.5 90.5t82 270.5v741l-131 33v45q121 35 219 35q80 0 174 -23v-39q-68 -23 -93.5 -56.5t-25.5 -96.5v-615q0 -252 -129 -384t-340 -132q-221 0 -338 105.5 t-117 298.5v829zM342 1466l274 260l76 13l287 -316l-29 -28q-106 0 -198 92q-66 66 -101 135l-231 -233q-51 28 -78 77z" />
<glyph unicode="&#xdc;" horiz-adv-x="1300" d="M57 1237v45q125 33 234 33q104 0 194 -19v-41q-68 -16 -94 -51t-26 -110v-684q0 -141 80.5 -224.5t220 -83.5t221.5 90.5t82 270.5v741l-131 33v45q121 35 219 35q80 0 174 -23v-39q-68 -23 -93.5 -56.5t-25.5 -96.5v-615q0 -252 -129 -384t-340 -132q-221 0 -338 105.5 t-117 298.5v829zM418 1499q0 41 28.5 69.5t69.5 28.5t69.5 -28.5t28.5 -69.5t-28.5 -69.5t-69.5 -28.5t-69.5 28.5t-28.5 69.5zM737 1499q0 41 29 69.5t70 28.5t69.5 -28.5t28.5 -69.5t-28.5 -69.5t-69.5 -28.5t-70 28.5t-29 69.5z" />
<glyph unicode="&#xdd;" horiz-adv-x="1019" d="M-27 1241v43q104 33 207 33q92 0 193 -19v-38q-102 -29 -62 -121l230 -439h2l248 504l-123 35v43q111 33 213 33q78 0 141 -19v-39q-39 -16 -61.5 -42.5t-53.5 -86.5l-309 -548v-488l131 -33v-45q-119 -35 -240 -34q-106 0 -188 20v39q121 29 121 147v387l-338 635z M440 1374q53 59 108.5 167t74.5 194q72 0 101.5 -18.5t29.5 -59.5q0 -82 -112 -188.5t-185 -106.5z" />
<glyph unicode="&#xde;" horiz-adv-x="1073" d="M88 1237v45q123 33 227 33q109 0 191 -21v-39q-66 -18 -92.5 -52t-26.5 -95v-47h2q61 6 121 6q240 0 372 -99.5t132 -289.5q0 -195 -150.5 -329t-341.5 -134q-68 0 -133 33h-2v-156l129 -33v-45q-115 -35 -235 -34q-102 0 -183 20v39q119 35 119 158v1007zM387 354 q66 -16 131 -16q131 0 218 85t87 232q0 139 -88 218t-239 79q-53 0 -109 -6v-592z" />
<glyph unicode="&#xdf;" horiz-adv-x="1157" d="M92 829v68l111 45l2 182q0 152 109.5 250.5t306.5 98.5q178 0 286.5 -90.5t108.5 -233.5q0 -78 -49 -147.5t-108.5 -111.5t-109 -90t-49.5 -87q0 -53 32 -87t120 -71l98 -39q182 -74 183 -242q0 -131 -99.5 -219t-259.5 -88q-258 0 -258 174q0 31 8 84q139 -135 283 -135 q74 0 119 36t45 91q0 53 -34 91t-122 75l-88 35q-176 74 -176 244q0 61 48 124.5t107.5 109.5t107.5 107.5t48 118.5q0 113 -70.5 180.5t-185.5 67.5q-119 0 -182.5 -61.5t-63.5 -155.5q0 -23 3.5 -122t3.5 -126v-815l108 -27v-38q-94 -43 -227 -43q-92 0 -154 18v35 q45 16 77 46t32 64v684h-111z" />
<glyph unicode="&#xe0;" horiz-adv-x="917" d="M68 197q0 141 144 237t388 96v56q0 160 -41 214t-141 54q-174 0 -307 -133q-6 31 -7 61q0 207 336 207q156 0 243 -73.5t87 -200.5q0 -27 -4 -110t-4 -97l-6 -332q23 -59 82 -104q-49 -59 -140 -105q-57 37 -94 101q-45 -43 -120.5 -71t-155.5 -28q-115 0 -187.5 65 t-72.5 163zM244 227q0 -63 41 -99t118 -36q104 0 197 55v287q-166 0 -261 -59.5t-95 -147.5zM313 1350q0 41 30 59t101 18q18 -86 73.5 -193.5t109.5 -166.5l-17 -12q-72 0 -184.5 106.5t-112.5 188.5z" />
<glyph unicode="&#xe1;" horiz-adv-x="917" d="M68 197q0 141 144 237t388 96v56q0 160 -41 214t-141 54q-174 0 -307 -133q-6 31 -7 61q0 207 336 207q156 0 243 -73.5t87 -200.5q0 -27 -4 -110t-4 -97l-6 -332q23 -59 82 -104q-49 -59 -140 -105q-57 37 -94 101q-45 -43 -120.5 -71t-155.5 -28q-115 0 -187.5 65 t-72.5 163zM244 227q0 -63 41 -99t118 -36q104 0 197 55v287q-166 0 -261 -59.5t-95 -147.5zM348 1067q53 59 108.5 166.5t73.5 193.5q72 0 100.5 -18t28.5 -59q0 -82 -111.5 -188.5t-182.5 -106.5z" />
<glyph unicode="&#xe2;" horiz-adv-x="917" d="M68 197q0 141 144 237t388 96v56q0 160 -41 214t-141 54q-174 0 -307 -133q-6 31 -7 61q0 207 336 207q156 0 243 -73.5t87 -200.5q0 -27 -4 -110t-4 -97l-6 -332q23 -59 82 -104q-49 -59 -140 -105q-57 37 -94 101q-45 -43 -120.5 -71t-155.5 -28q-115 0 -187.5 65 t-72.5 163zM125 1159l276 260l74 13l287 -316l-29 -29q-106 0 -198 93q-61 61 -99 135l-233 -234q-51 29 -78 78zM244 227q0 -63 41 -99t118 -36q104 0 197 55v287q-166 0 -261 -59.5t-95 -147.5z" />
<glyph unicode="&#xe3;" horiz-adv-x="917" d="M68 197q0 141 144 237t388 96v56q0 160 -41 214t-141 54q-174 0 -307 -133q-6 31 -7 61q0 207 336 207q156 0 243 -73.5t87 -200.5q0 -27 -4 -110t-4 -97l-6 -332q23 -59 82 -104q-49 -59 -140 -105q-57 37 -94 101q-45 -43 -120.5 -71t-155.5 -28q-115 0 -187.5 65 t-72.5 163zM131 1217q0 49 37 77.5t100 28.5q59 0 144 -25l96 -28q53 -16 98 -17q37 0 68 31t31 70q51 -45 51 -107q0 -51 -42 -87t-102 -36q-66 0 -137 23l-98 31q-66 16 -102.5 16t-64.5 -25.5t-28 -60.5q-51 41 -51 109zM244 227q0 -63 41 -99t118 -36q104 0 197 55v287 q-166 0 -261 -59.5t-95 -147.5z" />
<glyph unicode="&#xe4;" horiz-adv-x="917" d="M68 197q0 141 144 237t388 96v56q0 160 -41 214t-141 54q-174 0 -307 -133q-6 31 -7 61q0 207 336 207q156 0 243 -73.5t87 -200.5q0 -27 -4 -110t-4 -97l-6 -332q23 -59 82 -104q-49 -59 -140 -105q-57 37 -94 101q-45 -43 -120.5 -71t-155.5 -28q-115 0 -187.5 65 t-72.5 163zM201 1262q0 41 28.5 69.5t69.5 28.5t69.5 -28.5t28.5 -69.5t-28.5 -70t-69.5 -29t-69.5 29t-28.5 70zM244 227q0 -63 41 -99t118 -36q104 0 197 55v287q-166 0 -261 -59.5t-95 -147.5zM520 1262q0 41 29 69.5t69.5 28.5t69.5 -28.5t29 -69.5t-29 -70t-69.5 -29 t-69.5 29t-29 70z" />
<glyph unicode="&#xe5;" horiz-adv-x="917" d="M68 197q0 141 144 237t388 96v56q0 160 -41 214t-141 54q-174 0 -307 -133q-6 31 -7 61q0 207 336 207q156 0 243 -73.5t87 -200.5q0 -27 -4 -110t-4 -97l-6 -332q23 -59 82 -104q-49 -59 -140 -105q-57 37 -94 101q-45 -43 -120.5 -71t-155.5 -28q-115 0 -187.5 65 t-72.5 163zM244 227q0 -63 41 -99t118 -36q104 0 197 55v287q-166 0 -261 -59.5t-95 -147.5zM272 1262q0 76 53.5 130t125.5 54q78 0 131 -50t53 -130q0 -74 -53.5 -127.5t-126.5 -53.5q-78 0 -130.5 49.5t-52.5 127.5zM356 1262q0 -47 28 -77t69 -30q45 0 70.5 28.5 t25.5 78.5q0 51 -26.5 82.5t-69.5 31.5t-70 -32.5t-27 -81.5z" />
<glyph unicode="&#xe6;" horiz-adv-x="1431" d="M68 197q0 141 144 237t388 96v56q0 160 -41 214t-141 54q-174 0 -307 -133q-6 31 -7 61q0 207 336 207q211 0 287 -137q121 137 283 137q166 0 260 -102.5t94 -280.5q0 -80 -2 -131h-604q0 -168 86 -265t217 -97q160 0 289 88q8 -20 8 -54q0 -72 -97.5 -125t-254.5 -53 q-203 0 -322 158q-74 -72 -171 -115t-185 -43q-115 0 -187.5 65t-72.5 163zM244 227q0 -63 41 -99t116 -36q57 0 127 26.5t119 65.5q-59 113 -59 250q-162 -2 -253 -61.5t-91 -145.5zM762 582h438q0 145 -56.5 221t-150.5 76q-86 0 -158.5 -89t-72.5 -208z" />
<glyph unicode="&#xe7;" horiz-adv-x="825" d="M78 440q0 248 137 397.5t344 149.5q221 0 221 -121q0 -51 -24 -106q-119 94 -238 94q-111 0 -186.5 -102.5t-75.5 -274.5q0 -176 82 -271t207 -95q123 0 233 82q10 -20 10 -52q0 -68 -66.5 -114.5t-184.5 -55.5v-77q74 0 114.5 -32t40.5 -83q0 -82 -82 -148.5t-182 -66.5 q-72 0 -112 40t-40 111q86 -53 168 -53q49 0 81 25.5t32 54.5q0 74 -125 74l27 155q-162 12 -271.5 141t-109.5 328z" />
<glyph unicode="&#xe8;" horiz-adv-x="927" d="M78 438q0 254 128 402.5t300 148.5q166 0 260 -102.5t94 -280.5q0 -80 -2 -131h-604q0 -168 86 -265t217 -97q160 0 289 88q8 -20 8 -54q0 -72 -97.5 -125t-254.5 -53q-180 0 -302 129t-122 340zM258 582h438q0 145 -56 221t-151 76q-86 0 -158.5 -89t-72.5 -208z M360 1350q0 41 29 59t100 18q18 -86 73.5 -193.5t109.5 -166.5l-15 -12q-74 0 -185.5 106.5t-111.5 188.5z" />
<glyph unicode="&#xe9;" horiz-adv-x="927" d="M78 438q0 254 128 402.5t300 148.5q166 0 260 -102.5t94 -280.5q0 -80 -2 -131h-604q0 -168 86 -265t217 -97q160 0 289 88q8 -20 8 -54q0 -72 -97.5 -125t-254.5 -53q-180 0 -302 129t-122 340zM258 582h438q0 145 -56 221t-151 76q-86 0 -158.5 -89t-72.5 -208z M418 1067q53 59 108.5 166.5t73.5 193.5q72 0 101.5 -18t29.5 -59q0 -82 -111.5 -188.5t-185.5 -106.5z" />
<glyph unicode="&#xea;" horiz-adv-x="927" d="M78 438q0 254 128 402.5t300 148.5q166 0 260 -102.5t94 -280.5q0 -80 -2 -131h-604q0 -168 86 -265t217 -97q160 0 289 88q8 -20 8 -54q0 -72 -97.5 -125t-254.5 -53q-180 0 -302 129t-122 340zM184 1159l275 260l73 13l287 -316l-28 -29q-104 0 -199 93q-61 61 -98 135 l-234 -234q-53 29 -76 78zM258 582h438q0 145 -56 221t-151 76q-86 0 -158.5 -89t-72.5 -208z" />
<glyph unicode="&#xeb;" horiz-adv-x="927" d="M78 438q0 254 128 402.5t300 148.5q166 0 260 -102.5t94 -280.5q0 -80 -2 -131h-604q0 -168 86 -265t217 -97q160 0 289 88q8 -20 8 -54q0 -72 -97.5 -125t-254.5 -53q-180 0 -302 129t-122 340zM223 1262q0 41 29 69.5t69.5 28.5t69.5 -28.5t29 -69.5t-29 -70t-69.5 -29 t-69.5 29t-29 70zM258 582h438q0 145 -56 221t-151 76q-86 0 -158.5 -89t-72.5 -208zM543 1262q0 41 28.5 69.5t69.5 28.5t69.5 -28.5t28.5 -69.5t-28.5 -70t-69.5 -29t-69.5 29t-28.5 70z" />
<glyph unicode="&#xec;" horiz-adv-x="557" d="M74 893v43q135 39 243 39h66l-10 -111v-778l114 -31v-39q-98 -35 -237 -34q-92 0 -154 18v35q109 41 109 110v693zM135 1350q0 41 30 59t101 18q18 -86 73.5 -193.5t109.5 -166.5l-17 -12q-74 0 -185.5 106.5t-111.5 188.5z" />
<glyph unicode="&#xed;" horiz-adv-x="557" d="M74 893v43q135 39 243 39h66l-10 -111v-778l114 -31v-39q-98 -35 -237 -34q-92 0 -154 18v35q109 41 109 110v693zM164 1067q53 59 108.5 166.5t73.5 193.5q74 0 102.5 -18t28.5 -59q0 -82 -111.5 -188.5t-185.5 -106.5z" />
<glyph unicode="&#xee;" horiz-adv-x="557" d="M-27 1159l275 260l74 13l288 -316l-28 -29q-106 0 -201 93q-66 70 -98 135l-234 -234q-49 27 -76 78zM74 893v43q135 39 243 39h66l-10 -111v-778l114 -31v-39q-98 -35 -237 -34q-92 0 -154 18v35q109 41 109 110v693z" />
<glyph unicode="&#xef;" horiz-adv-x="557" d="M12 1262q0 41 29 69.5t70 28.5t69.5 -28.5t28.5 -69.5t-28.5 -70t-69.5 -29t-70 29t-29 70zM74 893v43q135 39 243 39h66l-10 -111v-778l114 -31v-39q-98 -35 -237 -34q-92 0 -154 18v35q109 41 109 110v693zM332 1262q0 41 28.5 69.5t69.5 28.5t69.5 -28.5t28.5 -69.5 t-28.5 -70t-69.5 -29t-69.5 29t-28.5 70z" />
<glyph unicode="&#xf0;" horiz-adv-x="1116" d="M82 440q0 244 142.5 397.5t336.5 153.5q137 0 238 -88l4 2q-68 211 -195 328l-246 -148l-49 78l215 131q-96 57 -190 58q-98 0 -205 -54q-10 41 -10 64q0 47 57.5 77.5t177.5 30.5q158 0 299 -98l195 119l49 -80l-166 -100q274 -260 275 -772q0 -260 -143.5 -416 t-338.5 -156q-193 0 -319.5 128t-126.5 345zM268 461q0 -178 79 -276.5t193.5 -98.5t198.5 108.5t84 313.5q0 137 -22 266q-47 43 -119 70.5t-135 27.5q-113 0 -196 -109t-83 -302z" />
<glyph unicode="&#xf1;" horiz-adv-x="1126" d="M72 893v45q131 37 245 37h50v-111q115 115 303 115q131 0 208.5 -83t77.5 -237v-573l107 -31v-39q-86 -35 -215 -34q-80 0 -133 18v35q74 33 73 135v391q0 276 -204 277q-129 0 -211 -64v-688l114 -31v-39q-98 -35 -237 -34q-92 0 -154 18v35q45 16 77 46t32 64v693z M252 1217q0 49 36 77.5t101 28.5q61 0 141 -25l99 -28q53 -16 98 -17q37 0 67.5 31t30.5 70q51 -45 52 -107q0 -51 -42 -87t-102 -36q-70 0 -137 23l-100 31q-61 16 -101 16q-37 0 -64.5 -25.5t-27.5 -60.5q-51 41 -51 109z" />
<glyph unicode="&#xf2;" horiz-adv-x="1091" d="M82 440q0 244 142.5 397.5t338.5 153.5q193 0 320 -131t127 -342q0 -244 -143.5 -397.5t-336 -153.5t-320.5 128t-128 345zM268 461q0 -178 79 -276.5t196 -98.5q113 0 196.5 108.5t83.5 305.5q0 172 -79.5 272t-194.5 100t-198 -109t-83 -302zM358 1350q0 41 30 59 t101 18q18 -86 73.5 -193.5t109.5 -166.5l-17 -12q-74 0 -185.5 106.5t-111.5 188.5z" />
<glyph unicode="&#xf3;" horiz-adv-x="1091" d="M82 440q0 244 142.5 397.5t338.5 153.5q193 0 320 -131t127 -342q0 -244 -143.5 -397.5t-336 -153.5t-320.5 128t-128 345zM268 461q0 -178 79 -276.5t196 -98.5q113 0 196.5 108.5t83.5 305.5q0 172 -79.5 272t-194.5 100t-198 -109t-83 -302zM457 1067 q53 59 108.5 166.5t73.5 193.5q72 0 100.5 -18t28.5 -59q0 -82 -111.5 -188.5t-183.5 -106.5z" />
<glyph unicode="&#xf4;" horiz-adv-x="1091" d="M82 440q0 244 142.5 397.5t338.5 153.5q193 0 320 -131t127 -342q0 -244 -143.5 -397.5t-336 -153.5t-320.5 128t-128 345zM238 1159l274 260l74 13l288 -316l-28 -29q-106 0 -201 93q-66 70 -98 135l-234 -234q-48 27 -75 78zM268 461q0 -178 79 -276.5t196 -98.5 q113 0 196.5 108.5t83.5 305.5q0 172 -79.5 272t-194.5 100t-198 -109t-83 -302z" />
<glyph unicode="&#xf5;" horiz-adv-x="1091" d="M82 440q0 244 142.5 397.5t338.5 153.5q193 0 320 -131t127 -342q0 -244 -143.5 -397.5t-336 -153.5t-320.5 128t-128 345zM244 1217q0 49 36.5 77.5t100.5 28.5q61 0 143 -25l97 -28q53 -16 98 -17q37 0 67.5 31t30.5 70q51 -45 51 -107q0 -51 -42 -87t-101 -36 q-66 0 -137 23l-99 31q-66 16 -102.5 16t-64 -25.5t-27.5 -60.5q-51 41 -51 109zM268 461q0 -178 79 -276.5t196 -98.5q113 0 196.5 108.5t83.5 305.5q0 172 -79.5 272t-194.5 100t-198 -109t-83 -302z" />
<glyph unicode="&#xf6;" horiz-adv-x="1091" d="M82 440q0 244 142.5 397.5t338.5 153.5q193 0 320 -131t127 -342q0 -244 -143.5 -397.5t-336 -153.5t-320.5 128t-128 345zM268 461q0 -178 79 -276.5t196 -98.5q113 0 196.5 108.5t83.5 305.5q0 172 -79.5 272t-194.5 100t-198 -109t-83 -302zM311 1262q0 41 29 69.5 t70 28.5t69.5 -28.5t28.5 -69.5t-28.5 -70t-69.5 -29t-70 29t-29 70zM631 1262q0 41 28.5 69.5t69.5 28.5t69.5 -28.5t28.5 -69.5t-28.5 -70t-69.5 -29t-69.5 29t-28.5 70z" />
<glyph unicode="&#xf7;" d="M100 410v104h863v-104h-863zM438 76q0 39 30 70.5t71 31.5q37 0 60.5 -27.5t23.5 -68.5q0 -37 -29 -67.5t-66 -30.5q-41 0 -65.5 26.5t-24.5 65.5zM438 833.5q0 38.5 30 70.5t71 32q37 0 60.5 -27.5t23.5 -68.5q0 -37 -29 -67t-66 -30q-41 0 -65.5 26t-24.5 64.5z" />
<glyph unicode="&#xf8;" horiz-adv-x="1091" d="M82 440q0 244 142.5 397.5t338.5 153.5q111 0 205 -47l106 178l68 -32l-111 -187q178 -135 179 -385q0 -244 -143.5 -397.5t-336.5 -153.5q-121 0 -225 56l-102 -175l-68 35l109 180q-162 135 -162 377zM268 461q0 -156 62 -252l364 612q-68 51 -145 51q-115 0 -198 -109 t-83 -302zM381 147q68 -61 162 -61q113 0 196.5 108.5t83.5 305.5q0 164 -75 266z" />
<glyph unicode="&#xf9;" horiz-adv-x="1087" d="M68 895v43q135 39 229 39h68l-13 -115v-463q0 -156 48.5 -220t150.5 -64q111 0 201 59v664l-119 57v43q137 39 231 39h68l-12 -115v-692q18 -43 77 -107q-49 -53 -139 -96q-68 47 -96 119q-45 -41 -126 -75t-169 -34q-283 0 -283 336v525zM399 1350q0 41 30 59t101 18 q18 -86 73.5 -193.5t109.5 -166.5l-17 -12q-72 0 -184.5 106.5t-112.5 188.5z" />
<glyph unicode="&#xfa;" horiz-adv-x="1087" d="M68 895v43q135 39 229 39h68l-13 -115v-463q0 -156 48.5 -220t150.5 -64q111 0 201 59v664l-119 57v43q137 39 231 39h68l-12 -115v-692q18 -43 77 -107q-49 -53 -139 -96q-68 47 -96 119q-45 -41 -126 -75t-169 -34q-283 0 -283 336v525zM424 1067q53 59 108.5 166.5 t73.5 193.5q72 0 101.5 -18t29.5 -59q0 -82 -112.5 -188.5t-184.5 -106.5z" />
<glyph unicode="&#xfb;" horiz-adv-x="1087" d="M68 895v43q135 39 229 39h68l-13 -115v-463q0 -156 48.5 -220t150.5 -64q111 0 201 59v664l-119 57v43q137 39 231 39h68l-12 -115v-692q18 -43 77 -107q-49 -53 -139 -96q-68 47 -96 119q-45 -41 -126 -75t-169 -34q-283 0 -283 336v525zM250 1159l274 260l74 13 l287 -316l-29 -29q-104 0 -199 93q-61 61 -98 135l-233 -234q-49 27 -76 78z" />
<glyph unicode="&#xfc;" horiz-adv-x="1087" d="M68 895v43q135 39 229 39h68l-13 -115v-463q0 -156 48.5 -220t150.5 -64q111 0 201 59v664l-119 57v43q137 39 231 39h68l-12 -115v-692q18 -43 77 -107q-49 -53 -139 -96q-68 47 -96 119q-45 -41 -126 -75t-169 -34q-283 0 -283 336v525zM295 1262q0 41 28.5 69.5 t69.5 28.5t70 -28.5t29 -69.5t-29 -70t-70 -29t-69.5 29t-28.5 70zM614 1262q0 41 29 69.5t70 28.5t69.5 -28.5t28.5 -69.5t-28.5 -70t-69.5 -29t-70 29t-29 70z" />
<glyph unicode="&#xfd;" horiz-adv-x="817" d="M-57 -342q39 -8 92 -8q72 0 153.5 82t141.5 237l35 92l-324 805l-78 60v49h377v-49l-111 -49l217 -625h3l194 618l-115 56v49h308v-49l-52 -45l-288 -799q-111 -309 -223.5 -446.5t-204.5 -137.5q-63 0 -94 36t-31 124zM301 1067q53 61 109.5 168.5t72.5 191.5 q74 0 102.5 -18t28.5 -59q0 -82 -111.5 -188.5t-185.5 -106.5z" />
<glyph unicode="&#xfe;" horiz-adv-x="1071" d="M61 1389v45q127 37 246 36h64l-11 -114v-473q106 102 261 102q162 0 267 -113.5t105 -316.5q0 -272 -145.5 -425t-353.5 -153q-76 0 -132 25v-401l136 -29v-41q-100 -33 -258 -33q-92 0 -154 19v34q45 14 77 44t32 67v1671zM360 106q49 -14 132 -14q145 0 235 103.5 t90 312.5q0 160 -77.5 250t-190.5 90q-111 0 -189 -47v-695z" />
<glyph unicode="&#xff;" horiz-adv-x="817" d="M-57 -342q39 -8 92 -8q72 0 153.5 82t141.5 237l35 92l-324 805l-78 60v49h377v-49l-111 -49l217 -625h3l194 618l-115 56v49h308v-49l-52 -45l-288 -799q-111 -309 -223.5 -446.5t-204.5 -137.5q-63 0 -94 36t-31 124zM172 1262q0 41 28.5 69.5t69.5 28.5t70 -28.5 t29 -69.5t-29 -70t-70 -29t-69.5 29t-28.5 70zM492 1262q0 41 28.5 69.5t69.5 28.5t69.5 -28.5t28.5 -69.5t-28.5 -70t-69.5 -29t-69.5 29t-28.5 70z" />
<glyph unicode="&#x152;" horiz-adv-x="1597" d="M88 616q0 307 184.5 509t432.5 202q88 0 161 -24h631l-16 -302h-60l-6 37q-12 80 -49 112t-129 32h-205v-471h209q117 0 141 75l15 50h55v-387h-55l-11 47q-23 104 -104 104h-250v-479h244q82 0 126 26.5t75 83.5l20 39h57l-43 -270h-667q-111 -35 -211 -35 q-233 0 -389 177t-156 474zM291 641q0 -256 106.5 -398.5t255.5 -142.5q100 0 201 62v981q-82 49 -168 49q-162 0 -278.5 -149.5t-116.5 -401.5z" />
<glyph unicode="&#x153;" horiz-adv-x="1673" d="M82 440q0 244 142.5 397.5t338.5 153.5q250 0 365 -198q57 94 142 145t181 51q166 0 260.5 -102.5t94.5 -280.5q0 -80 -2 -131h-605q0 -168 86 -265t218 -97q160 0 288 88q8 -20 8 -54q0 -72 -97 -125t-255 -53q-113 0 -203 54.5t-143 150.5q-135 -207 -371 -207 q-193 0 -320.5 128t-127.5 345zM268 461q0 -178 79 -276.5t196 -98.5q113 0 196.5 108.5t83.5 305.5q0 172 -79.5 272t-194.5 100t-198 -109t-83 -302zM1004 582h438q0 145 -56.5 221t-150.5 76q-86 0 -158.5 -89t-72.5 -208z" />
<glyph unicode="&#x178;" horiz-adv-x="1019" d="M-27 1241v43q104 33 207 33q92 0 193 -19v-38q-102 -29 -62 -121l230 -439h2l248 504l-123 35v43q111 33 213 33q78 0 141 -19v-39q-39 -16 -61.5 -42.5t-53.5 -86.5l-309 -548v-488l131 -33v-45q-119 -35 -240 -34q-106 0 -188 20v39q121 29 121 147v387l-338 635z M270 1483q0 41 29 69.5t70 28.5t69.5 -28.5t28.5 -69.5t-28.5 -70t-69.5 -29t-70 29t-29 70zM590 1483q0 41 28.5 69.5t69.5 28.5t69.5 -28.5t28.5 -69.5t-28.5 -70t-69.5 -29t-69.5 29t-28.5 70z" />
<glyph unicode="&#x2c6;" horiz-adv-x="921" d="M154 1159l274 260l74 13l289 -316l-29 -29q-106 0 -199 93q-66 66 -100 135l-232 -234q-50 29 -77 78z" />
<glyph unicode="&#x2dc;" horiz-adv-x="921" d="M150 1217q0 49 35.5 77.5t101.5 28.5q61 0 141 -25l98 -28q53 -16 99 -17q37 0 67.5 31t30.5 70q51 -45 51 -107q0 -51 -42 -87t-101 -36q-66 0 -137 23l-101 31q-61 16 -100 16q-37 0 -64.5 -25.5t-27.5 -60.5q-51 41 -51 109z" />
<glyph unicode="&#x2000;" horiz-adv-x="868" />
<glyph unicode="&#x2001;" horiz-adv-x="1738" />
<glyph unicode="&#x2002;" horiz-adv-x="868" />
<glyph unicode="&#x2003;" horiz-adv-x="1738" />
<glyph unicode="&#x2004;" horiz-adv-x="579" />
<glyph unicode="&#x2005;" horiz-adv-x="434" />
<glyph unicode="&#x2006;" horiz-adv-x="288" />
<glyph unicode="&#x2007;" horiz-adv-x="288" />
<glyph unicode="&#x2008;" horiz-adv-x="217" />
<glyph unicode="&#x2009;" horiz-adv-x="346" />
<glyph unicode="&#x200a;" horiz-adv-x="96" />
<glyph unicode="&#x2010;" horiz-adv-x="622" d="M59 473l39 150l473 20l-28 -147z" />
<glyph unicode="&#x2011;" horiz-adv-x="622" d="M59 473l39 150l473 20l-28 -147z" />
<glyph unicode="&#x2012;" horiz-adv-x="622" d="M59 473l39 150l473 20l-28 -147z" />
<glyph unicode="&#x2013;" horiz-adv-x="1024" d="M0 410v104h1024v-104h-1024z" />
<glyph unicode="&#x2014;" horiz-adv-x="2048" d="M0 410v104h2048v-104h-2048z" />
<glyph unicode="&#x2018;" horiz-adv-x="518" d="M123 1071q0 131 83 242.5t159 134.5l55 -14q-127 -133 -127 -299l72 -91q-57 -90 -132 -90q-49 0 -79.5 32t-30.5 85z" />
<glyph unicode="&#x2019;" horiz-adv-x="518" d="M98 961q127 133 127 299l-71 90q57 90 131 90q49 0 79.5 -32t30.5 -85q0 -131 -83 -242.5t-158 -134.5z" />
<glyph unicode="&#x201a;" horiz-adv-x="518" d="M98 -256q127 133 127 299l-71 90q57 90 131 90q49 0 79.5 -31.5t30.5 -85.5q0 -131 -83 -242.5t-158 -133.5z" />
<glyph unicode="&#x201c;" horiz-adv-x="817" d="M94 1071q0 131 83 242.5t159 134.5l55 -14q-127 -133 -127 -299l72 -91q-57 -90 -131 -90q-49 0 -80 32t-31 85zM422 1071q0 131 83 242.5t159 134.5l55 -14q-127 -133 -127 -299l72 -91q-57 -90 -132 -90q-49 0 -79.5 32t-30.5 85z" />
<glyph unicode="&#x201d;" horiz-adv-x="817" d="M98 961q127 133 127 299l-71 90q57 90 131 90q49 0 79.5 -32t30.5 -85q0 -131 -83 -242.5t-158 -134.5zM408 961q127 133 127 299l-72 90q57 90 131 90q49 0 80 -32t31 -85q0 -131 -83 -242.5t-159 -134.5z" />
<glyph unicode="&#x201e;" horiz-adv-x="817" d="M98 -256q127 133 127 299l-71 90q57 90 131 90q49 0 79.5 -31.5t30.5 -85.5q0 -131 -83 -242.5t-158 -133.5zM408 -256q127 133 127 299l-72 90q57 90 131 90q49 0 80 -31.5t31 -85.5q0 -131 -83 -242.5t-159 -133.5z" />
<glyph unicode="&#x2022;" horiz-adv-x="739" d="M123 540.5q0 104.5 71.5 179.5t176.5 75q102 0 173.5 -75t71.5 -179.5t-71.5 -179t-173.5 -74.5q-104 0 -176 74.5t-72 179z" />
<glyph unicode="&#x2026;" horiz-adv-x="1347" d="M162 96q0 49 34.5 84t84 35t84 -35t34.5 -84t-34.5 -84t-84 -35t-84 35t-34.5 84zM573 96q0 49 35 84t84 35t84 -35t35 -84t-35 -84t-84 -35t-84 35t-35 84zM983 96q0 49 35 84t84 35t84 -35t35 -84t-35 -84t-84 -35t-84 35t-35 84z" />
<glyph unicode="&#x202f;" horiz-adv-x="346" />
<glyph unicode="&#x2039;" horiz-adv-x="557" d="M76 518l110 162q150 219 236 219q53 0 104 -39q-125 -102 -239 -248l-60 -77l99 -164q74 -123 174 -215q-63 -25 -119 -25q-86 0 -172 152z" />
<glyph unicode="&#x203a;" horiz-adv-x="557" d="M33 172q135 109 239 248l60 78l-99 164q-72 119 -172 215q59 25 119 24q84 0 170 -151l135 -236l-112 -162q-150 -219 -234 -219q-53 0 -106 39z" />
<glyph unicode="&#x205f;" horiz-adv-x="434" />
<glyph unicode="&#x20ac;" d="M18 686v84l123 6q47 248 217 398.5t385 150.5q170 0 279 -55l-16 -285h-56l-8 37q-45 178 -215 178q-135 0 -244.5 -110.5t-142.5 -301.5l578 33l-7 -80l-581 -36q-2 -20 -2 -66q0 -33 4 -90l590 35l-7 -80l-573 -37q33 -184 135.5 -279.5t231.5 -95.5q102 0 157.5 37 t87.5 121l21 49h55l-20 -270q-123 -63 -332 -64q-203 0 -351.5 128t-187.5 362l-116 -6v83l106 7q-2 23 -2 73q0 27 4 80z" />
<glyph unicode="&#x2122;" horiz-adv-x="1548" d="M72 1133v165q78 -2 274 -2q166 0 272 9v-172h-43l-4 30q-6 57 -67 58h-94v-494l82 -16v-35q-84 -23 -156 -23q-59 0 -121 17v30q66 16 66 64v457h-72q-72 0 -88 -60l-8 -28h-41zM629 670v30q33 8 47 21.5t18 42.5l78 481l-65 17v34q43 6 139 7h65l133 -472l3 3l139 469 h53q96 0 139 -7v-34l-65 -17l82 -526l65 -17v-26q-53 -23 -123 -23q-59 0 -129 17v30q31 8 41.5 20.5t7.5 43.5l-49 414l-2 -2l-149 -519l-66 -10l-157 535l-3 -2l-47 -461l64 -17v-26q-51 -23 -113 -23q-53 1 -106 17z" />
<glyph unicode="&#xe000;" horiz-adv-x="975" d="M0 975h975v-975h-975v975z" />
<glyph unicode="&#xfb01;" horiz-adv-x="1142" d="M90 829v72l113 45v160q-2 166 111.5 265t340.5 99q154 0 212.5 -24.5t58.5 -73.5q0 -51 -21 -92q-150 70 -336 70q-207 0 -207 -234q0 -111 9 -176h301q135 35 231 35h66l-11 -111v-778l115 -31v-39q-98 -35 -237 -34q-92 0 -154 18v35q109 41 109 110v695h-422v-754 l131 -31v-39q-98 -35 -252 -34q-92 0 -154 18v35q45 16 77 46t32 64v684h-113z" />
<glyph unicode="&#xfb02;" horiz-adv-x="1140" d="M90 829v72l113 45v133q0 182 102.5 286.5t294.5 104.5q70 0 154 -30q90 31 155 30h66l-10 -114v-1270l114 -31v-39q-98 -35 -237 -34q-92 0 -154 18v35q45 16 77 46t32 64v1166q-96 39 -269 39q-166 0 -166 -242q0 -86 9 -168h258l-23 -111h-237v-743l131 -31v-39 q-98 -35 -252 -34q-92 0 -154 18v35q45 16 77 46t32 64v684h-113z" />
<glyph unicode="&#xfb03;" horiz-adv-x="1755" d="M90 829v72l113 45v152q-2 166 102.5 269t284.5 103q197 0 196 -96q0 -33 -10 -67q-119 41 -260 41q-66 0 -110 -59.5t-44 -164.5q0 -94 9 -184h444v166q-2 168 111.5 266t341.5 98q154 0 211 -24.5t57 -73.5q0 -55 -18 -92q-150 70 -336 70q-207 0 -207 -234 q0 -111 8 -176h301q135 35 232 35h65l-10 -111v-778l115 -31v-39q-98 -35 -238 -34q-92 0 -154 18v35q109 41 109 110v695h-422v-754l131 -31v-39q-98 -35 -252 -34q-92 0 -153 18v35q45 16 76.5 46t31.5 64v695h-446v-754l131 -31v-39q-98 -35 -252 -34q-92 0 -154 18v35 q45 16 77 46t32 64v684h-113z" />
<glyph unicode="&#xfb04;" horiz-adv-x="1753" d="M90 829v72l113 45v152q-2 166 102.5 269t284.5 103q197 0 196 -96q0 -33 -10 -67q-119 41 -260 41q-66 0 -110 -59.5t-44 -164.5q0 -94 9 -184h444v139q0 182 102.5 286.5t294.5 104.5q70 0 154 -30q88 31 156 30h65l-10 -114v-1270l115 -31v-39q-98 -35 -238 -34 q-92 0 -154 18v35q45 16 77 46t32 64v1072l-2 96q-111 37 -266 37q-166 0 -166 -242q0 -86 8 -168h254l-23 -109h-233v-745l131 -31v-39q-98 -35 -252 -34q-92 0 -153 18v35q45 16 76.5 46t31.5 64v695h-446v-754l131 -31v-39q-98 -35 -252 -34q-92 0 -154 18v35 q45 16 77 46t32 64v684h-113z" />
<glyph horiz-adv-x="352" />
</font>
</defs>
</svg>
