<?xml version="1.0" standalone="no"?>
<!DOCTYPE svg PUBLIC "-//W3C//DTD SVG 1.1//EN" "http://www.w3.org/Graphics/SVG/1.1/DTD/svg11.dtd" >
<svg xmlns="http://www.w3.org/2000/svg">
<metadata>
This is a custom SVG webfont generated by Font Squirrel.
Copyright   : Bij regeling van 16 juni 2008 Stcrt 2008 nr 115 heeft de Staat der Nederlanden Ministerie van Algemene Zaken een auteursrechtelijk voorbehoud gemaakt als bedoeld in artikel 15b van de Auteurswet 1912 met betrekking tot het gebruik en de toepassing van het ontwerp van het voor de Rijksoverheid algemeen geldende Rijkslogo en de huisstijl waaronder begrepen het gebruik van de lettertypes RijksoverheidSerif en RijksoverheidSans   Genoemd voorbehoud is niet van toepassing op partijen aan wie door of vanwege de Rijksoverheid het Rijkslogo en de huisstijl ter beschikking is gesteld met het oog op het gebruik bij de uitoefening van werkzaamheden of diensten in opdracht van de Rijksoverheid Ieder gebruik in welke vorm of wijze hetzij elektronisch mechanisch door fotokopien opnamen of enige andere manier is verboden tenzij er voorafgaand schriftelijke toestemming van de Rijksoverheid is verkregen Voor toestemming kunt u zich wenden tot de Rijksvoorlichtingsdienst   Auteur Peter Verheul
Designer    : Peter Verheul
Foundry     : Peter Verheul
Foundry URL : httpwwwfarhillnl
</metadata>
<defs>
<font id="RijksoverheidSansHeadingBdIt" horiz-adv-x="1050" >
<font-face units-per-em="2048" ascent="1536" descent="-512" />
<missing-glyph horiz-adv-x="307" />
<glyph unicode=" "  horiz-adv-x="307" />
<glyph unicode="&#x09;" horiz-adv-x="307" />
<glyph unicode="&#xa0;" horiz-adv-x="307" />
<glyph unicode="!" horiz-adv-x="544" d="M90 133q0 78 45 126t115 48q63 0 101 -38t38 -111q0 -78 -45 -123t-119 -45q-63 0 -99 36.5t-36 106.5zM156 410l77 923l236 23l-68 -613l-28 -325z" />
<glyph unicode="&#x22;" horiz-adv-x="610" d="M94 969l6 444h215l-59 -444h-162zM399 969l7 444h215l-60 -444h-162z" />
<glyph unicode="#" horiz-adv-x="1169" d="M0 346l31 158h235l66 338h-238l31 157h237l66 344h162l-66 -344h254l66 344h160l-66 -344h225l-30 -157h-226l-63 -338h227l-31 -158h-225l-65 -346h-162l65 346h-254l-65 -346h-162l66 346h-238zM428 504h254l66 338h-254z" />
<glyph unicode="$" d="M96 10v203q162 -37 307 -37q121 0 191 48t70 120q0 61 -30 103t-118 100l-160 102q-96 61 -137 133t-41 174q0 137 90 239.5t238 139.5l16 224h162l-14 -203q133 0 245 -27l-16 -196q-123 29 -250 28q-104 0 -167.5 -46t-63.5 -111q0 -59 29.5 -99.5t117.5 -95.5l150 -92 q106 -66 149 -135.5t43 -178.5q0 -152 -98 -261t-268 -144l-17 -213h-162l15 197q-144 -1 -281 28z" />
<glyph unicode="%" horiz-adv-x="1574" d="M55 909q0 219 102.5 334t252.5 115q129 0 209.5 -84t80.5 -254q0 -211 -103 -323.5t-253 -112.5q-129 0 -209 76.5t-80 248.5zM246 924q0 -180 110 -181q68 0 111 67t43 198q0 193 -111 192q-63 0 -108 -67.5t-45 -208.5zM408 6l618 1383l141 -62l-616 -1382zM877 311 q0 219 102 334t252 115q129 0 210 -84t81 -254q0 -211 -103.5 -323.5t-253.5 -112.5q-129 0 -208.5 76.5t-79.5 248.5zM1067 326q0 -180 111 -181q68 0 110.5 67t42.5 198q0 193 -110 192q-63 0 -108.5 -67.5t-45.5 -208.5z" />
<glyph unicode="&#x26;" horiz-adv-x="1392" d="M72 336q0 127 76.5 225t222.5 139v7q-186 74 -187 266q0 166 122 272.5t321 106.5q154 0 250 -35l-15 -178q-102 20 -223 20q-102 0 -160.5 -50t-58.5 -122q0 -100 73.5 -152.5t241.5 -52.5v-178q-211 2 -312 -59.5t-101 -169.5q0 -195 282 -195q190 0 307 129t117 369 h-125v168h440v-168h-114q0 -317 -185.5 -505.5t-480.5 -188.5q-236 0 -363.5 91t-127.5 261z" />
<glyph unicode="'" horiz-adv-x="305" d="M94 969l6 444h215l-59 -444h-162z" />
<glyph unicode="(" horiz-adv-x="520" d="M47 485q43 475 369 858h159q-313 -408 -354 -849q-18 -209 35 -433.5t166 -416.5h-160q-256 384 -215 841z" />
<glyph unicode=")" horiz-adv-x="520" d="M-68 -356q313 408 355 850q18 209 -35 433t-166 416h160q256 -385 215 -841q-43 -475 -369 -858h-160z" />
<glyph unicode="*" horiz-adv-x="907" d="M76 1067l61 156l246 -109l51 -16l4 55l6 285h158l-45 -285l-2 -55l49 18l264 109l39 -158l-278 -70l-49 -16l26 -47l160 -215l-137 -101l-121 240l-33 49l-35 -47l-161 -237l-125 94l196 217l39 49l-51 12z" />
<glyph unicode="+" d="M131 520l19 174h292l27 316h178l-26 -316h294l-18 -174h-295l-27 -317h-178l27 317h-293z" />
<glyph unicode="," horiz-adv-x="413" d="M-31 -225l133 239q-74 33 -73 119q0 78 44 126t115 48q63 0 101.5 -40t38.5 -109q0 -98 -107.5 -240.5t-154.5 -142.5h-97z" />
<glyph unicode="-" horiz-adv-x="763" d="M123 489v195h528v-195h-528z" />
<glyph unicode="." horiz-adv-x="413" d="M29 133q0 78 45 126t114 48q63 0 101.5 -38t38.5 -111q0 -78 -45 -123t-119 -45q-63 0 -99 36.5t-36 106.5z" />
<glyph unicode="/" horiz-adv-x="589" d="M-152 -330l715 1712l158 -65l-719 -1712z" />
<glyph unicode="0" d="M80 412q0 297 141 459.5t365 162.5q182 0 288.5 -114.5t106.5 -321.5q0 -287 -145.5 -452.5t-356.5 -165.5q-186 0 -292.5 107.5t-106.5 324.5zM303 432q0 -270 205 -270q96 0 173 112.5t77 305.5q0 131 -54.5 201.5t-140.5 70.5q-111 0 -185.5 -111.5t-74.5 -308.5z" />
<glyph unicode="1" horiz-adv-x="735" d="M78 788v177q180 55 375 55h120l-94 -1020h-215l76 819q-143 0 -262 -31z" />
<glyph unicode="2" horiz-adv-x="925" d="M45 182q72 182 258 283l139 76q90 49 122 86t32 86q0 51 -44 81.5t-130 30.5q-139 0 -272 -41v197q160 45 307 45q172 0 267 -76t95 -200.5t-55 -200.5t-191 -139l-139 -66q-131 -63 -178 -143v-4h588v-197h-778z" />
<glyph unicode="3" horiz-adv-x="882" d="M-20 -166h157q190 0 302 79t112 204q0 74 -53.5 132t-151.5 89q-113 -53 -227 -76l-27 166q350 98 514 391h-520v195h702l23 -187q-109 -233 -305 -358v-4q125 -31 195.5 -114t70.5 -201q0 -215 -177 -356.5t-460 -141.5h-155v182z" />
<glyph unicode="4" horiz-adv-x="1040" d="M31 143q39 299 223 550t442 325h205l-70 -834h148v-184h-164l-27 -348h-215l31 348h-538zM236 184h387l53 650q-174 -90 -293.5 -261.5t-146.5 -388.5z" />
<glyph unicode="5" horiz-adv-x="888" d="M29 -166h174q174 0 282.5 86t108.5 219q0 98 -68.5 151.5t-201.5 53.5q-100 0 -230 -14l53 684h666v-195h-489l-23 -291q74 6 123 7q190 0 290.5 -93.5t100.5 -259.5q0 -242 -175 -386t-460 -144h-151v182z" />
<glyph unicode="6" horiz-adv-x="995" d="M74 438q0 424 212 669t574 245h107v-183h-123q-358 0 -496 -342l4 -4q106 63 234 64q160 0 252 -97.5t92 -271.5q0 -254 -126 -395t-331 -141q-178 0 -288.5 117.5t-110.5 338.5zM297 444q0 -147 55.5 -218.5t145.5 -71.5t150.5 80.5t60.5 236.5q0 115 -52.5 172 t-146.5 57q-104 0 -188 -22q-25 -109 -25 -234z" />
<glyph unicode="7" horiz-adv-x="833" d="M23 819l2 195h790l19 -183q-479 -512 -521 -1179h-213q33 651 494 1161v6h-571z" />
<glyph unicode="8" horiz-adv-x="997" d="M43 287q0 229 287 391l-58 45q-133 102 -133 246q0 162 125 277.5t303 115.5q172 0 271.5 -85t99.5 -216q0 -217 -262 -367l72 -49q92 -63 131 -124.5t39 -145.5q0 -170 -136.5 -281.5t-345.5 -111.5q-184 0 -288.5 83t-104.5 222zM264 324q0 -78 54.5 -124t150.5 -46 q104 0 164.5 53t60.5 129q0 92 -121 174l-129 88q-180 -120 -180 -274zM360 995q0 -80 84 -143l113 -86q160 117 160 266q0 74 -44 117t-124 43q-84 0 -136.5 -56.5t-52.5 -140.5z" />
<glyph unicode="9" horiz-adv-x="995" d="M29 -166h123q174 0 302 89t193 265l-4 5q-106 -63 -233 -64q-154 0 -249 96.5t-95 268.5q0 258 130 399t326 141q178 0 289 -118.5t111 -337.5q0 -426 -213 -676t-574 -250h-106v182zM287 545q0 -113 54 -171.5t144 -58.5q104 0 189 23q25 109 24 233q0 147 -55 219 t-147.5 72t-150.5 -83.5t-58 -233.5z" />
<glyph unicode=":" horiz-adv-x="413" d="M29 133q0 78 45 126t114 48q63 0 101.5 -38t38.5 -111q0 -78 -45 -123t-119 -45q-63 0 -99 36.5t-36 106.5zM94 803q0 78 45 126t115 48q63 0 101 -38t38 -112q0 -78 -45 -123t-119 -45q-63 0 -99 37t-36 107z" />
<glyph unicode=";" horiz-adv-x="413" d="M-31 -225l133 239q-74 33 -73 119q0 78 44 126t115 48q63 0 101.5 -40t38.5 -109q0 -98 -107.5 -240.5t-154.5 -142.5h-97zM94 803q0 78 45 126t115 48q63 0 101 -38t38 -112q0 -78 -45 -123t-119 -45q-63 0 -99 37t-36 107z" />
<glyph unicode="&#x3c;" d="M158 549l8 123l649 391l76 -168l-488 -285l-2 -4l439 -287l-107 -161z" />
<glyph unicode="=" d="M115 334l16 176h766l-16 -176h-766zM150 705l16 176h766l-17 -176h-765z" />
<glyph unicode="&#x3e;" d="M158 319l487 285l2 4l-438 287l106 162l576 -391l-8 -123l-650 -391z" />
<glyph unicode="?" horiz-adv-x="831" d="M119 133q0 78 45 126t115 48q63 0 101 -38t38 -111q0 -78 -45 -123t-119 -45q-63 0 -99 36.5t-36 106.5zM119 1118v191q150 49 313 49q182 0 284.5 -83t102.5 -210q0 -238 -201 -330l-137 -63q-66 -31 -91 -66t-25 -82q0 -55 10 -102l-178 -12q-35 53 -35 133 q0 166 186 268l121 66q106 57 106 153q0 55 -48 91t-136 36q-135 0 -272 -39z" />
<glyph unicode="@" horiz-adv-x="1746" d="M72 248q0 250 75.5 460t203.5 349t298 216t361 77q293 0 479 -181.5t186 -476.5q0 -313 -154.5 -511.5t-344.5 -198.5q-96 0 -145.5 40.5t-63.5 133.5h-6q-127 -176 -308 -176q-106 0 -171.5 88t-65.5 272q0 326 153.5 507t372.5 181q88 0 150 -20l161 22l-73 -819 q-6 -78 57 -78q100 0 200.5 159t100.5 384q0 260 -142.5 403.5t-400.5 143.5q-154 0 -296 -66.5t-250.5 -186.5t-174 -302.5t-65.5 -399.5q0 -266 124 -401t320 -135q129 0 281 47v-113q-147 -59 -309 -59q-242 0 -397.5 168t-155.5 473zM639 358q0 -182 104 -182 q51 0 115 49t123 137l41 474q-39 10 -98 10q-119 0 -202 -123t-83 -365z" />
<glyph unicode="A" horiz-adv-x="1107" d="M-55 0l504 1343h335l279 -1343h-262l-60 311h-446l-109 -311h-241zM358 502h355l-113 639h-16z" />
<glyph unicode="B" horiz-adv-x="1085" d="M102 0l101 1343h334q219 0 329.5 -81.5t110.5 -223.5q0 -244 -219 -329v-2q113 -20 175 -93t62 -182q0 -201 -142 -316.5t-384 -115.5h-367zM350 178h103q141 0 219 60.5t78 167.5q0 195 -295 194h-74zM393 770h86q123 0 188.5 59.5t65.5 167.5q0 168 -231 168h-80z" />
<glyph unicode="C" horiz-adv-x="1024" d="M82 584q0 182 57.5 331.5t154.5 244.5t220 146.5t258 51.5q141 0 260 -27l-16 -198q-131 25 -250 24q-178 0 -307 -145.5t-129 -403.5q0 -203 101 -313.5t257 -110.5q131 0 275 31v-192q-135 -37 -301 -37q-264 0 -422 157.5t-158 440.5z" />
<glyph unicode="D" horiz-adv-x="1294" d="M102 0l101 1343h368q315 0 481.5 -152.5t166.5 -430.5q0 -356 -198 -558t-527 -202h-392zM350 190h164q213 0 334 133.5t121 407.5q0 209 -110.5 315.5t-317.5 106.5h-119z" />
<glyph unicode="E" horiz-adv-x="872" d="M102 0l101 1343h651l-14 -192h-418l-27 -367h389l-14 -192h-389l-31 -399h438v-193h-686z" />
<glyph unicode="F" horiz-adv-x="851" d="M102 0l101 1343h663l-14 -192h-430l-29 -379h412l-17 -192h-409l-43 -580h-234z" />
<glyph unicode="G" horiz-adv-x="1204" d="M82 567q0 379 206 585t531 206q174 0 309 -27l-12 -201q-147 27 -311 27q-215 0 -345 -144.5t-130 -408.5q0 -193 103.5 -308.5t260.5 -115.5q86 0 168 10l21 281h-195v186h430l-47 -637q-172 -35 -395 -34q-272 0 -433 153.5t-161 427.5z" />
<glyph unicode="H" horiz-adv-x="1263" d="M102 0l101 1343h233l-43 -555h508l41 555h234l-101 -1343h-233l43 586h-506l-43 -586h-234z" />
<glyph unicode="I" horiz-adv-x="524" d="M102 0l101 1343h233l-100 -1343h-234z" />
<glyph unicode="J" horiz-adv-x="616" d="M-14 2v199q49 -10 110 -11q49 0 83 31t38 84l78 1038h233l-75 -1019q-12 -172 -98.5 -254t-254.5 -82q-65 0 -114 14z" />
<glyph unicode="K" horiz-adv-x="1110" d="M102 0l101 1343h233l-43 -561h68l428 561h268l-504 -622l459 -721h-285l-374 602h-74l-43 -602h-234z" />
<glyph unicode="L" horiz-adv-x="833" d="M102 0l101 1343h233l-86 -1150h438v-193h-686z" />
<glyph unicode="M" horiz-adv-x="1542" d="M49 0l189 1343h352l164 -845h12l328 845h333l-41 -1343h-243l57 1106h-12l-354 -868h-230l-184 868h-12l-136 -1106h-223z" />
<glyph unicode="N" horiz-adv-x="1230" d="M102 0l101 1343h334l311 -1067h6l78 1067h211l-101 -1343h-333l-312 1067h-6l-78 -1067h-211z" />
<glyph unicode="O" horiz-adv-x="1304" d="M80 549q0 387 178 598t475 211q227 0 362.5 -157t135.5 -441q0 -367 -184.5 -571.5t-466.5 -204.5q-229 0 -364.5 142t-135.5 423zM330 575q0 -199 76.5 -293t209.5 -94q162 0 263.5 134.5t101.5 406.5q0 215 -77 319.5t-210 104.5q-162 0 -263 -152t-101 -426z" />
<glyph unicode="P" horiz-adv-x="1024" d="M102 0l101 1343h350q229 0 344 -97t115 -273q0 -236 -141.5 -367t-393.5 -131q-39 0 -104 10l-37 -485h-234zM385 670q51 -10 109 -11q123 0 195.5 73t72.5 204q0 221 -244 221h-96z" />
<glyph unicode="Q" horiz-adv-x="1304" d="M80 549q0 387 178 598t475 211q227 0 362.5 -157t135.5 -441q0 -281 -111.5 -468.5t-298.5 -262.5l275 -383h-273l-231 338h-12q-229 0 -364.5 142t-135.5 423zM330 575q0 -199 76.5 -293t209.5 -94q162 0 263.5 134.5t101.5 406.5q0 215 -77 319.5t-210 104.5 q-162 0 -263 -152t-101 -426z" />
<glyph unicode="R" horiz-adv-x="1077" d="M102 0l101 1343h366q221 0 335 -96t114 -276q0 -145 -72 -246.5t-194 -146.5l139 -267q80 -152 190 -311h-272q-90 117 -162 268l-119 254h-153l-39 -522h-234zM387 700h143q111 0 174.5 64.5t63.5 189.5q0 203 -236 203h-110z" />
<glyph unicode="S" horiz-adv-x="864" d="M-4 10v203q162 -37 307 -37q121 0 190.5 48t69.5 120q0 61 -29.5 103t-117.5 100l-160 102q-96 61 -137 133t-41 174q0 174 138 287t347 113q137 0 252 -27l-16 -196q-123 29 -250 28q-104 0 -168 -46t-64 -111q0 -59 30 -99.5t118 -95.5l149 -92q106 -66 149.5 -135.5 t43.5 -178.5q0 -186 -144.5 -303.5t-377.5 -117.5q-148 -1 -289 28z" />
<glyph unicode="T" horiz-adv-x="927" d="M35 1155l14 188h942l-14 -188h-354l-86 -1155h-234l86 1155h-354z" />
<glyph unicode="U" horiz-adv-x="1214" d="M117 455l63 888h234l-64 -864q-1 -20 -1 -39q0 -247 247 -247q252 0 270 258l68 892h217l-66 -880q-37 -479 -516 -479q-250 0 -360 115q-95 99 -95 290q0 32 3 66z" />
<glyph unicode="V" horiz-adv-x="1017" d="M37 1343h258l190 -1120h15l368 1120h238l-473 -1343h-334z" />
<glyph unicode="W" horiz-adv-x="1683" d="M37 1343h258l172 -1118h12l293 824l-63 294h254l217 -1118h12l307 1118h238l-424 -1343h-314l-145 707h-4l-252 -707h-322z" />
<glyph unicode="X" horiz-adv-x="1005" d="M-43 0l403 680l-286 663h264l184 -458h6l260 458h234l-371 -618l342 -725h-262l-242 510h-4l-282 -510h-246z" />
<glyph unicode="Y" horiz-adv-x="907" d="M-6 1343h264l207 -565h6l303 565h240l-463 -792l-41 -551h-234l41 549z" />
<glyph unicode="Z" horiz-adv-x="929" d="M8 0v168l637 979v2h-549l13 194h817l4 -165l-635 -979v-4h571v-195h-858z" />
<glyph unicode="[" horiz-adv-x="538" d="M113 -362l147 1705h334l-12 -137h-168l-125 -1431h170l-13 -137h-333z" />
<glyph unicode="\" horiz-adv-x="589" d="M-35 1323l170 53l467 -1712l-172 -53z" />
<glyph unicode="]" horiz-adv-x="538" d="M-57 -362l12 137h168l125 1431h-170l12 137h334l-148 -1705h-333z" />
<glyph unicode="^" d="M80 920l446 448l447 -448l-129 -129l-318 319l-317 -319z" />
<glyph unicode="_" horiz-adv-x="1024" d="M0 -86h1024v-176h-1024v176z" />
<glyph unicode="`" horiz-adv-x="833" d="M188 1425h236l121 -297h-168z" />
<glyph unicode="a" horiz-adv-x="972" d="M59 340q0 326 153 507t372 181q88 0 149 -20l164 22l-92 -1030h-211l14 156h-6q-123 -176 -307 -176q-106 0 -171 88t-65 272zM283 358q0 -182 104 -182q53 0 116.5 49t121.5 137l41 474q-39 10 -101 10q-117 0 -199.5 -124t-82.5 -364z" />
<glyph unicode="b" horiz-adv-x="962" d="M76 -18l129 1435l217 19l-51 -551h6q125 145 274 145q260 0 260 -368q0 -332 -150.5 -505t-373.5 -173q-88 0 -151 20zM307 176q39 -10 94 -10q123 0 204 116.5t81 368.5q0 98 -29.5 136t-83.5 38q-100 0 -219 -118z" />
<glyph unicode="c" horiz-adv-x="663" d="M63 356q0 338 132.5 506t334.5 168q96 0 175 -20l-13 -189q-86 14 -162 15q-242 0 -241 -451q0 -111 45 -164t121 -53q86 0 182 33v-178q-96 -39 -215 -39q-178 0 -268.5 88.5t-90.5 283.5z" />
<glyph unicode="d" horiz-adv-x="972" d="M59 340q0 326 153 507t372 181q59 0 98 -8l35 397l217 19l-129 -1436h-211l14 156h-6q-127 -176 -307 -176q-106 0 -171 88t-65 272zM283 358q0 -182 104 -182q53 0 116.5 48t121.5 138l41 474q-39 10 -101 10q-117 0 -199.5 -124t-82.5 -364z" />
<glyph unicode="e" horiz-adv-x="843" d="M66 356q0 334 129 504t329 170q150 0 223.5 -63.5t73.5 -180.5q0 -188 -144.5 -303.5t-391.5 -115.5q0 -109 41 -154t125 -45q135 0 282 70v-179q-154 -76 -330 -75q-170 0 -253.5 91t-83.5 281zM297 526q143 0 223 60.5t80 165.5q0 111 -104 110q-66 0 -125.5 -88 t-73.5 -248z" />
<glyph unicode="f" horiz-adv-x="552" d="M72 -391l106 1243h-102v162h119l8 84q16 164 112.5 251t268.5 87q90 0 153 -17l-20 -172q-66 12 -144 13q-63 0 -106 -42t-51 -118l-8 -86h206l-16 -162h-203l-108 -1243h-215z" />
<glyph unicode="g" horiz-adv-x="972" d="M39 -176q154 -49 313 -49q219 0 242 233l14 148h-6q-127 -176 -307 -176q-106 0 -171 88t-65 272q0 326 153 507t372 181q88 0 149 -20l164 22l-90 -1020q-16 -193 -143 -302t-306 -109q-180 0 -319 32v193zM283 358q0 -182 104 -182q53 0 116.5 48t121.5 138l41 474 q-39 10 -101 10q-117 0 -199.5 -124t-82.5 -364z" />
<glyph unicode="h" horiz-adv-x="983" d="M78 0l127 1417l217 19l-55 -549h6q143 143 297 143q225 0 224 -275q0 -34 -3 -71l-66 -684h-217l64 657q2 24 2 44q0 52 -16 76q-22 34 -76 34q-100 0 -226 -106l-63 -705h-215z" />
<glyph unicode="i" horiz-adv-x="460" d="M78 0l88 1006l217 18l-90 -1024h-215zM174 1290q0 66 37 103t98 37q55 0 86 -32t31 -83q0 -63 -36 -101t-101 -38q-115 -1 -115 114z" />
<glyph unicode="j" horiz-adv-x="460" d="M-92 -211q150 0 164 148l94 1069l217 18l-94 -1073q-14 -162 -108.5 -252t-227.5 -90h-45v180zM174 1290q0 66 37 103t98 37q55 0 86 -32t31 -83q0 -63 -36 -101t-101 -38q-115 -1 -115 114z" />
<glyph unicode="k" horiz-adv-x="927" d="M78 0l127 1417l217 19l-45 -508h10q115 102 244 102q119 0 191.5 -67.5t72.5 -186.5q0 -121 -66.5 -214t-175.5 -138l121 -221q53 -100 133 -203h-260q-55 66 -98 152l-96 192l-129 -18l-31 -326h-215zM336 481l80 15q117 20 187.5 84.5t70.5 142.5q0 109 -113 108 q-45 0 -103.5 -25.5t-97.5 -62.5z" />
<glyph unicode="l" horiz-adv-x="460" d="M78 0l127 1417l217 19l-129 -1436h-215z" />
<glyph unicode="m" horiz-adv-x="1478" d="M78 0l88 1006l211 18l-12 -139h6q82 80 146.5 112.5t144.5 32.5q162 0 202 -158h4q164 158 308 158q215 0 214 -269q0 -36 -4 -77l-65 -684h-217l63 657q2 25 3 47q0 50 -14 73q-19 34 -73 34q-88 0 -209 -100l-65 -711h-219l63 657q3 28 3 50q0 50 -13 72q-18 32 -72 32 q-88 0 -215 -106l-61 -705h-217z" />
<glyph unicode="n" horiz-adv-x="983" d="M78 0l88 1006l211 18l-12 -139h6q147 145 301 145q223 0 223 -268q0 -37 -4 -78l-66 -684h-217l64 657q2 23 2 43q0 53 -17 77q-23 34 -77 34q-96 0 -224 -106l-61 -705h-217z" />
<glyph unicode="o" horiz-adv-x="962" d="M68 399q0 297 132 466t330 169q174 0 271.5 -107.5t97.5 -316.5q0 -291 -133 -460.5t-326 -169.5q-372 -1 -372 419zM291 418q0 -256 166 -256q88 0 154.5 106.5t66.5 311.5q0 272 -166 272q-90 0 -155.5 -111.5t-65.5 -322.5z" />
<glyph unicode="p" horiz-adv-x="960" d="M43 -391l125 1397l215 18l-16 -147h6q131 154 280 153q260 0 260 -368q0 -332 -148.5 -505t-371.5 -173q-51 0 -102 10l-33 -385h-215zM307 176q39 -10 101 -10q121 0 200.5 115.5t79.5 369.5q0 174 -115 174q-100 0 -219 -118z" />
<glyph unicode="q" horiz-adv-x="972" d="M59 340q0 326 153 507t372 181q88 0 149 -20l164 22l-127 -1421h-215l53 547h-6q-127 -176 -307 -176q-106 0 -171 88t-65 272zM283 358q0 -182 104 -182q53 0 116.5 48t121.5 138l41 474q-39 10 -101 10q-117 0 -199.5 -124t-82.5 -364z" />
<glyph unicode="r" horiz-adv-x="624" d="M78 0l88 1006l211 18l-17 -188h9q63 111 111 149.5t116 38.5q39 0 80 -14l-23 -213q-41 8 -75 8q-53 0 -115 -41t-113 -121l-55 -643h-217z" />
<glyph unicode="s" horiz-adv-x="692" d="M14 8v195q121 -35 234 -35q84 0 129 28.5t45 71.5q0 37 -19.5 64.5t-78.5 66.5l-103 68q-145 96 -145 244q0 133 101.5 222t271.5 89q113 0 210 -16l-10 -189q-125 18 -200 19q-80 0 -120 -26t-40 -67q0 -63 86 -116l98 -60q96 -57 134 -114.5t38 -143.5 q0 -137 -115.5 -232t-291.5 -95q-126 -1 -224 26z" />
<glyph unicode="t" horiz-adv-x="610" d="M78 852v162h110l21 215l217 22l-25 -237h201l-16 -162h-199l-49 -516q-2 -25 -3 -47q0 -121 79 -121q61 0 137 29v-181q-102 -35 -217 -34q-217 0 -217 256q0 36 4 77l53 537h-96z" />
<glyph unicode="u" horiz-adv-x="978" d="M92 334l66 672l217 18l-64 -668q-3 -32 -3 -58q0 -55 15 -83q22 -41 76 -41q82 0 222 145l61 687l217 18l-86 -1024h-211l10 133h-6q-141 -150 -295 -149q-223 0 -223 270q0 38 4 80z" />
<glyph unicode="v" horiz-adv-x="819" d="M51 1014h230l94 -828h10l59 131q127 281 197 697h209q-63 -408 -236 -750l-133 -264h-288z" />
<glyph unicode="w" horiz-adv-x="1335" d="M53 1014h230l88 -828h10l51 125q109 242 178 518l-28 185h223l117 -828h10l51 129q111 279 164 699h209q-55 -428 -207 -752l-123 -262h-281l-71 551h-4q-43 -166 -125 -361l-82 -190h-273z" />
<glyph unicode="x" horiz-adv-x="831" d="M-25 0q100 213 228 395l94 133l-225 486h231l139 -330h4l58 90q59 90 119 240h211q-70 -190 -185 -342l-104 -137l252 -535h-234l-168 369h-4l-65 -107q-66 -106 -138 -262h-213z" />
<glyph unicode="y" horiz-adv-x="763" d="M-84 -217q51 -8 117 -8q61 0 120.5 52t98.5 155l16 43h-49l-203 989h230l127 -760h12l61 158q92 236 152 602h211q-41 -227 -86 -376t-135 -347l-133 -293q-94 -217 -195.5 -307t-234.5 -90q-70 0 -109 12v170z" />
<glyph unicode="z" horiz-adv-x="712" d="M8 0v174l467 655v5h-399l18 180h611l14 -170l-469 -660v-4h426v-180h-668z" />
<glyph unicode="{" horiz-adv-x="608" d="M37 422l14 141q223 31 236 166l35 373q10 119 79.5 187.5t180.5 68.5q59 0 90 -8l-13 -121q-88 0 -126.5 -22.5t-45.5 -82.5l-32 -366q-23 -242 -314 -271v-2q150 -10 214.5 -65t54.5 -164l-35 -379q-6 -68 28.5 -93.5t126.5 -25.5l-8 -116q-47 -14 -92 -15 q-244 0 -225 207l37 397q6 66 -42 114t-163 77z" />
<glyph unicode="|" horiz-adv-x="456" d="M139 -356v1699h178v-1699h-178z" />
<glyph unicode="}" horiz-adv-x="608" d="M-63 -365l12 121q88 0 127 22.5t45 82.5l33 366q23 242 313 271v2q-150 10 -214.5 65.5t-53.5 163.5l34 379q6 68 -28.5 93.5t-126.5 25.5l8 116q47 14 92 15q244 0 225 -207l-36 -397q-6 -66 42 -114t162 -77l-14 -141q-223 -31 -235 -166l-35 -373q-10 -119 -80 -187.5 t-180 -68.5q-59 0 -90 8z" />
<glyph unicode="~" d="M133 633q117 150 258 149q68 0 166 -77.5t145 -77.5q88 0 166 98l47 -141q-55 -74 -109 -110t-132 -36q-63 0 -163.5 78t-152.5 78q-90 0 -176 -105z" />
<glyph unicode="&#xa1;" horiz-adv-x="544" d="M76 -342l67 612l29 326l217 8l-78 -923zM156 856q0 78 45 123t118 45q63 0 99.5 -37t36.5 -106q0 -78 -45 -126t-115 -48q-63 0 -101 37.5t-38 111.5z" />
<glyph unicode="&#xa2;" d="M145 657q14 203 122 341.5t265 179.5l17 208h162l-15 -192q78 -2 162 -25l-35 -208q-90 18 -168 18q-117 0 -194.5 -83t-89.5 -228q-10 -158 56.5 -235t184.5 -77q92 0 181 25v-197q-80 -25 -172 -30l-15 -197h-162l15 207q-343 63 -314 493z" />
<glyph unicode="&#xa3;" d="M31 0l18 186h90q66 68 76 195l21 246h-127l16 172h127l16 176q16 178 128 278.5t304 100.5q115 0 197 -25l-18 -194q-84 25 -209 24q-152 0 -168 -174l-17 -186h265l-17 -172h-264l-18 -232q-10 -127 -62 -209h266q123 0 236 43l-19 -190q-86 -39 -247 -39h-594z" />
<glyph unicode="&#xa4;" d="M113 319l118 119q-45 72 -45 168q0 92 45 168l-118 119l125 125l118 -119q78 45 168 45q88 0 168 -45l119 119l127 -125l-123 -119q47 -80 47 -168q0 -92 -45 -170l119 -114l-125 -123l-119 114q-72 -45 -168 -45t-168 45l-118 -118zM354 606.5q0 -69.5 50.5 -120 t120 -50.5t119.5 50.5t50 120t-50 119.5t-119.5 50t-120 -50t-50.5 -119.5z" />
<glyph unicode="&#xa5;" d="M88 1343h264l207 -565h6l303 565h240l-379 -649h207l-12 -174h-281l-12 -153h282l-14 -174h-281l-14 -193h-233l14 193h-270l14 174h268l13 153h-271l13 174h200z" />
<glyph unicode="&#xa6;" horiz-adv-x="456" d="M139 209h178v-565h-178v565zM139 778v565h178v-565h-178z" />
<glyph unicode="&#xa7;" horiz-adv-x="970" d="M18 -135q164 -33 328 -33q133 0 211 57.5t78 135.5q0 63 -47 104q-41 -10 -103 -10q-164 0 -274.5 109.5t-110.5 273.5q0 131 72 229q-55 78 -55 197q0 199 138 314.5t386 115.5q143 0 268 -27l-30 -205q-131 27 -265 27q-135 0 -200.5 -51t-65.5 -137q0 -45 29 -84 q55 16 117 16q164 0 274.5 -109.5t110.5 -273.5q0 -129 -74 -235q66 -78 65 -199q0 -203 -150.5 -328t-395.5 -125q-168 0 -306 25v213zM295 508q0 -84 56.5 -143.5t138 -59.5t137 59.5t55.5 143.5t-55.5 142.5t-137 58.5t-138 -58.5t-56.5 -142.5z" />
<glyph unicode="&#xa8;" horiz-adv-x="856" d="M168 1217q0 59 30.5 99t88.5 40q45 0 71.5 -28t26.5 -71q0 -61 -30.5 -101t-90.5 -40q-43 0 -69.5 29t-26.5 72zM502 1217q0 59 30.5 99t88.5 40q45 0 71.5 -28t26.5 -71q0 -61 -31 -101t-90 -40q-43 0 -69.5 29t-26.5 72z" />
<glyph unicode="&#xa9;" horiz-adv-x="1576" d="M92 670q0 285 205 488.5t491.5 203.5t490.5 -204t204 -488q0 -287 -204 -491t-490.5 -204t-491.5 204t-205 491zM209 670q0 -242 170 -415t409.5 -173t408.5 173t169 415q0 240 -169 412.5t-408.5 172.5t-409.5 -172.5t-170 -412.5zM420 616q0 215 133 339t324 124 q57 0 155 -16l-4 -150q-98 14 -154 15q-115 0 -192.5 -79t-77.5 -218q0 -111 62.5 -168t169.5 -57q66 0 159 18l-2 -145q-86 -23 -176 -23q-182 0 -289.5 96t-107.5 264z" />
<glyph unicode="&#xaa;" horiz-adv-x="700" d="M102 905q0 215 108.5 331t272.5 116q53 0 107 -15l133 15l-66 -674h-178l10 100h-4q-92 -115 -221 -114q-162 -1 -162 241zM291 922q0 -102 59 -103q78 0 146 86l30 297q-20 6 -57 6q-78 0 -128 -69.5t-50 -216.5z" />
<glyph unicode="&#xab;" horiz-adv-x="1128" d="M80 514l348 438h217l-332 -428l267 -448h-218zM489 514l349 438h217l-332 -428l266 -448h-217z" />
<glyph unicode="&#xac;" d="M121 698v187h807v-525h-187v338h-620z" />
<glyph unicode="&#xad;" horiz-adv-x="763" d="M123 489v195h528v-195h-528z" />
<glyph unicode="&#xae;" horiz-adv-x="1576" d="M92 670q0 285 205 488.5t491.5 203.5t490.5 -204t204 -488q0 -287 -204 -491t-490.5 -204t-491.5 204t-205 491zM209 670q0 -242 170 -415t409.5 -173t408.5 173t169 415q0 240 -169 412.5t-408.5 172.5t-409.5 -172.5t-170 -412.5zM477 264l62 807h256q141 0 218 -61.5 t77 -167.5q0 -182 -164 -248l84 -145q55 -96 127 -185h-203q-57 70 -100 152l-74 143h-86l-23 -295h-174zM684 692h84q61 0 99 37t38 98q0 111 -145 111h-58z" />
<glyph unicode="&#xaf;" horiz-adv-x="776" d="M127 1145l10 147h510l-10 -147h-510z" />
<glyph unicode="&#xb0;" horiz-adv-x="753" d="M68 1042.5q0 131.5 91 223.5t222 92t223 -92t92 -223.5t-92 -222.5t-223 -91t-222 91t-91 222.5zM231 1042.5q0 -63.5 43 -106.5t106.5 -43t107.5 43t44 106.5t-44 107.5t-107.5 44t-106.5 -44t-43 -107.5z" />
<glyph unicode="&#xb1;" d="M94 0l17 176h766l-17 -176h-766zM141 541l19 174h293l26 315h178l-26 -315h295l-19 -174h-295l-26 -297h-178l26 297h-293z" />
<glyph unicode="&#xb2;" horiz-adv-x="751" d="M88 668q49 160 207 260l96 61q109 70 109 156q0 106 -140 106q-86 0 -188 -34v161q125 35 240 35q139 0 212.5 -64.5t73.5 -174.5q0 -96 -42 -160t-156 -129l-78 -45q-129 -74 -154 -154h416v-156h-588z" />
<glyph unicode="&#xb3;" horiz-adv-x="751" d="M104 518v150h127q266 0 267 147q0 98 -115 131q-82 -43 -176 -57l-23 131q229 59 367 227h-377v156h526l13 -168q-82 -111 -209 -180v-4q84 -20 133 -76.5t49 -134.5q0 -143 -122 -232.5t-341 -89.5h-119z" />
<glyph unicode="&#xb4;" horiz-adv-x="833" d="M356 1128l174 297h236l-242 -297h-168z" />
<glyph unicode="&#xb5;" horiz-adv-x="978" d="M51 -82l107 1088l217 18l-64 -668q-10 -100 11.5 -141t76.5 -41q82 0 222 145l61 687l217 18l-59 -711q-10 -145 55 -145q31 0 70 10v-178q-74 -18 -154 -18q-150 0 -199 151h-6q-141 -150 -295 -149q-31 0 -49 8l-4 -55q-14 -188 27 -328h-213q-37 139 -21 309z" />
<glyph unicode="&#xb6;" horiz-adv-x="1341" d="M66 672q0 313 165.5 494.5t466.5 181.5q33 0 87.5 -2.5t78.5 -2.5h436l-170 -1855h-219l154 1681h-164l-153 -1681h-158l65 721q-63 -23 -172 -23q-193 0 -305 119t-112 367z" />
<glyph unicode="&#xb7;" horiz-adv-x="413" d="M45 606q0 78 45 126t115 48q63 0 101 -37.5t38 -111.5q0 -78 -45 -123t-119 -45q-63 0 -99 36.5t-36 106.5z" />
<glyph unicode="&#xb8;" horiz-adv-x="1552" d="M193 -264h96q139 0 139 53q0 25 -22.5 35t-92.5 10h-53l23 105h135q172 0 172 -119q0 -90 -81 -150.5t-235 -60.5h-81v127z" />
<glyph unicode="&#xb9;" horiz-adv-x="751" d="M172 1233v123q150 47 287 47h108l-71 -873h-199l59 717q-92 0 -184 -14z" />
<glyph unicode="&#xba;" horiz-adv-x="684" d="M92 940q0 195 96.5 304.5t243.5 109.5q127 0 202 -74t75 -209q0 -193 -96.5 -302.5t-237.5 -109.5q-133 0 -208 69t-75 212zM283 950q0 -139 104 -139q53 0 95 60.5t42 175.5q0 158 -106 157q-57 0 -96 -62.5t-39 -191.5z" />
<glyph unicode="&#xbb;" horiz-adv-x="1128" d="M80 76l332 428l-267 448h217l283 -438l-348 -438h-217zM489 76l332 428l-266 448h217l283 -438l-348 -438h-218z" />
<glyph unicode="&#xbc;" horiz-adv-x="1658" d="M238 1233v123q150 47 286 47h109l-72 -873h-199l60 717q-92 0 -184 -14zM305 -223l938 1622l133 -80l-938 -1622zM879 -10q43 170 159.5 324.5t270.5 250.5h192l-49 -555h98v-151h-110l-15 -166h-178l15 166h-355zM1034 10h240l37 391h-4q-187 -153 -273 -391z" />
<glyph unicode="&#xbd;" horiz-adv-x="1658" d="M238 1233v123q150 47 286 47h109l-72 -873h-199l60 717q-92 0 -184 -14zM305 -223l938 1622l133 -80l-938 -1622zM975 -170q49 160 207 260l96 62q109 70 108 155q0 106 -139 107q-86 0 -188 -35v162q125 35 239 34q139 0 213 -64.5t74 -174.5q0 -96 -42 -159.5 t-157 -129.5l-77 -45q-129 -74 -154 -154h416v-155h-588z" />
<glyph unicode="&#xbe;" horiz-adv-x="1658" d="M141 518v150h127q266 0 267 147q0 98 -115 131q-82 -43 -176 -57l-23 131q229 59 367 227h-377v156h526l13 -168q-82 -111 -209 -180v-4q84 -20 133 -76.5t49 -134.5q0 -143 -122 -232.5t-341 -89.5h-119zM305 -223l938 1622l133 -80l-938 -1622zM879 -10 q43 170 159.5 324.5t270.5 250.5h192l-49 -555h98v-151h-110l-15 -166h-178l15 166h-355zM1034 10h240l37 391h-4q-187 -153 -273 -391z" />
<glyph unicode="&#xbf;" horiz-adv-x="831" d="M12 -51q0 238 201 330l137 63q66 31 91.5 65.5t25.5 81.5q0 55 -10 103l178 12q35 -53 35 -133q0 -166 -187 -268l-121 -66q-106 -57 -106 -155q0 -53 47 -89t137 -36q135 0 273 39v-191q-150 -49 -314 -49q-182 0 -284.5 83t-102.5 210zM414 856q0 78 45 123t119 45 q63 0 99 -37t36 -106q0 -78 -45 -126t-115 -48q-63 0 -101 37.5t-38 111.5z" />
<glyph unicode="&#xc0;" horiz-adv-x="1107" d="M-55 0l504 1343h335l279 -1343h-262l-60 311h-446l-109 -311h-241zM322 1774h235l121 -297h-168zM358 502h355l-113 639h-16z" />
<glyph unicode="&#xc1;" horiz-adv-x="1107" d="M-55 0l504 1343h335l279 -1343h-262l-60 311h-446l-109 -311h-241zM358 502h355l-113 639h-16zM475 1477l174 297h236l-242 -297h-168z" />
<glyph unicode="&#xc2;" horiz-adv-x="1107" d="M-55 0l504 1343h335l279 -1343h-262l-60 311h-446l-109 -311h-241zM317 1477l240 297h201l172 -297h-195l-94 174h-16l-125 -174h-183zM358 502h355l-113 639h-16z" />
<glyph unicode="&#xc3;" horiz-adv-x="1107" d="M-55 0l504 1343h335l279 -1343h-262l-60 311h-446l-109 -311h-241zM324 1628q90 125 200 125q49 0 126 -59.5t112 -59.5q63 0 121 72l35 -125q-76 -111 -183 -111q-43 0 -121.5 59.5t-117.5 59.5q-66 0 -138 -86zM358 502h355l-113 639h-16z" />
<glyph unicode="&#xc4;" horiz-adv-x="1107" d="M-55 0l504 1343h335l279 -1343h-262l-60 311h-446l-109 -311h-241zM334 1565q0 59 30.5 99t88.5 40q45 0 71.5 -27.5t26.5 -70.5q0 -61 -31 -101.5t-90 -40.5q-43 0 -69.5 29t-26.5 72zM358 502h355l-113 639h-16zM684 1565q0 59 30.5 99t88.5 40q45 0 71.5 -27.5 t26.5 -70.5q0 -61 -30.5 -101.5t-90.5 -40.5q-43 0 -69.5 29t-26.5 72z" />
<glyph unicode="&#xc5;" horiz-adv-x="1107" d="M-55 0l504 1343h335l279 -1343h-262l-60 311h-446l-109 -311h-241zM358 502h355l-113 639h-16zM455 1618q0 86 56 143.5t138 57.5q68 0 113 -47.5t45 -118.5q0 -88 -53.5 -144.5t-139.5 -56.5q-68 0 -113.5 48t-45.5 118zM561 1628q0 -35 18.5 -55.5t47.5 -20.5 q35 0 55 23.5t20 64.5q0 35 -18 56.5t-47 21.5q-35 0 -55.5 -25.5t-20.5 -64.5z" />
<glyph unicode="&#xc6;" horiz-adv-x="1529" d="M-72 0l805 1343h778l-14 -192h-418l-26 -367h389l-15 -192h-389l-30 -399h438v-193h-686l22 311h-432l-178 -311h-244zM463 502h334l49 645h-12z" />
<glyph unicode="&#xc7;" horiz-adv-x="1024" d="M82 584q0 182 57.5 331.5t154.5 244.5t220 146.5t258 51.5q141 0 260 -27l-16 -198q-131 25 -250 24q-178 0 -307 -145.5t-129 -403.5q0 -203 101 -313.5t257 -110.5q131 0 275 31v-192q-135 -37 -301 -37q-264 0 -422 157.5t-158 440.5zM340 -260h104q145 0 146 53 q0 25 -24.5 35t-98.5 10h-57l18 109h121q203 0 203 -127q0 -94 -83 -152.5t-239 -58.5h-90v131z" />
<glyph unicode="&#xc8;" horiz-adv-x="872" d="M102 0l101 1343h651l-14 -192h-418l-27 -367h389l-14 -192h-389l-31 -399h438v-193h-686zM289 1774h235l121 -297h-168z" />
<glyph unicode="&#xc9;" horiz-adv-x="872" d="M102 0l101 1343h651l-14 -192h-418l-27 -367h389l-14 -192h-389l-31 -399h438v-193h-686zM442 1477l174 297h236l-242 -297h-168z" />
<glyph unicode="&#xca;" horiz-adv-x="872" d="M102 0l101 1343h651l-14 -192h-418l-27 -367h389l-14 -192h-389l-31 -399h438v-193h-686zM227 1477l240 297h201l172 -297h-195l-94 174h-16l-125 -174h-183z" />
<glyph unicode="&#xcb;" horiz-adv-x="872" d="M102 0l101 1343h651l-14 -192h-418l-27 -367h389l-14 -192h-389l-31 -399h438v-193h-686zM270 1565q0 59 31 99t88 40q45 0 71.5 -27.5t26.5 -70.5q0 -61 -30.5 -101.5t-89.5 -40.5q-43 0 -70 29t-27 72zM621 1565q0 59 30.5 99t87.5 40q45 0 72 -27.5t27 -70.5 q0 -61 -31 -101.5t-90 -40.5q-43 0 -69.5 29t-26.5 72z" />
<glyph unicode="&#xcc;" horiz-adv-x="524" d="M74 1774h235l121 -297h-168zM102 0l101 1343h233l-100 -1343h-234z" />
<glyph unicode="&#xcd;" horiz-adv-x="524" d="M102 0l101 1343h233l-100 -1343h-234zM209 1477l174 297h235l-241 -297h-168z" />
<glyph unicode="&#xce;" horiz-adv-x="524" d="M20 1477l240 297h201l172 -297h-195l-94 174h-16l-125 -174h-183zM102 0l101 1343h233l-100 -1343h-234z" />
<glyph unicode="&#xcf;" horiz-adv-x="524" d="M55 1565q0 59 31 99t88 40q45 0 71.5 -27.5t26.5 -70.5q0 -61 -30.5 -101.5t-89.5 -40.5q-43 0 -70 29t-27 72zM102 0l101 1343h233l-100 -1343h-234zM406 1565q0 59 30.5 99t87.5 40q45 0 72 -27.5t27 -70.5q0 -61 -31 -101.5t-90 -40.5q-43 0 -69.5 29t-26.5 72z" />
<glyph unicode="&#xd0;" horiz-adv-x="1294" d="M0 588l14 198h146l43 557h368q315 0 481.5 -152.5t166.5 -430.5q0 -356 -198 -558t-527 -202h-392l43 588h-145zM350 190h164q213 0 334 133.5t121 407.5q0 209 -110.5 315.5t-317.5 106.5h-119l-29 -367h262l-14 -198h-262z" />
<glyph unicode="&#xd1;" horiz-adv-x="1230" d="M102 0l101 1343h334l311 -1067h6l78 1067h211l-101 -1343h-333l-312 1067h-6l-78 -1067h-211zM412 1628q90 125 200 125q49 0 126 -59.5t112 -59.5q63 0 121 72l35 -125q-76 -111 -183 -111q-43 0 -121.5 59.5t-117.5 59.5q-66 0 -138 -86z" />
<glyph unicode="&#xd2;" horiz-adv-x="1304" d="M80 549q0 387 178 598t475 211q227 0 362.5 -157t135.5 -441q0 -367 -184.5 -571.5t-466.5 -204.5q-229 0 -364.5 142t-135.5 423zM330 575q0 -199 76.5 -293t209.5 -94q162 0 263.5 134.5t101.5 406.5q0 215 -77 319.5t-210 104.5q-162 0 -263 -152t-101 -426zM459 1774 h235l121 -297h-168z" />
<glyph unicode="&#xd3;" horiz-adv-x="1304" d="M80 549q0 387 178 598t475 211q227 0 362.5 -157t135.5 -441q0 -367 -184.5 -571.5t-466.5 -204.5q-229 0 -364.5 142t-135.5 423zM330 575q0 -199 76.5 -293t209.5 -94q162 0 263.5 134.5t101.5 406.5q0 215 -77 319.5t-210 104.5q-162 0 -263 -152t-101 -426zM612 1477 l174 297h236l-242 -297h-168z" />
<glyph unicode="&#xd4;" horiz-adv-x="1304" d="M80 549q0 387 178 598t475 211q227 0 362.5 -157t135.5 -441q0 -367 -184.5 -571.5t-466.5 -204.5q-229 0 -364.5 142t-135.5 423zM330 575q0 -199 76.5 -293t209.5 -94q162 0 263.5 134.5t101.5 406.5q0 215 -77 319.5t-210 104.5q-162 0 -263 -152t-101 -426zM436 1477 l240 297h201l172 -297h-195l-94 174h-17l-125 -174h-182z" />
<glyph unicode="&#xd5;" horiz-adv-x="1304" d="M80 549q0 387 178 598t475 211q227 0 362.5 -157t135.5 -441q0 -367 -184.5 -571.5t-466.5 -204.5q-229 0 -364.5 142t-135.5 423zM330 575q0 -199 76.5 -293t209.5 -94q162 0 263.5 134.5t101.5 406.5q0 215 -77 319.5t-210 104.5q-162 0 -263 -152t-101 -426zM428 1628 q90 125 201 125q49 0 125.5 -59.5t111.5 -59.5q63 0 121 72l35 -125q-76 -111 -182 -111q-43 0 -122 59.5t-118 59.5q-66 0 -137 -86z" />
<glyph unicode="&#xd6;" horiz-adv-x="1304" d="M80 549q0 387 178 598t475 211q227 0 362.5 -157t135.5 -441q0 -367 -184.5 -571.5t-466.5 -204.5q-229 0 -364.5 142t-135.5 423zM330 575q0 -199 76.5 -293t209.5 -94q162 0 263.5 134.5t101.5 406.5q0 215 -77 319.5t-210 104.5q-162 0 -263 -152t-101 -426zM440 1565 q0 59 31 99t88 40q45 0 71.5 -27.5t26.5 -70.5q0 -61 -30.5 -101.5t-89.5 -40.5q-43 0 -70 29t-27 72zM791 1565q0 59 30.5 99t87.5 40q45 0 72 -27.5t27 -70.5q0 -61 -31 -101.5t-90 -40.5q-43 0 -69.5 29t-26.5 72z" />
<glyph unicode="&#xd7;" d="M150 365l249 239l-209 242l140 131l205 -242l251 242l109 -129l-248 -240l207 -241l-137 -134l-205 244l-252 -239z" />
<glyph unicode="&#xd8;" horiz-adv-x="1304" d="M80 549q0 387 178 598t475 211q102 0 201 -39l61 106l109 -61l-64 -109q190 -158 191 -495q0 -367 -184.5 -571.5t-466.5 -204.5q-139 0 -244 51l-68 -119l-108 61l73 129q-153 148 -153 443zM330 575q0 -141 41 -233l450 780q-59 31 -127 31q-162 0 -263 -152t-101 -426 zM453 236q66 -47 163 -48q162 0 263.5 134.5t101.5 406.5q0 197 -68 305z" />
<glyph unicode="&#xd9;" horiz-adv-x="1214" d="M117 455l63 888h234l-64 -864q-20 -287 246 -286q252 0 270 258l68 892h217l-66 -880q-37 -479 -516 -479q-250 0 -360 115.5t-92 355.5zM426 1774h236l120 -297h-168z" />
<glyph unicode="&#xda;" horiz-adv-x="1214" d="M117 455l63 888h234l-64 -864q-20 -287 246 -286q252 0 270 258l68 892h217l-66 -880q-37 -479 -516 -479q-250 0 -360 115.5t-92 355.5zM580 1477l174 297h235l-241 -297h-168z" />
<glyph unicode="&#xdb;" horiz-adv-x="1214" d="M117 455l63 888h234l-64 -864q-20 -287 246 -286q252 0 270 258l68 892h217l-66 -880q-37 -479 -516 -479q-250 0 -360 115.5t-92 355.5zM362 1477l240 297h201l172 -297h-195l-94 174h-16l-125 -174h-183z" />
<glyph unicode="&#xdc;" horiz-adv-x="1214" d="M117 455l63 888h234l-64 -864q-20 -287 246 -286q252 0 270 258l68 892h217l-66 -880q-37 -479 -516 -479q-250 0 -360 115.5t-92 355.5zM389 1565q0 59 31 99t88 40q45 0 71.5 -27.5t26.5 -70.5q0 -61 -30.5 -101.5t-90.5 -40.5q-43 0 -69.5 29t-26.5 72zM739 1565 q0 59 31 99t88 40q45 0 71.5 -27.5t26.5 -70.5q0 -61 -30.5 -101.5t-89.5 -40.5q-43 0 -70 29t-27 72z" />
<glyph unicode="&#xdd;" horiz-adv-x="907" d="M-6 1343h264l207 -565h6l303 565h240l-463 -792l-41 -551h-234l41 549zM432 1477l174 297h236l-242 -297h-168z" />
<glyph unicode="&#xde;" horiz-adv-x="1013" d="M92 0l101 1343h233l-16 -215h116q229 0 344 -97t115 -273q0 -236 -141.5 -367t-392.5 -131q-43 0 -105 10l-20 -270h-234zM358 453q39 -8 109 -9q123 0 195.5 73t72.5 204q0 221 -243 221h-97z" />
<glyph unicode="&#xdf;" horiz-adv-x="1056" d="M72 -391l129 1485q14 162 121.5 252t283.5 90q145 0 236.5 -81t91.5 -214q0 -68 -33 -128.5t-70.5 -98t-70.5 -85t-33 -90.5q0 -59 88 -135l72 -61q72 -61 100.5 -116.5t28.5 -137.5q0 -129 -108.5 -218t-264.5 -89q-119 0 -209 22v184q94 -31 219 -30q72 0 110 26.5 t38 69.5q0 63 -68 123l-76 69q-76 70 -105.5 126.5t-29.5 134.5q0 59 35 117.5t77 98.5t76.5 95t34.5 106q0 61 -43 98.5t-116 37.5q-158 0 -170 -160l-129 -1491h-215z" />
<glyph unicode="&#xe0;" horiz-adv-x="972" d="M59 340q0 326 153 507t372 181q88 0 149 -20l164 22l-92 -1030h-211l14 156h-6q-123 -176 -307 -176q-106 0 -171 88t-65 272zM283 358q0 -182 104 -182q53 0 116.5 49t121.5 137l41 474q-39 10 -101 10q-117 0 -199.5 -124t-82.5 -364zM365 1425h235l121 -297h-168z" />
<glyph unicode="&#xe1;" horiz-adv-x="972" d="M59 340q0 326 153 507t372 181q88 0 149 -20l164 22l-92 -1030h-211l14 156h-6q-123 -176 -307 -176q-106 0 -171 88t-65 272zM283 358q0 -182 104 -182q53 0 116.5 49t121.5 137l41 474q-39 10 -101 10q-117 0 -199.5 -124t-82.5 -364zM430 1128l174 297h236l-242 -297 h-168z" />
<glyph unicode="&#xe2;" horiz-adv-x="972" d="M59 340q0 326 153 507t372 181q88 0 149 -20l164 22l-92 -1030h-211l14 156h-6q-123 -176 -307 -176q-106 0 -171 88t-65 272zM260 1128l240 297h200l172 -297h-194l-94 175h-17l-125 -175h-182zM283 358q0 -182 104 -182q53 0 116.5 49t121.5 137l41 474q-39 10 -101 10 q-117 0 -199.5 -124t-82.5 -364z" />
<glyph unicode="&#xe3;" horiz-adv-x="972" d="M59 340q0 326 153 507t372 181q88 0 149 -20l164 22l-92 -1030h-211l14 156h-6q-123 -176 -307 -176q-106 0 -171 88t-65 272zM274 1280q90 125 201 125q49 0 126 -59.5t112 -59.5q63 0 121 72l34 -125q-76 -111 -182 -111q-43 0 -122 59.5t-118 59.5q-66 0 -137 -86z M283 358q0 -182 104 -182q53 0 116.5 49t121.5 137l41 474q-39 10 -101 10q-117 0 -199.5 -124t-82.5 -364z" />
<glyph unicode="&#xe4;" horiz-adv-x="972" d="M59 340q0 326 153 507t372 181q88 0 149 -20l164 22l-92 -1030h-211l14 156h-6q-123 -176 -307 -176q-106 0 -171 88t-65 272zM283 358q0 -182 104 -182q53 0 116.5 49t121.5 137l41 474q-39 10 -101 10q-117 0 -199.5 -124t-82.5 -364zM299 1217q0 59 30.5 99t88.5 40 q45 0 71.5 -28t26.5 -71q0 -61 -30.5 -101t-90.5 -40q-43 0 -69.5 29t-26.5 72zM633 1217q0 59 30.5 99t88.5 40q45 0 71.5 -28t26.5 -71q0 -61 -31 -101t-90 -40q-43 0 -69.5 29t-26.5 72z" />
<glyph unicode="&#xe5;" horiz-adv-x="972" d="M59 340q0 326 153 507t372 181q88 0 149 -20l164 22l-92 -1030h-211l14 156h-6q-123 -176 -307 -176q-106 0 -171 88t-65 272zM283 358q0 -182 104 -182q53 0 116.5 49t121.5 137l41 474q-39 10 -101 10q-117 0 -199.5 -124t-82.5 -364zM410 1270q0 86 56 143t138 57 q68 0 113 -47t45 -118q0 -88 -53.5 -144.5t-139.5 -56.5q-68 0 -113.5 48t-45.5 118zM516 1280q0 -35 18.5 -55.5t47.5 -20.5q35 0 55 23.5t20 64.5q0 35 -18 56.5t-47 21.5q-35 0 -55.5 -25.5t-20.5 -64.5z" />
<glyph unicode="&#xe6;" horiz-adv-x="1398" d="M59 336q0 326 153 509t374 183q53 0 147 -22l164 24l-4 -47h2q84 47 184 47q297 0 297 -244q0 -188 -144.5 -303.5t-391.5 -115.5q0 -115 33.5 -157t115.5 -42q145 0 299 70v-179q-152 -76 -354 -75q-129 0 -199.5 49t-91.5 162h-2q-158 -215 -338 -215q-244 0 -244 356z M283 348q0 -172 104 -172q100 0 236 162l43 498q-23 10 -91 10q-123 0 -207.5 -124t-84.5 -374zM852 526q145 0 224 61.5t79 168.5q0 49 -26.5 77.5t-73.5 28.5q-70 0 -129.5 -87t-73.5 -249z" />
<glyph unicode="&#xe7;" horiz-adv-x="663" d="M63 356q0 338 132.5 506t334.5 168q96 0 175 -20l-13 -189q-86 14 -162 15q-242 0 -241 -451q0 -111 45 -164t121 -53q86 0 182 33v-178q-96 -39 -215 -39q-178 0 -268.5 88.5t-90.5 283.5zM147 -264h97q139 0 139 53q0 25 -22.5 35t-92.5 10h-53l23 105h135 q172 0 172 -119q0 -90 -81 -150.5t-235 -60.5h-82v127z" />
<glyph unicode="&#xe8;" horiz-adv-x="843" d="M66 356q0 334 129 504t329 170q150 0 223.5 -63.5t73.5 -180.5q0 -188 -144.5 -303.5t-391.5 -115.5q0 -109 41 -154t125 -45q135 0 282 70v-179q-154 -76 -330 -75q-170 0 -253.5 91t-83.5 281zM242 1425h235l121 -297h-168zM297 526q143 0 223 60.5t80 165.5 q0 111 -104 110q-66 0 -125.5 -88t-73.5 -248z" />
<glyph unicode="&#xe9;" horiz-adv-x="843" d="M66 356q0 334 129 504t329 170q150 0 223.5 -63.5t73.5 -180.5q0 -188 -144.5 -303.5t-391.5 -115.5q0 -109 41 -154t125 -45q135 0 282 70v-179q-154 -76 -330 -75q-170 0 -253.5 91t-83.5 281zM297 526q143 0 223 60.5t80 165.5q0 111 -104 110q-66 0 -125.5 -88 t-73.5 -248zM395 1128l174 297h236l-242 -297h-168z" />
<glyph unicode="&#xea;" horiz-adv-x="843" d="M66 356q0 334 129 504t329 170q150 0 223.5 -63.5t73.5 -180.5q0 -188 -144.5 -303.5t-391.5 -115.5q0 -109 41 -154t125 -45q135 0 282 70v-179q-154 -76 -330 -75q-170 0 -253.5 91t-83.5 281zM205 1128l239 297h201l172 -297h-194l-95 175h-16l-125 -175h-182z M297 526q143 0 223 60.5t80 165.5q0 111 -104 110q-66 0 -125.5 -88t-73.5 -248z" />
<glyph unicode="&#xeb;" horiz-adv-x="843" d="M66 356q0 334 129 504t329 170q150 0 223.5 -63.5t73.5 -180.5q0 -188 -144.5 -303.5t-391.5 -115.5q0 -109 41 -154t125 -45q135 0 282 70v-179q-154 -76 -330 -75q-170 0 -253.5 91t-83.5 281zM240 1217q0 59 30.5 99t87.5 40q45 0 72 -28t27 -71q0 -61 -31 -101 t-90 -40q-43 0 -69.5 29t-26.5 72zM297 526q143 0 223 60.5t80 165.5q0 111 -104 110q-66 0 -125.5 -88t-73.5 -248zM573 1217q0 59 31 99t88 40q45 0 72 -28t27 -71q0 -61 -31 -101t-90 -40q-43 0 -70 29t-27 72z" />
<glyph unicode="&#xec;" horiz-adv-x="460" d="M29 1425h235l121 -297h-168zM78 0l88 1006l217 18l-90 -1024h-215z" />
<glyph unicode="&#xed;" horiz-adv-x="460" d="M78 0l88 1006l217 18l-90 -1024h-215zM190 1128l175 297h235l-242 -297h-168z" />
<glyph unicode="&#xee;" horiz-adv-x="460" d="M-8 1128l239 297h201l172 -297h-194l-95 175h-16l-125 -175h-182zM78 0l88 1006l217 18l-90 -1024h-215z" />
<glyph unicode="&#xef;" horiz-adv-x="460" d="M27 1217q0 59 30.5 99t87.5 40q45 0 72 -28t27 -71q0 -61 -31 -101t-90 -40q-43 0 -69.5 29t-26.5 72zM78 0l88 1006l217 18l-90 -1024h-215zM360 1217q0 59 31 99t88 40q45 0 72 -28t27 -71q0 -61 -31 -101t-90 -40q-43 0 -70 29t-27 72z" />
<glyph unicode="&#xf0;" horiz-adv-x="976" d="M68 412q0 285 132 452.5t326 167.5q78 0 133 -49l9 4q-29 123 -119 189l-90 -93l-84 84l59 60q-84 33 -168 33q-94 0 -190 -21l12 176q94 20 193 21q168 0 288 -60l113 115l98 -94l-92 -94q117 -100 167 -247t50 -394q0 -319 -136 -500.5t-331 -181.5q-370 0 -370 432z M291 432q0 -143 42 -206.5t124 -63.5q96 0 165.5 110.5t69.5 323.5q0 137 -6 203q-72 55 -172 55q-90 0 -156.5 -111.5t-66.5 -310.5z" />
<glyph unicode="&#xf1;" horiz-adv-x="983" d="M78 0l88 1006l211 18l-12 -139h6q147 145 301 145q254 0 219 -346l-66 -684h-217l64 657q8 86 -14.5 120t-77.5 34q-96 0 -224 -106l-61 -705h-217zM254 1280q90 125 201 125q49 0 125.5 -59.5t111.5 -59.5q63 0 121 72l35 -125q-76 -111 -182 -111q-43 0 -122 59.5 t-118 59.5q-66 0 -137 -86z" />
<glyph unicode="&#xf2;" horiz-adv-x="962" d="M68 399q0 297 132 466t330 169q174 0 271.5 -107.5t97.5 -316.5q0 -291 -133 -460.5t-326 -169.5q-372 -1 -372 419zM283 1425h235l121 -297h-168zM291 418q0 -256 166 -256q88 0 154.5 106.5t66.5 311.5q0 272 -166 272q-90 0 -155.5 -111.5t-65.5 -322.5z" />
<glyph unicode="&#xf3;" horiz-adv-x="962" d="M68 399q0 297 132 466t330 169q174 0 271.5 -107.5t97.5 -316.5q0 -291 -133 -460.5t-326 -169.5q-372 -1 -372 419zM291 418q0 -256 166 -256q88 0 154.5 106.5t66.5 311.5q0 272 -166 272q-90 0 -155.5 -111.5t-65.5 -322.5zM436 1128l174 297h236l-242 -297h-168z" />
<glyph unicode="&#xf4;" horiz-adv-x="962" d="M68 399q0 297 132 466t330 169q174 0 271.5 -107.5t97.5 -316.5q0 -291 -133 -460.5t-326 -169.5q-372 -1 -372 419zM246 1128l239 297h201l172 -297h-194l-95 175h-16l-125 -175h-182zM291 418q0 -256 166 -256q88 0 154.5 106.5t66.5 311.5q0 272 -166 272 q-90 0 -155.5 -111.5t-65.5 -322.5z" />
<glyph unicode="&#xf5;" horiz-adv-x="962" d="M68 399q0 297 132 466t330 169q174 0 271.5 -107.5t97.5 -316.5q0 -291 -133 -460.5t-326 -169.5q-372 -1 -372 419zM256 1280q90 125 201 125q49 0 125.5 -59.5t111.5 -59.5q63 0 121 72l35 -125q-76 -111 -182 -111q-43 0 -122 59.5t-118 59.5q-66 0 -137 -86zM291 418 q0 -256 166 -256q88 0 154.5 106.5t66.5 311.5q0 272 -166 272q-90 0 -155.5 -111.5t-65.5 -322.5z" />
<glyph unicode="&#xf6;" horiz-adv-x="962" d="M68 399q0 297 132 466t330 169q174 0 271.5 -107.5t97.5 -316.5q0 -291 -133 -460.5t-326 -169.5q-372 -1 -372 419zM281 1217q0 59 30.5 99t87.5 40q45 0 72 -28t27 -71q0 -61 -31 -101t-90 -40q-43 0 -69.5 29t-26.5 72zM291 418q0 -256 166 -256q88 0 154.5 106.5 t66.5 311.5q0 272 -166 272q-90 0 -155.5 -111.5t-65.5 -322.5zM614 1217q0 59 31 99t88 40q45 0 71.5 -28t26.5 -71q0 -61 -30.5 -101t-89.5 -40q-43 0 -70 29t-27 72z" />
<glyph unicode="&#xf7;" d="M131 520l19 174h765l-18 -174h-766zM391 291q12 109 113 108q47 0 72.5 -27.5t19.5 -80.5q-10 -109 -111 -109q-47 0 -72.5 28t-21.5 81zM451 924q10 109 110 108q47 0 72.5 -27.5t21.5 -80.5q-12 -109 -112 -109q-47 0 -72.5 28t-19.5 81z" />
<glyph unicode="&#xf8;" horiz-adv-x="962" d="M66 -37l84 133q-82 104 -82 303q0 297 132 466t330 169q106 0 191 -45l80 123l92 -59l-86 -133q92 -111 92 -310q0 -291 -133 -460.5t-326 -169.5q-123 0 -204 45l-78 -121zM285 418q0 -55 8 -109l325 510q-43 39 -106 39q-92 0 -159.5 -114.5t-67.5 -325.5zM340 201 q43 -45 117 -45q88 0 157.5 110.5t69.5 313.5q0 80 -12 137z" />
<glyph unicode="&#xf9;" horiz-adv-x="978" d="M92 334l66 672l217 18l-64 -668q-10 -100 11.5 -141t76.5 -41q82 0 222 145l61 687l217 18l-86 -1024h-211l10 133h-6q-141 -150 -295 -149q-254 0 -219 350zM291 1425h235l121 -297h-168z" />
<glyph unicode="&#xfa;" horiz-adv-x="978" d="M92 334l66 672l217 18l-64 -668q-10 -100 11.5 -141t76.5 -41q82 0 222 145l61 687l217 18l-86 -1024h-211l10 133h-6q-141 -150 -295 -149q-254 0 -219 350zM444 1128l174 297h236l-242 -297h-168z" />
<glyph unicode="&#xfb;" horiz-adv-x="978" d="M92 334l66 672l217 18l-64 -668q-10 -100 11.5 -141t76.5 -41q82 0 222 145l61 687l217 18l-86 -1024h-211l10 133h-6q-141 -150 -295 -149q-254 0 -219 350zM254 1128l240 297h200l172 -297h-194l-94 175h-17l-125 -175h-182z" />
<glyph unicode="&#xfc;" horiz-adv-x="978" d="M92 334l66 672l217 18l-64 -668q-10 -100 11.5 -141t76.5 -41q82 0 222 145l61 687l217 18l-86 -1024h-211l10 133h-6q-141 -150 -295 -149q-254 0 -219 350zM289 1217q0 59 30.5 99t88.5 40q45 0 71.5 -28t26.5 -71q0 -61 -31 -101t-90 -40q-43 0 -69.5 29t-26.5 72z M623 1217q0 59 30.5 99t87.5 40q45 0 72 -28t27 -71q0 -61 -31 -101t-90 -40q-43 0 -69.5 29t-26.5 72z" />
<glyph unicode="&#xfd;" horiz-adv-x="763" d="M-84 -217q51 -8 117 -8q61 0 120.5 52t98.5 155l16 43h-49l-203 989h230l127 -760h12l61 158q92 236 152 602h211q-41 -227 -86 -376t-135 -347l-133 -293q-94 -217 -195.5 -307t-234.5 -90q-70 0 -109 12v170zM332 1128l174 297h235l-241 -297h-168z" />
<glyph unicode="&#xfe;" horiz-adv-x="960" d="M43 -391l162 1808l217 19l-55 -559h6q133 154 280 153q260 0 260 -368q0 -332 -150.5 -505t-373.5 -173q-47 0 -98 10l-33 -385h-215zM307 176q39 -10 99 -10q125 0 203.5 116.5t78.5 368.5q0 174 -115 174q-100 0 -219 -118z" />
<glyph unicode="&#xff;" horiz-adv-x="763" d="M-84 -217q51 -8 117 -8q61 0 120.5 52t98.5 155l16 43h-49l-203 989h230l127 -760h12l61 158q92 236 152 602h211q-41 -227 -86 -376t-135 -347l-133 -293q-94 -217 -195.5 -307t-234.5 -90q-70 0 -109 12v170zM166 1217q0 59 30.5 99t88.5 40q45 0 71.5 -28t26.5 -71 q0 -61 -30.5 -101t-90.5 -40q-43 0 -69.5 29t-26.5 72zM500 1217q0 59 30.5 99t87.5 40q45 0 72 -28t27 -71q0 -61 -31 -101t-90 -40q-43 0 -69.5 29t-26.5 72z" />
<glyph unicode="&#x152;" horiz-adv-x="1667" d="M80 549q0 387 178 598t475 211q158 0 260 -84l4 69h652l-15 -192h-417l-27 -367h389l-14 -192h-389l-31 -399h438v-193h-686l6 80q-137 -96 -323 -96q-229 0 -364.5 142t-135.5 423zM330 575q0 -199 76.5 -293t209.5 -94q195 0 308 164l51 668q-102 133 -281 133 q-162 0 -263 -152t-101 -426z" />
<glyph unicode="&#x153;" horiz-adv-x="1435" d="M68 399q0 297 131 466t331 169q195 0 285 -151q119 147 301 147q150 0 223.5 -63.5t73.5 -180.5q0 -188 -144.5 -303.5t-391.5 -115.5q0 -109 40.5 -154t124.5 -45q135 0 283 70v-179q-154 -76 -330 -75q-197 0 -270 133q-119 -137 -285 -137q-176 0 -274 102t-98 317z M291 418q0 -258 166 -258q88 0 154.5 107.5t66.5 312.5q0 272 -166 272q-90 0 -155.5 -111.5t-65.5 -322.5zM889 526q145 0 224 61.5t79 168.5q0 51 -27.5 78.5t-77.5 27.5q-66 0 -125 -88t-73 -248z" />
<glyph unicode="&#x178;" horiz-adv-x="907" d="M-6 1343h264l207 -565h6l303 565h240l-463 -792l-41 -551h-234l41 549zM254 1565q0 59 30.5 99t88.5 40q45 0 71.5 -27.5t26.5 -70.5q0 -61 -30.5 -101.5t-90.5 -40.5q-43 0 -69.5 29t-26.5 72zM604 1565q0 59 31 99t88 40q45 0 71.5 -27.5t26.5 -70.5 q0 -61 -30.5 -101.5t-90.5 -40.5q-43 0 -69.5 29t-26.5 72z" />
<glyph unicode="&#x2c6;" horiz-adv-x="729" d="M53 1128l240 297h201l172 -297h-195l-94 175h-17l-124 -175h-183z" />
<glyph unicode="&#x2dc;" horiz-adv-x="774" d="M70 1280q90 125 200 125q49 0 126 -59.5t112 -59.5q63 0 121 72l35 -125q-76 -111 -183 -111q-43 0 -121.5 59.5t-117.5 59.5q-66 0 -138 -86z" />
<glyph unicode="&#x2000;" horiz-adv-x="909" />
<glyph unicode="&#x2001;" horiz-adv-x="1818" />
<glyph unicode="&#x2002;" horiz-adv-x="909" />
<glyph unicode="&#x2003;" horiz-adv-x="1818" />
<glyph unicode="&#x2004;" horiz-adv-x="606" />
<glyph unicode="&#x2005;" horiz-adv-x="454" />
<glyph unicode="&#x2006;" horiz-adv-x="303" />
<glyph unicode="&#x2007;" horiz-adv-x="303" />
<glyph unicode="&#x2008;" horiz-adv-x="227" />
<glyph unicode="&#x2009;" horiz-adv-x="362" />
<glyph unicode="&#x200a;" horiz-adv-x="100" />
<glyph unicode="&#x2010;" horiz-adv-x="763" d="M123 489v195h528v-195h-528z" />
<glyph unicode="&#x2011;" horiz-adv-x="763" d="M123 489v195h528v-195h-528z" />
<glyph unicode="&#x2012;" horiz-adv-x="763" d="M123 489v195h528v-195h-528z" />
<glyph unicode="&#x2013;" horiz-adv-x="1024" d="M59 498v178h906v-178h-906z" />
<glyph unicode="&#x2014;" horiz-adv-x="2048" d="M59 498v178h1930v-178h-1930z" />
<glyph unicode="&#x2018;" horiz-adv-x="413" d="M104 1040q0 98 107.5 240.5t155.5 142.5h96l-133 -239q74 -33 73 -119q0 -78 -44 -126t-115 -48q-63 0 -101.5 39.5t-38.5 109.5z" />
<glyph unicode="&#x2019;" horiz-adv-x="413" d="M66 889l133 239q-74 33 -74 119q0 78 44 126t116 48q63 0 101 -40t38 -109q0 -98 -107.5 -240.5t-154.5 -142.5h-96z" />
<glyph unicode="&#x201a;" horiz-adv-x="413" d="M-31 -225l133 239q-74 33 -73 119q0 78 44 126t115 48q63 0 101.5 -40t38.5 -109q0 -98 -107.5 -240.5t-154.5 -142.5h-97z" />
<glyph unicode="&#x201c;" horiz-adv-x="796" d="M104 1040q0 98 107.5 240.5t155.5 142.5h96l-133 -239q74 -33 73 -119q0 -78 -44 -126t-115 -48q-63 0 -101.5 39.5t-38.5 109.5zM487 1040q0 98 107.5 240.5t155.5 142.5h96l-133 -239q74 -33 73 -119q0 -78 -44 -126t-115 -48q-63 0 -101.5 39.5t-38.5 109.5z" />
<glyph unicode="&#x201d;" horiz-adv-x="796" d="M66 889l133 239q-74 33 -74 119q0 78 44 126t116 48q63 0 101 -40t38 -109q0 -98 -107.5 -240.5t-154.5 -142.5h-96zM449 889l133 239q-74 33 -74 119q0 78 44 126t116 48q63 0 101 -40t38 -109q0 -98 -107.5 -240.5t-154.5 -142.5h-96z" />
<glyph unicode="&#x201e;" horiz-adv-x="796" d="M-31 -225l133 239q-74 33 -73 119q0 78 44 126t115 48q63 0 101.5 -40t38.5 -109q0 -98 -107.5 -240.5t-154.5 -142.5h-97zM352 -225l133 239q-74 33 -73 119q0 78 44 126t115 48q63 0 101.5 -40t38.5 -109q0 -98 -107.5 -240.5t-154.5 -142.5h-97z" />
<glyph unicode="&#x2022;" horiz-adv-x="688" d="M123 573q0 131 61.5 199t173.5 68q92 0 149.5 -53.5t57.5 -143.5q0 -131 -61.5 -198.5t-173.5 -67.5q-92 0 -149.5 53t-57.5 143z" />
<glyph unicode="&#x2026;" horiz-adv-x="1241" d="M29 133q0 78 45 126t114 48q63 0 101.5 -38t38.5 -111q0 -78 -45 -123t-119 -45q-63 0 -99 36.5t-36 106.5zM442 133q0 78 45 126t115 48q63 0 101 -38t38 -111q0 -78 -45 -123t-118 -45q-63 0 -99.5 36.5t-36.5 106.5zM856 133q0 78 45 126t115 48q63 0 101 -38t38 -111 q0 -78 -45 -123t-119 -45q-63 0 -99 36.5t-36 106.5z" />
<glyph unicode="&#x202f;" horiz-adv-x="362" />
<glyph unicode="&#x2039;" horiz-adv-x="718" d="M80 514l348 438h217l-332 -428l267 -448h-218z" />
<glyph unicode="&#x203a;" horiz-adv-x="718" d="M80 76l332 428l-267 448h217l283 -438l-348 -438h-217z" />
<glyph unicode="&#x205f;" horiz-adv-x="454" />
<glyph unicode="&#x20ac;" d="M49 430l10 148h117q0 76 10 161h-114l12 150h133q66 231 219.5 349t362.5 118q104 0 211 -25v-209q-139 27 -228 27q-225 0 -315 -260h360l-12 -150h-385q-10 -82 -10 -161h383l-10 -148h-363q47 -248 266 -248q111 0 238 29v-195q-133 -33 -268 -32q-203 0 -329 113.5 t-155 332.5h-133z" />
<glyph unicode="&#x2122;" horiz-adv-x="1603" d="M102 1208l11 135h536l-10 -135h-180l-45 -594h-168l45 594h-189zM682 614l72 729h227l125 -385h8l164 385h215l4 -729h-164l4 535h-4l-184 -412h-113l-149 412h-4l-49 -535h-152z" />
<glyph unicode="&#xe000;" horiz-adv-x="1014" d="M0 1015h1015v-1015h-1015v1015z" />
<glyph unicode="&#xfb01;" horiz-adv-x="1013" d="M72 -391l106 1243h-102v162h119l8 84q16 180 128.5 259t375.5 79q160 0 276 -17l-20 -172q-127 12 -287 13q-150 0 -200 -33t-60 -127l-8 -86h313l217 8l-92 -1024h-215l76 854h-312l-108 -1243h-215z" />
<glyph unicode="&#xfb02;" horiz-adv-x="1013" d="M72 -391l106 1243h-102v162h119l8 84q33 338 401 338q84 0 168 -19l203 19l-129 -1436h-215l110 1249q-82 10 -147 11q-164 0 -178 -160l-8 -86h186l-16 -162h-183l-108 -1243h-215z" />
<glyph unicode="&#xfb03;" horiz-adv-x="1566" d="M72 -391l106 1243h-102v162h119l8 84q16 164 112.5 251t268.5 87q90 0 153 -17l-20 -172q-66 12 -144 13q-143 0 -157 -160l-8 -86h340l8 84q16 180 128.5 259t375.5 79q160 0 276 -17l-20 -172q-127 12 -287 13q-150 0 -200 -33t-60 -127l-8 -86h313l217 8l-92 -1024 h-215l76 854h-312l-108 -1243h-215l106 1243h-336l-108 -1243h-215z" />
<glyph unicode="&#xfb04;" horiz-adv-x="1566" d="M72 -391l106 1243h-102v162h119l8 84q16 164 112.5 251t268.5 87q90 0 153 -17l-20 -172q-66 12 -144 13q-143 0 -157 -160l-8 -86h340l8 84q33 338 401 338q84 0 168 -19l203 19l-129 -1436h-215l110 1249q-82 10 -147 11q-164 0 -178 -160l-8 -86h186l-17 -162h-182 l-108 -1243h-215l106 1243h-336l-108 -1243h-215z" />
<glyph horiz-adv-x="307" />
</font>
</defs>
</svg>
