<?xml version="1.0" standalone="no"?>
<!DOCTYPE svg PUBLIC "-//W3C//DTD SVG 1.1//EN" "http://www.w3.org/Graphics/SVG/1.1/DTD/svg11.dtd" >
<svg xmlns="http://www.w3.org/2000/svg">
<metadata>
This is a custom SVG webfont generated by Font Squirrel.
Copyright   : Copyright 20082009 OurType  Peter Verheul wwwourtypecom
Designer    : Peter VerheulHet lettertype is afkomstig van OurType BVBA en is een aangepaste versie van de OT Versa auteur Peter Verheulwwwourtypecom
Foundry     : OurType  Peter Verheul
Foundry URL : httpwwwourtypecom
</metadata>
<defs>
<font id="RijksoverheidSerifItalic" horiz-adv-x="1064" >
<font-face units-per-em="2048" ascent="1516" descent="-532" />
<missing-glyph horiz-adv-x="327" />
<glyph unicode=" "  horiz-adv-x="327" />
<glyph unicode="&#x09;" horiz-adv-x="327" />
<glyph unicode="&#xa0;" horiz-adv-x="327" />
<glyph unicode="!" horiz-adv-x="557" d="M133 76q0 55 34 92t81 37q43 0 68.5 -29t25.5 -76q0 -51 -34 -85.5t-81 -34.5q-43 0 -68.5 26.5t-25.5 69.5zM203 569q0 76 75.5 330t75.5 307q0 61 -39 123q98 49 277 49q-76 -131 -161 -427t-85 -490q0 -31 8 -101q-151 29 -151 209z" />
<glyph unicode="&#x22;" horiz-adv-x="544" d="M137 1174l13 149h172l-21 -145q-4 -35 -24.5 -107t-38.5 -125l-19 -55h-61q-2 23 -7.5 59.5t-10.5 113.5t-3 110zM422 1174l10 149h172l-18 -145q-6 -35 -26.5 -107t-39.5 -125l-18 -55h-64q-2 23 -6 59.5t-8 113.5t-2 110z" />
<glyph unicode="#" d="M14 338l23 98h246l96 463h-246l23 98h245l76 363h107l-78 -363h260l78 363h104l-76 -363h242l-22 -98h-242l-96 -463h241l-22 -98h-242l-78 -369h-104l76 369h-258l-78 -369h-105l76 369h-246zM385 432h264l96 469h-266z" />
<glyph unicode="$" horiz-adv-x="1062" d="M121 18l24 265h68l6 -45q10 -70 47 -105t105 -45l121 512l-125 109q-72 61 -98.5 119.5t-26.5 138.5q0 143 121.5 248.5t287.5 105.5h13l47 195h80l-48 -199q125 -10 197 -45l-25 -256h-59l-4 37q-14 119 -137 147l-111 -471l70 -55q111 -88 150.5 -158t39.5 -156 q0 -162 -133 -272.5t-307 -114.5l-41 -174h-82l41 176q-137 10 -221 43zM399 1008q0 -59 26 -107.5t97 -105.5l15 -13l100 426h-4q-100 0 -167 -57t-67 -143zM451 86q102 4 171.5 62.5t69.5 148.5q0 63 -27.5 118.5t-105.5 127.5z" />
<glyph unicode="%" horiz-adv-x="1458" d="M156 901q0 184 94 301t242 117q229 0 229 -270q0 -184 -94.5 -301t-239.5 -117q-231 0 -231 270zM164 -68l1059 1469l69 -43l-1059 -1469zM299 901q0 -188 104 -188q72 0 123.5 92t51.5 244q0 188 -105 188q-72 0 -123 -92t-51 -244zM770 246q0 184 94 301t242 117 q229 0 229 -271q0 -184 -94 -301t-240 -117q-231 1 -231 271zM913 246q0 -188 105 -189q72 0 123 92.5t51 243.5q0 188 -105 189q-72 0 -123 -92t-51 -244z" />
<glyph unicode="&#x26;" horiz-adv-x="1179" d="M150 295q0 131 88 241.5t219 153.5q-145 125 -146 283q0 143 123 244.5t293 101.5q276 0 277 -135q0 -51 -48 -105q-115 131 -260 131q-100 0 -164.5 -63.5t-64.5 -151.5q0 -84 46 -161.5t124 -128.5v-29q-139 -39 -224 -138.5t-85 -215.5q0 -106 64.5 -176t162.5 -70 q127 0 223 96t96 236q0 80 -18 124q-33 -6 -73 -46t-54 -78q-37 31 -37 84q0 45 34 90t97 67l152 56q102 37 158 104q20 -23 20 -72q0 -72 -48 -112.5t-126 -40.5q16 -55 16 -113q0 -225 -134 -361.5t-335 -136.5q-170 0 -273 90.5t-103 231.5z" />
<glyph unicode="'" horiz-adv-x="501" d="M250 1174l10 149h172l-18 -145q-4 -35 -24.5 -107t-39.5 -125l-18 -55h-62q-2 23 -7 59.5t-10 113.5t-3 110z" />
<glyph unicode="(" horiz-adv-x="548" d="M117 287q0 190 46 376.5t114.5 323.5t146.5 244.5t146.5 163t109.5 55.5t55 -37q-190 -117 -337.5 -416t-147.5 -659q0 -174 29.5 -328.5t74.5 -252t95.5 -154t93.5 -56.5q-49 -45 -119 -45q-47 0 -99.5 53.5t-99.5 148.5t-77.5 250t-30.5 333z" />
<glyph unicode=")" horiz-adv-x="548" d="M-186 -463q188 115 336.5 415t148.5 660q0 174 -29.5 328t-74.5 252t-95.5 154.5t-91.5 56.5q49 45 117 45q104 0 206.5 -219t102.5 -565q0 -190 -46 -378t-114.5 -325t-147.5 -243.5t-146.5 -162t-108.5 -55.5q-43 0 -57 37z" />
<glyph unicode="*" horiz-adv-x="1024" d="M209 995q0 35 31.5 58.5t87.5 23.5q57 0 119.5 -23.5t99.5 -58.5l2 2q-12 143 -82 269q45 66 84 65q35 0 57.5 -39t22.5 -110q0 -121 -41 -195l2 -2q129 78 229 197q45 -14 60.5 -28.5t15.5 -37.5q0 -66 -94 -122t-213 -56v-2q123 -113 225 -154q-8 -104 -76 -104 q-55 0 -117.5 76.5t-74.5 163.5h-2q-76 -158 -96 -289q-33 -16 -68 -17q-47 0 -47 66q0 55 55 140t131 134v2q-166 6 -284 -26q-27 38 -27 67z" />
<glyph unicode="+" d="M88 410l12 104h379l49 408h111l-49 -408h379l-13 -104h-378l-52 -410h-110l51 410h-379z" />
<glyph unicode="," horiz-adv-x="536" d="M51 -254q68 66 111 152t43 151l-76 86q61 86 135 86q43 0 74 -33.5t31 -91.5q0 -113 -87 -227.5t-173 -134.5z" />
<glyph unicode="-" horiz-adv-x="610" d="M78 471l43 137l420 37l-49 -145z" />
<glyph unicode="." horiz-adv-x="540" d="M129 84q0 55 36 95t85 40q45 0 71.5 -29.5t26.5 -80.5q0 -53 -36 -91t-85 -38q-45 0 -71.5 28.5t-26.5 75.5z" />
<glyph unicode="/" horiz-adv-x="665" d="M-127 -473l819 1948l101 -19l-818 -1948z" />
<glyph unicode="0" horiz-adv-x="987" d="M94 352q0 307 144.5 484.5t347.5 177.5q143 0 227 -102.5t84 -286.5q0 -309 -141.5 -485.5t-341.5 -176.5q-145 0 -232.5 102.5t-87.5 286.5zM270 367q0 -141 46 -220t126 -79q115 0 197 148.5t82 393.5q0 143 -42 221t-122 78q-115 0 -201 -148t-86 -394z" />
<glyph unicode="1" horiz-adv-x="643" d="M84 6v31q63 23 108.5 64.5t47.5 86.5l55 670l-174 -10l6 57q162 90 285 90q16 0 71 -6q-20 -45 -30 -155l-68 -738l123 -28v-31q-90 -55 -246 -55q-98 -1 -178 24z" />
<glyph unicode="2" horiz-adv-x="864" d="M41 121l420 375q131 123 131 221q0 72 -46 113.5t-126 41.5q-133 0 -266 -135q-25 53 -25 101q0 68 83 111.5t245 43.5q145 0 228 -66.5t83 -176.5q0 -88 -49 -164t-168 -168l-363 -291v-2h177q190 0 405 61q10 -37 10 -67q0 -131 -207 -131q-49 0 -233 6t-274 6z" />
<glyph unicode="3" horiz-adv-x="833" d="M-29 -229q0 39 21 63q113 -72 256 -72q113 0 193.5 76t80.5 191q0 98 -80 162.5t-202 64.5q-39 0 -80 -12l-8 96l100 14q131 16 224 111.5t93 216.5q0 88 -52 139t-136 51q-143 0 -266 -127q-23 45 -23 99q0 61 79 105t241 44q154 0 243.5 -75.5t89.5 -200.5t-98 -237.5 t-237 -153.5v-4q121 0 204.5 -76t83.5 -189q0 -158 -150.5 -283.5t-326.5 -125.5q-123 0 -186.5 35t-63.5 88z" />
<glyph unicode="4" horiz-adv-x="907" d="M20 43q8 293 229.5 592t469.5 364l76 -24q-53 -244 -80 -447l-47 -356h59q78 0 131 27q10 -27 10 -58q0 -53 -36.5 -75.5t-122.5 -22.5h-56l-16 -164q-10 -113 12 -215q-39 -14 -82 -14q-121 0 -92 209l25 184h-480zM164 168h352l45 336q29 203 70 360h-2 q-141 -84 -283.5 -292.5t-181.5 -403.5z" />
<glyph unicode="5" horiz-adv-x="825" d="M10 -223q0 27 15 59q119 -72 237 -72q123 0 209 83t86 225q0 102 -68.5 163.5t-191.5 61.5q-102 0 -182 -23l104 711q86 -10 162 -10q193 0 412 31q8 -29 8 -58q0 -61 -37 -86.5t-139 -25.5h-310l-61 -422q68 12 143 12q139 0 235.5 -87t96.5 -226q0 -193 -150.5 -329 t-332.5 -136q-236 0 -236 129z" />
<glyph unicode="6" horiz-adv-x="974" d="M90 401q0 231 113.5 438.5t293 327t369.5 119.5q139 0 140 -76q0 -57 -35 -92q-57 49 -152 49q-133 0 -270 -110.5t-211 -296.5q82 39 186 39q160 0 257.5 -94.5t97.5 -249.5q0 -209 -125 -350.5t-299 -141.5q-154 0 -259.5 117.5t-105.5 320.5zM266 412 q0 -178 58.5 -260t150.5 -82t159.5 91t67.5 251q0 133 -67.5 206.5t-171.5 73.5q-86 0 -154 -18q-43 -129 -43 -262z" />
<glyph unicode="7" horiz-adv-x="804" d="M59 -313q0 63 68 209.5t285 541.5l213 393h-414q-82 0 -115 20.5t-33 63.5q0 39 13 72q215 -12 487 -12q111 0 268 18l-266 -526q-199 -385 -356 -809q-41 -18 -84 -18q-66 0 -66 47z" />
<glyph unicode="8" horiz-adv-x="925" d="M70 262q0 121 84 220.5t225 150.5l-94 88q-102 96 -103 233q0 129 107.5 230.5t265.5 101.5q133 0 220 -83t87 -199q0 -102 -67.5 -203t-167.5 -150l112 -98q94 -82 95 -211q0 -154 -125 -266.5t-291 -112.5q-160 0 -254 82t-94 217zM225 283q0 -98 56.5 -155.5 t154.5 -57.5q96 0 166 65.5t70 163.5q0 109 -117 203l-102 82q-92 -31 -160 -120t-68 -181zM334 977q0 -55 24.5 -101.5t92.5 -109.5l84 -78q78 51 129 130t51 165q0 88 -51.5 142.5t-126.5 54.5q-88 0 -145.5 -61.5t-57.5 -141.5z" />
<glyph unicode="9" horiz-adv-x="974" d="M-14 -231q0 39 14 59q45 -29 115.5 -49.5t128.5 -20.5q129 0 259 126t167 325q-92 -31 -213 -31q-152 0 -262.5 104.5t-110.5 268.5q0 190 127 317t293 127q164 0 275.5 -120.5t111.5 -331.5t-61.5 -386t-161 -285t-220 -170t-243.5 -60q-219 0 -219 127zM260 586 q0 -141 78 -221t188 -80q88 0 168 22q20 100 21 217q0 174 -67.5 269.5t-162.5 95.5q-90 0 -157.5 -86t-67.5 -217z" />
<glyph unicode=":" horiz-adv-x="536" d="M129 84q0 55 36 95t85 40q45 0 71.5 -29.5t26.5 -80.5q0 -53 -36 -91t-85 -38q-45 0 -71.5 28.5t-26.5 75.5zM219 874q0 55 37 95.5t84 40.5q45 0 71.5 -30t26.5 -81q0 -53 -35.5 -91t-83 -38t-74 28.5t-26.5 75.5z" />
<glyph unicode=";" horiz-adv-x="536" d="M51 -254q68 66 111 152t43 151l-76 86q61 86 135 86q43 0 74 -33.5t31 -91.5q0 -113 -87 -227.5t-173 -134.5zM219 874q0 55 37 95.5t84 40.5t72.5 -30t25.5 -81q0 -53 -35.5 -91t-83 -38t-74 28.5t-26.5 75.5z" />
<glyph unicode="&#x3c;" d="M152 455l675 499l72 -90l-563 -413l452 -394l-83 -92z" />
<glyph unicode="=" d="M72 272l14 107h862l-14 -107h-862zM106 545l13 106h862l-12 -106h-863z" />
<glyph unicode="&#x3e;" d="M156 55l563 414l-453 393l84 92l553 -489l-676 -500z" />
<glyph unicode="?" horiz-adv-x="847" d="M145 76q0 55 34 92t81 37q43 0 67.5 -29t24.5 -76q0 -51 -32.5 -85.5t-79.5 -34.5q-43 0 -69 26.5t-26 69.5zM160 1163q0 86 100 151.5t262 65.5q141 0 230.5 -69.5t89.5 -177.5q0 -209 -387 -433l-160 -92q0 -106 90 -221q-33 -12 -59 -12q-51 0 -99.5 52t-48.5 116 q0 53 27.5 91t93.5 81l180 114q178 115 178 285q0 78 -47 125t-123 47q-98 0 -160.5 -65.5t-62.5 -165.5q-104 -1 -104 108z" />
<glyph unicode="@" horiz-adv-x="1652" d="M82 424q0 387 250 652t612 265q260 0 446.5 -174t186.5 -469q0 -174 -56.5 -315t-146.5 -226t-195.5 -130t-211.5 -45q-37 0 -84 14l45 305h-2q-57 -152 -140.5 -241t-162.5 -89q-74 0 -127.5 96.5t-53.5 264.5q0 305 144.5 485t353.5 180q117 0 221 -32l-69 -359 q-43 -219 -43 -385q0 -82 10 -137q150 0 275.5 157.5t125.5 442.5q0 272 -149.5 417.5t-382.5 145.5q-299 0 -509 -229.5t-210 -581.5q0 -176 45 -314t116.5 -216t150.5 -117t159 -39q150 0 274 49q8 -16 9 -37q0 -33 -102.5 -76.5t-207.5 -43.5q-219 0 -395 211t-176 571z M598 360q0 -121 28.5 -183t67.5 -62q70 0 140.5 109.5t101.5 305.5l53 340q-39 12 -100 13q-125 0 -208 -137.5t-83 -385.5z" />
<glyph unicode="A" horiz-adv-x="966" d="M-76 4v35q72 23 105 98l487 1098q14 31 14 68l166 22l170 -1243l105 -27v-41q-78 -31 -176 -30q-100 0 -183 20v35q68 20 69 96q0 8 -1 17l-29 294h-354l-152 -368l113 -23v-41q-80 -31 -195 -30q-67 0 -139 20zM338 543l297 8l-62 555h-2z" />
<glyph unicode="B" horiz-adv-x="997" d="M51 4v35q72 35 80 111l125 1056l-111 33v45q190 33 404 33q180 0 279.5 -73t99.5 -202q0 -133 -88 -232t-230 -130v-2q129 0 216 -78t87 -194q0 -193 -154.5 -308.5t-402.5 -115.5q-203 -1 -305 22zM285 100q57 -8 131 -8q137 0 227 79t90 204q0 123 -89 183t-294 60z M358 713q180 0 285 83t105 224q0 92 -63.5 142t-168.5 50q-59 0 -98 -4z" />
<glyph unicode="C" horiz-adv-x="942" d="M92 453q0 213 52.5 383t139.5 274t192.5 159.5t217.5 55.5q141 0 246 -37l-39 -262h-53l-10 49q-14 76 -54.5 107.5t-115.5 31.5q-152 0 -275 -192.5t-123 -542.5q0 -193 70 -295t176 -102q94 0 149.5 34t94.5 117l20 52h58l-33 -250q-143 -66 -323.5 -66t-285 120 t-104.5 364z" />
<glyph unicode="D" horiz-adv-x="1150" d="M51 4v35q72 31 82 121l121 1046l-115 33v45q184 31 398 31q268 0 420.5 -133t152.5 -379q0 -371 -230.5 -595t-568.5 -224q-160 0 -260 20zM287 102q43 -6 90 -6q223 0 388 184.5t165 491.5q0 217 -110.5 328.5t-295.5 111.5q-49 0 -108 -6z" />
<glyph unicode="E" horiz-adv-x="860" d="M51 0v43q70 16 80 104l125 1063l-117 35v58h731l-34 -275h-58l-4 39q-12 127 -137 127h-221l-60 -485h232q94 0 121 82l10 30h57l-39 -354h-57l-2 35q-2 57 -24.5 80.5t-67.5 23.5h-242l-57 -497h250q145 0 192 98l19 43h59l-57 -250h-699z" />
<glyph unicode="F" horiz-adv-x="817" d="M51 4v35q70 23 78 96l127 1075l-117 35v58h731l-36 -275h-60l-4 41q-12 125 -141 125h-213l-60 -485h238q86 0 115 84l12 36h57l-41 -364h-57l-2 35q-6 106 -84 106h-250l-59 -518l135 -33v-41q-96 -31 -201 -30q-96 0 -168 20z" />
<glyph unicode="G" horiz-adv-x="1030" d="M92 451q0 215 54.5 387t145.5 275.5t202.5 157.5t232.5 54q156 0 287 -37l-45 -262h-54l-10 49q-16 74 -61 106.5t-137 32.5q-180 0 -308.5 -190t-128.5 -547q0 -193 71 -294t183 -101q111 0 209 37l45 422l-112 26v43q82 31 194 31q86 0 139 -20v-35q-25 -8 -45 -33 t-22 -51l-58 -525q-86 0 -122 56q-115 -63 -267 -64q-182 0 -287.5 119t-105.5 363z" />
<glyph unicode="H" horiz-adv-x="1161" d="M51 4v35q72 29 78 90l125 1081l-115 33v41q84 31 189 31q98 0 159 -21v-34q-70 -27 -75 -89l-54 -452l502 16l51 475l-112 33v41q82 31 186 31q100 0 162 -21v-34q-72 -27 -78 -89l-125 -1083l117 -33v-41q-92 -31 -189 -30q-88 0 -159 20v35q70 29 75 90l56 485h-498 l-61 -526l114 -33v-41q-88 -31 -186 -30q-90 0 -162 20z" />
<glyph unicode="I" horiz-adv-x="501" d="M51 4v35q72 29 78 90l125 1081l-115 33v41q84 31 189 31q98 0 159 -21v-34q-70 -27 -75 -89l-127 -1083l114 -33v-41q-88 -31 -186 -30q-90 0 -162 20z" />
<glyph unicode="J" horiz-adv-x="505" d="M-74 -211q178 119 215 444l117 977l-115 33v41q84 31 189 31q100 0 162 -21v-34q-72 -25 -78 -89l-109 -907q-59 -518 -287 -518q-57 0 -94 18v25z" />
<glyph unicode="K" horiz-adv-x="985" d="M51 4v35q72 29 78 90l125 1081l-115 33v41q84 31 189 31q98 0 159 -21v-34q-70 -27 -75 -89l-127 -1083l114 -33v-41q-88 -31 -186 -30q-90 0 -162 20zM375 662l2 10l184 164q229 205 230 344q0 57 -74 80v30q70 31 141 31q45 0 72.5 -23.5t27.5 -66.5q0 -188 -270 -420 l-149 -127l196 -356q135 -244 262 -262v-43q-63 -45 -149 -46q-63 0 -119.5 55.5t-138.5 215.5z" />
<glyph unicode="L" horiz-adv-x="827" d="M51 0v43q74 25 82 115l121 1052l-115 33v41q84 31 189 31q98 0 159 -21v-34q-70 -27 -75 -89l-125 -1065h260q84 0 125 25t67 88l17 35h59l-59 -254h-705z" />
<glyph unicode="M" horiz-adv-x="1366" d="M2 4v35q59 27 72 78l256 1095l-111 25v49q92 25 211 25h68l180 -977h2l338 977h51q117 0 197 -17v-49l-97 -24l48 -1135l112 -31v-41q-92 -31 -168 -30q-113 0 -180 20v35q63 31 63 106l-12 908h-2l-373 -1076l-61 5l-201 1071h-2l-196 -965l116 -33v-41 q-78 -31 -170 -30q-73 0 -141 20z" />
<glyph unicode="N" horiz-adv-x="1110" d="M51 4v35q72 23 78 90l125 1090l-86 18v47q94 27 190 27h58l411 -955h2l89 854l-115 33v41q76 31 170 31q78 0 139 -21v-34q-70 -20 -80 -91l-141 -1187l-68 -11l-475 1110h-2l-100 -993l114 -33v-41q-86 -31 -161 -30q-70 0 -148 20z" />
<glyph unicode="O" horiz-adv-x="1122" d="M92 438q0 406 171 646.5t409 240.5q182 0 290.5 -120t108.5 -337q0 -223 -53 -402t-141.5 -286.5t-195 -164t-220.5 -56.5q-160 0 -264.5 125t-104.5 354zM270 475q0 -188 65.5 -290.5t166.5 -102.5q147 0 270 190.5t123 556.5q0 184 -68.5 278.5t-181.5 94.5 q-152 0 -263.5 -195.5t-111.5 -531.5z" />
<glyph unicode="P" horiz-adv-x="991" d="M51 4v35q72 29 78 90l125 1077l-115 33v45q176 31 391 31t329 -89t114 -261q0 -184 -149.5 -315.5t-342.5 -131.5q-88 0 -139 47l-57 -477l133 -33v-41q-92 -31 -205 -30q-90 0 -162 20zM348 647q63 -20 131 -20q135 0 225.5 93t90.5 238q0 119 -71 186.5t-198 67.5 q-76 0 -112 -6z" />
<glyph unicode="Q" horiz-adv-x="1122" d="M92 438q0 406 171 646.5t409 240.5q182 0 290.5 -120t108.5 -337q0 -387 -148.5 -619.5t-363.5 -279.5v-2q84 -23 170 -71l172 -101q102 -59 232 -59q0 -47 -45.5 -87t-106.5 -40q-104 0 -229 98l-338 256q-143 18 -232.5 141t-89.5 334zM270 475q0 -188 65.5 -290.5 t166.5 -102.5q147 0 270 190.5t123 556.5q0 184 -68.5 278.5t-181.5 94.5q-152 0 -263.5 -195.5t-111.5 -531.5z" />
<glyph unicode="R" horiz-adv-x="999" d="M51 4v35q72 29 78 90l125 1077l-115 33v45q180 33 410 33q184 0 284.5 -77t100.5 -208q0 -156 -103.5 -272.5t-271.5 -155.5l225 -373q84 -137 226 -165v-43q-51 -41 -154 -41q-68 0 -121 39.5t-106 140.5l-244 446v39q141 0 254 100.5t113 253.5q0 96 -64.5 156 t-165.5 60q-53 0 -106 -9l-131 -1120l112 -33v-41q-90 -31 -184 -30q-90 0 -162 20z" />
<glyph unicode="S" horiz-adv-x="835" d="M25 18l24 265h68l6 -45q14 -86 59 -119t148 -33q106 0 178 58.5t72 152.5q0 66 -36 125t-138 158l-136 129q-70 68 -97.5 125t-27.5 133q0 145 116 249.5t286 104.5q166 0 264 -49l-25 -256h-59l-4 37q-18 156 -195 155q-104 0 -164.5 -56t-60.5 -144q0 -55 24.5 -97.5 t98.5 -107.5l135 -121q109 -96 150 -167t41 -155q0 -164 -133.5 -275.5t-311.5 -111.5q-165 0 -282 45z" />
<glyph unicode="T" horiz-adv-x="921" d="M72 1030l30 281q348 -14 478 -15q274 0 442 19l-31 -285h-55l-4 41q-14 127 -119 127h-180l-133 -1110l133 -33v-41q-88 -31 -205 -30q-90 0 -162 20v35q72 27 78 90l127 1069h-139q-82 0 -125 -31.5t-66 -99.5l-14 -37h-55z" />
<glyph unicode="U" horiz-adv-x="1163" d="M129 266q0 49 31 264l92 680l-115 33v41q84 31 193 31q94 0 155 -21v-34q-68 -27 -75 -89l-84 -612q-29 -168 -29 -266t61.5 -153.5t167.5 -55.5q135 0 234.5 121t128.5 360l76 643l-121 35v41q82 31 180 31q68 0 131 -21v-34q-55 -27 -59 -80l-70 -598 q-35 -303 -180.5 -457t-353.5 -154q-174 0 -268.5 75t-94.5 220z" />
<glyph unicode="V" horiz-adv-x="931" d="M59 1243v41q84 31 172 31q82 0 156 -21v-34q-55 -16 -51 -60l119 -997h2l362 1007l-110 33v41q94 31 198 31q70 0 119 -21v-34q-55 -16 -72 -60l-477 -1214l-139 -6l-182 1228z" />
<glyph unicode="W" horiz-adv-x="1449" d="M49 1243v41q84 31 174 31q96 0 162 -21v-34q-55 -16 -51 -60l96 -950h2l332 1050l188 11l82 -1098h2l316 997l-109 33v41q92 31 197 31q66 0 119 -21v-34q-57 -16 -72 -60l-434 -1214l-146 -6l-94 1153h-2l-358 -1147l-138 -6l-161 1228z" />
<glyph unicode="X" horiz-adv-x="921" d="M-61 2v37q70 23 106.5 51.5t65.5 81.5l280 508l-219 534l-102 29v41q78 31 172 31q90 0 166 -21v-34q-50 -20 -51 -51q0 -8 3 -17l144 -414h4l240 436l-111 29v41q98 31 207 31q61 0 123 -21v-34q-61 -20 -93 -68l-305 -510l265 -598l110 -29v-41q-76 -31 -162 -30 q-127 0 -196 18v37q33 6 49 27.5t6 44.5l-190 452h-2l-244 -485l100 -23v-41q-94 -31 -207 -30q-79 0 -159 18z" />
<glyph unicode="Y" horiz-adv-x="897" d="M25 1243v41q78 31 165 31q92 0 166 -21v-34q-29 -6 -43 -26t-8 -38l172 -530h2l301 551l-110 26v41q86 31 188 31q70 0 119 -21v-34q-47 -14 -76 -64l-381 -655l-53 -457l131 -29v-41q-92 -31 -205 -30q-82 0 -149 20v35q59 23 65 90l53 410l-235 675z" />
<glyph unicode="Z" horiz-adv-x="872" d="M8 0v43l678 1151h-301q-66 0 -107.5 -32t-82.5 -109l-15 -29h-63l43 279h739v-43l-674 -1151h344q72 0 115 30.5t72 102.5l16 39h70l-47 -281h-787z" />
<glyph unicode="[" horiz-adv-x="548" d="M115 -479l239 1927h328l-18 -92h-199l-221 -1743h205l-15 -92h-319z" />
<glyph unicode="\" horiz-adv-x="665" d="M117 1456l100 19l328 -1948l-103 -19z" />
<glyph unicode="]" horiz-adv-x="548" d="M-133 -481l16 92h201l221 1745h-207l17 92h319l-241 -1929h-326z" />
<glyph unicode="^" d="M16 305l576 615l412 -613l-99 -74l-340 515l-471 -512z" />
<glyph unicode="_" horiz-adv-x="1024" d="M-82 -160h1024v-104h-1024v104z" />
<glyph unicode="`" horiz-adv-x="921" d="M358 1333q0 94 131 94q16 -96 62.5 -203.5t95.5 -160.5l-31 -8q-86 27 -172 117.5t-86 160.5z" />
<glyph unicode="a" horiz-adv-x="874" d="M76 332q0 305 150.5 485t369.5 180q106 0 227 -32l-71 -359q-43 -184 -47 -385q0 -94 20 -126t78 -40v-43q-88 -31 -182 -30q-39 0 -86 14l47 305h-2q-59 -150 -147.5 -240t-170.5 -90q-78 0 -132 96.5t-54 264.5zM233 360q0 -121 31 -184t72 -63q74 0 147.5 110.5 t106.5 306.5l57 340q-43 12 -106 13q-131 0 -219.5 -136.5t-88.5 -386.5z" />
<glyph unicode="b" horiz-adv-x="878" d="M86 16l98 623l84 723l-127 39v39q96 33 209 33q51 0 94 -13l-127 -788h2q51 143 140.5 238.5t169.5 95.5q82 0 136 -92.5t54 -264.5q0 -307 -151.5 -489.5t-354.5 -182.5q-106 0 -227 39zM252 100q45 -14 113 -14q117 0 205.5 137t88.5 381q0 260 -102 260 q-70 0 -146.5 -120.5t-111.5 -340.5z" />
<glyph unicode="c" horiz-adv-x="655" d="M78 332q0 319 126 495.5t302 176.5q88 0 133 -28t45 -71q0 -78 -47 -143q-70 119 -176 119q-84 0 -154.5 -135.5t-70.5 -383.5q0 -133 44 -201.5t105 -68.5q111 0 209 123q18 -18 18 -55q0 -82 -72.5 -138.5t-203.5 -56.5q-115 0 -186.5 94.5t-71.5 272.5z" />
<glyph unicode="d" horiz-adv-x="876" d="M76 332q0 299 148.5 482t361.5 183q33 0 78 -4l59 369l-135 39v39q92 33 217 33q55 0 94 -13l-149 -848q-45 -270 -45 -391q0 -94 21.5 -126t76.5 -40v-43q-94 -31 -182 -30q-43 0 -86 14l51 309h-2q-57 -145 -146.5 -239.5t-175.5 -94.5q-76 0 -131 95.5t-55 265.5z M233 360q0 -121 30 -184t73 -63q70 0 146.5 110.5t107.5 308.5l57 340q-45 10 -98 11q-137 0 -226.5 -132.5t-89.5 -390.5z" />
<glyph unicode="e" horiz-adv-x="733" d="M78 326q0 322 132 500t298 178q219 0 219 -211q0 -174 -147.5 -282t-341.5 -108q0 -176 44 -241.5t140 -65.5q57 0 124.5 30t98.5 73q20 -20 21 -49q0 -74 -87 -127.5t-210 -53.5q-133 0 -212 90.5t-79 266.5zM246 498q141 0 229 70.5t88 187.5q0 133 -98 133 q-76 0 -147.5 -112.5t-71.5 -278.5z" />
<glyph unicode="f" horiz-adv-x="520" d="M-92 -436q154 47 170 190l123 1082h-109q0 49 33 81.5t88 32.5l20 174q18 156 123 250t252 94q135 0 178 -18t43 -61q0 -45 -22 -97q-104 63 -219 64q-80 0 -136.5 -57.5t-66.5 -153.5l-23 -197h89q84 0 163 8q0 -68 -31.5 -93t-131.5 -25h-101l-114 -1071 q-14 -137 -68.5 -205t-132.5 -68q-84 0 -127 39v31z" />
<glyph unicode="g" horiz-adv-x="862" d="M-78 -319q0 72 62.5 124t140.5 52q-55 -57 -55 -133q0 -61 47 -98.5t131 -37.5q117 0 196.5 88t100.5 261l39 360h-2q-57 -145 -146.5 -234.5t-171.5 -89.5q-74 0 -130 95.5t-56 269.5q0 289 148.5 474t361.5 185q115 0 237 -32l-80 -394q-31 -164 -30 -413 q0 -332 -140.5 -499t-359.5 -167q-135 0 -214 52.5t-79 136.5zM236 360q0 -123 30.5 -185t73.5 -62q74 0 149.5 113.5t104.5 318.5l47 327q-41 10 -102 11q-127 0 -215 -136.5t-88 -386.5z" />
<glyph unicode="h" horiz-adv-x="919" d="M96 0l86 666l68 696l-127 39v39q96 33 209 33q53 0 94 -13l-109 -749h2q63 133 154.5 210.5t190.5 77.5q74 0 117.5 -51t43.5 -137q0 -74 -30 -258l-37 -215q-16 -98 -17 -176q0 -49 22.5 -72.5t74.5 -34.5v-35q-74 -39 -164 -38q-100 0 -101 94q0 49 27 225l37 227 q20 123 20 207q0 123 -92 123q-86 0 -172 -131t-100 -336l-25 -391h-172z" />
<glyph unicode="i" horiz-adv-x="452" d="M88 922v39q92 35 205 34q59 0 92 -12l-92 -602q-16 -123 -17 -219q0 -90 82 -117v-35q-68 -29 -153 -28q-98 0 -99 94q0 41 29 270l66 416l10 121zM233 1292q0 51 35 89t80 38q41 0 67.5 -27.5t26.5 -70.5q0 -51 -34.5 -89t-79.5 -38q-43 0 -69 26.5t-26 71.5z" />
<glyph unicode="j" horiz-adv-x="440" d="M-190 -414q233 0 268 283l112 891l7 123l-125 39v39q92 35 202 34q53 0 93 -12l-131 -1106q-25 -199 -101 -291t-184 -92q-96 0 -141 55v37zM215 1292q0 51 35 89t80 38q39 0 66.5 -27.5t27.5 -70.5q0 -51 -35 -89t-80 -38q-43 0 -68.5 26.5t-25.5 71.5z" />
<glyph unicode="k" horiz-adv-x="776" d="M86 0l82 535l84 827l-127 39v39q92 33 209 33q51 0 92 -13l-119 -899h2l115 90q66 51 133.5 157.5t89.5 201.5q137 0 137 -68q0 -57 -83 -155.5t-197 -176.5l-88 -61l258 -395q49 -74 133 -111v-35q-53 -31 -127 -31q-100 0 -170 129l-211 390h-2l-35 -496h-176z" />
<glyph unicode="l" horiz-adv-x="452" d="M111 78q0 82 24 268l144 1016l-129 39v39q96 33 204 33q57 0 95 -13l-154 -1073q-16 -104 -16 -225q0 -88 92 -117v-35q-68 -29 -158 -28q-102 0 -102 96z" />
<glyph unicode="m" horiz-adv-x="1394" d="M82 922v39q92 35 203 34q43 0 84 -14l-66 -315h2q150 334 365 333q66 0 104.5 -39.5t38.5 -103.5q0 -53 -12 -106l-21 -74h2q57 129 162 226t197 97q70 0 113.5 -49t43.5 -135q0 -59 -30 -266l-31 -187q-23 -145 -23 -200q0 -47 24 -69.5t75 -35.5v-34q-74 -39 -164 -39 q-100 0 -100 94q0 63 28 248l35 204q23 143 23 211q0 119 -76 119q-94 0 -185.5 -132t-101.5 -310l-20 -418h-183q6 33 27 184l51 359q16 164 17 190q0 127 -84 127q-94 0 -188.5 -151.5t-100.5 -362.5l-12 -346h-175l103 883z" />
<glyph unicode="n" horiz-adv-x="929" d="M82 922v39q92 35 203 34q43 0 84 -14l-66 -313h2q72 158 168 244.5t201 86.5q72 0 117 -49t45 -139q0 -37 -31 -258l-37 -221q-16 -125 -16 -170q0 -88 96 -107v-35q-74 -39 -164 -38q-100 0 -100 94q0 59 24 217l39 235q20 127 21 207q0 123 -90 123 q-92 0 -186.5 -152.5t-100.5 -359.5l-12 -346h-175l103 883z" />
<glyph unicode="o" horiz-adv-x="872" d="M80 338q0 307 134 487.5t314 180.5q129 0 207 -86t78 -256q0 -307 -137 -499t-303 -192q-127 0 -210 95.5t-83 269.5zM242 410q0 -164 47 -243t121 -79q86 0 160.5 141.5t74.5 393.5q0 131 -43 197.5t-115 66.5q-90 0 -167.5 -136t-77.5 -341z" />
<glyph unicode="p" horiz-adv-x="880" d="M18 -489l37 172l160 1202l-125 39v39q96 33 203 32q45 0 82 -12l-53 -315h2q51 147 140 242.5t169 95.5t134 -88.5t54 -251.5q0 -317 -137 -499.5t-309 -182.5q-76 0 -137 34l-29 -292q-3 -26 -3 -48q0 -46 12 -71q17 -37 63 -49v-35q-72 -25 -160 -25q-60 1 -103 13z M256 98q49 -12 117 -12q117 0 204 135t87 377q0 266 -103 266q-72 0 -151.5 -125t-106.5 -329z" />
<glyph unicode="q" horiz-adv-x="864" d="M78 340q0 291 133 475t291 184q104 0 162 -57q47 63 165 64l-96 -506l-80 -774q-3 -25 -2 -47q0 -47 13 -72q18 -37 65 -49v-35q-72 -25 -164 -25q-55 0 -98 13l113 765h-2q-51 -131 -141.5 -218t-172.5 -87t-134 98.5t-52 270.5zM236 365q0 -248 108 -248 q72 0 145.5 116.5t102.5 298.5l49 324q-63 31 -143 31q-104 0 -183 -136t-79 -386z" />
<glyph unicode="r" horiz-adv-x="585" d="M80 922v39q92 35 199 34q49 0 86 -14l-62 -297h2l109 180q78 129 172 129q68 0 67 -75q0 -55 -22 -107q-27 8 -64 8q-106 0 -185 -127t-91 -393l-17 -299h-170l101 883z" />
<glyph unicode="s" horiz-adv-x="638" d="M2 90q0 45 31 86q90 -86 200 -86q74 0 124.5 39t50.5 102q0 51 -27 93.5t-100 109.5l-72 66q-70 63 -95.5 113.5t-25.5 117.5q0 106 90 188t228 82q109 0 166 -29.5t57 -80.5q0 -63 -37 -107q-96 100 -223 101q-66 0 -102 -32t-36 -83q0 -45 25 -81t102 -105l78 -70 q74 -66 102.5 -118t28.5 -120q0 -123 -109.5 -213t-269.5 -90q-186 0 -186 117z" />
<glyph unicode="t" horiz-adv-x="534" d="M94 862v27q102 143 277 246h30l-34 -168h59q80 0 158 14q0 -68 -41 -97.5t-137 -29.5h-58l-35 -213q-41 -246 -41 -350q0 -96 43 -145.5t115 -49.5q41 0 84 15v-37q-14 -39 -66.5 -69t-121.5 -30q-100 0 -153.5 64.5t-53.5 187.5q0 193 63 498l27 131q-49 0 -115 6z" />
<glyph unicode="u" horiz-adv-x="894" d="M104 166q0 35 23 153l47 242q31 150 31 248q0 92 -94 115v34q78 37 161 37q100 0 101 -94q0 -72 -43 -317l-45 -228q-18 -82 -19 -153q0 -88 72 -88q84 0 179 135t112 348l22 354q88 39 185 39l-58 -319q-51 -268 -51 -449q0 -96 19.5 -128t74.5 -40v-43 q-98 -31 -184 -30q-49 0 -84 14l55 280h-2q-66 -117 -163 -208t-181 -91q-70 0 -114 52.5t-44 136.5z" />
<glyph unicode="v" horiz-adv-x="757" d="M39 922v43q86 31 168 30q43 0 84 -12l45 -838h2q113 139 185.5 329t72.5 347q0 76 -76 113v33q57 31 127 30q111 0 111 -123q0 -162 -125 -427t-273 -406q-55 -49 -108 -76h-41l-84 922z" />
<glyph unicode="w" horiz-adv-x="1239" d="M39 922v43q86 31 168 30q41 0 84 -12l31 -825h2q98 113 183 355.5t85 459.5q51 23 98 22q98 0 105 -88l39 -743h2q104 137 174.5 317.5t70.5 315.5q0 49 -16 79.5t-61 57.5v35q61 29 126 28q49 0 79 -31.5t30 -93.5q0 -186 -127 -438t-295 -409q-43 -41 -78 -60h-34 l-29 996h-2q-2 -262 -105.5 -532.5t-240.5 -397.5q-53 -47 -86 -66h-41l-72 922z" />
<glyph unicode="x" horiz-adv-x="757" d="M-43 20v35q113 33 166 121l188 305l-178 416l-88 29v41q80 31 152 30q45 0 84 -10l141 -403h2l100 153q49 76 49 131q0 47 -81 68v35q59 27 129 26q47 0 72.5 -23.5t25.5 -64.5q0 -78 -78 -180l-166 -215l150 -330q41 -92 131 -127v-37q-57 -39 -133 -38q-88 0 -142 135 l-110 286h-2l-129 -268q-72 -154 -181 -153q-57 -1 -102 38z" />
<glyph unicode="y" horiz-adv-x="747" d="M-266 -391q0 45 14 74q74 -41 191 -41q74 0 148.5 67.5t131.5 204.5l29 70l-135 901l-90 37v43q92 33 167 32q35 0 84 -14l93 -829h2q86 154 155.5 359.5t69.5 303.5q0 76 -72 117v33q61 31 129 30q106 0 107 -123q0 -154 -183 -509l-231 -453q-106 -209 -223 -309.5 t-227 -100.5q-74 0 -117 29t-43 78z" />
<glyph unicode="z" horiz-adv-x="688" d="M-33 -16l547 858h-219q-125 0 -154 -64l-16 -35l-47 9q0 109 47 173t129 64q84 0 189.5 -7t119.5 -7q80 0 162 12q-209 -395 -535 -860h261q141 0 170 61l20 43l41 -4q0 -131 -53.5 -191.5t-165.5 -60.5q-47 0 -176 10.5t-168 10.5q-91 0 -152 -12z" />
<glyph unicode="{" horiz-adv-x="548" d="M-49 477v45q143 18 227 73.5t94 129.5l66 489q14 111 86 179.5t176 68.5q82 0 82 -73q-209 0 -225 -154l-68 -492q-16 -113 -92 -170t-248 -79v-2q133 0 210 -76t63 -180l-64 -506q-10 -76 38 -115t161 -39q0 -33 -29 -54.5t-74 -21.5q-106 0 -167.5 60.5t-49.5 152.5 l70 502q10 80 -52.5 148.5t-203.5 113.5z" />
<glyph unicode="|" horiz-adv-x="614" d="M252 -541v2048h110v-2048h-110z" />
<glyph unicode="}" horiz-adv-x="548" d="M-133 -426q205 0 225 154l68 491q16 113 93 171.5t247 80.5v2q-133 0 -210 75t-63 179l64 506q10 76 -38 114.5t-161 38.5q0 33 29 54.5t74 21.5q106 0 167.5 -60.5t49.5 -152.5l-70 -501q-10 -80 52.5 -149t203.5 -114v-45q-143 -18 -227 -73.5t-95 -128.5l-65 -490 q-14 -111 -86 -179.5t-176 -68.5q-82 0 -82 74z" />
<glyph unicode="~" d="M225 547q6 49 49 85t105 36q55 0 115 -33l81 -49q51 -31 93 -31q31 0 64.5 37t37.5 82q45 -45 37 -109q-6 -53 -54 -95t-104 -42q-61 0 -114 29l-84 51q-53 35 -95 35q-29 0 -59.5 -34t-34.5 -71q-45 43 -37 109z" />
<glyph unicode="&#xa1;" horiz-adv-x="557" d="M8 -53q76 133 161 428t85 489q0 45 -10 103q154 -31 153 -209q0 -76 -76.5 -330t-76.5 -309q0 -61 39 -121q-97 -51 -275 -51zM258 1225q0 51 34 86t81 35q43 0 68.5 -26t25.5 -71q0 -53 -35 -90t-82 -37q-41 0 -66.5 28t-25.5 75z" />
<glyph unicode="&#xa2;" horiz-adv-x="1062" d="M219 332q0 305 118 479t286 190l20 156h62l-19 -156q70 -4 107.5 -30.5t37.5 -65.5q0 -76 -45 -143q-49 82 -118 110l-95 -774q92 23 162 117q18 -18 19 -55q0 -66 -51.5 -118t-143.5 -71l-20 -157h-64l19 151h-17q-115 0 -186.5 94.5t-71.5 272.5zM377 362 q0 -127 40 -194.5t99 -75.5l94 793q-90 -2 -161.5 -137.5t-71.5 -385.5z" />
<glyph unicode="&#xa3;" horiz-adv-x="1062" d="M147 608q0 43 27 73t66 30h77l31 297q14 139 133 230t283 91q141 0 194.5 -22.5t53.5 -69.5q0 -41 -31 -86q-113 68 -258 68q-88 0 -148.5 -55.5t-70.5 -149.5l-35 -303h236q68 0 133 8q0 -61 -34 -86t-120 -25h-225l-49 -497h307q84 0 125 24.5t67 87.5l17 35h59 l-59 -258h-754v43q70 16 80 104l53 461h-158z" />
<glyph unicode="&#xa4;" horiz-adv-x="1062" d="M166 406l90 88q-72 98 -72 219q0 125 74 217l-92 90l74 74l90 -93q100 74 217 74q125 0 217 -74l90 93l74 -74l-92 -90q74 -96 73.5 -217t-71.5 -219l90 -88l-74 -74l-90 90q-94 -72 -217 -72q-121 0 -217 74l-90 -92zM299 712.5q0 -102.5 72.5 -175t175 -72.5 t175.5 72.5t73 175t-73 175.5t-175.5 73t-175 -73t-72.5 -175.5z" />
<glyph unicode="&#xa5;" horiz-adv-x="1062" d="M113 1243v41q78 31 166 31q92 0 165 -21v-34q-29 -6 -43 -26t-8 -38l164 -530h2l301 551l-110 26v41q86 31 188 31q70 0 119 -21v-34q-47 -14 -76 -64l-346 -596h256l-8 -72h-285l-14 -114h284l-8 -72h-285l-28 -258l131 -29v-41q-92 -31 -205 -30q-82 0 -149 20v35 q59 23 65 90l27 213h-277l8 72h279l14 114h-280l8 72h254l-207 614z" />
<glyph unicode="&#xa6;" horiz-adv-x="614" d="M252 309h110v-850h-110v850zM252 659v848h110v-848h-110z" />
<glyph unicode="&#xa7;" horiz-adv-x="1024" d="M135 -444l25 272h67l6 -45q25 -158 173 -158q88 0 150 83t62 222q0 152 -124 332l-193 277q-115 160 -115 327q0 178 132.5 315.5t328.5 137.5q125 0 223 -49l-24 -273h-60l-4 37q-16 154 -166 154q-72 0 -116.5 -65.5t-44.5 -151.5q0 -113 141 -314l192 -276 q100 -141 101 -320q0 -213 -169 -385t-349 -172q-109 1 -236 52zM281 893q0 -147 108 -303l205 -291q113 -158 113 -324q0 -102 -42 -193t-110 -142q70 0 156 119.5t86 275.5q0 164 -107 311l-182 262q-135 195 -135 330q0 84 36.5 158.5t100.5 120.5q-82 0 -155.5 -95.5 t-73.5 -228.5z" />
<glyph unicode="&#xa8;" horiz-adv-x="921" d="M309 1251q0 43 26.5 74t67.5 31q70 0 70 -88q0 -43 -26.5 -74t-67.5 -31q-70 0 -70 88zM614 1251q0 43 27 74t68 31q70 0 69 -88q0 -43 -26.5 -74t-67.5 -31q-70 0 -70 88z" />
<glyph unicode="&#xa9;" horiz-adv-x="1753" d="M182 641q0 285 206 488.5t491 203.5q287 0 483.5 -195.5t196.5 -480t-206 -490.5t-490.5 -206t-482.5 197.5t-198 482.5zM293 649q0 -250 168 -425t409.5 -175t409.5 175t168 425q0 246 -169 421t-408.5 175t-408.5 -175t-169 -421zM590 575q0 219 107.5 352.5 t252.5 133.5q98 0 172 -29l-24 -170h-41l-6 29q-18 84 -117 84q-88 0 -148.5 -99.5t-60.5 -279.5q0 -109 47 -170t115 -61q51 4 79.5 22.5t47.5 63.5l12 30h43l-20 -162q-90 -45 -203 -45q-104 0 -180 82t-76 219z" />
<glyph unicode="&#xaa;" horiz-adv-x="622" d="M113 874q0 201 107.5 319t264.5 118q80 0 179 -23l-52 -227q-33 -160 -32 -250q0 -61 14 -83.5t53 -29.5v-32q-66 -18 -137 -19q-31 0 -68 10l35 199h-2q-45 -100 -105.5 -157.5t-119.5 -57.5q-57 0 -97 61t-40 172zM242 895q0 -78 20.5 -117t48.5 -39q47 0 97.5 73 t72.5 200l39 211q-45 8 -71 8q-86 0 -146.5 -88t-60.5 -248z" />
<glyph unicode="&#xab;" horiz-adv-x="888" d="M68 520l120 160q162 219 246 219q51 0 94 -37q-127 -98 -243 -246l-70 -90l84 -164q66 -131 147 -206q-63 -25 -120 -25q-86 0 -152 152zM420 520l119 160q164 219 247 219q51 0 95 -37q-129 -100 -244 -246l-70 -90l84 -164q66 -131 148 -206q-63 -25 -121 -25 q-86 0 -152 152z" />
<glyph unicode="&#xac;" d="M104 541l15 104h862l-49 -401h-113l35 297h-750z" />
<glyph unicode="&#xad;" horiz-adv-x="610" d="M70 471l51 137l420 37l-49 -145z" />
<glyph unicode="&#xae;" horiz-adv-x="1740" d="M182 641q0 285 206 488.5t491 203.5q287 0 483.5 -195.5t196.5 -480t-206 -490.5t-490.5 -206t-482.5 197.5t-198 482.5zM293 649q0 -250 168 -425t409.5 -175t409.5 175t168 425q0 246 -169 421t-408.5 175t-408.5 -175t-169 -421zM567 299v25q53 18 60 55l69 598 l-82 22v37q115 18 267 19q254 0 254 -176q0 -76 -61.5 -141.5t-139.5 -88.5l131 -196q51 -80 147 -113v-25q-55 -35 -125 -34q-82 0 -139 106l-137 250v25q66 0 124 60t58 144q0 123 -112 123q-33 0 -60 -8l-80 -629l76 -22v-27q-61 -18 -129 -18t-121 14z" />
<glyph unicode="&#xaf;" horiz-adv-x="921" d="M262 1182v112h545v-112h-545z" />
<glyph unicode="&#xb0;" horiz-adv-x="860" d="M186 1036q0 119 91.5 207t214.5 88q127 0 218 -84t91 -207q0 -117 -93.5 -201.5t-218.5 -84.5q-123 0 -213 82.5t-90 199.5zM297 1040q0 -80 58.5 -139t136.5 -59q80 0 139 58t59 138q0 82 -60.5 143.5t-138 61.5t-136 -60.5t-58.5 -142.5z" />
<glyph unicode="&#xb1;" d="M39 0l12 106h862l-12 -106h-862zM104 541l15 104h377l32 279h113l-33 -279h373l-14 -104h-373l-35 -297h-113l35 297h-377z" />
<glyph unicode="&#xb2;" horiz-adv-x="667" d="M98 659v66l275 213q117 92 116 197q0 94 -116 94q-102 0 -189 -86q-10 31 -10 67q0 41 58.5 74t170.5 33q231 0 232 -158q0 -137 -195 -264l-196 -145v-2h123q135 0 260 38q6 -14 6 -49q0 -45 -34 -65.5t-112 -20.5q-35 0 -178 4t-211 4z" />
<glyph unicode="&#xb3;" horiz-adv-x="667" d="M109 723q0 25 16 47q94 -53 165.5 -53t121 34.5t49.5 88.5q0 98 -172 98q-27 0 -60 -4l-6 80l58 -2q88 -2 144 36.5t56 100.5q0 84 -116 84q-80 0 -172 -68q-8 33 -9 49q0 102 215 103q106 0 164 -40t58 -103q0 -66 -57.5 -115t-155.5 -70q94 0 143 -35.5t49 -97.5 q0 -90 -90 -151.5t-225 -61.5q-176 0 -176 80z" />
<glyph unicode="&#xb4;" horiz-adv-x="921" d="M385 1063q51 53 97 160.5t63 203.5q129 0 129 -94q0 -70 -86 -161t-172 -117z" />
<glyph unicode="&#xb5;" horiz-adv-x="894" d="M31 -319q0 53 5 113.5t18.5 138t21.5 120.5t27 141l24 117l47 250q31 150 31 248q0 92 -94 115v34q78 37 161 37q100 0 100.5 -94t-42.5 -317l-43 -215q-31 -168 -31 -185q0 -70 82 -69q84 0 179 135t112 348l22 354q88 39 185 39l-58 -319q-51 -268 -51 -449 q0 -96 19.5 -128t74.5 -40v-43q-98 -31 -184 -30q-49 0 -84 14l55 280h-2q-66 -117 -163 -208t-181 -91q-37 0 -65 25l-2 -2l-11 -72q-10 -78 -10 -159q0 -111 25.5 -152t97.5 -53v-43q-63 -25 -139 -25q-127 1 -127 185z" />
<glyph unicode="&#xb6;" horiz-adv-x="1024" d="M98 754q0 227 176.5 393t413.5 166q123 0 250 -25q-55 -111 -68 -241l-157 -1424q-6 -53 -54.5 -87t-117.5 -34q-117 0 -168 78q98 25 106 113l82 788q-59 -45 -141 -45q-145 0 -233.5 83t-88.5 235zM549 -389h80l178 1624h-82z" />
<glyph unicode="&#xb7;" horiz-adv-x="540" d="M156 489q0 55 35.5 95.5t83 40.5t74 -30t26.5 -81q0 -53 -36 -91t-85 -38q-47 0 -72.5 27.5t-25.5 76.5z" />
<glyph unicode="&#xb8;" horiz-adv-x="552" d="M-18 -266q86 -68 170 -68q47 0 77.5 22.5t30.5 55.5q0 74 -123 74l62 194h63l-12 -116q66 0 102.5 -31t36.5 -84q0 -84 -78 -148.5t-182 -64.5q-66 0 -106.5 46t-40.5 120z" />
<glyph unicode="&#xb9;" horiz-adv-x="667" d="M158 670v26q61 10 102 34t45 48l55 453l-153 -10l4 45q117 47 238 47q33 0 63 -6q-20 -47 -27 -99l-59 -483l152 -23v-30q-106 -23 -234 -23q-114 1 -186 21z" />
<glyph unicode="&#xba;" horiz-adv-x="638" d="M106 881q0 199 97.5 314.5t232.5 115.5q98 0 155.5 -58.5t57.5 -171.5q0 -199 -99 -320.5t-224 -121.5q-96 0 -158 63.5t-62 178.5zM242 924q0 -104 30.5 -154.5t79.5 -50.5q57 0 109.5 90t52.5 250q0 84 -29.5 127t-76.5 43q-61 0 -113.5 -86t-52.5 -219z" />
<glyph unicode="&#xbb;" horiz-adv-x="888" d="M8 166q127 98 244 246l70 90l-84 164q-70 131 -150 206q68 25 121 25q88 0 153 -152l107 -237l-121 -160q-162 -219 -246 -219q-51 0 -94 37zM360 166q129 100 242 246l72 90l-84 164q-70 131 -150 206q68 25 121 25q88 0 154 -152l104 -237l-119 -160 q-164 -219 -247 -219q-50 0 -93 37z" />
<glyph unicode="&#xbc;" horiz-adv-x="1458" d="M182 670v26q61 10 102.5 34t45.5 48l55 453l-154 -10l5 45q117 47 237 47q33 0 64 -6q-20 -47 -27 -99l-59 -483l151 -23v-30q-106 -23 -233 -23q-115 1 -187 21zM205 -68l1059 1469l69 -43l-1059 -1469zM784 152q29 160 168.5 310t311.5 193h43q-29 -94 -43 -213 l-25 -198h37q23 0 61 14q8 -16 9 -37q0 -39 -20.5 -54t-70.5 -15h-30l-8 -89l79 -26v-27q-55 -20 -127 -20q-74 0 -127 16v27q53 14 58 69l4 50h-320zM907 240h209l21 163q8 70 32 138h-2q-80 -45 -152.5 -131t-107.5 -170z" />
<glyph unicode="&#xbd;" horiz-adv-x="1458" d="M164 -68l1059 1469l69 -43l-1059 -1469zM182 670v26q61 10 102.5 34t45.5 48l55 453l-154 -10l5 45q117 47 237 47q33 0 64 -6q-20 -47 -27 -99l-59 -483l151 -23v-30q-106 -23 -233 -23q-115 1 -187 21zM791 0v66l274 213q117 92 117 196q0 94 -117 94q-102 0 -188 -86 q-10 31 -11 68q0 41 58.5 73.5t171.5 32.5q231 0 231 -157q0 -137 -194 -264l-197 -146v-2h123q135 0 260 39q6 -14 6 -49q0 -45 -34 -65.5t-111 -20.5q-35 0 -178 4t-211 4z" />
<glyph unicode="&#xbe;" horiz-adv-x="1458" d="M135 723q0 25 17 47q94 -53 165.5 -53t120.5 34.5t49 88.5q0 98 -172 98q-27 0 -59 -4l-6 80l57 -2q88 -2 144.5 36.5t56.5 100.5q0 84 -117 84q-80 0 -172 -68q-8 33 -8 49q0 102 215 103q106 0 163.5 -40t57.5 -103q0 -66 -57.5 -115t-155.5 -70q94 0 143.5 -35.5 t49.5 -97.5q0 -90 -90.5 -151.5t-225.5 -61.5q-176 0 -176 80zM188 -68l1059 1469l70 -43l-1059 -1469zM784 152q29 160 168.5 310t311.5 193h43q-29 -94 -43 -213l-25 -198h37q23 0 61 14q8 -16 9 -37q0 -39 -20.5 -54t-70.5 -15h-30l-8 -89l79 -26v-27q-55 -20 -127 -20 q-74 0 -127 16v27q53 14 58 69l4 50h-320zM907 240h209l21 163q8 70 32 138h-2q-80 -45 -152.5 -131t-107.5 -170z" />
<glyph unicode="&#xbf;" horiz-adv-x="843" d="M41 231q0 209 387 431l160 92q-4 113 -94 221q41 12 61 12q51 0 98 -52t47 -114q0 -55 -25.5 -94t-90.5 -80l-183 -115q-180 -119 -180 -284q0 -78 49 -125t123 -47q98 0 160.5 66.5t62.5 166.5q106 0 107 -108q0 -86 -100.5 -152.5t-266.5 -66.5q-141 0 -228 69t-87 180 zM526 1262q0 51 34 85.5t81 34.5q43 0 68.5 -25.5t25.5 -70.5q0 -53 -33.5 -90t-83.5 -37q-41 0 -66.5 28t-25.5 75z" />
<glyph unicode="&#xc0;" horiz-adv-x="966" d="M-76 4v35q72 23 105 98l487 1098q14 31 14 68l166 22l170 -1243l105 -27v-41q-78 -31 -176 -30q-100 0 -183 20v35q76 23 68 113l-29 294h-354l-152 -368l113 -23v-41q-80 -31 -195 -30q-67 0 -139 20zM338 543l297 8l-62 555h-2zM455 1640q0 92 133 93q16 -96 64 -203 t104 -160l-33 -8q-90 25 -179 115.5t-89 162.5z" />
<glyph unicode="&#xc1;" horiz-adv-x="966" d="M-76 4v35q72 23 105 98l487 1098q14 31 14 68l166 22l170 -1243l105 -27v-41q-78 -31 -176 -30q-100 0 -183 20v35q76 23 68 113l-29 294h-354l-152 -368l113 -23v-41q-80 -31 -195 -30q-67 0 -139 20zM338 543l297 8l-62 555h-2zM528 1370q53 53 102.5 160.5t63.5 202.5 q135 0 135 -93q0 -70 -90 -162t-178 -116z" />
<glyph unicode="&#xc2;" horiz-adv-x="966" d="M-76 4v35q72 23 105 98l487 1098q14 31 14 68l166 22l170 -1243l105 -27v-41q-78 -31 -176 -30q-100 0 -183 20v35q76 23 68 113l-29 294h-354l-152 -368l113 -23v-41q-80 -31 -195 -30q-67 0 -139 20zM299 1458l305 266l78 15l252 -316l-31 -28q-70 0 -168 90 q-68 68 -100 145l-258 -239q-55 30 -78 67zM338 543l297 8l-62 555h-2z" />
<glyph unicode="&#xc3;" horiz-adv-x="966" d="M-76 4v35q72 23 105 98l487 1098q14 31 14 68l166 22l170 -1243l105 -27v-41q-78 -31 -176 -30q-100 0 -183 20v35q76 23 68 113l-29 294h-354l-152 -368l113 -23v-41q-80 -31 -195 -30q-67 0 -139 20zM332 1530q0 51 41 86t104 35q57 0 125 -35l90 -47q53 -31 101 -31 q33 0 62.5 37t29.5 82q53 -47 53 -105q0 -53 -46 -94t-106 -41q-70 0 -120 29l-93 49q-63 35 -106 35q-29 0 -54.5 -34t-27.5 -73q-53 39 -53 107zM338 543l297 8l-62 555h-2z" />
<glyph unicode="&#xc4;" horiz-adv-x="966" d="M-76 4v35q72 23 105 98l487 1098q14 31 14 68l166 22l170 -1243l105 -27v-41q-78 -31 -176 -30q-100 0 -183 20v35q76 23 68 113l-29 294h-354l-152 -368l113 -23v-41q-80 -31 -195 -30q-67 0 -139 20zM338 543l297 8l-62 555h-2zM422 1530q0 43 26.5 73.5t67.5 30.5 q70 0 70 -88q0 -43 -27 -73.5t-67 -30.5q-70 0 -70 88zM727 1530q0 43 26.5 73.5t67.5 30.5q70 0 70 -88q0 -43 -26.5 -73.5t-67.5 -30.5q-70 0 -70 88z" />
<glyph unicode="&#xc5;" horiz-adv-x="966" d="M-76 4v35q72 23 105 98l487 1098q14 31 14 68l166 22l170 -1243l105 -27v-41q-78 -31 -176 -30q-100 0 -183 20v35q76 23 68 113l-29 294h-354l-152 -368l113 -23v-41q-80 -31 -195 -30q-67 0 -139 20zM338 543l297 8l-62 555h-2zM485 1569q0 74 54.5 128t130.5 54 q82 0 135 -50t53 -130q0 -74 -54 -126t-130 -52q-82 0 -135.5 49t-53.5 127zM569 1569q0 -49 28 -80t75 -31q45 0 72.5 30t27.5 81q0 49 -28.5 83t-71.5 34q-47 0 -75 -33t-28 -84z" />
<glyph unicode="&#xc6;" horiz-adv-x="1349" d="M-76 2v35q31 10 67 38.5t56 61.5l649 1102q16 29 17 64h647l-35 -275h-57l-4 39q-12 127 -138 127h-221l-59 -485h231q94 0 121 82l10 30h58l-39 -354h-58l-2 35q-2 57 -24.5 80.5t-67.5 23.5h-241l-58 -497h250q145 0 193 98l18 43h59l-57 -250h-704v43q70 16 79 104 l37 302h-291l-198 -375l80 -21v-41q-80 -31 -179 -30q-67 0 -139 20zM414 545l250 10l61 532h-2z" />
<glyph unicode="&#xc7;" horiz-adv-x="942" d="M92 453q0 213 52.5 383t139.5 274t192.5 159.5t217.5 55.5q141 0 246 -37l-39 -262h-53l-10 49q-14 76 -54.5 107.5t-115.5 31.5q-152 0 -275 -192.5t-123 -542.5q0 -193 70 -295t176 -102q94 0 149.5 34t94.5 117l20 52h58l-33 -250q-145 -63 -318 -66l-8 -73 q66 0 102.5 -31t36.5 -84q0 -84 -77.5 -148.5t-182.5 -64.5q-66 0 -106.5 46t-40.5 120q86 -68 170 -68q47 0 77.5 22.5t30.5 55.5q0 74 -122 74l49 155q-154 20 -239 139.5t-85 340.5z" />
<glyph unicode="&#xc8;" horiz-adv-x="860" d="M51 0v43q70 16 80 104l125 1063l-117 35v58h731l-34 -275h-58l-4 39q-12 127 -137 127h-221l-60 -485h232q94 0 121 82l10 30h57l-39 -354h-57l-2 35q-2 57 -24.5 80.5t-67.5 23.5h-242l-57 -497h250q145 0 192 98l19 43h59l-57 -250h-699zM395 1640q0 92 135 93 q16 -94 65.5 -202t100.5 -161l-32 -8q-88 25 -178.5 116.5t-90.5 161.5z" />
<glyph unicode="&#xc9;" horiz-adv-x="860" d="M51 0v43q70 16 80 104l125 1063l-117 35v58h731l-34 -275h-58l-4 39q-12 127 -137 127h-221l-60 -485h232q94 0 121 82l10 30h57l-39 -354h-57l-2 35q-2 57 -24.5 80.5t-67.5 23.5h-242l-57 -497h250q145 0 192 98l19 43h59l-57 -250h-699zM504 1370q51 53 101 160.5 t67 202.5q133 0 133 -93q0 -70 -91 -162t-179 -116z" />
<glyph unicode="&#xca;" horiz-adv-x="860" d="M51 0v43q70 16 80 104l125 1063l-117 35v58h731l-34 -275h-58l-4 39q-12 127 -137 127h-221l-60 -485h232q94 0 121 82l10 30h57l-39 -354h-57l-2 35q-2 57 -24.5 80.5t-67.5 23.5h-242l-57 -497h250q145 0 192 98l19 43h59l-57 -250h-699zM242 1458l303 266l78 15 l249 -316l-26 -28q-76 0 -168 90q-66 63 -105 145l-258 -239q-48 26 -73 67z" />
<glyph unicode="&#xcb;" horiz-adv-x="860" d="M51 0v43q70 16 80 104l125 1063l-117 35v58h731l-34 -275h-58l-4 39q-12 127 -137 127h-221l-60 -485h232q94 0 121 82l10 30h57l-39 -354h-57l-2 35q-2 57 -24.5 80.5t-67.5 23.5h-242l-57 -497h250q145 0 192 98l19 43h59l-57 -250h-699zM332 1530q0 43 26.5 73.5 t67.5 30.5q70 0 70 -88q0 -43 -27 -73.5t-68 -30.5q-69 0 -69 88zM637 1530q0 43 26.5 73.5t67.5 30.5q70 0 70 -88q0 -43 -26.5 -73.5t-67.5 -30.5q-70 0 -70 88z" />
<glyph unicode="&#xcc;" horiz-adv-x="501" d="M51 4v35q72 29 78 90l125 1081l-115 33v41q84 31 189 31q98 0 159 -21v-34q-68 -23 -75 -89l-127 -1083l114 -33v-41q-88 -31 -186 -30q-90 0 -162 20zM154 1640q0 92 135 93q14 -94 63 -202t103 -161l-33 -8q-88 25 -178 116.5t-90 161.5z" />
<glyph unicode="&#xcd;" horiz-adv-x="501" d="M51 4v35q72 29 78 90l125 1081l-115 33v41q84 31 189 31q98 0 159 -21v-34q-68 -23 -75 -89l-127 -1083l114 -33v-41q-88 -31 -186 -30q-90 0 -162 20zM246 1370q51 53 101 160.5t67 202.5q133 0 133 -93q0 -70 -91 -162t-180 -116z" />
<glyph unicode="&#xce;" horiz-adv-x="501" d="M37 1432l303 266l78 12l252 -315l-31 -29q-68 0 -166 92q-70 68 -102 146l-258 -240q-53 27 -76 68zM51 4v35q72 29 78 90l125 1081l-115 33v41q84 31 189 31q98 0 159 -21v-34q-68 -23 -75 -89l-127 -1083l114 -33v-41q-88 -31 -186 -30q-90 0 -162 20z" />
<glyph unicode="&#xcf;" horiz-adv-x="501" d="M51 4v35q72 29 78 90l125 1081l-115 33v41q84 31 189 31q98 0 159 -21v-34q-68 -23 -75 -89l-127 -1083l114 -33v-41q-88 -31 -186 -30q-90 0 -162 20zM135 1522q0 43 26.5 73.5t67.5 30.5q70 0 70 -88q0 -43 -26.5 -73.5t-67.5 -30.5q-70 0 -70 88zM440 1522 q0 43 27 73.5t68 30.5q70 0 69 -88q0 -43 -26.5 -73.5t-67.5 -30.5q-70 0 -70 88z" />
<glyph unicode="&#xd0;" horiz-adv-x="1150" d="M31 623v79h164l59 504l-115 33v45q184 31 398 31q268 0 420.5 -133t152.5 -379q0 -371 -230.5 -595t-568.5 -224q-160 0 -260 20v35q72 31 82 121l53 463h-155zM287 102q43 -6 90 -6q223 0 388 184.5t165 491.5q0 217 -110.5 328.5t-295.5 111.5q-49 0 -108 -6l-60 -504 h230v-79h-240z" />
<glyph unicode="&#xd1;" horiz-adv-x="1110" d="M51 4v35q72 23 78 90l125 1090l-86 18v47q94 27 190 27h58l411 -955h2l89 854l-115 33v41q76 31 170 31q78 0 139 -21v-34q-70 -20 -80 -91l-141 -1187l-68 -11l-475 1110h-2l-100 -993l114 -33v-41q-86 -31 -161 -30q-70 0 -148 20zM389 1530q0 51 40 86t103 35 q61 0 125 -35l93 -47q53 -31 100 -31q33 0 61.5 36t30.5 83q51 -45 51 -105q0 -51 -45 -93t-102 -42q-68 0 -123 29l-92 49q-61 35 -107 35q-31 0 -56.5 -34t-27.5 -73q-51 44 -51 107z" />
<glyph unicode="&#xd2;" horiz-adv-x="1122" d="M92 438q0 406 171 646.5t409 240.5q182 0 290.5 -120t108.5 -337q0 -223 -53 -402t-141.5 -286.5t-195 -164t-220.5 -56.5q-160 0 -264.5 125t-104.5 354zM270 475q0 -188 65.5 -290.5t166.5 -102.5q147 0 270 190.5t123 556.5q0 184 -68.5 278.5t-181.5 94.5 q-152 0 -263.5 -195.5t-111.5 -531.5zM537 1640q0 92 133 93q16 -96 64 -203t104 -160l-33 -8q-90 25 -179 115.5t-89 162.5z" />
<glyph unicode="&#xd3;" horiz-adv-x="1122" d="M92 438q0 406 171 646.5t409 240.5q182 0 290.5 -120t108.5 -337q0 -223 -53 -402t-141.5 -286.5t-195 -164t-220.5 -56.5q-160 0 -264.5 125t-104.5 354zM270 475q0 -188 65.5 -290.5t166.5 -102.5q147 0 270 190.5t123 556.5q0 184 -68.5 278.5t-181.5 94.5 q-152 0 -263.5 -195.5t-111.5 -531.5zM625 1370q51 53 101 160.5t67 202.5q133 0 133 -93q0 -70 -91.5 -162t-179.5 -116z" />
<glyph unicode="&#xd4;" horiz-adv-x="1122" d="M92 438q0 406 171 646.5t409 240.5q182 0 290.5 -120t108.5 -337q0 -223 -53 -402t-141.5 -286.5t-195 -164t-220.5 -56.5q-160 0 -264.5 125t-104.5 354zM270 475q0 -188 65.5 -290.5t166.5 -102.5q147 0 270 190.5t123 556.5q0 184 -68.5 278.5t-181.5 94.5 q-152 0 -263.5 -195.5t-111.5 -531.5zM412 1458l303 266l80 15l249 -316l-28 -28q-72 0 -168 90q-66 61 -100 145l-259 -239q-54 30 -77 67z" />
<glyph unicode="&#xd5;" horiz-adv-x="1122" d="M92 438q0 406 171 646.5t409 240.5q182 0 290.5 -120t108.5 -337q0 -223 -53 -402t-141.5 -286.5t-195 -164t-220.5 -56.5q-160 0 -264.5 125t-104.5 354zM270 475q0 -188 65.5 -290.5t166.5 -102.5q147 0 270 190.5t123 556.5q0 184 -68.5 278.5t-181.5 94.5 q-152 0 -263.5 -195.5t-111.5 -531.5zM420 1530q0 51 40 86t103 35q61 0 125 -35l92 -47q53 -31 101 -31q33 0 62.5 37t29.5 82q51 -47 51 -105q0 -51 -45 -93t-102 -42q-70 0 -121 29l-94 49q-61 35 -107 35q-31 0 -56.5 -34t-25.5 -73q-53 39 -53 107z" />
<glyph unicode="&#xd6;" horiz-adv-x="1122" d="M92 438q0 406 171 646.5t409 240.5q182 0 290.5 -120t108.5 -337q0 -223 -53 -402t-141.5 -286.5t-195 -164t-220.5 -56.5q-160 0 -264.5 125t-104.5 354zM270 475q0 -188 65.5 -290.5t166.5 -102.5q147 0 270 190.5t123 556.5q0 184 -68.5 278.5t-181.5 94.5 q-152 0 -263.5 -195.5t-111.5 -531.5zM520 1530q0 43 26.5 73.5t67.5 30.5q70 0 70 -88q0 -43 -26.5 -73.5t-67.5 -30.5q-70 0 -70 88zM825 1530q0 43 27 73.5t68 30.5q70 0 69 -88q0 -43 -26.5 -73.5t-67.5 -30.5q-70 0 -70 88z" />
<glyph unicode="&#xd7;" d="M129 174l326 285l-256 289l86 75l254 -291l321 291l68 -75l-324 -289l252 -287l-84 -76l-252 289l-323 -289z" />
<glyph unicode="&#xd8;" horiz-adv-x="1122" d="M0 -115l166 244q-74 119 -74 309q0 406 171 646.5t409 240.5q152 0 252 -84l131 193l65 -35l-143 -211q94 -123 94 -320q0 -223 -53 -402t-141.5 -286.5t-195 -164t-220.5 -56.5q-150 0 -248 104l-143 -213zM270 475q0 -90 17 -168l542 795q-68 100 -184 100 q-152 0 -263.5 -195.5t-111.5 -531.5zM317 217q63 -135 185 -135q147 0 270 190.5t123 556.5q0 115 -29 197z" />
<glyph unicode="&#xd9;" horiz-adv-x="1163" d="M129 266q0 49 31 264l92 680l-115 33v41q84 31 193 31q94 0 155 -21v-34q-68 -27 -75 -89l-84 -612q-29 -168 -29 -266t61.5 -153.5t167.5 -55.5q135 0 234.5 121t128.5 360l76 643l-121 35v41q82 31 180 31q68 0 131 -21v-34q-55 -27 -59 -80l-70 -598 q-35 -303 -180.5 -457t-353.5 -154q-174 0 -268.5 75t-94.5 220zM504 1636q0 94 135 95q14 -96 63.5 -204t102.5 -159l-33 -10q-88 27 -178 117.5t-90 160.5z" />
<glyph unicode="&#xda;" horiz-adv-x="1163" d="M129 266q0 49 31 264l92 680l-115 33v41q84 31 193 31q94 0 155 -21v-34q-68 -27 -75 -89l-84 -612q-29 -168 -29 -266t61.5 -153.5t167.5 -55.5q135 0 234.5 121t128.5 360l76 643l-121 35v41q82 31 180 31q68 0 131 -21v-34q-55 -27 -59 -80l-70 -598 q-35 -303 -180.5 -457t-353.5 -154q-174 0 -268.5 75t-94.5 220zM604 1343q53 51 102.5 159t63.5 204q135 0 135 -94q0 -70 -90 -161t-180 -118z" />
<glyph unicode="&#xdb;" horiz-adv-x="1163" d="M129 266q0 49 31 264l92 680l-115 33v41q84 31 193 31q94 0 155 -21v-34q-68 -27 -75 -89l-84 -612q-29 -168 -29 -266t61.5 -153.5t167.5 -55.5q135 0 234.5 121t128.5 360l76 643l-121 35v41q82 31 180 31q68 0 131 -21v-34q-55 -27 -59 -80l-70 -598 q-35 -303 -180.5 -457t-353.5 -154q-174 0 -268.5 75t-94.5 220zM395 1440l303 266l78 14l252 -315l-31 -29q-72 0 -163 90q-66 63 -105 146l-258 -240q-53 29 -76 68z" />
<glyph unicode="&#xdc;" horiz-adv-x="1163" d="M129 266q0 49 31 264l92 680l-115 33v41q84 31 193 31q94 0 155 -21v-34q-68 -27 -75 -89l-84 -612q-29 -201 -29 -266q0 -98 61.5 -153.5t167.5 -55.5q135 0 234.5 121t128.5 360l76 643l-121 35v41q82 31 180 31q68 0 131 -21v-34q-51 -25 -59 -80l-70 -598 q-35 -303 -181.5 -457t-352.5 -154q-174 0 -268.5 75t-94.5 220zM479 1530q0 43 26.5 73.5t67.5 30.5q70 0 70 -88q0 -43 -26.5 -73.5t-67.5 -30.5q-70 0 -70 88zM784 1530q0 43 27 73.5t68 30.5q70 0 69 -88q0 -43 -26.5 -73.5t-67.5 -30.5q-70 0 -70 88z" />
<glyph unicode="&#xdd;" horiz-adv-x="897" d="M25 1243v41q78 31 165 31q92 0 166 -21v-34q-29 -6 -43 -26t-8 -38l172 -530h2l301 551l-110 26v41q86 31 188 31q70 0 119 -21v-34q-47 -14 -76 -64l-381 -655l-53 -457l131 -29v-41q-92 -31 -205 -30q-82 0 -149 20v35q59 23 65 90l53 410l-235 675zM465 1370 q53 53 102 159.5t66 203.5q133 0 133 -93q0 -70 -90 -162t-178 -116z" />
<glyph unicode="&#xde;" horiz-adv-x="989" d="M51 4v35q72 29 78 90l125 1081l-115 33v41q84 31 189 31q98 0 159 -21v-34q-68 -23 -75 -89l-17 -129q74 4 109 5q215 0 328.5 -89.5t113.5 -261.5q0 -184 -149.5 -315t-341.5 -131q-88 0 -140 47l-6 -4l-24 -205l114 -33v-41q-88 -31 -186 -30q-90 0 -162 20zM317 377 l5 2q63 -20 131 -21q135 0 225 93.5t90 238.5q0 119 -70.5 187.5t-197.5 68.5q-66 0 -115 -8h-2z" />
<glyph unicode="&#xdf;" horiz-adv-x="1042" d="M-92 -436q154 47 170 190l123 1082h-111q0 43 38 78.5t87 35.5l18 191q16 147 129 237t281 90q150 0 240 -77.5t90 -194.5q0 -63 -49.5 -130t-107.5 -112t-107.5 -95t-49.5 -87q0 -51 23 -84t104 -106l80 -66q74 -66 104.5 -120t30.5 -122q0 -125 -107.5 -213t-268.5 -88 q-178 0 -179 121q0 51 23 82q111 -86 201 -86q76 0 122 39t46 102q0 49 -27 95.5t-98 109.5l-72 64q-127 115 -127 233q0 57 48 116.5t105.5 103.5t105.5 105.5t48 119.5q0 92 -51 140t-147 48q-100 0 -163 -59.5t-73 -163.5l-151 -1376q-14 -137 -68.5 -205t-132.5 -68 q-84 0 -127 39v31z" />
<glyph unicode="&#xe0;" horiz-adv-x="874" d="M76 332q0 305 150.5 485t369.5 180q106 0 227 -32l-71 -359q-43 -184 -47 -385q0 -94 20 -126t78 -40v-43q-88 -31 -182 -30q-39 0 -86 14l47 305h-2q-59 -150 -147.5 -240t-170.5 -90q-78 0 -132 96.5t-54 264.5zM233 360q0 -121 31 -184t72 -63q74 0 147.5 110.5 t106.5 306.5l57 340q-43 12 -106 13q-131 0 -219.5 -136.5t-88.5 -386.5zM391 1333q0 92 133 92q16 -94 66.5 -201.5t101.5 -160.5l-30 -8q-88 25 -179.5 116.5t-91.5 161.5z" />
<glyph unicode="&#xe1;" horiz-adv-x="874" d="M76 332q0 305 150.5 485t369.5 180q106 0 227 -32l-71 -359q-43 -184 -47 -385q0 -94 20 -126t78 -40v-43q-88 -31 -182 -30q-39 0 -86 14l47 305h-2q-59 -150 -147.5 -240t-170.5 -90q-78 0 -132 96.5t-54 264.5zM233 360q0 -121 31 -184t72 -63q74 0 147.5 110.5 t106.5 306.5l57 340q-43 12 -106 13q-131 0 -219.5 -136.5t-88.5 -386.5zM461 1063q53 53 101 160.5t65 201.5q135 0 135 -92q0 -70 -90 -162t-178 -116z" />
<glyph unicode="&#xe2;" horiz-adv-x="874" d="M76 332q0 305 150.5 485t369.5 180q106 0 227 -32l-71 -359q-43 -184 -47 -385q0 -94 20 -126t78 -40v-43q-88 -31 -182 -30q-39 0 -86 14l47 305h-2q-59 -150 -147.5 -240t-170.5 -90q-78 0 -132 96.5t-54 264.5zM233 360q0 -121 31 -184t72 -63q74 0 147.5 110.5 t106.5 306.5l57 340q-43 12 -106 13q-131 0 -219.5 -136.5t-88.5 -386.5zM289 1151l305 266l78 15l252 -316l-31 -29q-70 0 -168 91q-68 68 -100 145l-258 -240q-55 31 -78 68z" />
<glyph unicode="&#xe3;" horiz-adv-x="874" d="M76 332q0 305 150.5 485t369.5 180q106 0 227 -32l-71 -359q-43 -184 -47 -385q0 -94 20 -126t78 -40v-43q-88 -31 -182 -30q-39 0 -86 14l47 305h-2q-59 -150 -147.5 -240t-170.5 -90q-78 0 -132 96.5t-54 264.5zM233 360q0 -121 31 -184t72 -63q74 0 147.5 110.5 t106.5 306.5l57 340q-43 12 -106 13q-131 0 -219.5 -136.5t-88.5 -386.5zM283 1223q0 51 41 85.5t104 34.5q61 0 125 -34l90 -47q53 -31 100 -31q33 0 63 37t32 82q51 -47 51 -105q0 -53 -46 -94t-106 -41q-70 0 -119 29l-94 49q-63 35 -106 35q-29 0 -54.5 -34t-27.5 -73 q-53 39 -53 107z" />
<glyph unicode="&#xe4;" horiz-adv-x="874" d="M76 332q0 305 150.5 485t369.5 180q106 0 227 -32l-71 -359q-43 -184 -47 -385q0 -94 20 -126t78 -40v-43q-88 -31 -182 -30q-39 0 -86 14l47 305h-2q-59 -150 -147.5 -240t-170.5 -90q-78 0 -132 96.5t-54 264.5zM233 360q0 -121 31 -184t72 -63q74 0 147.5 110.5 t106.5 306.5l57 340q-43 12 -106 13q-131 0 -219.5 -136.5t-88.5 -386.5zM375 1251q0 43 26.5 74t67.5 31q70 0 70 -88q0 -43 -27 -74t-68 -31q-69 0 -69 88zM680 1251q0 43 26.5 74t67.5 31q70 0 70 -88q0 -43 -26.5 -74t-67.5 -31q-70 0 -70 88z" />
<glyph unicode="&#xe5;" horiz-adv-x="874" d="M76 332q0 305 150.5 485t369.5 180q106 0 227 -32l-71 -359q-43 -184 -47 -385q0 -94 20 -126t78 -40v-43q-88 -31 -182 -30q-39 0 -86 14l47 305h-2q-59 -150 -147.5 -240t-170.5 -90q-78 0 -132 96.5t-54 264.5zM233 360q0 -121 31 -184t72 -63q74 0 147.5 110.5 t106.5 306.5l57 340q-43 12 -106 13q-131 0 -219.5 -136.5t-88.5 -386.5zM426 1262q0 74 54.5 128t129.5 54q82 0 136.5 -50.5t54.5 -129.5q0 -74 -55.5 -126.5t-133.5 -52.5q-80 0 -133 49.5t-53 127.5zM512 1261.5q0 -49.5 26.5 -80t71.5 -30.5q47 0 76 29.5t29 81.5 q0 49 -29 82.5t-76 33.5q-43 0 -70.5 -33.5t-27.5 -83z" />
<glyph unicode="&#xe6;" horiz-adv-x="1236" d="M84 332q0 297 147.5 481t370.5 184q125 0 209 -67q90 74 201 74q219 0 219 -211q0 -172 -148.5 -281t-341.5 -109q0 -176 45 -241.5t140 -65.5q59 0 124.5 29t98.5 74q18 -25 18 -49q0 -76 -85 -128.5t-210 -52.5q-127 0 -201.5 77t-84.5 206h-2q-55 -113 -141.5 -197 t-172.5 -84q-78 0 -132 97.5t-54 263.5zM242 360q0 -121 30.5 -182t71.5 -61q74 0 149.5 110.5t104.5 302.5l51 340q-55 10 -100 11q-133 0 -220 -137.5t-87 -383.5zM750 498q141 0 229 70.5t88 187.5q0 133 -98 133q-74 0 -146.5 -113.5t-72.5 -277.5z" />
<glyph unicode="&#xe7;" horiz-adv-x="686" d="M78 332q0 319 126 495.5t302 176.5q88 0 133 -28t45 -71q0 -78 -47 -143q-70 119 -176 119q-84 0 -154.5 -135.5t-70.5 -383.5q0 -133 44 -201.5t105 -68.5q111 0 209 123q18 -18 18 -55q0 -76 -63.5 -130.5t-177.5 -62.5l-6 -71q66 0 102.5 -31t36.5 -84 q0 -84 -78 -148.5t-182 -64.5q-66 0 -107 46t-41 120q86 -68 170 -68q47 0 78 22.5t31 55.5q0 74 -123 74l47 149q-100 14 -160.5 107.5t-60.5 257.5z" />
<glyph unicode="&#xe8;" horiz-adv-x="733" d="M78 326q0 322 132 500t298 178q219 0 219 -211q0 -174 -147.5 -282t-341.5 -108q0 -176 44 -241.5t140 -65.5q57 0 124.5 30t98.5 73q20 -20 21 -49q0 -74 -87 -127.5t-210 -53.5q-133 0 -212 90.5t-79 266.5zM246 498q141 0 229 70.5t88 187.5q0 133 -98 133 q-76 0 -147.5 -112.5t-71.5 -278.5zM360 1333q0 92 134 92q16 -96 65 -202.5t103 -159.5l-31 -8q-90 25 -180.5 115.5t-90.5 162.5z" />
<glyph unicode="&#xe9;" horiz-adv-x="733" d="M78 326q0 322 132 500t298 178q219 0 219 -211q0 -174 -147.5 -282t-341.5 -108q0 -176 44 -241.5t140 -65.5q57 0 124.5 30t98.5 73q20 -20 21 -49q0 -74 -87 -127.5t-210 -53.5q-133 0 -212 90.5t-79 266.5zM246 498q141 0 229 70.5t88 187.5q0 133 -98 133 q-76 0 -147.5 -112.5t-71.5 -278.5zM418 1063q51 53 101 160.5t67 201.5q133 0 133 -92q0 -70 -91 -162t-179 -116z" />
<glyph unicode="&#xea;" horiz-adv-x="733" d="M78 326q0 322 132 500t298 178q219 0 219 -211q0 -174 -147.5 -282t-341.5 -108q0 -176 44 -241.5t140 -65.5q57 0 124.5 30t98.5 73q20 -20 21 -49q0 -74 -87 -127.5t-210 -53.5q-133 0 -212 90.5t-79 266.5zM201 1151l305 266l78 15l250 -316l-29 -29q-70 0 -168 91 q-66 66 -102 145l-259 -240q-55 33 -75 68zM246 498q141 0 229 70.5t88 187.5q0 133 -98 133q-76 0 -147.5 -112.5t-71.5 -278.5z" />
<glyph unicode="&#xeb;" horiz-adv-x="733" d="M78 326q0 322 132 500t298 178q219 0 219 -211q0 -174 -147.5 -282t-341.5 -108q0 -176 44 -241.5t140 -65.5q57 0 124.5 30t98.5 73q20 -20 21 -49q0 -74 -87 -127.5t-210 -53.5q-133 0 -212 90.5t-79 266.5zM246 498q141 0 229 70.5t88 187.5q0 133 -98 133 q-76 0 -147.5 -112.5t-71.5 -278.5zM285 1251q0 43 26.5 74t67.5 31q70 0 70 -88q0 -43 -27 -74t-68 -31q-69 0 -69 88zM590 1251q0 43 26.5 74t67.5 31q70 0 70 -88q0 -43 -27 -74t-68 -31q-69 0 -69 88z" />
<glyph unicode="&#xec;" horiz-adv-x="452" d="M88 922v39q92 35 205 34q59 0 92 -12l-92 -602q-16 -123 -17 -219q0 -90 82 -117v-35q-68 -29 -153 -28q-98 0 -99 94q0 41 29 270l66 416l10 121zM164 1333q0 92 133 92q18 -96 66.5 -203.5t101.5 -158.5l-33 -8q-88 25 -178 116.5t-90 161.5z" />
<glyph unicode="&#xed;" horiz-adv-x="452" d="M88 922v39q92 35 205 34q59 0 92 -12l-92 -602q-16 -123 -17 -219q0 -90 82 -117v-35q-68 -29 -153 -28q-98 0 -99 94q0 41 29 270l66 416l10 121zM176 1063q55 53 103.5 159.5t64.5 202.5q133 0 133 -92q0 -72 -89 -163t-179 -115z" />
<glyph unicode="&#xee;" horiz-adv-x="452" d="M-2 1151l303 266l80 15l252 -316l-31 -29q-72 0 -168 91q-66 61 -100 145l-258 -240q-51 29 -78 68zM88 922v39q92 35 205 34q59 0 92 -12l-92 -602q-16 -123 -17 -219q0 -90 82 -117v-35q-68 -29 -153 -28q-98 0 -99 94q0 41 29 270l66 416l10 121z" />
<glyph unicode="&#xef;" horiz-adv-x="452" d="M88 922v39q92 35 205 34q59 0 92 -12l-92 -602q-16 -123 -17 -219q0 -90 82 -117v-35q-68 -29 -153 -28q-98 0 -99 94q0 41 29 270l66 416l10 121zM88 1251q0 43 26.5 74t67.5 31q70 0 70 -88q0 -43 -26.5 -74t-67.5 -31q-70 0 -70 88zM393 1251q0 43 26.5 74t67.5 31 q70 0 70 -88q0 -43 -26.5 -74t-67.5 -31q-70 0 -70 88z" />
<glyph unicode="&#xf0;" horiz-adv-x="886" d="M12 1368q0 102 215 102q154 0 295 -102l213 115l39 -72l-184 -100q223 -215 223 -619q0 -324 -134 -521.5t-306 -197.5q-127 0 -210 95.5t-83 269.5q0 307 134 487.5t314 180.5q51 0 97 -35l2 2q-51 156 -172 266l-281 -152l-41 72l252 135q-96 61 -172 62 q-98 0 -195 -33q-6 20 -6 45zM242 410q0 -164 47 -243t121 -79q86 0 160.5 141.5t74.5 393.5q0 137 -6 215q-55 49 -152 49q-90 0 -167.5 -136t-77.5 -341z" />
<glyph unicode="&#xf1;" horiz-adv-x="929" d="M82 922v39q92 35 203 34q43 0 84 -14l-66 -313h2q72 158 168 244.5t201 86.5q72 0 117 -49t45 -139q0 -37 -31 -258l-37 -221q-16 -125 -16 -170q0 -88 96 -107v-35q-74 -39 -164 -38q-100 0 -100 94q0 59 24 217l39 235q20 127 21 207q0 123 -90 123 q-92 0 -186.5 -152.5t-100.5 -359.5l-12 -346h-175l103 883zM244 1223q0 51 41 85.5t104 34.5q57 0 125 -34l90 -47q53 -31 103 -31q33 0 61.5 36t28.5 83q53 -47 53 -105q0 -53 -46 -94t-106 -41q-70 0 -118 29l-95 49q-63 35 -106 35q-29 0 -55.5 -34t-26.5 -73 q-53 39 -53 107z" />
<glyph unicode="&#xf2;" horiz-adv-x="872" d="M80 338q0 307 134 487.5t314 180.5q129 0 207 -86t78 -256q0 -307 -137 -499t-303 -192q-127 0 -210 95.5t-83 269.5zM242 410q0 -164 47 -243t121 -79q86 0 160.5 141.5t74.5 393.5q0 131 -43 197.5t-115 66.5q-90 0 -167.5 -136t-77.5 -341zM369 1333q0 92 133 92 q16 -96 65 -202.5t103 -159.5l-31 -8q-88 25 -179 116.5t-91 161.5z" />
<glyph unicode="&#xf3;" horiz-adv-x="872" d="M80 338q0 307 134 487.5t314 180.5q129 0 207 -86t78 -256q0 -307 -137 -499t-303 -192q-127 0 -210 95.5t-83 269.5zM242 410q0 -164 47 -243t121 -79q86 0 160.5 141.5t74.5 393.5q0 131 -43 197.5t-115 66.5q-90 0 -167.5 -136t-77.5 -341zM412 1063q53 53 102 160.5 t64 201.5q135 0 135 -92q0 -70 -90.5 -162t-178.5 -116z" />
<glyph unicode="&#xf4;" horiz-adv-x="872" d="M80 338q0 307 134 487.5t314 180.5q129 0 207 -86t78 -256q0 -307 -137 -499t-303 -192q-127 0 -210 95.5t-83 269.5zM229 1151l303 266l80 15l250 -316l-28 -29q-72 0 -168 91q-66 61 -101 145l-258 -240q-51 29 -78 68zM242 410q0 -164 47 -243t121 -79 q86 0 160.5 141.5t74.5 393.5q0 131 -43 197.5t-115 66.5q-90 0 -167.5 -136t-77.5 -341z" />
<glyph unicode="&#xf5;" horiz-adv-x="872" d="M80 338q0 307 134 487.5t314 180.5q129 0 207 -86t78 -256q0 -307 -137 -499t-303 -192q-127 0 -210 95.5t-83 269.5zM240 1223q0 51 41 85.5t104 34.5q61 0 125 -34l92 -47q53 -31 98 -31q33 0 62 36t31 83q51 -45 51 -105q0 -53 -45 -94t-103 -41q-68 0 -123 29l-92 49 q-61 35 -104 35q-31 0 -56.5 -34t-27.5 -73q-53 44 -53 107zM242 410q0 -164 47 -243t121 -79q86 0 160.5 141.5t74.5 393.5q0 131 -43 197.5t-115 66.5q-90 0 -167.5 -136t-77.5 -341z" />
<glyph unicode="&#xf6;" horiz-adv-x="872" d="M80 338q0 307 134 487.5t314 180.5q129 0 207 -86t78 -256q0 -307 -137 -499t-303 -192q-127 0 -210 95.5t-83 269.5zM242 410q0 -164 47 -243t121 -79q86 0 160.5 141.5t74.5 393.5q0 131 -43 197.5t-115 66.5q-90 0 -167.5 -136t-77.5 -341zM309 1251q0 43 26.5 74 t67.5 31q70 0 70 -88q0 -43 -26.5 -74t-67.5 -31q-70 0 -70 88zM614 1251q0 43 27 74t68 31q70 0 69 -88q0 -43 -26.5 -74t-67.5 -31q-70 0 -70 88z" />
<glyph unicode="&#xf7;" d="M90 410l12 104h863l-13 -104h-862zM387 76q4 39 38 70.5t75 31.5q37 0 56 -27.5t15 -68.5q-4 -37 -36.5 -67.5t-69.5 -30.5q-41 0 -61.5 26.5t-16.5 65.5zM479 833.5q4 38.5 38 70.5t75 32q37 0 57.5 -27.5t14.5 -68.5q-4 -35 -36 -66t-69 -31q-43 0 -63.5 26t-16.5 64.5 z" />
<glyph unicode="&#xf8;" horiz-adv-x="872" d="M-23 -115l154 228q-51 90 -51 225q0 307 134 487.5t314 180.5q102 0 174 -56l119 174l66 -34l-133 -195q59 -84 59 -231q0 -307 -137 -499t-303 -192q-111 0 -191 74l-133 -197zM242 410q0 -76 8 -123l356 522q-41 78 -119 78q-90 0 -167.5 -136t-77.5 -341zM276 188 q43 -100 134 -100q86 0 160.5 141.5t74.5 393.5q0 39 -8 96z" />
<glyph unicode="&#xf9;" horiz-adv-x="894" d="M104 166q0 35 23 153l47 242q31 150 31 248q0 92 -94 115v34q78 37 161 37q100 0 101 -94q0 -72 -43 -317l-45 -228q-18 -82 -19 -153q0 -88 72 -88q84 0 179 135t112 348l22 354q88 39 185 39l-58 -319q-51 -268 -51 -449q0 -96 19.5 -128t74.5 -40v-43 q-98 -31 -184 -30q-49 0 -84 14l55 280h-2q-66 -117 -163 -208t-181 -91q-70 0 -114 52.5t-44 136.5zM381 1333q0 92 135 92q14 -94 63.5 -201.5t102.5 -160.5l-33 -8q-88 25 -178 116.5t-90 161.5z" />
<glyph unicode="&#xfa;" horiz-adv-x="894" d="M104 166q0 35 23 153l47 242q31 150 31 248q0 92 -94 115v34q78 37 161 37q100 0 101 -94q0 -72 -43 -317l-45 -228q-18 -82 -19 -153q0 -88 72 -88q84 0 179 135t112 348l22 354q88 39 185 39l-58 -319q-51 -268 -51 -449q0 -96 19.5 -128t74.5 -40v-43 q-98 -31 -184 -30q-49 0 -84 14l55 280h-2q-66 -117 -163 -208t-181 -91q-70 0 -114 52.5t-44 136.5zM420 1063q53 53 102 159.5t66 202.5q133 0 133 -92q0 -72 -90 -163t-180 -115z" />
<glyph unicode="&#xfb;" horiz-adv-x="894" d="M104 166q0 35 23 153l47 242q31 150 31 248q0 92 -94 115v34q78 37 161 37q100 0 101 -94q0 -72 -43 -317l-45 -228q-18 -82 -19 -153q0 -88 72 -88q84 0 179 135t112 348l22 354q88 39 185 39l-58 -319q-51 -268 -51 -449q0 -96 19.5 -128t74.5 -40v-43 q-98 -31 -184 -30q-49 0 -84 14l55 280h-2q-66 -117 -163 -208t-181 -91q-70 0 -114 52.5t-44 136.5zM227 1151l303 266l78 15l252 -316l-31 -29q-70 0 -165 91q-66 66 -103 145l-258 -240q-53 29 -76 68z" />
<glyph unicode="&#xfc;" horiz-adv-x="894" d="M104 166q0 35 23 153l47 242q31 150 31 248q0 92 -94 115v34q78 37 161 37q100 0 101 -94q0 -72 -43 -317l-45 -228q-18 -82 -19 -153q0 -88 72 -88q84 0 179 135t112 348l22 354q88 39 185 39l-58 -319q-51 -268 -51 -449q0 -96 19.5 -128t74.5 -40v-43 q-98 -31 -184 -30q-49 0 -84 14l55 280h-2q-66 -117 -163 -208t-181 -91q-70 0 -114 52.5t-44 136.5zM301 1251q0 43 26.5 74t67.5 31q70 0 70 -88q0 -43 -26.5 -74t-67.5 -31q-70 0 -70 88zM606 1251q0 43 26.5 74t67.5 31q70 0 70 -88q0 -43 -26.5 -74t-67.5 -31 q-70 0 -70 88z" />
<glyph unicode="&#xfd;" horiz-adv-x="747" d="M-266 -391q0 45 14 74q74 -41 191 -41q74 0 148.5 67.5t131.5 204.5l29 70l-135 901l-90 37v43q92 33 167 32q35 0 84 -14l93 -829h2q86 154 155.5 359.5t69.5 303.5q0 76 -72 117v33q61 31 129 30q106 0 107 -123q0 -154 -183 -509l-231 -453q-106 -209 -223 -309.5 t-227 -100.5q-74 0 -117 29t-43 78zM350 1063q55 53 103.5 159.5t64.5 202.5q133 0 133 -92q0 -72 -89 -163t-179 -115z" />
<glyph unicode="&#xfe;" horiz-adv-x="876" d="M8 -489l37 172l223 1679l-123 39v39q96 33 201 33q51 0 94 -13l-129 -792h2q51 147 140.5 242.5t169 95.5t134 -88.5t54.5 -251.5q0 -317 -137 -499.5t-309 -182.5q-76 0 -138 34l-28 -292q-8 -82 9 -119t62 -49v-35q-72 -25 -159 -25q-60 1 -103 13zM246 98 q49 -12 116 -12q117 0 204 135t87 377q0 266 -102 266q-72 0 -152 -125t-106 -329z" />
<glyph unicode="&#xff;" horiz-adv-x="747" d="M-266 -391q0 45 14 74q74 -41 191 -41q74 0 148.5 67.5t131.5 204.5l29 70l-135 901l-90 37v43q92 33 167 32q35 0 84 -14l93 -829h2q86 154 155.5 359.5t69.5 303.5q0 76 -72 117v33q61 31 129 30q106 0 107 -123q0 -154 -183 -509l-231 -453q-106 -209 -223 -309.5 t-227 -100.5q-74 0 -117 29t-43 78zM219 1251q0 43 26.5 74t67.5 31q70 0 70 -88q0 -43 -26.5 -74t-67.5 -31q-70 0 -70 88zM524 1251q0 43 27 74t67 31q70 0 70 -88q0 -43 -26.5 -74t-67.5 -31q-70 0 -70 88z" />
<glyph unicode="&#x152;" horiz-adv-x="1470" d="M104 438q0 401 172.5 641t413.5 240q72 0 154 -16h637l-35 -275h-57l-5 39q-12 127 -137 127h-221l-59 -485h231q94 0 121 82l10 30h57l-38 -354h-58l-2 35q-2 57 -24.5 80.5t-67.5 23.5h-242l-57 -497h250q145 0 192 98l19 43h59l-57 -250h-666q-172 -41 -227 -41 q-160 0 -261.5 125t-101.5 354zM283 475q0 -188 67.5 -290.5t163.5 -102.5q125 0 225 80l99 854q0 4 5 63.5t5 61.5q-84 61 -193 61q-152 0 -262 -195.5t-110 -531.5z" />
<glyph unicode="&#x153;" horiz-adv-x="1257" d="M72 328q0 322 125 500t313 178q178 0 235 -166q55 78 132 121t155 43q104 0 161.5 -53.5t57.5 -157.5q0 -172 -148.5 -281t-340.5 -109q0 -176 45 -241.5t139 -65.5q57 0 125 30t98 73q20 -20 21 -49q0 -76 -86 -128.5t-211 -52.5q-203 0 -266 178q-111 -174 -281 -174 q-131 0 -202.5 90.5t-71.5 264.5zM233 410q0 -317 158 -318q84 0 152.5 139.5t68.5 393.5q0 262 -151 262q-90 0 -159 -137t-69 -340zM770 498q139 0 228 70.5t89 187.5q0 133 -98 133q-76 0 -147.5 -112.5t-71.5 -278.5z" />
<glyph unicode="&#x178;" horiz-adv-x="897" d="M25 1243v41q78 31 165 31q92 0 166 -21v-34q-29 -6 -43 -26t-8 -38l172 -530h2l301 551l-110 26v41q86 31 188 31q70 0 119 -21v-34q-47 -14 -76 -64l-381 -655l-53 -457l131 -29v-41q-92 -31 -205 -30q-82 0 -149 20v35q59 23 65 90l53 410l-235 675zM332 1497 q0 43 26.5 74t67.5 31q70 0 70 -89q0 -43 -27 -73.5t-68 -30.5q-69 0 -69 88zM637 1497q0 43 26.5 74t67.5 31q70 0 70 -89q0 -43 -26.5 -73.5t-67.5 -30.5q-70 0 -70 88z" />
<glyph unicode="&#x2c6;" horiz-adv-x="921" d="M233 1151l291 268l76 13l240 -316l-29 -29q-70 0 -162 91q-66 70 -96 145l-246 -240q-49 29 -74 68z" />
<glyph unicode="&#x2dc;" horiz-adv-x="921" d="M264 1225q0 49 40 85t99 36q57 0 121 -35l86 -47q53 -33 97 -33q31 0 58.5 37t29.5 84q49 -45 49 -107q0 -53 -43 -94t-99 -41q-68 0 -116 29l-90 49q-57 35 -101 35q-29 0 -53.5 -35t-26.5 -72q-51 41 -51 109z" />
<glyph unicode="&#x2000;" horiz-adv-x="874" />
<glyph unicode="&#x2001;" horiz-adv-x="1751" />
<glyph unicode="&#x2002;" horiz-adv-x="874" />
<glyph unicode="&#x2003;" horiz-adv-x="1751" />
<glyph unicode="&#x2004;" horiz-adv-x="583" />
<glyph unicode="&#x2005;" horiz-adv-x="436" />
<glyph unicode="&#x2006;" horiz-adv-x="290" />
<glyph unicode="&#x2007;" horiz-adv-x="290" />
<glyph unicode="&#x2008;" horiz-adv-x="217" />
<glyph unicode="&#x2009;" horiz-adv-x="350" />
<glyph unicode="&#x200a;" horiz-adv-x="96" />
<glyph unicode="&#x2010;" horiz-adv-x="610" d="M78 471l43 137l420 37l-49 -145z" />
<glyph unicode="&#x2011;" horiz-adv-x="610" d="M78 471l43 137l420 37l-49 -145z" />
<glyph unicode="&#x2012;" horiz-adv-x="610" d="M78 471l43 137l420 37l-49 -145z" />
<glyph unicode="&#x2013;" horiz-adv-x="1024" d="M0 532l14 109h1024l-14 -109h-1024z" />
<glyph unicode="&#x2014;" horiz-adv-x="2048" d="M0 532l14 109h2048l-14 -109h-2048z" />
<glyph unicode="&#x2018;" horiz-adv-x="501" d="M188 1083q0 121 98.5 240t166.5 119q27 0 51 -10q-68 -66 -110 -151t-42 -153l76 -86q-61 -86 -137 -86q-43 0 -73 34t-30 93z" />
<glyph unicode="&#x2019;" horiz-adv-x="501" d="M135 965q68 66 111 150.5t43 152.5l-76 86q61 86 137 86q43 0 73 -34t30 -91q0 -123 -98.5 -241t-166.5 -118q-30 1 -53 9z" />
<glyph unicode="&#x201a;" horiz-adv-x="501" d="M35 -254q68 66 110.5 152t42.5 151l-75 86q61 86 135 86q43 0 73.5 -33.5t30.5 -91.5q0 -123 -99 -241.5t-165 -118.5q-26 0 -53 10z" />
<glyph unicode="&#x201c;" horiz-adv-x="776" d="M178 1083q0 123 98.5 241t165.5 118q25 0 52 -10q-68 -66 -112 -151t-44 -153l78 -86q-61 -86 -137 -86q-43 0 -72 34t-29 93zM489 1083q0 121 98.5 240t166.5 119q27 0 53 -10q-68 -66 -111 -151t-43 -153l76 -86q-61 -86 -137 -86q-43 0 -73 34t-30 93z" />
<glyph unicode="&#x201d;" horiz-adv-x="776" d="M129 965q68 66 111 150.5t43 152.5l-76 86q61 86 135 86q43 0 73.5 -34t30.5 -91q0 -123 -99 -241t-165 -118q-30 1 -53 9zM436 965q68 66 111 150.5t43 152.5l-78 86q61 86 139 86q41 0 71 -34t30 -91q0 -123 -98.5 -241t-166.5 -118q-28 1 -51 9z" />
<glyph unicode="&#x201e;" horiz-adv-x="776" d="M18 -254q68 66 112 151t44 152l-76 86q59 86 135 86q43 0 73 -33.5t30 -91.5q0 -123 -98.5 -241.5t-165.5 -118.5q-23 0 -54 10zM315 -254q68 66 111 152t43 151l-76 86q61 86 135 86q43 0 73 -33.5t30 -91.5q0 -123 -98.5 -241.5t-165.5 -118.5q-27 0 -52 10z" />
<glyph unicode="&#x2022;" horiz-adv-x="739" d="M123 540.5q0 104.5 71.5 179.5t176.5 75q102 0 173.5 -75t71.5 -179.5t-71.5 -179t-173.5 -74.5q-104 0 -176 74.5t-72 179z" />
<glyph unicode="&#x2026;" horiz-adv-x="1282" d="M72 84q0 55 35.5 95t85.5 40q45 0 71.5 -29.5t26.5 -80.5q0 -53 -36 -91t-85 -38q-45 0 -71.5 28.5t-26.5 75.5zM479 84q0 55 36 95t83 40t73.5 -29.5t26.5 -80.5q0 -53 -35.5 -91t-84.5 -38q-47 0 -73 27.5t-26 76.5zM887 84q0 55 34.5 95t86.5 40q45 0 70.5 -29.5 t25.5 -80.5q0 -53 -35 -91t-84 -38q-45 0 -71.5 28.5t-26.5 75.5z" />
<glyph unicode="&#x202f;" horiz-adv-x="350" />
<glyph unicode="&#x2039;" horiz-adv-x="536" d="M68 520l120 160q162 219 246 219q51 0 94 -37q-127 -98 -243 -246l-70 -90l84 -164q66 -131 147 -206q-63 -25 -120 -25q-86 0 -152 152z" />
<glyph unicode="&#x203a;" horiz-adv-x="536" d="M8 166q117 90 244 244l70 90l-84 166q-68 129 -150 204q68 25 121 25q86 0 153 -150l107 -237l-121 -162q-162 -219 -246 -219q-49 0 -94 39z" />
<glyph unicode="&#x205f;" horiz-adv-x="436" />
<glyph unicode="&#x20ac;" horiz-adv-x="1062" d="M76 459l6 69l131 9q4 92 14 157l-133 -8l6 70l142 8q59 272 213.5 416.5t343.5 144.5q141 0 245 -37l-38 -262h-54l-10 49q-14 76 -54 107.5t-116 31.5q-113 0 -217 -113.5t-152 -326.5l537 33l-6 -66l-543 -36q-10 -66 -14 -158l545 33l-7 -66l-540 -37 q0 -190 69.5 -292.5t176.5 -102.5q94 0 149 34t94 117l21 52h57l-33 -250q-143 -66 -323 -66q-178 0 -276.5 123t-98.5 369v6z" />
<glyph unicode="&#x2122;" horiz-adv-x="1482" d="M188 1155l19 152q27 0 127 -4.5t145 -4.5q137 0 252 9l-20 -152h-41v19q-8 59 -70 59h-72l-65 -524l78 -17v-28q-61 -14 -135 -15q-72 0 -109 13v24q41 12 45 43l61 504h-65q-49 0 -69.5 -13.5t-35.5 -48.5l-8 -16h-37zM713 662v24q35 12 43 37l125 514l-60 20v31 q51 14 119 15h53l74 -447h4l162 447h35q68 0 114 -9v-34l-55 -19l25 -532l61 -17v-28q-61 -14 -104 -15q-80 0 -119 13v24q37 14 37 51l2 406h-2l-180 -502l-31 4l-92 502h-2l-91 -438l58 -17v-28q-41 -14 -92 -14t-84 12z" />
<glyph unicode="&#xe000;" horiz-adv-x="995" d="M0 995h995v-995h-995v995z" />
<glyph unicode="&#xfb01;" horiz-adv-x="948" d="M-92 -436q154 47 170 190l123 1082h-109q0 47 36 80.5t85 33.5l18 191q16 143 126 235t272 92q248 0 248 -98q0 -45 -25 -104q-55 37 -135 65.5t-135 28.5q-78 0 -132.5 -58.5t-64.5 -156.5l-23 -201h222q102 51 204 51q59 0 93 -12l-93 -602q-16 -123 -16 -219 q0 -90 82 -117v-35q-68 -29 -154 -28q-98 0 -98 94q0 80 29 270l65 416l6 90h-350l-116 -1085q-14 -137 -68.5 -205t-132.5 -68q-84 0 -127 39v31z" />
<glyph unicode="&#xfb02;" horiz-adv-x="954" d="M-92 -436q154 47 170 190v-2l123 1084h-109q0 47 36 80.5t85 33.5l20 191q14 139 125 233t258 94q72 0 119 -16q61 20 121 21q57 0 94 -13l-153 -1073q-16 -104 -17 -225q0 -88 92 -117v-35q-68 -29 -157 -28q-102 0 -103 96q0 82 25 268l137 971q-111 43 -199 43 q-66 0 -122 -60.5t-66 -154.5l-25 -199h95q53 0 164 8q0 -61 -40 -87.5t-145 -26.5h-86l-114 -1073q-14 -137 -68.5 -205t-132.5 -68q-84 0 -127 39v31z" />
<glyph unicode="&#xfb03;" horiz-adv-x="1468" d="M-92 -436q154 47 170 190l123 1082h-109q0 47 36 80.5t85 33.5l18 191q14 135 126 231t257 96q70 0 107 -21.5t37 -55.5q0 -57 -27 -88q-76 57 -160 57q-70 0 -123 -58.5t-63 -156.5l-23 -201h373l19 193q12 143 123.5 237t273.5 94q248 0 248 -98q0 -47 -27 -104 q-53 37 -133 65.5t-135 28.5q-78 0 -132 -58.5t-65 -156.5l-22 -201h219q102 51 205 51q59 0 92 -12l-92 -602q-16 -119 -17 -219q0 -90 82 -117v-35q-68 -29 -153 -28q-98 0 -99 94q0 80 29 270l66 416l6 90h-349l-116 -1085q-14 -137 -68.5 -205t-132.5 -68q-84 0 -127 39 v31q154 47 168 188l125 1100h-371l-116 -1085q-14 -137 -68.5 -205t-132.5 -68q-84 0 -127 39v31z" />
<glyph unicode="&#xfb04;" horiz-adv-x="1478" d="M-92 -436q154 47 170 190l123 1082h-109q0 47 36 80.5t85 33.5l18 191q16 139 126 233t257 94q70 0 107 -21.5t37 -55.5q0 -57 -27 -88q-76 57 -160 57q-70 0 -123 -58.5t-63 -156.5l-23 -201h367l25 197q16 139 129.5 233t265.5 94q57 0 113 -16q74 20 118 21 q57 0 95 -13l-154 -1073q-16 -104 -16 -225q0 -88 92 -117v-35q-68 -29 -158 -28q-102 0 -102 96q0 82 24 268l137 971q-111 43 -190 43q-72 0 -131 -60.5t-70 -154.5l-24 -199h92q45 0 155 8q0 -63 -35.5 -88.5t-138.5 -25.5h-86l-114 -1073q-14 -137 -68.5 -205 t-132.5 -68q-84 0 -127 39v31q154 47 168 188l127 1100h-371l-116 -1085q-14 -137 -68.5 -205t-132.5 -68q-84 0 -127 39v31z" />
<glyph horiz-adv-x="286" />
</font>
</defs>
</svg>
