<?xml version="1.0" standalone="no"?>
<!DOCTYPE svg PUBLIC "-//W3C//DTD SVG 1.1//EN" "http://www.w3.org/Graphics/SVG/1.1/DTD/svg11.dtd" >
<svg xmlns="http://www.w3.org/2000/svg">
<metadata>
This is a custom SVG webfont generated by Font Squirrel.
Copyright   : Bij regeling van 16 juni 2008 Stcrt 2008 nr 115 heeft de Staat der Nederlanden Ministerie van Algemene Zaken een auteursrechtelijk voorbehoud gemaakt als bedoeld in artikel 15b van de Auteurswet 1912 met betrekking tot het gebruik en de toepassing van het ontwerp van het voor de Rijksoverheid algemeen geldende Rijkslogo en de huisstijl waaronder begrepen het gebruik van de lettertypes RijksoverheidSerif en RijksoverheidSans   Genoemd voorbehoud is niet van toepassing op partijen aan wie door of vanwege de Rijksoverheid het Rijkslogo en de huisstijl ter beschikking is gesteld met het oog op het gebruik bij de uitoefening van werkzaamheden of diensten in opdracht van de Rijksoverheid Ieder gebruik in welke vorm of wijze hetzij elektronisch mechanisch door fotokopien opnamen of enige andere manier is verboden tenzij er voorafgaand schriftelijke toestemming van de Rijksoverheid is verkregen Voor toestemming kunt u zich wenden tot de Rijksvoorlichtingsdienst   Auteur Peter Verheul
Designer    : Peter Verheul
Foundry     : Peter Verheul
Foundry URL : httpwwwfarhillnl
</metadata>
<defs>
<font id="RijksoverheidSansTextBold" horiz-adv-x="1075" >
<font-face units-per-em="2048" ascent="1657" descent="-391" />
<missing-glyph horiz-adv-x="409" />
<glyph unicode=" "  horiz-adv-x="409" />
<glyph unicode="&#x09;" horiz-adv-x="409" />
<glyph unicode="&#xa0;" horiz-adv-x="409" />
<glyph unicode="!" horiz-adv-x="626" d="M147 164q0 78 43 129t121 51q168 0 168 -180q0 -78 -43 -126t-121 -48q-168 0 -168 174zM182 424v909l283 23l-25 -627v-299z" />
<glyph unicode="&#x22;" horiz-adv-x="708" d="M72 1413h243l-28 -448h-187zM393 1413h244l-29 -448h-186z" />
<glyph unicode="#" horiz-adv-x="1267" d="M37 340l16 176h252l39 313h-242l17 177h248l43 337h180l-41 -337h256l43 337h182l-43 -337h246l-19 -177h-249l-39 -313h241l-18 -176h-246l-39 -340h-182l41 340h-258l-41 -340h-180l41 340h-248zM487 516h258l39 313h-258z" />
<glyph unicode="$" d="M88 8v230q180 -33 348 -33q131 0 206 48t75 116q0 63 -41 103t-160 81l-168 57q-244 82 -244 342q0 145 92.5 246.5t260.5 138.5v222h182v-201q150 0 285 -27l-17 -221q-145 27 -284 27q-131 0 -194.5 -42t-63.5 -114q0 -59 37.5 -97t127.5 -67l166 -51 q150 -47 217.5 -131t67.5 -215q0 -154 -97.5 -266.5t-269.5 -153.5v-215h-182v201h-4q-207 -1 -340 22z" />
<glyph unicode="%" horiz-adv-x="1683" d="M45 956q0 195 100.5 298.5t247.5 103.5q150 0 242 -93.5t92 -291.5q0 -186 -102.5 -287.5t-247.5 -101.5q-332 -1 -332 372zM260 975q0 -119 33 -166t92 -47q127 0 127 190q0 229 -125 230q-127 0 -127 -207zM485 8l545 1383l166 -66l-545 -1382zM956 358 q0 195 100.5 298.5t248.5 103.5q150 0 241.5 -93.5t91.5 -291.5q0 -186 -102 -287.5t-248 -101.5q-332 -1 -332 372zM1174 377q0 -119 31.5 -166t90.5 -47q129 0 129 190q0 229 -127 230q-124 0 -124 -207z" />
<glyph unicode="&#x26;" horiz-adv-x="1433" d="M92 371q0 109 73 192.5t210 126.5v6q-233 57 -234 283q0 166 127 274.5t342 108.5q139 0 246 -33l-16 -213q-111 25 -228 25q-94 0 -147 -41t-53 -113q0 -180 286 -180h66v-217h-86q-147 0 -226 -56.5t-79 -148.5q0 -176 282 -176q174 0 280.5 122t106.5 339h-127v198 h490v-198h-123q0 -322 -180 -504t-486 -182q-272 0 -398 96t-126 291z" />
<glyph unicode="'" horiz-adv-x="387" d="M72 1413h243l-28 -448h-187z" />
<glyph unicode="(" horiz-adv-x="573" d="M59 485q0 473 308 858h176q-289 -401 -289 -849q0 -209 77 -433.5t212 -416.5h-176q-308 388 -308 841z" />
<glyph unicode=")" horiz-adv-x="573" d="M31 -356q289 406 288 850q0 209 -76.5 433t-211.5 416h176q307 -385 307 -839q0 -479 -307 -860h-176z" />
<glyph unicode="*" horiz-adv-x="1116" d="M113 1032l53 182l280 -112l37 -15v39l-22 299h194l-20 -299v-36l29 14l278 113l62 -185l-287 -71l-41 -13l24 -28l191 -228l-154 -114l-155 249l-25 31l-22 -31l-154 -247l-160 108l193 230l24 30l-39 10z" />
<glyph unicode="+" d="M133 508v199h303v303h199v-303h305v-199h-305v-305h-199v305h-303z" />
<glyph unicode="," horiz-adv-x="530" d="M63 -225l115 262q-80 41 -80 139q0 70 46 119t120 49q76 0 122 -46t46 -134q0 -92 -105.5 -240.5t-148.5 -148.5h-115z" />
<glyph unicode="-" horiz-adv-x="798" d="M135 473v229h529v-229h-529z" />
<glyph unicode="." horiz-adv-x="530" d="M98 164q0 80 43 130t123 50t124 -46t44 -134q0 -78 -43 -126t-123 -48q-168 0 -168 174z" />
<glyph unicode="/" horiz-adv-x="645" d="M-80 -328l623 1712l182 -69l-623 -1712z" />
<glyph unicode="0" d="M59 487q0 244 142.5 395.5t349.5 151.5q211 0 338 -132t127 -375.5t-143.5 -394t-348.5 -150.5q-217 0 -341 125.5t-124 379.5zM307 500q0 -307 232 -307q100 0 164.5 88t64.5 241q0 150 -60.5 225.5t-170.5 75.5q-102 0 -166 -88t-64 -235z" />
<glyph unicode="1" horiz-adv-x="778" d="M47 766v195q195 55 375 55h135v-1016h-250v788q-131 1 -260 -22z" />
<glyph unicode="2" horiz-adv-x="1044" d="M86 188q41 176 256 285l145 72q78 41 109 72.5t31 74.5q0 49 -50.5 77t-142.5 28q-145 0 -293 -39v227q180 45 328 45q203 0 308.5 -87t105.5 -243q0 -104 -70 -188t-195 -133l-126 -49q-100 -43 -156 -107v-2h602v-221h-819z" />
<glyph unicode="3" horiz-adv-x="950" d="M57 -139h170q188 0 289.5 63.5t101.5 177.5q0 72 -57 131.5t-153 85.5q-129 -59 -242 -81l-43 196q342 92 500 365h-545v217h745l33 -205q-106 -221 -281 -336v-8q141 -33 221.5 -125t80.5 -225q0 -203 -177.5 -333t-468.5 -130h-174v207z" />
<glyph unicode="4" horiz-adv-x="1081" d="M55 166q119 596 570 854h258v-815h155v-205h-155v-346h-244v346h-530zM274 205h367v586h-4q-289 -203 -363 -586z" />
<glyph unicode="5" horiz-adv-x="1048" d="M119 -141h180q174 0 276.5 68.5t102.5 187.5q0 209 -299 209q-109 0 -242 -15v707h733v-217h-526v-260q74 6 137 6q221 0 337 -108.5t116 -289.5q0 -219 -177 -356t-468 -137h-170v205z" />
<glyph unicode="6" d="M76 545q0 397 210 603t562 206h113v-207h-117q-369 0 -490 -309l4 -4q102 57 254 57q184 0 292 -110.5t108 -309.5q0 -215 -137.5 -352t-337.5 -137q-209 0 -335 142t-126 421zM334 512q0 -168 65.5 -253t157.5 -85q82 0 140.5 65.5t58.5 192.5q0 119 -63.5 184.5 t-166.5 65.5q-109 0 -186 -23q-6 -43 -6 -147z" />
<glyph unicode="7" horiz-adv-x="970" d="M43 797v219h842l37 -209q-457 -489 -457 -1155h-240q0 315 97.5 590.5t318.5 543.5v11h-598z" />
<glyph unicode="8" d="M70 313q0 104 61.5 188.5t202.5 166.5l-64 47q-82 61 -113.5 124.5t-31.5 157.5q0 139 126 252t298 113q193 0 302.5 -91t109.5 -237q0 -111 -53.5 -186.5t-178.5 -147.5l78 -45q113 -66 158 -136t45 -177q0 -158 -133.5 -259t-346.5 -101q-215 0 -337.5 93t-122.5 238z M326 344q0 -78 60 -125t165 -47q90 0 146.5 42t56.5 108q0 49 -30 89t-108 89l-139 88q-84 -63 -117.5 -116.5t-33.5 -127.5zM371 1014q0 -55 18.5 -86t71.5 -68l123 -86q145 104 145 234q0 76 -48 119.5t-136 43.5q-80 0 -127 -42.5t-47 -114.5z" />
<glyph unicode="9" d="M70 545q0 215 135 352t336 137q211 0 333.5 -142t122.5 -419q0 -416 -208.5 -618.5t-561.5 -202.5h-110v205h116q178 0 306.5 83t185.5 240l-4 4q-109 -59 -252 -59q-178 0 -288.5 111.5t-110.5 308.5zM328 586q0 -127 57 -189.5t156 -62.5q121 0 192 26q8 43 8 144 q0 174 -61.5 256t-159.5 82q-90 0 -141 -64.5t-51 -191.5z" />
<glyph unicode=":" horiz-adv-x="530" d="M98 164q0 80 43 130t123 50t124 -46t44 -134q0 -78 -43 -126t-123 -48q-168 0 -168 174zM98 801q0 78 43 128t123 50t124 -46t44 -132q0 -78 -43 -127t-123 -49t-124 45t-44 131z" />
<glyph unicode=";" horiz-adv-x="530" d="M63 -225l115 262q-80 41 -80 139q0 70 46 119t120 49q76 0 122 -46t46 -134q0 -92 -105.5 -240.5t-148.5 -148.5h-115zM98 801q0 78 43 128t123 50t124 -46t44 -132q0 -78 -43 -127t-123 -49t-124 45t-44 131z" />
<glyph unicode="&#x3c;" d="M156 539v137l639 391l102 -180l-471 -277v-4l471 -278l-102 -181z" />
<glyph unicode="=" d="M133 324v198h807v-198h-807zM133 692v199h807v-199h-807z" />
<glyph unicode="&#x3e;" d="M178 328l471 276v4l-471 279l103 180l639 -391v-137l-639 -392z" />
<glyph unicode="?" horiz-adv-x="942" d="M92 1069v223q166 66 354 66q176 0 285 -86t109 -225q0 -123 -49.5 -196t-174.5 -140l-100 -52q-84 -45 -84 -110q0 -53 31 -115l-205 -10q-66 66 -65 156q0 137 155 227l109 59q63 37 87.5 69t24.5 79q0 49 -49 80.5t-139 31.5q-142 0 -289 -57zM201 164q0 80 43 130 t122.5 50t124 -46t44.5 -134q0 -76 -44.5 -125t-121.5 -49q-168 0 -168 174z" />
<glyph unicode="@" horiz-adv-x="1914" d="M88 354q0 223 79 412.5t210 315.5t302 197t357 71q356 0 573.5 -203t217.5 -537q0 -289 -150.5 -458.5t-353.5 -169.5q-100 0 -156.5 42t-81.5 132h-6q-129 -168 -340 -168q-123 0 -196.5 100t-73.5 320q0 262 158.5 441t353.5 179q92 0 147 -20l195 22v-723 q0 -158 82 -157q102 0 186 121.5t84 332.5q0 281 -178 443.5t-475 162.5q-154 0 -295 -60t-249.5 -168t-173 -267.5t-64.5 -345.5q0 -299 147.5 -461t372.5 -162q176 0 338 57v-131q-147 -66 -359 -65q-131 0 -244.5 43t-206.5 129t-146.5 233t-53.5 342zM725 438 q0 -131 30.5 -182t90.5 -51q125 0 225 98v508q-49 4 -102 4q-102 0 -173 -100.5t-71 -276.5z" />
<glyph unicode="A" horiz-adv-x="1232" d="M23 0l393 1343h401l391 -1343h-307l-74 289h-454l-74 -289h-276zM426 502h346l-166 620h-14z" />
<glyph unicode="B" horiz-adv-x="1196" d="M170 0v1343h375q256 0 381 -86t125 -235q0 -121 -57.5 -202t-153.5 -115v-3q127 -27 196.5 -104.5t69.5 -194.5q0 -195 -131 -299t-387 -104h-418zM432 211h146q119 0 182 49t63 143q0 182 -305 183h-86v-375zM432 782h94q244 0 244 187q0 84 -53 124t-180 40h-105v-351z " />
<glyph unicode="C" horiz-adv-x="1093" d="M96 631q0 350 196.5 538.5t500.5 188.5q131 0 264 -27l-19 -225q-117 20 -254 20q-178 0 -292.5 -121.5t-114.5 -349.5q0 -215 115.5 -330.5t281.5 -115.5q141 0 285 27v-218q-143 -33 -299 -32q-295 0 -479.5 166t-184.5 479z" />
<glyph unicode="D" horiz-adv-x="1372" d="M170 0v1343h391q346 0 530.5 -164.5t184.5 -467.5q0 -356 -190.5 -533.5t-536.5 -177.5h-379zM436 217h125q434 0 434 481q0 207 -119.5 317.5t-330.5 110.5h-109v-909z" />
<glyph unicode="E" horiz-adv-x="1003" d="M170 0v1343h717v-217h-451v-327h416v-217h-416v-365h457v-217h-723z" />
<glyph unicode="F" horiz-adv-x="1001" d="M170 0v1343h717v-217h-451v-344h428v-217h-428v-565h-266z" />
<glyph unicode="G" horiz-adv-x="1300" d="M96 631q0 354 202 540.5t533 186.5q168 0 308 -27l-19 -225q-141 20 -297 20q-207 0 -326.5 -121.5t-119.5 -349.5q0 -217 113.5 -334.5t289.5 -117.5q70 0 144 8v254h-197v217h453v-657q-197 -39 -408 -39q-313 0 -494.5 166t-181.5 479z" />
<glyph unicode="H" horiz-adv-x="1396" d="M170 0v1343h266v-540h525v540h266v-1343h-266v571h-525v-571h-266z" />
<glyph unicode="I" horiz-adv-x="604" d="M170 0v1343h266v-1343h-266z" />
<glyph unicode="J" horiz-adv-x="720" d="M16 -4v227q61 -8 107 -8q78 0 124 53.5t46 151.5v923h266v-927q0 -428 -438 -428q-70 0 -105 8z" />
<glyph unicode="K" horiz-adv-x="1269" d="M170 0v1343h266v-548h111l387 548h305l-459 -628l473 -715h-331l-371 578h-115v-578h-266z" />
<glyph unicode="L" horiz-adv-x="923" d="M170 0v1343h266v-1126h455v-217h-721z" />
<glyph unicode="M" horiz-adv-x="1744" d="M152 0l55 1343h418l252 -798h10l254 798h391l63 -1343h-262l-45 1092h-12l-268 -838h-283l-281 838h-12l-35 -1092h-245z" />
<glyph unicode="N" horiz-adv-x="1372" d="M170 0v1343h405l381 -1085h13v1085h235v-1343h-407l-379 1085h-12v-1085h-236z" />
<glyph unicode="O" horiz-adv-x="1480" d="M96 659q0 330 189.5 516.5t470.5 186.5q276 0 452 -173t176 -505q0 -330 -188 -516t-466.5 -186t-456 172.5t-177.5 504.5zM377 682q0 -238 101.5 -350.5t262.5 -112.5q152 0 257.5 111.5t105.5 331.5q0 238 -100.5 351t-262.5 113q-154 0 -259 -111.5t-105 -332.5z" />
<glyph unicode="P" horiz-adv-x="1134" d="M170 0v1343h436q223 0 347 -115.5t124 -307.5q0 -213 -136 -342t-359 -129q-82 0 -146 8v-457h-266zM432 670q49 -8 115 -8q117 0 184.5 63t67.5 176q0 231 -234 232h-133v-463z" />
<glyph unicode="Q" horiz-adv-x="1480" d="M96 659q0 330 189.5 516.5t470.5 186.5q276 0 452 -173t176 -505q0 -240 -102 -405.5t-276 -241.5l342 -391h-328l-277 336h-14q-279 0 -456 172.5t-177 504.5zM377 682q0 -238 101.5 -350.5t262.5 -112.5q152 0 257.5 111.5t105.5 331.5q0 238 -100.5 351t-262.5 113 q-154 0 -259 -111.5t-105 -332.5z" />
<glyph unicode="R" horiz-adv-x="1193" d="M170 0v1343h401q252 0 383 -103t131 -273q0 -133 -64.5 -234.5t-176.5 -154.5l356 -578h-313l-293 502h-158v-502h-266zM432 709h143q104 0 168 61t64 166q0 100 -60.5 148.5t-193.5 48.5h-121v-424z" />
<glyph unicode="S" horiz-adv-x="1083" d="M96 8v230q180 -33 348 -33q131 0 206 48t75 116q0 63 -41 103t-160 81l-168 57q-244 82 -243 342q0 180 141 293t391 113q152 0 287 -27l-17 -221q-145 27 -284 27q-131 0 -194.5 -42t-63.5 -114q0 -59 38 -97t128 -67l166 -51q150 -47 217 -131t67 -215 q0 -195 -148.5 -314.5t-404.5 -119.5q-207 -1 -340 22z" />
<glyph unicode="T" horiz-adv-x="1093" d="M45 1126v217h1004v-217h-369v-1126h-266v1126h-369z" />
<glyph unicode="U" horiz-adv-x="1335" d="M154 465v878h266v-845q0 -279 256 -279q123 0 191.5 70.5t68.5 204.5v849h246v-858q0 -225 -140.5 -364t-377.5 -139q-256 0 -383 123.5t-127 359.5z" />
<glyph unicode="V" horiz-adv-x="1218" d="M23 1343h296l299 -1097h13l289 1097h276l-389 -1343h-397z" />
<glyph unicode="W" horiz-adv-x="1921" d="M23 1343h296l254 -1097h13l260 819l-86 278h287l317 -1097h12l248 1097h274l-348 -1343h-368l-215 756h-11l-227 -756h-360z" />
<glyph unicode="X" horiz-adv-x="1202" d="M31 0l422 688l-392 655h312l235 -421h8l238 421h283l-387 -636l421 -707h-309l-270 475h-8l-267 -475h-286z" />
<glyph unicode="Y" horiz-adv-x="1128" d="M16 1343h299l267 -565h8l260 565h262l-414 -806v-537h-266v537z" />
<glyph unicode="Z" horiz-adv-x="1046" d="M57 0v211l619 903v8h-584v221h891v-210l-621 -904v-8h625v-221h-930z" />
<glyph unicode="[" horiz-adv-x="559" d="M166 -365v1708h348v-151h-166v-1407h166v-150h-348z" />
<glyph unicode="\" horiz-adv-x="645" d="M-80 1315l182 69l623 -1712l-182 -69z" />
<glyph unicode="]" horiz-adv-x="559" d="M45 -213h166v1407h-166v149h348v-1708h-348v152z" />
<glyph unicode="^" d="M92 920l447 448l446 -448l-137 -138l-309 312l-310 -312z" />
<glyph unicode="_" horiz-adv-x="1048" d="M12 -78h1024v-196h-1024v196z" />
<glyph unicode="`" horiz-adv-x="858" d="M168 1425h262l148 -297h-187z" />
<glyph unicode="a" horiz-adv-x="1030" d="M63 272q0 152 115 238t348 86q27 0 73 -1t65 -1v45q0 82 -52.5 123t-173.5 41q-139 0 -286 -62l-33 211q180 76 366 76q422 0 422 -364v-664h-235v63q-119 -76 -285 -75q-156 0 -240 76.5t-84 207.5zM319 293q0 -51 38 -80t106 -29q104 0 201 45v187q-78 4 -129 4 q-216 0 -216 -127z" />
<glyph unicode="b" horiz-adv-x="1144" d="M139 10v1409l252 13v-484q121 80 254 80q197 0 307.5 -125t110.5 -360q0 -262 -155.5 -408.5t-420.5 -146.5q-166 -1 -348 22zM389 211q53 -10 113 -10q305 0 305 323q0 137 -63.5 205t-176.5 68q-88 0 -178 -33v-553z" />
<glyph unicode="c" horiz-adv-x="847" d="M82 489q0 248 145.5 395.5t360.5 147.5q117 0 213 -24l-21 -228q-88 18 -176 19q-121 0 -193.5 -79t-72.5 -220q0 -147 72.5 -221t195.5 -74q90 0 191 26v-215q-94 -29 -215 -28q-233 0 -366.5 125.5t-133.5 375.5z" />
<glyph unicode="d" horiz-adv-x="1148" d="M82 485q0 246 150.5 394.5t385.5 148.5q74 0 140 -14v405l252 13v-1432h-244v70q-115 -82 -262 -82q-197 0 -309.5 127.5t-112.5 369.5zM338 498q0 -150 65.5 -221.5t178.5 -71.5q90 0 178 41v559q-78 10 -137 10q-131 0 -208 -85t-77 -232z" />
<glyph unicode="e" horiz-adv-x="1032" d="M82 506q0 250 131 389t334 139q188 0 297.5 -110.5t109.5 -305.5q0 -125 -8 -184h-622q23 -121 97.5 -178t211.5 -57q147 0 291 45v-205q-170 -51 -324 -51q-244 0 -381 130t-137 388zM324 614h389q0 100 -50.5 164t-134.5 64q-80 0 -135 -59.5t-69 -168.5z" />
<glyph unicode="f" horiz-adv-x="684" d="M45 825v191h131v65q0 354 410 355q82 0 147 -17l-18 -192q-68 12 -121 12q-88 0 -128 -38t-40 -118v-67h246v-191h-244v-825h-252v825h-131z" />
<glyph unicode="g" horiz-adv-x="1044" d="M39 -143q0 72 44 130t120 87v6q-90 35 -90 139q0 109 123 158v6q-160 78 -160 264q0 178 117.5 279.5t314.5 101.5q76 0 160 -22h331v-164h-159v-6q37 -23 62.5 -71t25.5 -114q0 -160 -113 -248t-326 -88q-66 0 -131 17q-41 -20 -41 -60q0 -72 134 -71l235 -2 q328 -2 328 -248q0 -156 -135.5 -254t-403.5 -98q-217 0 -326.5 68.5t-109.5 189.5zM264 -90q0 -129 232 -129q295 0 295 129q0 90 -134 92l-342 10q-51 -39 -51 -102zM311 659q0 -180 193 -180q195 0 194 195q0 180 -192 180q-90 0 -142.5 -49.5t-52.5 -145.5z" />
<glyph unicode="h" horiz-adv-x="1126" d="M139 0v1419l252 13v-484q125 80 260 80q166 0 259.5 -94t93.5 -268v-666h-252v612q0 98 -44 141.5t-133 43.5q-100 0 -184 -33v-764h-252z" />
<glyph unicode="i" horiz-adv-x="530" d="M119 1292q0 59 39 101.5t106 42.5q70 0 108 -40t38 -104q0 -57 -39 -98t-107 -41q-70 0 -107.5 39t-37.5 100zM139 0v1010l252 10v-1020h-252z" />
<glyph unicode="j" horiz-adv-x="530" d="M-14 -203q154 39 153 211v1002l252 10v-1006q0 -188 -105.5 -289.5t-279.5 -123.5zM119 1292q0 59 39 101.5t106 42.5q70 0 108 -40t38 -104q0 -57 -39 -98t-107 -41q-70 0 -107.5 39t-37.5 100z" />
<glyph unicode="k" horiz-adv-x="1064" d="M139 0v1419l252 13v-777h84l281 361h282l-342 -426l367 -590h-303l-271 465h-98v-465h-252z" />
<glyph unicode="l" horiz-adv-x="530" d="M139 0v1419l252 13v-1432h-252z" />
<glyph unicode="m" horiz-adv-x="1718" d="M139 0v1010l244 10v-76q125 84 266 84q180 0 277 -113q147 113 319 113q166 0 258 -94t92 -270v-664h-252v608q0 188 -174 189q-92 0 -176 -33v-764h-252v608q0 188 -174 189q-88 0 -176 -33v-764h-252z" />
<glyph unicode="n" horiz-adv-x="1126" d="M139 0v1010l244 10v-76q125 84 268 84q166 0 259.5 -94t93.5 -268v-666h-252v612q0 98 -44 141.5t-133 43.5q-94 0 -184 -33v-764h-252z" />
<glyph unicode="o" horiz-adv-x="1159" d="M82 487.5q0 243.5 149.5 395t362.5 151.5q219 0 351 -131t132 -377q0 -244 -149.5 -394t-362.5 -150q-219 0 -351 131t-132 374.5zM338 496q0 -145 64.5 -219t177.5 -74q104 0 172.5 84t68.5 233q0 143 -65.5 218t-175.5 75q-104 0 -173 -82.5t-69 -234.5z" />
<glyph unicode="p" horiz-adv-x="1144" d="M139 -391v1401l244 10v-78q117 86 262 86q197 0 307.5 -123t110.5 -360q0 -266 -150.5 -411.5t-402.5 -145.5q-59 0 -119 12v-391h-252zM389 211q61 -10 115 -10q143 0 223 80.5t80 244.5q0 135 -62.5 203t-175.5 68q-92 0 -180 -33v-553z" />
<glyph unicode="q" horiz-adv-x="1148" d="M82 475q0 258 151.5 405.5t415.5 147.5q168 0 361 -20v-1399h-250v457q-113 -78 -260 -78q-188 0 -303 125.5t-115 361.5zM338 492q0 -145 65.5 -216t178.5 -71q88 0 178 41v559q-72 10 -129 10q-137 0 -215 -82.5t-78 -240.5z" />
<glyph unicode="r" horiz-adv-x="710" d="M139 0v1010l250 10v-117q94 125 211 125q68 0 119 -14l-17 -240q-59 14 -114 14q-104 0 -197 -67v-721h-252z" />
<glyph unicode="s" horiz-adv-x="880" d="M80 705q0 145 115.5 234t320.5 89q133 0 250 -20l-14 -211q-129 20 -248 20q-174 0 -174 -84q0 -37 21.5 -57.5t90.5 -38.5l121 -33q131 -37 188.5 -103.5t57.5 -172.5q0 -160 -115.5 -250t-316.5 -90q-182 0 -295 26v217q139 -35 289 -34q186 0 186 92q0 37 -26.5 59.5 t-102.5 44.5l-129 39q-219 64 -219 273z" />
<glyph unicode="t" horiz-adv-x="737" d="M53 825v191h123v186l250 21v-207h256v-191h-256v-458q0 -82 41 -123t111 -41q61 0 129 18v-209q-96 -25 -205 -24q-152 0 -239 88t-87 256v493h-123z" />
<glyph unicode="u" horiz-adv-x="1112" d="M123 356v654l250 10v-614q0 -104 39 -148.5t129 -44.5q88 0 182 41v756l250 10v-1020h-242v70q-76 -49 -130 -69.5t-126 -20.5q-176 0 -264 97t-88 279z" />
<glyph unicode="v" horiz-adv-x="987" d="M4 1016h289l207 -821h16l205 821h262l-313 -1016h-348z" />
<glyph unicode="w" horiz-adv-x="1525" d="M6 1016h289l154 -819h10l205 630l-52 189h250l223 -819h11l159 819h263l-263 -1016h-340l-147 555h-6l-172 -555h-326z" />
<glyph unicode="x" horiz-adv-x="964" d="M16 0l320 522l-303 494h295l170 -320h8l149 320h269l-291 -490l313 -526h-282l-191 346h-8l-180 -346h-269z" />
<glyph unicode="y" horiz-adv-x="970" d="M16 1016h277l213 -793h8l188 793h254l-338 -1155q-80 -264 -387 -264q-78 0 -137 10v200q59 -8 129 -8q57 0 105.5 35t68.5 100l29 89h-98z" />
<glyph unicode="z" horiz-adv-x="899" d="M68 0v190l467 619v4h-445v203h735v-189l-467 -618v-6h473v-203h-763z" />
<glyph unicode="{" horiz-adv-x="653" d="M41 418v147q121 16 177 62.5t56 105.5v367q0 121 69 189.5t189 68.5q61 0 95 -8v-142q-92 0 -130 -21.5t-38 -78.5v-346q0 -240 -316 -273v-4q164 -10 240 -66.5t76 -166.5v-358q0 -68 36.5 -91.5t135.5 -23.5v-137q-47 -14 -92 -15q-264 0 -265 209v391q0 136 -233 191z " />
<glyph unicode="|" horiz-adv-x="481" d="M145 -356v1699h191v-1699h-191z" />
<glyph unicode="}" horiz-adv-x="653" d="M23 1206v137q51 14 94 15q264 0 264 -211v-389q0 -135 231 -191v-147q-119 -16 -175 -62.5t-56 -105.5v-367q0 -121 -68.5 -189.5t-189.5 -68.5q-61 0 -94 8v142q90 0 128 21.5t38 78.5v346q0 240 315 273v4q-164 10 -239.5 66.5t-75.5 166.5v359q0 68 -37 91t-135 23z " />
<glyph unicode="~" d="M123 639q111 150 262 149q72 0 180.5 -77.5t159.5 -77.5q88 0 164 98l63 -153q-98 -145 -245 -146q-66 0 -178.5 78t-163.5 78q-94 0 -177 -105z" />
<glyph unicode="&#xa1;" horiz-adv-x="626" d="M147 852q0 76 43 125t121 49q168 0 168 -174q0 -78 -43 -129t-121 -51q-168 0 -168 180zM162 -340l24 627v299l258 6v-909z" />
<glyph unicode="&#xa2;" d="M166 653q0 205 100.5 343.5t263.5 181.5v208h183v-190q76 -2 164 -25l-21 -225q-106 18 -172 19q-121 0 -191.5 -80t-70.5 -219q0 -150 71.5 -222.5t192.5 -72.5q84 0 188 26v-217q-84 -25 -161 -24v-199h-183v207q-364 73 -364 489z" />
<glyph unicode="&#xa3;" d="M82 0v213h96q51 63 51 176v223h-125v197h125v158q0 182 110 284.5t318 102.5q125 0 213 -25v-223q-88 25 -223 24q-152 0 -151 -153v-168h270v-197h-270v-209q0 -117 -33 -190h262q125 0 244 41v-217q-92 -37 -256 -37h-631z" />
<glyph unicode="&#xa4;" d="M121 324l121 118q-43 70 -43 164q0 92 43 164l-121 119l133 133l119 -121q74 43 164 43q86 0 163 -43l119 121l135 -133l-125 -119q45 -84 45 -164q0 -92 -43 -166l121 -114l-133 -131l-119 116q-70 -43 -164 -43t-163 43l-119 -121zM375 606.5q0 -67.5 47 -115 t114.5 -47.5t114.5 47.5t47 115t-47 114.5t-114.5 47t-114.5 -47t-47 -114.5z" />
<glyph unicode="&#xa5;" d="M16 1343h299l240 -548h8l234 548h262l-307 -638h188v-199h-272v-135h272v-199h-268v-172h-266v172h-273v199h277v135h-277v199h191z" />
<glyph unicode="&#xa6;" horiz-adv-x="481" d="M145 209h191v-565h-191v565zM145 778v565h191v-565h-191z" />
<glyph unicode="&#xa7;" horiz-adv-x="1083" d="M96 -119q180 -33 348 -33q131 0 208 49.5t77 114.5q0 74 -70 123q-61 -16 -118 -16q-168 0 -278.5 110.5t-110.5 278.5q0 102 49 190q-88 92 -88 254q0 186 140 296t392 110q152 0 287 -27l-17 -221q-145 27 -284 27q-131 0 -194.5 -42t-63.5 -114q0 -66 43 -102 q53 18 125 18q168 0 278.5 -110.5t110.5 -278.5q0 -94 -47 -189q106 -92 106 -253q0 -197 -147.5 -318t-405.5 -121q-195 0 -340 25v229zM362 508q0 -78 51.5 -131t127 -53t126 53t50.5 131t-50.5 130t-126 52t-127 -52t-51.5 -130z" />
<glyph unicode="&#xa8;" horiz-adv-x="880" d="M137 1286q0 59 32 97t91 38q125 0 125 -135q0 -57 -33 -95t-92 -38q-123 0 -123 133zM500 1286q0 59 31.5 97t91.5 38q125 0 125 -135q0 -57 -33 -95t-92 -38q-123 0 -123 133z" />
<glyph unicode="&#xa9;" horiz-adv-x="1601" d="M104 670q0 285 205 488.5t491.5 203.5t490.5 -204t204 -488q0 -287 -204 -491t-490.5 -204t-491.5 204t-205 491zM231 670q0 -238 167 -408t403 -170q233 0 400 170t167 408q0 236 -167 405.5t-400 169.5q-236 0 -403 -169.5t-167 -405.5zM399 637q0 213 132.5 326.5 t338.5 113.5q66 0 174 -16l-12 -174q-86 14 -168 14q-117 0 -186.5 -64.5t-69.5 -185.5q0 -115 71 -172t177 -57q90 0 188 18v-170q-100 -18 -198 -18q-205 0 -326 97.5t-121 287.5z" />
<glyph unicode="&#xaa;" horiz-adv-x="759" d="M43 858q0 215 334 215q25 0 56.5 -1t35.5 -1v12q0 92 -158 93q-82 0 -205 -43l-22 174q147 47 266 47q326 0 326 -260v-416h-199v39q-84 -47 -198 -47q-117 0 -176.5 49t-59.5 139zM256 870q0 -57 106 -57q55 0 107 8v113q-49 6 -82 6q-131 0 -131 -70z" />
<glyph unicode="&#xab;" horiz-adv-x="1198" d="M100 514l332 438h244l-311 -428l311 -448h-244zM518 514l332 438h244l-312 -428l312 -448h-244z" />
<glyph unicode="&#xac;" d="M133 692v199h807v-531h-199v332h-608z" />
<glyph unicode="&#xad;" horiz-adv-x="798" d="M135 473v229h529v-229h-529z" />
<glyph unicode="&#xae;" horiz-adv-x="1601" d="M104 670q0 285 205 488.5t491.5 203.5t490.5 -204t204 -488q0 -287 -204 -491t-490.5 -204t-491.5 204t-205 491zM231 670q0 -238 167 -408t403 -170q233 0 400 170t167 408q0 236 -167 405.5t-400 169.5q-236 0 -403 -169.5t-167 -405.5zM498 260v809h276 q348 0 348 -231q0 -188 -153 -252l207 -326h-232l-151 262h-99v-262h-196zM692 674h90q135 0 136 131q0 55 -35 82.5t-125 27.5h-66v-241z" />
<glyph unicode="&#xaf;" horiz-adv-x="800" d="M141 1169v170h514v-170h-514z" />
<glyph unicode="&#xb0;" horiz-adv-x="778" d="M80 1042.5q0 131.5 91 223.5t222 92t223.5 -92t92.5 -223.5t-92.5 -222.5t-223.5 -91t-222 91t-91 222.5zM256 1042.5q0 -59.5 40 -100.5t97.5 -41t98 41t40.5 100.5t-40.5 101.5t-98 42t-97.5 -42t-40 -101.5z" />
<glyph unicode="&#xb1;" d="M133 0v199h807v-199h-807zM133 532v199h303v303h199v-303h305v-199h-305v-280h-199v280h-303z" />
<glyph unicode="&#xb2;" horiz-adv-x="776" d="M74 684q10 70 63 137.5t135 114.5l82 47q109 63 109 139q0 102 -150 103q-104 0 -200 -29v184q113 31 243 31q164 0 244 -69.5t80 -192.5q0 -86 -52.5 -163t-146.5 -124l-59 -31q-111 -57 -139 -137h422v-164h-619z" />
<glyph unicode="&#xb3;" horiz-adv-x="776" d="M86 518v166h131q262 0 262 127q0 51 -33.5 86t-93.5 45q-84 -49 -182 -68l-35 132q98 27 200.5 88t164.5 137h-389v172h553l20 -191q-86 -100 -215 -161v-7q106 -18 162.5 -75.5t56.5 -134.5q0 -137 -123 -226.5t-346 -89.5h-133z" />
<glyph unicode="&#xb4;" horiz-adv-x="858" d="M377 1128l145 297h264l-223 -297h-186z" />
<glyph unicode="&#xb5;" horiz-adv-x="1130" d="M139 -82v1092l252 10v-614q0 -104 38 -148.5t128 -44.5q88 0 182 41v756l250 10v-744q0 -72 51 -71q31 0 72 22v-213q-74 -27 -178 -26q-59 0 -110.5 29.5t-71.5 76.5q-98 -115 -258 -114q-68 0 -113 22v-65q0 -178 61 -328h-247q-56 129 -56 309z" />
<glyph unicode="&#xb6;" horiz-adv-x="1511" d="M78 780q0 264 160.5 416t445.5 152q37 0 93.5 -2.5t82.5 -2.5h502v-1880h-250v1692h-184v-1692h-180v746q-68 -23 -179 -23q-223 0 -357 146.5t-134 447.5z" />
<glyph unicode="&#xb7;" horiz-adv-x="530" d="M98 604q0 80 43 130t123 50t124 -46t44 -134q0 -78 -43 -126t-123 -48q-168 0 -168 174z" />
<glyph unicode="&#xb8;" horiz-adv-x="1576" d="M205 -258h98q133 0 133 45q0 39 -112 51l-33 4v107l170 -12q86 -6 124 -36t38 -89q0 -90 -84 -146.5t-238 -56.5h-96v133z" />
<glyph unicode="&#xb9;" horiz-adv-x="776" d="M133 1202v154q160 47 318 47h102v-873h-211v689q-117 -1 -209 -17z" />
<glyph unicode="&#xba;" horiz-adv-x="815" d="M55 991q0 160 105.5 261.5t257.5 101.5q156 0 249 -86t93 -244q0 -160 -105.5 -261t-259 -101t-247 85.5t-93.5 243.5zM264 995q0 -156 142 -155q66 0 105.5 49t39.5 129q0 160 -143 160q-66 0 -105 -50.5t-39 -132.5z" />
<glyph unicode="&#xbb;" horiz-adv-x="1198" d="M104 76l312 428l-312 448h244l332 -438l-332 -438h-244zM522 76l312 428l-312 448h244l332 -438l-332 -438h-244z" />
<glyph unicode="&#xbc;" horiz-adv-x="1683" d="M133 1202v154q160 47 318 47h102v-873h-211v689q-117 -1 -209 -17zM264 -217l938 1622l158 -92l-938 -1622zM846 -4q80 336 391 569h231v-545h111v-170h-111v-157h-211v157h-370zM1020 20h242v361h-2q-174 -142 -240 -361z" />
<glyph unicode="&#xbd;" horiz-adv-x="1683" d="M133 1202v154q160 47 318 47h102v-873h-211v689q-117 -1 -209 -17zM264 -217l938 1622l158 -92l-938 -1622zM956 -154q10 70 63.5 137.5t135.5 114.5l82 47q109 63 109 140q0 102 -150 102q-104 0 -201 -29v185q115 31 244 30q164 0 244 -69.5t80 -192.5 q0 -86 -52.5 -162.5t-146.5 -123.5l-59 -31q-111 -57 -140 -137h422v-164h-618z" />
<glyph unicode="&#xbe;" horiz-adv-x="1683" d="M86 518v166h131q262 0 262 127q0 51 -33.5 86t-93.5 45q-84 -49 -182 -68l-35 132q98 27 200.5 88t164.5 137h-389v172h553l20 -191q-86 -100 -215 -161v-7q106 -18 162.5 -75.5t56.5 -134.5q0 -137 -123 -226.5t-346 -89.5h-133zM264 -217l938 1622l158 -92l-938 -1622z M846 -4q80 336 391 569h231v-545h111v-170h-111v-157h-211v157h-370zM1020 20h242v361h-2q-174 -142 -240 -361z" />
<glyph unicode="&#xbf;" horiz-adv-x="942" d="M102 -31q0 123 49.5 196t174.5 140l100 51q84 43 84 111q0 51 -31 115l205 10q66 -66 66 -156q0 -137 -156 -227l-107 -62q-63 -35 -88.5 -67.5t-25.5 -79.5q0 -49 49 -80t141 -31q137 0 289 58v-223q-170 -66 -356 -66q-176 0 -285 86t-109 225zM410 852q0 76 43 125 t120 49q168 0 168 -174q0 -78 -43 -129t-120 -51q-168 0 -168 180z" />
<glyph unicode="&#xc0;" horiz-adv-x="1232" d="M23 0l393 1343h401l391 -1343h-307l-74 289h-454l-74 -289h-276zM328 1774h262l147 -297h-186zM426 502h346l-166 620h-14z" />
<glyph unicode="&#xc1;" horiz-adv-x="1232" d="M23 0l393 1343h401l391 -1343h-307l-74 289h-454l-74 -289h-276zM426 502h346l-166 620h-14zM502 1477l145 297h264l-223 -297h-186z" />
<glyph unicode="&#xc2;" horiz-adv-x="1232" d="M23 0l393 1343h401l391 -1343h-307l-74 289h-454l-74 -289h-276zM285 1477l229 297h221l211 -297h-217l-113 159h-12l-115 -159h-204zM426 502h346l-166 620h-14z" />
<glyph unicode="&#xc3;" horiz-adv-x="1232" d="M23 0l393 1343h401l391 -1343h-307l-74 289h-454l-74 -289h-276zM295 1651q84 123 199 123q57 0 151 -56.5t131 -56.5q68 0 119 63l43 -147q-70 -119 -186 -119q-51 0 -149.5 56.5t-133.5 56.5q-76 0 -131 -68zM426 502h346l-166 620h-14z" />
<glyph unicode="&#xc4;" horiz-adv-x="1232" d="M23 0l393 1343h401l391 -1343h-307l-74 289h-454l-74 -289h-276zM305 1597q0 59 32 97.5t91 38.5q125 0 125 -136q0 -57 -33 -95t-92 -38q-123 0 -123 133zM426 502h346l-166 620h-14zM680 1597q0 59 31.5 97.5t91.5 38.5q125 0 125 -136q0 -57 -33 -95t-92 -38 q-123 0 -123 133z" />
<glyph unicode="&#xc5;" horiz-adv-x="1232" d="M23 0l393 1343h401l391 -1343h-307l-74 289h-454l-74 -289h-276zM426 502h346l-166 620h-14zM428 1640q0 78 55.5 131.5t133 53.5t132 -53.5t54.5 -131t-54.5 -133t-132.5 -55.5q-76 0 -132 56t-56 132zM543 1640q0 -33 20.5 -55t52.5 -22q29 0 50.5 22.5t21.5 54.5 q0 29 -22.5 52.5t-49.5 23.5q-31 0 -52 -22.5t-21 -53.5z" />
<glyph unicode="&#xc6;" horiz-adv-x="1718" d="M8 0l721 1343h870v-217h-450v-327h416v-217h-416v-365h457v-217h-723v289h-434l-150 -289h-291zM557 502h328v641h-13z" />
<glyph unicode="&#xc7;" horiz-adv-x="1093" d="M96 631q0 350 196.5 538.5t500.5 188.5q131 0 264 -27l-19 -225q-117 20 -254 20q-178 0 -292.5 -121.5t-114.5 -349.5q0 -215 115.5 -330.5t281.5 -115.5q141 0 285 27v-218q-143 -33 -299 -32q-295 0 -479.5 166t-184.5 479zM467 -252h117q82 0 109.5 11.5t27.5 33.5 q0 16 -19.5 25.5t-83.5 17.5l-63 8v113l168 -14q195 -14 195 -131q0 -90 -90.5 -146.5t-245.5 -56.5h-115v139z" />
<glyph unicode="&#xc8;" horiz-adv-x="1003" d="M170 0v1343h717v-217h-451v-327h416v-217h-416v-365h457v-217h-723zM248 1774h262l147 -297h-186z" />
<glyph unicode="&#xc9;" horiz-adv-x="1003" d="M170 0v1343h717v-217h-451v-327h416v-217h-416v-365h457v-217h-723zM422 1477l145 297h264l-223 -297h-186z" />
<glyph unicode="&#xca;" horiz-adv-x="1003" d="M170 0v1343h717v-217h-451v-327h416v-217h-416v-365h457v-217h-723zM205 1477l229 297h221l211 -297h-217l-112 159h-13l-114 -159h-205z" />
<glyph unicode="&#xcb;" horiz-adv-x="1003" d="M170 0v1343h717v-217h-451v-327h416v-217h-416v-365h457v-217h-723zM225 1597q0 59 32 97.5t91 38.5q125 0 125 -136q0 -57 -32.5 -95t-92.5 -38q-123 0 -123 133zM600 1597q0 59 32 97.5t91 38.5q125 0 125 -136q0 -57 -33 -95t-92 -38q-123 0 -123 133z" />
<glyph unicode="&#xcc;" horiz-adv-x="604" d="M16 1774h263l147 -297h-186zM170 0v1343h266v-1343h-266z" />
<glyph unicode="&#xcd;" horiz-adv-x="604" d="M170 0v1343h266v-1343h-266zM188 1477l146 297h264l-223 -297h-187z" />
<glyph unicode="&#xce;" horiz-adv-x="604" d="M-27 1477l230 297h221l211 -297h-217l-113 159h-12l-115 -159h-205zM170 0v1343h266v-1343h-266z" />
<glyph unicode="&#xcf;" horiz-adv-x="604" d="M-6 1597q0 59 31.5 97.5t91.5 38.5q125 0 125 -136q0 -57 -33 -95t-92 -38q-123 0 -123 133zM170 0v1343h266v-1343h-266zM369 1597q0 59 31.5 97.5t91.5 38.5q125 0 124 -136q0 -57 -32.5 -95t-91.5 -38q-123 0 -123 133z" />
<glyph unicode="&#xd0;" horiz-adv-x="1372" d="M63 569v234h156v540h391q346 0 530.5 -164.5t184.5 -467.5q0 -356 -190.5 -533.5t-536.5 -177.5h-379v569h-156zM485 217h125q434 0 434 481q0 207 -119.5 317.5t-330.5 110.5h-109v-323h240v-234h-240v-352z" />
<glyph unicode="&#xd1;" horiz-adv-x="1372" d="M170 0v1343h405l381 -1085h13v1085h235v-1343h-407l-379 1085h-12v-1085h-236zM369 1651q84 123 198 123q57 0 151.5 -56.5t131.5 -56.5q68 0 119 63l43 -147q-70 -119 -187 -119q-51 0 -149 56.5t-133 56.5q-76 0 -131 -68z" />
<glyph unicode="&#xd2;" horiz-adv-x="1480" d="M96 659q0 330 189.5 516.5t470.5 186.5q276 0 452 -173t176 -505q0 -330 -188 -516t-466.5 -186t-456 172.5t-177.5 504.5zM377 682q0 -238 101.5 -350.5t262.5 -112.5q152 0 257.5 111.5t105.5 331.5q0 238 -100.5 351t-262.5 113q-154 0 -259 -111.5t-105 -332.5z M453 1774h262l147 -297h-186z" />
<glyph unicode="&#xd3;" horiz-adv-x="1480" d="M96 659q0 330 189.5 516.5t470.5 186.5q276 0 452 -173t176 -505q0 -330 -188 -516t-466.5 -186t-456 172.5t-177.5 504.5zM377 682q0 -238 101.5 -350.5t262.5 -112.5q152 0 257.5 111.5t105.5 331.5q0 238 -100.5 351t-262.5 113q-154 0 -259 -111.5t-105 -332.5z M627 1477l145 297h264l-223 -297h-186z" />
<glyph unicode="&#xd4;" horiz-adv-x="1480" d="M96 659q0 330 189.5 516.5t470.5 186.5q276 0 452 -173t176 -505q0 -330 -188 -516t-466.5 -186t-456 172.5t-177.5 504.5zM377 682q0 -238 101.5 -350.5t262.5 -112.5q152 0 257.5 111.5t105.5 331.5q0 238 -100.5 351t-262.5 113q-154 0 -259 -111.5t-105 -332.5z M410 1477l229 297h221l211 -297h-217l-113 159h-12l-115 -159h-204z" />
<glyph unicode="&#xd5;" horiz-adv-x="1480" d="M96 659q0 330 189.5 516.5t470.5 186.5q276 0 452 -173t176 -505q0 -330 -188 -516t-466.5 -186t-456 172.5t-177.5 504.5zM377 682q0 -238 101.5 -350.5t262.5 -112.5q152 0 257.5 111.5t105.5 331.5q0 238 -100.5 351t-262.5 113q-154 0 -259 -111.5t-105 -332.5z M422 1651q84 123 199 123q57 0 151 -56.5t131 -56.5q68 0 119 63l43 -147q-70 -119 -186 -119q-51 0 -149.5 56.5t-133.5 56.5q-76 0 -131 -68z" />
<glyph unicode="&#xd6;" horiz-adv-x="1480" d="M96 659q0 330 189.5 516.5t470.5 186.5q276 0 452 -173t176 -505q0 -330 -188 -516t-466.5 -186t-456 172.5t-177.5 504.5zM377 682q0 -238 101.5 -350.5t262.5 -112.5q152 0 257.5 111.5t105.5 331.5q0 238 -100.5 351t-262.5 113q-154 0 -259 -111.5t-105 -332.5z M430 1597q0 59 32 97.5t91 38.5q125 0 125 -136q0 -57 -33 -95t-92 -38q-123 0 -123 133zM805 1597q0 59 31.5 97.5t91.5 38.5q125 0 125 -136q0 -57 -33 -95t-92 -38q-123 0 -123 133z" />
<glyph unicode="&#xd7;" d="M164 375l231 231l-231 232l141 139l230 -232l233 234l139 -141l-231 -232l231 -231l-139 -142l-233 234l-230 -231z" />
<glyph unicode="&#xd8;" horiz-adv-x="1480" d="M96 659q0 330 189.5 516.5t470.5 186.5q145 0 274 -53l70 118l114 -63l-67 -119q238 -180 237 -561q0 -330 -188 -516t-467 -186q-152 0 -280 53l-70 -119l-115 64l68 122q-236 174 -236 557zM371 682q0 -223 96 -350l442 766q-72 35 -168 35q-154 0 -262 -115t-108 -336 zM571 248q72 -35 170 -35q152 0 260.5 114.5t108.5 334.5q0 225 -96 352z" />
<glyph unicode="&#xd9;" horiz-adv-x="1335" d="M154 465v878h266v-845q0 -279 256 -279q123 0 191.5 70.5t68.5 204.5v849h246v-858q0 -225 -140.5 -364t-377.5 -139q-256 0 -383 123.5t-127 359.5zM381 1774h262l148 -297h-187z" />
<glyph unicode="&#xda;" horiz-adv-x="1335" d="M154 465v878h266v-845q0 -279 256 -279q123 0 191.5 70.5t68.5 204.5v849h246v-858q0 -225 -140.5 -364t-377.5 -139q-256 0 -383 123.5t-127 359.5zM555 1477l145 297h265l-224 -297h-186z" />
<glyph unicode="&#xdb;" horiz-adv-x="1335" d="M154 465v878h266v-845q0 -279 256 -279q123 0 191.5 70.5t68.5 204.5v849h246v-858q0 -225 -140.5 -364t-377.5 -139q-256 0 -383 123.5t-127 359.5zM338 1477l229 297h221l211 -297h-217l-112 159h-13l-114 -159h-205z" />
<glyph unicode="&#xdc;" horiz-adv-x="1335" d="M154 465v878h266v-845q0 -279 256 -279q123 0 191.5 70.5t68.5 204.5v849h246v-858q0 -225 -140.5 -364t-377.5 -139q-256 0 -383 123.5t-127 359.5zM358 1597q0 59 32 97.5t91 38.5q125 0 125 -136q0 -57 -32.5 -95t-92.5 -38q-123 0 -123 133zM733 1597q0 59 32 97.5 t91 38.5q125 0 125 -136q0 -57 -33 -95t-92 -38q-123 0 -123 133z" />
<glyph unicode="&#xdd;" horiz-adv-x="1128" d="M16 1343h299l267 -565h8l260 565h262l-414 -806v-537h-266v537zM451 1477l145 297h264l-223 -297h-186z" />
<glyph unicode="&#xde;" horiz-adv-x="1134" d="M170 0v1343h266v-208h170q223 0 347 -114t124 -304q0 -213 -136 -338t-359 -125q-82 0 -146 8v-262h-266zM432 473q49 -8 115 -8q117 0 184.5 61.5t67.5 171.5q0 225 -234 226h-133v-451z" />
<glyph unicode="&#xdf;" horiz-adv-x="1290" d="M176 0v1069q0 170 109.5 268.5t324.5 98.5q217 0 334 -83t117 -239q0 -72 -35 -130t-78 -89t-77.5 -70t-34.5 -75q0 -45 79 -93l97 -53q117 -63 163 -123.5t46 -146.5q0 -152 -114 -249t-278 -97q-156 0 -268 26v217q139 -35 264 -34q154 0 154 88q0 55 -86 104l-107 62 q-111 63 -147.5 116.5t-36.5 139.5q0 68 36 127t78 94t77.5 81t35.5 91q0 139 -221 139q-88 0 -135 -43t-47 -113v-1083h-250z" />
<glyph unicode="&#xe0;" horiz-adv-x="1030" d="M63 272q0 152 115 238t348 86q27 0 73 -1t65 -1v45q0 82 -52.5 123t-173.5 41q-139 0 -286 -62l-33 211q180 76 366 76q422 0 422 -364v-664h-235v63q-119 -76 -285 -75q-156 0 -240 76.5t-84 207.5zM209 1425h262l147 -297h-186zM319 293q0 -51 38 -80t106 -29 q104 0 201 45v187q-78 4 -129 4q-216 0 -216 -127z" />
<glyph unicode="&#xe1;" horiz-adv-x="1030" d="M63 272q0 152 115 238t348 86q27 0 73 -1t65 -1v45q0 82 -52.5 123t-173.5 41q-139 0 -286 -62l-33 211q180 76 366 76q422 0 422 -364v-664h-235v63q-119 -76 -285 -75q-156 0 -240 76.5t-84 207.5zM319 293q0 -51 38 -80t106 -29q104 0 201 45v187q-78 4 -129 4 q-216 0 -216 -127zM383 1128l145 297h265l-224 -297h-186z" />
<glyph unicode="&#xe2;" horiz-adv-x="1030" d="M63 272q0 152 115 238t348 86q27 0 73 -1t65 -1v45q0 82 -52.5 123t-173.5 41q-139 0 -286 -62l-33 211q180 76 366 76q422 0 422 -364v-664h-235v63q-119 -76 -285 -75q-156 0 -240 76.5t-84 207.5zM166 1128l229 297h221l211 -297h-217l-112 160h-13l-114 -160h-205z M319 293q0 -51 38 -80t106 -29q104 0 201 45v187q-78 4 -129 4q-216 0 -216 -127z" />
<glyph unicode="&#xe3;" horiz-adv-x="1030" d="M63 272q0 152 115 238t348 86q27 0 73 -1t65 -1v45q0 82 -52.5 123t-173.5 41q-139 0 -286 -62l-33 211q180 76 366 76q422 0 422 -364v-664h-235v63q-119 -76 -285 -75q-156 0 -240 76.5t-84 207.5zM188 1300q82 121 199 121q57 0 141 -59t121 -59q68 0 119 69l43 -145 q-68 -117 -186 -117q-51 0 -139.5 59.5t-123.5 59.5q-76 0 -131 -74zM319 293q0 -51 38 -80t106 -29q104 0 201 45v187q-78 4 -129 4q-216 0 -216 -127z" />
<glyph unicode="&#xe4;" horiz-adv-x="1030" d="M63 272q0 152 115 238t348 86q27 0 73 -1t65 -1v45q0 82 -52.5 123t-173.5 41q-139 0 -286 -62l-33 211q180 76 366 76q422 0 422 -364v-664h-235v63q-119 -76 -285 -75q-156 0 -240 76.5t-84 207.5zM199 1286q0 59 31.5 97t91.5 38q125 0 124 -135q0 -57 -32.5 -95 t-91.5 -38q-123 0 -123 133zM319 293q0 -51 38 -80t106 -29q104 0 201 45v187q-78 4 -129 4q-216 0 -216 -127zM561 1286q0 59 32 97t91 38q125 0 125 -135q0 -57 -33 -95t-92 -38q-123 0 -123 133z" />
<glyph unicode="&#xe5;" horiz-adv-x="1030" d="M63 272q0 152 115 238t348 86q27 0 73 -1t65 -1v45q0 82 -52.5 123t-173.5 41q-139 0 -286 -62l-33 211q180 76 366 76q422 0 422 -364v-664h-235v63q-119 -76 -285 -75q-156 0 -240 76.5t-84 207.5zM309 1305q0 78 55.5 131t133 53t132 -53.5t54.5 -131t-54.5 -133 t-131.5 -55.5q-76 0 -132.5 56.5t-56.5 132.5zM319 293q0 -51 38 -80t106 -29q104 0 201 45v187q-78 4 -129 4q-216 0 -216 -127zM424 1305q0 -33 20.5 -55.5t53.5 -22.5q29 0 50 22.5t21 55.5q0 29 -22.5 52t-48.5 23q-31 0 -52.5 -22t-21.5 -53z" />
<glyph unicode="&#xe6;" horiz-adv-x="1607" d="M63 272q0 152 115 238t348 86q29 0 74 -1t64 -1v43q0 84 -52.5 125t-173.5 41q-139 0 -286 -62l-33 211q178 76 366 76q221 0 328 -106q129 113 309 112q188 0 298 -110.5t110 -305.5q0 -125 -8 -184h-625q45 -236 311 -235q143 0 291 45v-205q-166 -51 -321 -51 q-250 0 -387 137q-160 -137 -408 -137q-150 0 -235 76.5t-85 207.5zM319 289q0 -47 38 -76t102 -29q133 0 248 68q-41 78 -43 164q-70 4 -129 4q-216 0 -216 -131zM899 614h389q0 98 -50 163t-134 65q-80 0 -135.5 -59.5t-69.5 -168.5z" />
<glyph unicode="&#xe7;" horiz-adv-x="847" d="M82 489q0 248 145.5 395.5t360.5 147.5q117 0 213 -24l-21 -228q-88 18 -176 19q-121 0 -193.5 -79t-72.5 -220q0 -147 72.5 -221t195.5 -74q90 0 191 26v-215q-94 -29 -215 -28q-233 0 -366.5 125.5t-133.5 375.5zM279 -258h98q133 0 133 45q0 39 -113 51l-32 4v107 l170 -12q86 -6 123.5 -36t37.5 -89q0 -90 -84 -146.5t-237 -56.5h-96v133z" />
<glyph unicode="&#xe8;" horiz-adv-x="1032" d="M82 506q0 250 131 389t334 139q188 0 297.5 -110.5t109.5 -305.5q0 -125 -8 -184h-622q23 -121 97.5 -178t211.5 -57q147 0 291 45v-205q-170 -51 -324 -51q-244 0 -381 130t-137 388zM264 1425h262l148 -297h-187zM324 614h389q0 100 -50.5 164t-134.5 64 q-80 0 -135 -59.5t-69 -168.5z" />
<glyph unicode="&#xe9;" horiz-adv-x="1032" d="M82 506q0 250 131 389t334 139q188 0 297.5 -110.5t109.5 -305.5q0 -125 -8 -184h-622q23 -121 97.5 -178t211.5 -57q147 0 291 45v-205q-170 -51 -324 -51q-244 0 -381 130t-137 388zM324 614h389q0 100 -50.5 164t-134.5 64q-80 0 -135 -59.5t-69 -168.5zM436 1128 l146 297h264l-223 -297h-187z" />
<glyph unicode="&#xea;" horiz-adv-x="1032" d="M82 506q0 250 131 389t334 139q188 0 297.5 -110.5t109.5 -305.5q0 -125 -8 -184h-622q23 -121 97.5 -178t211.5 -57q147 0 291 45v-205q-170 -51 -324 -51q-244 0 -381 130t-137 388zM221 1128l230 297h221l211 -297h-217l-113 160h-12l-115 -160h-205zM324 614h389 q0 100 -50.5 164t-134.5 64q-80 0 -135 -59.5t-69 -168.5z" />
<glyph unicode="&#xeb;" horiz-adv-x="1032" d="M82 506q0 250 131 389t334 139q188 0 297.5 -110.5t109.5 -305.5q0 -125 -8 -184h-622q23 -121 97.5 -178t211.5 -57q147 0 291 45v-205q-170 -51 -324 -51q-244 0 -381 130t-137 388zM246 1286q0 59 31.5 97t91.5 38q125 0 125 -135q0 -57 -33 -95t-92 -38 q-123 0 -123 133zM324 614h389q0 100 -50.5 164t-134.5 64q-80 0 -135 -59.5t-69 -168.5zM608 1286q0 59 32 97t91 38q125 0 125 -135q0 -57 -32.5 -95t-92.5 -38q-123 0 -123 133z" />
<glyph unicode="&#xec;" horiz-adv-x="530" d="M-23 1425h263l147 -297h-186zM139 0v1010l252 10v-1020h-252z" />
<glyph unicode="&#xed;" horiz-adv-x="530" d="M139 0v1010l252 10v-1020h-252zM150 1128l145 297h264l-223 -297h-186z" />
<glyph unicode="&#xee;" horiz-adv-x="530" d="M-66 1128l230 297h221l211 -297h-217l-113 160h-12l-115 -160h-205zM139 0v1010l252 10v-1020h-252z" />
<glyph unicode="&#xef;" horiz-adv-x="530" d="M-39 1286q0 59 32 97t91 38q125 0 125 -135q0 -57 -33 -95t-92 -38q-123 0 -123 133zM139 0v1010l252 10v-1020h-252zM324 1286q0 59 31.5 97t90.5 38q125 0 125 -135q0 -57 -32.5 -95t-92.5 -38q-122 0 -122 133z" />
<glyph unicode="&#xf0;" horiz-adv-x="1116" d="M82 487.5q0 245.5 142.5 396t350.5 150.5q121 0 189 -57l10 6q-8 49 -40 102.5t-68 83.5l-80 -88l-101 97l47 53q-33 10 -98 10q-115 0 -248 -22v192q141 25 287 25q127 0 211 -33l96 102l107 -106l-68 -74q104 -88 155.5 -245.5t51.5 -424.5q0 -336 -131 -504.5 t-346 -168.5q-211 0 -339 130t-128 375.5zM338 496q0 -150 62.5 -221.5t164.5 -71.5q92 0 160 90t68 221q0 152 -15 262q-90 45 -215 45q-96 0 -160.5 -90t-64.5 -235z" />
<glyph unicode="&#xf1;" horiz-adv-x="1126" d="M139 0v1010l244 10v-76q125 84 268 84q166 0 259.5 -94t93.5 -268v-666h-252v612q0 98 -44 141.5t-133 43.5q-94 0 -184 -33v-764h-252zM262 1300q82 121 199 121q57 0 141 -59t121 -59q68 0 119 69l43 -145q-68 -117 -187 -117q-51 0 -139 59.5t-123 59.5 q-76 0 -131 -74z" />
<glyph unicode="&#xf2;" horiz-adv-x="1159" d="M82 487.5q0 243.5 149.5 395t362.5 151.5q219 0 351 -131t132 -377q0 -244 -149.5 -394t-362.5 -150q-219 0 -351 131t-132 374.5zM293 1425h262l147 -297h-186zM338 496q0 -145 64.5 -219t177.5 -74q104 0 172.5 84t68.5 233q0 143 -65.5 218t-175.5 75 q-104 0 -173 -82.5t-69 -234.5z" />
<glyph unicode="&#xf3;" horiz-adv-x="1159" d="M82 487.5q0 243.5 149.5 395t362.5 151.5q219 0 351 -131t132 -377q0 -244 -149.5 -394t-362.5 -150q-219 0 -351 131t-132 374.5zM338 496q0 -145 64.5 -219t177.5 -74q104 0 172.5 84t68.5 233q0 143 -65.5 218t-175.5 75q-104 0 -173 -82.5t-69 -234.5zM467 1128 l145 297h265l-224 -297h-186z" />
<glyph unicode="&#xf4;" horiz-adv-x="1159" d="M82 487.5q0 243.5 149.5 395t362.5 151.5q219 0 351 -131t132 -377q0 -244 -149.5 -394t-362.5 -150q-219 0 -351 131t-132 374.5zM250 1128l229 297h221l211 -297h-217l-112 160h-13l-114 -160h-205zM338 496q0 -145 64.5 -219t177.5 -74q104 0 172.5 84t68.5 233 q0 143 -65.5 218t-175.5 75q-104 0 -173 -82.5t-69 -234.5z" />
<glyph unicode="&#xf5;" horiz-adv-x="1159" d="M82 487.5q0 243.5 149.5 395t362.5 151.5q219 0 351 -131t132 -377q0 -244 -149.5 -394t-362.5 -150q-219 0 -351 131t-132 374.5zM270 1300q82 121 199 121q57 0 141 -59t121 -59q68 0 119 69l43 -145q-68 -117 -186 -117q-51 0 -139.5 59.5t-123.5 59.5q-76 0 -131 -74 zM338 496q0 -145 64.5 -219t177.5 -74q104 0 172.5 84t68.5 233q0 143 -65.5 218t-175.5 75q-104 0 -173 -82.5t-69 -234.5z" />
<glyph unicode="&#xf6;" horiz-adv-x="1159" d="M82 487.5q0 243.5 149.5 395t362.5 151.5q219 0 351 -131t132 -377q0 -244 -149.5 -394t-362.5 -150q-219 0 -351 131t-132 374.5zM276 1286q0 59 32 97t91 38q125 0 125 -135q0 -57 -32.5 -95t-92.5 -38q-123 0 -123 133zM338 496q0 -145 64.5 -219t177.5 -74 q104 0 172.5 84t68.5 233q0 143 -65.5 218t-175.5 75q-104 0 -173 -82.5t-69 -234.5zM639 1286q0 59 31.5 97t91.5 38q125 0 125 -135q0 -57 -33 -95t-92 -38q-123 0 -123 133z" />
<glyph unicode="&#xf7;" d="M133 508v199h807v-199h-807zM424 291q0 53 30.5 82.5t82 29.5t82 -29.5t30.5 -82.5t-30.5 -83t-82 -30t-82 30t-30.5 83zM424 923.5q0 53.5 30.5 83t82 29.5t82 -29.5t30.5 -83t-30.5 -83t-82 -29.5t-82 29.5t-30.5 83z" />
<glyph unicode="&#xf8;" horiz-adv-x="1159" d="M82 487q0 244 149.5 395.5t362.5 151.5q111 0 203 -35l67 115l103 -59l-66 -113q176 -133 176 -416q0 -244 -149.5 -394t-362.5 -150q-104 0 -198 32l-64 -108l-102 59l59 105q-178 128 -178 417zM330 496q0 -135 57 -217l301 522q-51 20 -108 20q-104 0 -177 -86.5 t-73 -238.5zM477 213q43 -18 103 -18q104 0 176.5 88t72.5 237q0 127 -55 209z" />
<glyph unicode="&#xf9;" horiz-adv-x="1112" d="M123 356v654l250 10v-614q0 -104 39 -148.5t129 -44.5q88 0 182 41v756l250 10v-1020h-242v70q-76 -49 -130 -69.5t-126 -20.5q-176 0 -264 97t-88 279zM260 1425h262l148 -297h-187z" />
<glyph unicode="&#xfa;" horiz-adv-x="1112" d="M123 356v654l250 10v-614q0 -104 39 -148.5t129 -44.5q88 0 182 41v756l250 10v-1020h-242v70q-76 -49 -130 -69.5t-126 -20.5q-176 0 -264 97t-88 279zM434 1128l146 297h264l-223 -297h-187z" />
<glyph unicode="&#xfb;" horiz-adv-x="1112" d="M123 356v654l250 10v-614q0 -104 39 -148.5t129 -44.5q88 0 182 41v756l250 10v-1020h-242v70q-76 -49 -130 -69.5t-126 -20.5q-176 0 -264 97t-88 279zM217 1128l229 297h222l211 -297h-217l-113 160h-12l-115 -160h-205z" />
<glyph unicode="&#xfc;" horiz-adv-x="1112" d="M123 356v654l250 10v-614q0 -104 39 -148.5t129 -44.5q88 0 182 41v756l250 10v-1020h-242v70q-76 -49 -130 -69.5t-126 -20.5q-176 0 -264 97t-88 279zM244 1286q0 59 31.5 97t91.5 38q125 0 125 -135q0 -57 -33 -95t-92 -38q-123 0 -123 133zM606 1286q0 59 32 97 t91 38q125 0 125 -135q0 -57 -33 -95t-92 -38q-123 0 -123 133z" />
<glyph unicode="&#xfd;" horiz-adv-x="970" d="M16 1016h277l213 -793h8l188 793h254l-338 -1155q-80 -264 -387 -264q-78 0 -137 10v200q59 -8 129 -8q57 0 105.5 35t68.5 100l29 89h-98zM371 1128l145 297h264l-223 -297h-186z" />
<glyph unicode="&#xfe;" horiz-adv-x="1144" d="M139 -391v1810l252 13v-484q119 80 254 80q197 0 307.5 -123t110.5 -362q0 -264 -150.5 -409.5t-404.5 -145.5q-66 0 -117 14v-393h-252zM389 211q61 -10 115 -10q143 0 223 80.5t80 242.5q0 137 -62.5 205t-175.5 68q-92 0 -180 -33v-553z" />
<glyph unicode="&#xff;" horiz-adv-x="970" d="M16 1016h277l213 -793h8l188 793h254l-338 -1155q-80 -264 -387 -264q-78 0 -137 10v200q59 -8 129 -8q57 0 105.5 35t68.5 100l29 89h-98zM182 1286q0 59 32 97t91 38q125 0 125 -135q0 -57 -32.5 -95t-92.5 -38q-123 0 -123 133zM545 1286q0 59 31.5 97t91.5 38 q125 0 125 -135q0 -57 -33 -95t-92 -38q-123 0 -123 133z" />
<glyph unicode="&#x152;" horiz-adv-x="1871" d="M96 659q0 330 189.5 516.5t470.5 186.5q162 0 282 -72v53h715v-217h-450v-327h415v-217h-415v-365h456v-217h-723v68q-119 -86 -307 -86q-279 0 -456 172.5t-177 504.5zM377 682q0 -238 101.5 -350.5t262.5 -112.5q188 0 295 146v618q-100 143 -295 143 q-154 0 -259 -111.5t-105 -332.5z" />
<glyph unicode="&#x153;" horiz-adv-x="1781" d="M82 487.5q0 243.5 149.5 395t364.5 151.5q231 0 362 -147q131 147 338 147q188 0 298 -109.5t110 -306.5q0 -94 -8 -184h-623q23 -121 97.5 -178t211.5 -57q143 0 291 45v-205q-166 -51 -323 -51q-274 0 -410 159q-145 -166 -373 -165q-219 0 -352 131t-133 374.5z M338 496q0 -145 64.5 -219t179.5 -74q106 0 174.5 84t68.5 233q0 143 -66.5 218t-176.5 75q-106 0 -175 -82.5t-69 -234.5zM1073 614h389q0 100 -50 164t-134 64q-80 0 -135.5 -59.5t-69.5 -168.5z" />
<glyph unicode="&#x178;" horiz-adv-x="1128" d="M16 1343h299l267 -565h8l260 565h262l-414 -806v-537h-266v537zM254 1597q0 59 31.5 97.5t91.5 38.5q125 0 125 -136q0 -57 -33 -95t-92 -38q-123 0 -123 133zM629 1597q0 59 31.5 97.5t91.5 38.5q125 0 125 -136q0 -57 -33 -95t-92 -38q-123 0 -123 133z" />
<glyph unicode="&#x2c6;" horiz-adv-x="753" d="M43 1128l229 297h222l211 -297h-218l-112 160h-13l-114 -160h-205z" />
<glyph unicode="&#x2dc;" horiz-adv-x="798" d="M78 1300q82 121 198 121q57 0 141.5 -59t121.5 -59q68 0 118 69l43 -145q-68 -117 -186 -117q-51 0 -139 59.5t-123 59.5q-76 0 -131 -74z" />
<glyph unicode="&#x2000;" horiz-adv-x="911" />
<glyph unicode="&#x2001;" horiz-adv-x="1824" />
<glyph unicode="&#x2002;" horiz-adv-x="911" />
<glyph unicode="&#x2003;" horiz-adv-x="1824" />
<glyph unicode="&#x2004;" horiz-adv-x="608" />
<glyph unicode="&#x2005;" horiz-adv-x="454" />
<glyph unicode="&#x2006;" horiz-adv-x="303" />
<glyph unicode="&#x2007;" horiz-adv-x="303" />
<glyph unicode="&#x2008;" horiz-adv-x="227" />
<glyph unicode="&#x2009;" horiz-adv-x="364" />
<glyph unicode="&#x200a;" horiz-adv-x="100" />
<glyph unicode="&#x2010;" horiz-adv-x="798" d="M135 473v229h529v-229h-529z" />
<glyph unicode="&#x2011;" horiz-adv-x="798" d="M135 473v229h529v-229h-529z" />
<glyph unicode="&#x2012;" horiz-adv-x="798" d="M135 473v229h529v-229h-529z" />
<glyph unicode="&#x2013;" horiz-adv-x="1024" d="M59 485v205h906v-205h-906z" />
<glyph unicode="&#x2014;" horiz-adv-x="2048" d="M59 485v205h1930v-205h-1930z" />
<glyph unicode="&#x2018;" horiz-adv-x="530" d="M98 1034q0 92 105.5 240.5t148.5 148.5h115l-115 -262q80 -41 80 -139q0 -70 -46 -119t-120 -49q-78 0 -123 46t-45 134z" />
<glyph unicode="&#x2019;" horiz-adv-x="530" d="M63 854l115 262q-80 41 -80 139q0 70 46 119t120 49q76 0 122 -46t46 -134q0 -92 -105.5 -240.5t-148.5 -148.5h-115z" />
<glyph unicode="&#x201a;" horiz-adv-x="530" d="M63 -225l115 262q-80 41 -80 139q0 70 46 119t120 49q76 0 122 -46t46 -134q0 -92 -105.5 -240.5t-148.5 -148.5h-115z" />
<glyph unicode="&#x201c;" horiz-adv-x="952" d="M98 1034q0 92 105.5 240.5t148.5 148.5h115l-115 -262q80 -41 80 -139q0 -70 -46 -119t-120 -49q-78 0 -123 46t-45 134zM520 1034q0 92 105.5 240.5t148.5 148.5h115l-115 -262q80 -41 80 -139q0 -70 -46 -119t-120 -49q-76 0 -122 46t-46 134z" />
<glyph unicode="&#x201d;" horiz-adv-x="952" d="M63 862l115 262q-80 39 -80 140q0 70 46 118t120 48q76 0 122 -45.5t46 -133.5q0 -92 -105.5 -240.5t-148.5 -148.5h-115zM485 862l115 262q-80 39 -80 140q0 70 46 118t120 48q78 0 123 -45.5t45 -133.5q0 -92 -105.5 -240.5t-148.5 -148.5h-115z" />
<glyph unicode="&#x201e;" horiz-adv-x="952" d="M63 -225l115 262q-80 41 -80 139q0 70 46 119t120 49q76 0 122 -46t46 -134q0 -92 -105.5 -240.5t-148.5 -148.5h-115zM485 -225l115 262q-80 41 -80 139q0 70 46 119t120 49q76 0 122 -45t46 -135q0 -92 -105.5 -240.5t-148.5 -148.5h-115z" />
<glyph unicode="&#x2022;" horiz-adv-x="569" d="M49 604q0 113 62.5 180.5t173 67.5t173 -64.5t62.5 -183.5q0 -106 -64.5 -174t-170.5 -68q-113 0 -174.5 63.5t-61.5 178.5z" />
<glyph unicode="&#x2026;" horiz-adv-x="1458" d="M98 164q0 80 43 130t123 50t124 -46t44 -134q0 -78 -43 -126t-123 -48q-168 0 -168 174zM563 164q0 80 43 130t123 50t124 -46t44 -134q0 -76 -44 -125t-122 -49q-168 0 -168 174zM1028 164q0 78 43 129t121 51q168 0 168 -180q0 -78 -43 -126t-121 -48q-168 0 -168 174z " />
<glyph unicode="&#x202f;" horiz-adv-x="364" />
<glyph unicode="&#x2039;" horiz-adv-x="780" d="M100 514l332 438h244l-311 -428l311 -448h-244z" />
<glyph unicode="&#x203a;" horiz-adv-x="780" d="M104 76l312 428l-312 448h244l332 -438l-332 -438h-244z" />
<glyph unicode="&#x205f;" horiz-adv-x="454" />
<glyph unicode="&#x20ac;" d="M49 422v162h111v41q0 76 4 108h-115v166h139q55 225 203 341t369 116q115 0 231 -25v-231q-152 27 -237 26q-217 0 -283 -227h360v-166h-389q-4 -57 -4 -84q0 -25 4 -65h389v-162h-362q63 -217 274 -217q113 0 258 31v-220q-141 -33 -276 -32q-221 0 -362.5 109.5 t-186.5 328.5h-127z" />
<glyph unicode="&#x2122;" horiz-adv-x="1792" d="M102 1182v161h562v-161h-189v-568h-184v568h-189zM774 614l25 729h262l149 -440h4l162 440h232l24 -729h-172l-16 512h-4l-148 -419h-182l-147 419h-7l-10 -512h-172z" />
<glyph unicode="&#xe000;" horiz-adv-x="1014" d="M0 1015h1015v-1015h-1015v1015z" />
<glyph unicode="&#xfb01;" horiz-adv-x="1212" d="M45 825v191h131v65q0 184 107.5 269.5t367.5 85.5q244 0 439 -17l-17 -192q-225 12 -422 12q-131 0 -178 -34t-47 -122v-67h397l250 4v-1020h-252v825h-393v-825h-252v825h-131z" />
<glyph unicode="&#xfb02;" horiz-adv-x="1212" d="M45 825v191h131v65q0 178 101.5 266.5t326.5 88.5q115 0 217 -17l252 13v-1432h-252v1227q-86 12 -211 12q-102 0 -143 -35t-41 -121v-67h221v-191h-219v-825h-252v825h-131z" />
<glyph unicode="&#xfb03;" horiz-adv-x="1896" d="M45 825v191h131v65q0 354 410 355q82 0 147 -17l-18 -192q-68 12 -121 12q-88 0 -128 -38t-40 -118v-67h432v65q0 184 108.5 269.5t368.5 85.5q246 0 437 -17l-15 -192q-227 12 -422 12q-131 0 -178 -34t-47 -122v-67h395l252 4v-1020h-252v825h-395v-825h-252v825h-430 v-825h-252v825h-131z" />
<glyph unicode="&#xfb04;" horiz-adv-x="1896" d="M45 825v191h131v65q0 354 410 355q82 0 147 -17l-18 -192q-68 12 -121 12q-88 0 -128 -38t-40 -118v-67h432v65q0 178 102.5 266.5t327.5 88.5q113 0 217 -17l252 13v-1432h-252v1227q-84 12 -213 12q-100 0 -141 -35t-41 -121v-67h219v-191h-219v-825h-252v825h-430 v-825h-252v825h-131z" />
<glyph horiz-adv-x="360" />
</font>
</defs>
</svg>
