<?xml version="1.0" standalone="no"?>
<!DOCTYPE svg PUBLIC "-//W3C//DTD SVG 1.1//EN" "http://www.w3.org/Graphics/SVG/1.1/DTD/svg11.dtd" >
<svg xmlns="http://www.w3.org/2000/svg">
<metadata>
This is a custom SVG webfont generated by Font Squirrel.
Copyright   : Copyright 20082009 OurType  Peter Verheul wwwourtypecom
Designer    : Peter VerheulHet lettertype is afkomstig van OurType BVBA en is een aangepaste versie van de OT Versa auteur Peter Verheulwwwourtypecom
Foundry     : OurType  Peter Verheul
Foundry URL : httpwwwourtypecom
</metadata>
<defs>
<font id="RijksoverheidSerifBold" horiz-adv-x="1064" >
<font-face units-per-em="2048" ascent="1516" descent="-532" />
<missing-glyph horiz-adv-x="393" />
<glyph unicode=" "  horiz-adv-x="393" />
<glyph unicode="&#x09;" horiz-adv-x="393" />
<glyph unicode="&#xa0;" horiz-adv-x="393" />
<glyph unicode="!" horiz-adv-x="657" d="M168 127q0 61 43 104t104.5 43t104.5 -43t43 -104t-43 -104t-104.5 -43t-104.5 43t-43 104zM190 662q0 82 32 266t32 258q0 86 -29 168q178 33 369 32l-74 -153l-74 -352q-23 -109 -22 -248q0 -127 33 -242q-121 0 -194 73t-73 198z" />
<glyph unicode="&#x22;" horiz-adv-x="899" d="M162 1319h221l-8 -170q-2 -39 -14.5 -119t-24.5 -141l-10 -62h-105q-49 233 -51 320zM524 1319h219l-8 -170q-2 -39 -14 -119t-25 -141l-10 -62h-104q-47 233 -52 320z" />
<glyph unicode="#" d="M31 330l16 129h219l51 420h-217l15 129h219l45 352h133l-43 -352h252l45 352h133l-43 -352h217l-16 -129h-217l-54 -420h218l-17 -129h-217l-43 -348h-133l43 348h-252l-45 -348h-133l43 348h-219zM397 455h258l54 428h-258z" />
<glyph unicode="$" d="M115 20v336h75l15 -61q23 -88 85 -128t187 -40h6v410l-137 71q-213 111 -213 338q0 143 105.5 248.5t271.5 134.5v156h80v-148h24q197 0 320 -53l-23 -332h-75l-11 54q-16 90 -69.5 130t-161.5 40h-4v-379l145 -68q131 -61 187.5 -138t56.5 -196q0 -154 -119 -273.5 t-297 -148.5v-151h-80v143h-20q-205 0 -348 55zM369 1014q0 -106 147 -183v334q-70 -16 -108.5 -57t-38.5 -94zM557 135q76 16 120 59.5t44 104.5t-36 105.5t-128 93.5v-363z" />
<glyph unicode="%" horiz-adv-x="1515" d="M66 967q0 166 89 262t228 96q137 0 216 -80t79 -244q0 -166 -89 -262t-227 -96q-139 0 -217.5 80t-78.5 244zM262 983q0 -139 27.5 -192.5t79.5 -53.5q113 0 112 246q0 143 -25.5 194.5t-80.5 51.5q-51 0 -82 -61.5t-31 -184.5zM266 -57l881 1470l88 -49l-883 -1470z M836 301q0 166 89 262t228 96q137 0 216 -79.5t79 -243.5q0 -166 -89 -262.5t-226 -96.5q-139 0 -218 80t-79 244zM1032 317q0 -139 27.5 -192t79.5 -53q113 0 112 245q0 143 -25.5 194.5t-80.5 51.5q-51 0 -82 -61.5t-31 -184.5z" />
<glyph unicode="&#x26;" horiz-adv-x="1312" d="M84 283q0 115 79 208t218 138v2l-55 55q-82 82 -114 145.5t-32 139.5q0 152 116 256t294 104q156 0 249 -83t93 -208q0 -117 -78 -220t-192 -154v-2l319 -306q51 102 51 236l-149 51v55q129 33 227 33q102 0 195 -20v-45q-72 -23 -96.5 -44.5t-24.5 -58.5 q0 -168 -105 -291q98 -72 221 -124q-4 -80 -49 -128.5t-104 -48.5q-72 0 -143 64l-64 57q-170 -137 -395 -137q-223 0 -342 89.5t-119 236.5zM342 315q0 -96 68.5 -156.5t169.5 -60.5q162 0 258 80l-379 369q-117 -76 -117 -232zM406 1010q0 -113 81 -195l82 -84 q66 43 106 116t40 157q0 96 -41 148t-105 52q-70 0 -116.5 -52t-46.5 -142z" />
<glyph unicode="'" horiz-adv-x="536" d="M162 1319h221l-8 -170q-2 -39 -14.5 -119t-24.5 -141l-10 -62h-105q-49 233 -51 320z" />
<glyph unicode="(" horiz-adv-x="614" d="M102 426q0 207 50.5 406.5t122 329.5t143 210t119.5 80q41 0 57 -37q-133 -106 -229.5 -364t-96.5 -580q0 -197 39 -374t97.5 -290.5t122 -180t114.5 -66.5q-37 -63 -131 -64q-139 0 -273.5 257t-134.5 673z" />
<glyph unicode=")" horiz-adv-x="614" d="M-27 1391q37 61 131 61q139 0 273.5 -257t134.5 -671q0 -209 -50 -408.5t-122 -329.5t-143.5 -210t-118.5 -80q-41 0 -58 37q133 106 229.5 364.5t96.5 581.5q0 197 -39 374t-97 290.5t-122 180.5t-115 67z" />
<glyph unicode="*" horiz-adv-x="1024" d="M137 1020q0 41 29 65.5t76 24.5q45 0 115.5 -26.5t119.5 -63.5l4 2q-45 137 -123 238q57 78 113 77q45 0 72.5 -45t27.5 -125q0 -94 -22 -159l4 -2q115 84 186 190q113 -39 113 -109q0 -61 -87 -105t-206 -44l-2 -4q121 -86 240 -119q0 -145 -95 -145q-53 0 -114.5 67.5 t-91.5 169.5l-4 -2q-39 -127 -39 -264q-41 -14 -74 -14q-45 0 -71.5 25.5t-26.5 66.5q0 43 49 116.5t116 120.5l-2 5q-156 0 -264 -46q-43 60 -43 105z" />
<glyph unicode="+" d="M98 395v133h365v394h139v-394h365v-133h-365v-395h-139v395h-365z" />
<glyph unicode="," horiz-adv-x="563" d="M68 -274q143 160 143 340l-88 106q70 102 164 102q61 0 100 -38.5t39 -104.5q0 -139 -88 -262t-191 -162z" />
<glyph unicode="-" horiz-adv-x="643" d="M55 440l47 195l494 31l-43 -197z" />
<glyph unicode="." horiz-adv-x="563" d="M135 127q0 61 43 104t104.5 43t104.5 -43t43 -104t-43 -104t-104.5 -43t-104.5 43t-43 104z" />
<glyph unicode="/" horiz-adv-x="665" d="M45 -473l455 1948l123 -25l-453 -1948z" />
<glyph unicode="0" horiz-adv-x="1046" d="M61 459q0 246 129 395.5t351 149.5q219 0 332.5 -128t113.5 -368q0 -248 -127 -396.5t-352 -148.5q-219 0 -333 128t-114 368zM332 481q0 -377 188 -377q90 0 143.5 98.5t53.5 282.5q0 377 -189 377q-90 0 -143 -98.5t-53 -282.5z" />
<glyph unicode="1" horiz-adv-x="763" d="M86 807v90q168 86 350 86q25 0 105 -6q-20 -102 -21 -193v-673l148 -33v-47q-121 -49 -320 -49q-117 0 -227 18v47q154 57 153 172v598z" />
<glyph unicode="2" horiz-adv-x="944" d="M49 139l375 330q137 119 137 221q0 61 -42 98t-113 37q-152 0 -291 -151q-31 61 -31 135q0 80 92 131t274.5 51t283 -72.5t100.5 -185.5q0 -186 -254 -350l-295 -203v-2h145q221 0 432 74q23 -49 23 -115q0 -76 -53.5 -113.5t-174.5 -37.5q-49 0 -262 7t-332 7z" />
<glyph unicode="3" horiz-adv-x="931" d="M41 -197q0 47 18 84q55 -45 133 -73.5t144 -28.5q100 0 174 62.5t74 160.5t-81 157.5t-220 59.5q-45 0 -90 -10l-27 147h90q125 2 223.5 82t98.5 193q0 88 -57.5 138t-151.5 50q-135 0 -273 -141q-29 61 -28 127q0 76 94 128t272 52q186 0 297 -84t111 -213 q0 -125 -99.5 -229.5t-244.5 -134.5v-2q164 0 257 -74t93 -207q0 -164 -158 -286.5t-364 -122.5q-285 -1 -285 165z" />
<glyph unicode="4" horiz-adv-x="1034" d="M51 147q63 279 239.5 514.5t395.5 333.5l143 -26q-14 -186 -14 -377v-395h59q59 0 109 32q18 -45 18 -90q0 -72 -30.5 -103.5t-98.5 -31.5h-57v-137q0 -121 -43 -175t-129 -54q-57 0 -106 20q43 86 43 188v162h-519zM227 190h359v369q0 137 12 215l-4 4 q-109 -92 -217.5 -263t-149.5 -325z" />
<glyph unicode="5" horiz-adv-x="931" d="M47 -197q0 43 21 84q57 -45 132.5 -73.5t135.5 -28.5q115 0 193.5 71.5t78.5 186.5q0 104 -81 166.5t-216 62.5q-102 0 -176 -22l27 725q106 -8 192 -8q258 0 508 24q10 -45 10 -78q0 -80 -48 -114.5t-158 -34.5h-349l-12 -334q61 16 156 16q184 0 294.5 -93t110.5 -259 q0 -186 -157.5 -321t-380.5 -135q-281 -1 -281 165z" />
<glyph unicode="6" horiz-adv-x="1036" d="M74 469q0 389 206.5 624.5t501.5 235.5q123 0 169 -24.5t46 -81.5q0 -51 -26 -93q-94 49 -213 50q-123 0 -237.5 -103.5t-151.5 -275.5l2 -2q86 57 198 57q190 0 293 -105.5t103 -295.5q0 -221 -136.5 -358.5t-320.5 -137.5q-193 0 -313.5 137t-120.5 373zM332 498 q0 -201 54 -299.5t136 -98.5q74 0 129.5 78t55.5 225q0 150 -64.5 227t-167.5 77q-74 0 -129 -21q-14 -86 -14 -188z" />
<glyph unicode="7" horiz-adv-x="907" d="M43 977q229 -14 494 -14q168 0 297 12l45 -60l-213 -495q-174 -401 -301 -787q-119 0 -165 25t-46 76q0 117 309 672l192 344h-452q-88 0 -124 47t-36 180z" />
<glyph unicode="8" horiz-adv-x="1009" d="M68 279q0 115 76.5 210t211.5 144v2l-123 94q-123 94 -122 252q0 137 120.5 243.5t298.5 106.5q180 0 280.5 -84t100.5 -219q0 -100 -65.5 -186t-173.5 -140v-2l137 -94q76 -53 109.5 -113.5t33.5 -146.5q0 -156 -139 -269.5t-330 -113.5q-195 0 -305 87.5t-110 228.5z M276 303q0 -84 63.5 -141.5t160.5 -57.5q90 0 149.5 49.5t59.5 131.5q0 53 -32 99t-112 103l-112 82q-82 -45 -129.5 -115.5t-47.5 -150.5zM338 1026q0 -55 30.5 -100t100.5 -97l104 -75q63 45 102.5 115.5t39.5 142.5q0 80 -54.5 129t-138.5 49q-76 0 -130 -48t-54 -116z " />
<glyph unicode="9" horiz-adv-x="1036" d="M53 -211q0 29 17 74q127 -78 247 -78q119 0 232 114.5t131 278.5l-2 2q-80 -59 -197 -59q-172 0 -289.5 116.5t-117.5 301.5q0 197 129 324.5t317 127.5q203 0 326 -135t123 -383q0 -193 -58.5 -355.5t-153.5 -266t-213 -161t-243 -57.5q-135 0 -191.5 39t-56.5 117z M328 569q0 -143 62.5 -221t156.5 -78q88 0 151 25q8 57 9 147q0 211 -57.5 306.5t-143.5 95.5q-76 0 -127 -74t-51 -201z" />
<glyph unicode=":" horiz-adv-x="563" d="M135 127q0 61 43 104t104.5 43t104.5 -43t43 -104t-43 -104t-104.5 -43t-104.5 43t-43 104zM135 841.5q0 61.5 43 104.5t104.5 43t104.5 -43t43 -104.5t-43 -104.5t-104.5 -43t-104.5 43t-43 104.5z" />
<glyph unicode=";" horiz-adv-x="563" d="M68 -274q143 160 143 340l-88 106q70 102 164 102q61 0 100 -38.5t39 -104.5q0 -139 -88 -262t-191 -162zM135 841.5q0 61.5 43 104.5t104.5 43t104.5 -43t43 -104.5t-43 -104.5t-104.5 -43t-104.5 43t-43 104.5z" />
<glyph unicode="&#x3c;" d="M150 455l628 514l86 -111l-502 -395l504 -397l-92 -115z" />
<glyph unicode="=" d="M104 238v133h857v-133h-857zM104 553v133h857v-133h-857z" />
<glyph unicode="&#x3e;" d="M199 856l92 115l627 -504l-631 -514l-84 110l499 396z" />
<glyph unicode="?" horiz-adv-x="890" d="M109 1176q0 98 92 157.5t284 59.5q180 0 281.5 -77t101.5 -208q0 -100 -85 -197.5t-277 -216.5l-123 -76q25 -106 78 -212q-37 -8 -64 -9q-76 0 -124 45t-48 115q0 53 29 99t111 116l112 96q125 106 125 213q0 158 -178 158q-68 0 -148.5 -59.5t-130.5 -139.5 q-36 64 -36 136zM203 127q0 61 43 104t104.5 43t104.5 -43t43 -104t-43 -104t-104.5 -43t-104.5 43t-43 104z" />
<glyph unicode="@" horiz-adv-x="1757" d="M70 420q0 201 70.5 373t189.5 289.5t280.5 185t341.5 67.5q330 0 539 -195.5t209 -510.5q0 -152 -50.5 -282t-128 -212t-166.5 -128t-173 -46q-104 47 -146 105q-41 -35 -121.5 -65t-152.5 -30q-125 0 -202 66.5t-77 169.5q0 139 143.5 227t399.5 88v64q0 135 -41 188 t-129 53q-70 0 -158 -43t-155 -110q-14 53 -15 106q0 102 80 151.5t283 49.5q188 0 283.5 -75t95.5 -208q0 -27 -4 -98.5t-4 -89.5l-9 -326q25 -57 82 -88q88 45 161 193.5t73 324.5q0 281 -179.5 447t-453.5 166q-313 0 -518 -222.5t-205 -566.5q0 -156 44 -283.5 t114.5 -206.5t157.5 -121t178 -42q150 0 301 51q10 -18 10 -53q0 -53 -80 -92t-223 -39q-119 0 -232.5 51t-207 145.5t-149.5 243t-56 328.5zM727 238q0 -55 39 -90t104 -35q88 0 156 37v264q-139 0 -219 -49t-80 -127z" />
<glyph unicode="A" horiz-adv-x="1210" d="M-23 0v47q51 20 77 48t44 83l398 1127l268 26l348 -1225l109 -38v-54q-104 -35 -244 -34q-145 0 -242 20v47q78 27 78 90q0 15 -4 31l-59 217h-388l-75 -281l123 -36v-54q-111 -35 -260 -34q-91 0 -173 20zM399 520h320l-141 572h-3z" />
<glyph unicode="B" horiz-adv-x="1177" d="M68 1235v59q213 31 481 31q496 0 495 -311q0 -129 -99 -221.5t-249 -108.5v-2q193 0 298.5 -80t105.5 -225q0 -178 -156 -290t-420 -112q-307 0 -444 25v47q59 23 88 64t29 118v959zM461 115q37 -4 96 -4q106 0 184 69.5t78 173.5q0 119 -77.5 182.5t-217.5 63.5h-63 v-485zM461 719q150 0 231.5 70.5t81.5 197.5q0 96 -61.5 149.5t-173.5 53.5q-49 0 -78 -4v-467z" />
<glyph unicode="C" horiz-adv-x="1144" d="M78 621q0 315 189.5 514.5t463.5 199.5q217 0 334 -59l-18 -328h-70l-10 49q-23 92 -79.5 136.5t-162.5 44.5q-143 0 -244.5 -138.5t-101.5 -390.5q0 -258 100.5 -392t241.5 -134q109 0 165 36t93 120l22 51h70l-20 -299q-135 -66 -391.5 -66t-419 171.5t-162.5 484.5z " />
<glyph unicode="D" horiz-adv-x="1396" d="M68 1235v59q221 31 495 31q356 0 556 -159.5t200 -450.5q0 -221 -108.5 -391t-288 -257t-396.5 -87q-285 0 -446 20v47q61 25 89 65t28 121v955zM463 135q47 -8 92 -8q203 0 336 140.5t133 408.5q0 236 -133 368t-334 132q-29 0 -94 -5v-1036z" />
<glyph unicode="E" horiz-adv-x="1001" d="M68 1245v66h854l-17 -332h-76l-6 39q-12 82 -50 113.5t-126 31.5h-184v-442h192q115 0 140 74l14 45h70v-402h-70l-8 45q-20 100 -109 101h-229v-441h227q78 0 117 23.5t65 79.5l21 43h74l-37 -289h-850v55q63 25 90 63t27 113v959z" />
<glyph unicode="F" horiz-adv-x="948" d="M68 1245v66h860l-17 -332h-73l-7 39q-12 78 -52 111.5t-126 33.5h-190v-458h188q119 0 148 92l14 45h70v-414h-70l-10 51q-18 88 -125 88h-215v-458l149 -41v-54q-139 -35 -290 -34q-147 0 -242 20v47q117 45 117 178v965z" />
<glyph unicode="G" horiz-adv-x="1273" d="M78 604q0 334 194.5 532.5t505.5 198.5q219 0 350 -61l-24 -326h-70l-12 53q-20 92 -81.5 134.5t-180.5 42.5q-168 0 -274.5 -137.5t-106.5 -399.5q0 -250 95 -383t243 -133q96 0 176 35v370l-121 37v56q129 33 264 32q137 0 230 -20v-45q-117 -47 -117 -168v-449 q-162 0 -225 70q-104 -78 -283 -78q-246 0 -404.5 170t-158.5 469z" />
<glyph unicode="H" horiz-adv-x="1421" d="M68 1237v53q133 35 288 35q117 0 224 -20v-48q-59 -25 -87 -63.5t-28 -110.5v-321h491v434l-129 41v53q133 35 289 35q117 0 223 -20v-48q-59 -25 -86.5 -63.5t-27.5 -110.5v-977l127 -38v-54q-129 -35 -287 -34q-131 0 -225 20v47q59 25 87.5 65t28.5 111v379h-491v-496 l127 -38v-54q-129 -35 -287 -34q-131 0 -225 20v47q59 25 88 65t29 111v973z" />
<glyph unicode="I" horiz-adv-x="661" d="M68 1237v53q145 35 288 35q121 0 224 -20v-48q-63 -27 -89 -65.5t-26 -112.5v-973l127 -38v-54q-133 -35 -277 -34q-141 0 -235 20v47q59 23 88 64t29 118v967z" />
<glyph unicode="J" horiz-adv-x="661" d="M29 -195q74 45 121 140.5t47 214.5v1036l-129 41v53q145 35 290 35q119 0 222 -20v-48q-61 -25 -88 -65.5t-27 -114.5v-887q0 -213 -84 -329.5t-205 -116.5q-78 0 -147 29v32z" />
<glyph unicode="K" horiz-adv-x="1245" d="M68 1237v53q137 35 284 35q123 0 228 -20v-48q-63 -29 -89 -66.5t-26 -113.5v-971l123 -38v-54q-123 -35 -279 -34q-135 0 -229 20v47q63 25 90 66t27 118v965zM473 664v10l447 524v4l-117 35v53q139 35 276 35q92 0 168 -20v-48q-100 -45 -160 -110l-356 -404l336 -481 q82 -117 223 -190v-47q-90 -51 -219 -52q-82 0 -142.5 38t-125.5 141z" />
<glyph unicode="L" horiz-adv-x="964" d="M68 1237v53q141 35 282 35q129 0 230 -20v-48q-63 -27 -89 -67.5t-26 -112.5v-930h205q94 0 143 26t74 81l22 47h62l-37 -301h-854v51q117 43 117 166v979z" />
<glyph unicode="M" horiz-adv-x="1681" d="M37 0v37q104 51 113 141l88 1014l-115 43v68q156 16 336 16h123l280 -920h2l301 920h131q127 0 285 -16v-68l-121 -39l64 -1094l121 -34v-54q-92 -35 -238 -34q-158 0 -264 20v47q63 25 90 65t27 121l-29 838l-2 2l-350 -1081l-146 -12l-354 1091l-2 -2l-39 -960l129 -41 v-54q-123 -35 -252 -34q-90 0 -178 20z" />
<glyph unicode="N" horiz-adv-x="1320" d="M76 1235v68q131 14 305 14h86l508 -854l2 2v735l-129 39v55q125 33 223 33q100 0 180 -20v-45q-63 -29 -86.5 -70t-23.5 -127v-1065l-187 -23l-592 996l-2 -2v-865l125 -38v-54q-94 -35 -204 -34q-119 0 -201 20v47q61 23 89 66t28 123v954z" />
<glyph unicode="O" horiz-adv-x="1411" d="M78 616q0 317 195.5 519t465.5 202q262 0 428 -173t166 -457q0 -348 -189.5 -546t-463.5 -198q-268 0 -435 175t-167 478zM379 651q0 -250 94 -386t229 -136q139 0 235.5 130t96.5 407q0 250 -93 377.5t-226 127.5q-139 0 -237.5 -136t-98.5 -384z" />
<glyph unicode="P" horiz-adv-x="1167" d="M68 1235v59q217 31 499 31q276 0 417.5 -103.5t141.5 -297.5q0 -201 -151.5 -335t-366.5 -134q-84 0 -143 26v-372l147 -41v-54q-125 -35 -297 -34q-141 0 -235 20v47q117 45 117 172v969zM463 614q57 -14 112 -14q115 0 193 80t78 215q0 137 -81 212t-220 75 q-39 0 -82 -6v-562z" />
<glyph unicode="Q" horiz-adv-x="1411" d="M78 616q0 315 194.5 518t466.5 203q262 0 428 -174t166 -456q0 -287 -136 -472.5t-368 -246.5v-2q84 -23 160 -68l125 -70q147 -82 217 -81q63 0 121 12v-55q-76 -137 -235.5 -137.5t-323.5 128.5l-336 262q-223 47 -351 211t-128 428zM379 651q0 -250 94 -386t229 -136 q139 0 235.5 130t96.5 407q0 250 -93 377.5t-226 127.5q-139 0 -237.5 -136t-98.5 -384z" />
<glyph unicode="R" horiz-adv-x="1228" d="M68 1235v61q215 29 497 29q508 0 508 -346q0 -145 -77.5 -248.5t-209.5 -138.5l263 -348q90 -119 202 -176v-45q-92 -49 -217 -50q-82 0 -137 33t-115 123l-239 369h-78v-392l123 -38v-54q-127 -37 -277 -37q-125 0 -231 23v47q117 43 117 176v967zM463 625h80 q113 0 184.5 78.5t71.5 232.5q0 119 -68.5 182.5t-185.5 63.5q-45 0 -82 -6v-551z" />
<glyph unicode="S" horiz-adv-x="1003" d="M74 20v336h76l14 -61q23 -88 85 -128t187 -40q111 0 177.5 48t66.5 124q0 63 -37 107.5t-133 95.5l-205 106q-213 111 -213 338q0 168 137.5 279.5t343.5 111.5q197 0 320 -53l-23 -332h-75l-11 54q-16 90 -69 130t-162 40q-104 0 -164.5 -47.5t-60.5 -114.5 q0 -113 157 -187l209 -98q131 -61 187.5 -138t56.5 -196q0 -174 -151.5 -302t-364.5 -128q-205 0 -348 55z" />
<glyph unicode="T" horiz-adv-x="1015" d="M-6 981v336q315 -8 541 -8q283 0 487 18v-346h-76l-10 51q-27 141 -135 142h-158v-1068l148 -38v-54q-143 -35 -293 -34q-160 0 -240 20v47q117 47 117 180v947h-137q-121 0 -156 -142l-12 -51h-76z" />
<glyph unicode="U" horiz-adv-x="1363" d="M43 1237v53q143 35 285 35q133 0 227 -20v-48q-63 -25 -90 -66.5t-27 -121.5v-635q0 -139 74 -215t207 -76q131 0 205.5 85t74.5 255v713l-127 41v53q129 37 236 37q104 0 201 -24v-46q-63 -29 -89 -67.5t-26 -108.5v-567q0 -262 -139.5 -403.5t-366.5 -141.5 q-518 0 -518 420v809z" />
<glyph unicode="V" horiz-adv-x="1050" d="M-70 1237v53q127 35 246 35q123 0 242 -20v-48q-65 -24 -65 -90q0 -23 7 -51l228 -739h2l217 821l-125 39v53q127 35 254 35q90 0 162 -22v-46q-78 -33 -117 -139l-379 -1132l-147 -6l-416 1218z" />
<glyph unicode="W" horiz-adv-x="1703" d="M-43 1237v55q113 33 252 33q150 0 235 -18v-47q-68 -18 -68 -81q0 -16 5 -36l190 -750h2l179 809l-90 35v53q113 35 235 35q133 0 207 -20v-48q-42 -20 -42 -70q0 -18 5 -40l184 -752h2l168 803l-116 39v53q127 35 239 35q102 0 164 -20v-48q-82 -43 -109 -137 l-321 -1132l-172 -8l-256 1019h-2l-240 -1011l-172 -8l-364 1218z" />
<glyph unicode="X" horiz-adv-x="1134" d="M-23 0v47q111 31 152 105l299 505l-303 545l-113 35v53q111 35 238 35q139 0 246 -20v-50q-62 -22 -62 -62q0 -13 6 -28l156 -323l195 360l-105 35v53q139 35 242 35q100 0 178 -20v-48q-41 -10 -69.5 -33.5t-61.5 -76.5l-273 -422l340 -623l113 -39v-49 q-102 -31 -229 -30q-145 0 -254 16v47q39 8 53 35q6 12 6 26q0 19 -10 42l-191 370l-208 -418l120 -34v-56q-121 -29 -260 -28q-121 0 -205 16z" />
<glyph unicode="Y" d="M-41 1237v53q115 35 242 35q111 0 221 -20v-48q-59 -23 -59 -69q0 -22 14 -49l209 -418h4l225 479l-104 37v53q121 35 227 35q88 0 168 -20v-48q-37 -14 -60.5 -38.5t-56.5 -85.5l-309 -555v-472l127 -38v-54q-125 -33 -285 -32q-143 0 -227 18v47q117 33 117 148v329 l-353 676z" />
<glyph unicode="Z" horiz-adv-x="1026" d="M53 39l602 1116h-319q-119 0 -164 -137l-14 -45h-82l28 338h879l16 -43l-606 -1108h309q92 0 137.5 31.5t69.5 107.5l17 51h78l-29 -350h-905z" />
<glyph unicode="[" horiz-adv-x="563" d="M193 -483v1931h352l-17 -105h-190v-1726h207l-17 -100h-335z" />
<glyph unicode="\" horiz-adv-x="665" d="M45 1450l123 25l455 -1948l-125 -25z" />
<glyph unicode="]" horiz-adv-x="563" d="M20 -483l15 102h190v1727h-205l15 102h338v-1931h-353z" />
<glyph unicode="^" d="M29 313l514 629l504 -625l-115 -94l-397 504l-398 -500z" />
<glyph unicode="_" horiz-adv-x="1024" d="M0 -145h1024v-134h-1024v134z" />
<glyph unicode="`" horiz-adv-x="921" d="M295 1348q0 49 39 73.5t137 24.5q12 -88 62.5 -193.5t103.5 -173.5l-29 -16q-76 0 -194.5 102.5t-118.5 182.5z" />
<glyph unicode="a" horiz-adv-x="989" d="M66 207q0 141 144 233t400 92v52q0 145 -40 200.5t-128 55.5q-74 0 -159.5 -42t-153.5 -110q-16 66 -16 105q0 102 83 153t281 51q186 0 284.5 -75.5t98.5 -208.5q0 -29 -4 -114t-4 -97l-8 -318q31 -59 88 -104q-27 -31 -84 -64.5t-113 -52.5q-66 37 -114 103 q-39 -35 -120 -65t-153 -30q-129 0 -205.5 65t-76.5 171zM311 238q0 -57 39 -91t107 -34q88 0 155 37v274q-139 0 -220 -53t-81 -133z" />
<glyph unicode="b" horiz-adv-x="1124" d="M35 1374v51q138 47 271 48h22h104l-14 -150v-428q106 96 262 96q172 0 274.5 -110.5t102.5 -323.5q0 -272 -156 -426t-387 -154q-207 0 -381 31q33 106 33 211v1096zM416 129q55 -16 104 -16q115 0 194 100t79 295q0 152 -67 233.5t-163 81.5q-78 0 -147 -32v-662z" />
<glyph unicode="c" horiz-adv-x="851" d="M68 442q0 252 146 401.5t374 149.5q131 0 185 -34.5t54 -106.5q0 -80 -55 -150q-109 129 -233 129q-88 0 -147.5 -90t-59.5 -260q0 -156 72.5 -245t181.5 -89q115 0 229 66q12 -29 12 -68q0 -78 -80.5 -127t-234.5 -49q-193 0 -318.5 129t-125.5 344z" />
<glyph unicode="d" horiz-adv-x="1110" d="M68 424q0 266 144 416.5t363 150.5q92 0 136 -12v336l-138 59v51q138 47 277 48h22h105l-14 -150v-1130q33 -72 84 -121q-80 -63 -207 -109q-74 49 -117 119q-49 -47 -121 -78t-137 -31q-176 0 -286.5 121t-110.5 330zM332 459q0 -156 64.5 -244t152.5 -88q100 0 164 47 v666q-53 14 -129 14q-109 0 -180.5 -99t-71.5 -296z" />
<glyph unicode="e" horiz-adv-x="978" d="M68 440q0 262 133 409.5t334 147.5q180 0 283.5 -104.5t103.5 -282.5q0 -84 -4 -145h-592q0 -139 85 -226t212 -87q137 0 280 73q6 -25 6 -61q0 -78 -101 -136.5t-276 -58.5q-205 0 -334.5 128t-129.5 343zM322 592h364q0 276 -176 276q-74 0 -131 -79.5t-57 -196.5z" />
<glyph unicode="f" horiz-adv-x="634" d="M63 819v92l115 52l-2 135v11q0 158 108 260q112 105 316 106q129 0 180 -30t51 -93q0 -45 -18 -92q-121 68 -268 67q-53 0 -87 -51t-34 -152q0 -98 8 -176h236l-17 -129h-221v-723l123 -33v-47q-113 -35 -291 -34q-106 0 -190 18v41q43 18 74.5 52t31.5 73v653h-115z" />
<glyph unicode="g" horiz-adv-x="1013" d="M37 -268q0 78 54 138t138 83v2q-119 45 -118 160q0 59 47 114.5t114 75.5v2q-84 29 -142 107t-58 186q0 168 129 282.5t317 114.5q66 0 131.5 -20.5t95.5 -48.5q72 76 189 76q55 0 94 -17l-14 -160q-98 25 -232 25v-2q61 -33 102.5 -95.5t41.5 -127.5q0 -168 -126 -271.5 t-323 -103.5q-76 0 -127 20q-49 -29 -49 -79q0 -82 122 -83q8 0 17 1l260 8h19q285 0 285 -250q0 -156 -157 -269.5t-386 -113.5q-209 0 -316.5 65.5t-107.5 180.5zM236 -225q0 -61 67.5 -100.5t188.5 -39.5q143 0 227 48.5t84 117.5q0 98 -148 99h-342q-77 -41 -77 -125z M328 606q0 -113 48 -177t113 -64q80 0 130.5 69.5t50.5 210.5q0 113 -47.5 173.5t-116.5 60.5q-76 0 -127 -72t-51 -201z" />
<glyph unicode="h" horiz-adv-x="1187" d="M51 1374v51q138 47 272 48h21h105l-15 -150v-449q115 115 295 115q309 0 309 -336v-557l109 -33v-47q-109 -35 -270 -34q-92 0 -166 18v41q76 39 75 139v383q0 250 -198 250q-86 0 -154 -41v-676l115 -33v-47q-113 -35 -283 -34q-106 0 -190 18v41q43 18 74.5 52t31.5 73 v1149z" />
<glyph unicode="i" horiz-adv-x="598" d="M55 883v49q147 49 289 49l105 -2l-15 -145v-738l115 -33v-47q-111 -35 -285 -34q-109 0 -188 18v41q43 18 74.5 52t31.5 73v657zM168 1282q0 61 43 104.5t108 43.5q63 0 102.5 -37t39.5 -101q0 -68 -42 -110.5t-108 -42.5q-61 0 -102 40t-41 103z" />
<glyph unicode="j" horiz-adv-x="577" d="M-14 -383q80 0 138 77t58 214v915l-125 60v49q143 49 287 49l105 -2l-15 -150v-868q0 -252 -71.5 -358.5t-204.5 -106.5q-135 0 -172 86v35zM164 1282q0 61 43 104.5t108 43.5q63 0 102.5 -37t39.5 -101q0 -68 -42 -110.5t-108 -42.5q-61 0 -102 40t-41 103z" />
<glyph unicode="k" horiz-adv-x="1038" d="M45 1374v51q140 47 274 48h21h104l-16 -150v-782l113 102q70 61 123 155.5t53 166.5q68 25 143 24q53 0 111 -18q-4 -182 -254 -371l-51 -35l272 -352q84 -106 156 -131v-53q-80 -47 -201 -47q-117 0 -186 102l-279 403v-391l104 -33v-47q-113 -35 -272 -34 q-109 0 -188 18v41q43 18 73.5 52t30.5 75v1147z" />
<glyph unicode="l" horiz-adv-x="591" d="M45 1374v51q138 47 272 48h21h104l-14 -150v-1227l113 -33v-47q-111 -35 -283 -34q-109 0 -188 18v41q43 18 74.5 52t31.5 73v1149z" />
<glyph unicode="m" horiz-adv-x="1761" d="M57 885v51q146 47 268 47h19h80v-115q125 121 303 121q90 0 158.5 -34.5t97.5 -96.5q57 53 148.5 92t181.5 39q299 0 299 -338v-555l108 -33v-47q-109 -35 -268 -34q-94 0 -168 18v41q76 39 76 139v389q0 123 -53.5 183.5t-145.5 60.5q-84 0 -149 -33q12 -70 12 -135 v-549l106 -33v-47q-109 -35 -266 -34q-92 0 -166 18v41q74 41 74 139v377q0 137 -48 196.5t-140 59.5q-86 0 -150 -41v-676l111 -33v-47q-111 -35 -279 -34q-106 0 -190 18v41q43 18 74.5 52t31.5 73v659z" />
<glyph unicode="n" horiz-adv-x="1187" d="M57 885v51q146 47 268 47h19h80v-115q121 121 307 121q307 0 307 -338v-555l109 -33v-47q-109 -35 -268 -34q-94 0 -168 18v41q76 39 75 139v385q0 127 -53 187.5t-143 60.5q-92 0 -156 -41v-676l115 -33v-47q-113 -35 -283 -34q-106 0 -190 18v41q43 18 74.5 52t31.5 73 v659z" />
<glyph unicode="o" horiz-adv-x="1144" d="M68 444q0 244 154.5 400.5t375.5 156.5q213 0 346 -131t133 -344q0 -254 -156.5 -407.5t-367.5 -153.5q-217 0 -351 131t-134 348zM340 461q0 -162 67.5 -254t157.5 -92q94 0 167 99t73 296q0 164 -65.5 253t-159.5 89q-96 0 -168 -100.5t-72 -290.5z" />
<glyph unicode="p" horiz-adv-x="1132" d="M47 885v51q150 47 270 47h19h80v-102q115 111 270 110q174 0 276.5 -112.5t102.5 -329.5q0 -268 -147.5 -420t-362.5 -152q-61 0 -129 23v-389l133 -35v-47q-111 -35 -303 -35q-109 0 -188 19v41q43 18 74.5 52t31.5 72v1147zM424 131q51 -18 115 -18q111 0 186.5 99 t75.5 290q0 158 -67.5 239.5t-168.5 81.5q-74 0 -141 -30v-662z" />
<glyph unicode="q" horiz-adv-x="1116" d="M70 426q0 260 144 412.5t361 152.5q94 0 160 -33l160 39h84l-14 -182v-1204l122 -35v-47q-111 -35 -290 -35q-109 0 -191 19v41q43 18 75 52t32 72v383q-45 -37 -116 -62.5t-134 -25.5q-174 0 -283.5 121t-109.5 332zM334 459q0 -158 62.5 -245t152.5 -87q102 0 166 43 v666q-49 20 -125 20q-113 0 -184.5 -100t-71.5 -297z" />
<glyph unicode="r" horiz-adv-x="751" d="M57 885v51q146 47 268 47h19h80v-158h4l55 72q72 94 166 94q109 0 109 -100q0 -80 -31 -160q-72 43 -131 43q-88 0 -162 -61v-617l146 -33v-47q-113 -35 -314 -34q-106 0 -190 18v41q43 18 74.5 52t31.5 73v659z" />
<glyph unicode="s" horiz-adv-x="829" d="M61 139q0 61 21 109q156 -123 309 -123q156 0 156 98q0 47 -33 77t-123 62l-112 41q-203 74 -203 263q0 141 111.5 237t295.5 96q256 0 256 -151q0 -57 -16 -113q-117 96 -254 96q-88 0 -133 -27.5t-45 -70.5q0 -41 30.5 -69.5t114.5 -57.5l125 -41q117 -37 168 -101.5 t51 -162.5q0 -139 -119.5 -237.5t-308.5 -98.5q-291 0 -291 174z" />
<glyph unicode="t" horiz-adv-x="679" d="M70 821v88l276 224l92 8l-10 -189h242l-17 -135h-235l-4 -239q-2 -80 -2 -226q0 -203 133 -202q68 0 135 36l16 -20q-18 -193 -252 -193q-287 0 -286 287q0 47 6 299l8 262h-102z" />
<glyph unicode="u" horiz-adv-x="1146" d="M33 889v49q143 49 280 49h105l-17 -149v-437q0 -262 183 -262q80 0 153 39v651l-112 60v49q145 49 276 49h105l-17 -149v-652q31 -61 82 -112q-74 -66 -211 -111q-72 49 -108 119q-47 -47 -130 -78t-167 -31q-152 0 -228.5 81t-76.5 261v514z" />
<glyph unicode="v" horiz-adv-x="878" d="M-41 918v65h451v-61l-93 -50l193 -577h2l184 567l-100 56v65h340v-61l-59 -54l-361 -888l-129 -7l-352 885z" />
<glyph unicode="w" horiz-adv-x="1394" d="M-43 918v65h461v-61l-94 -48l145 -585h2l170 583l-88 46v65h385v-61l-53 -41l151 -590h2l174 569l-102 58v65h342v-61l-55 -45l-350 -895l-121 -7l-219 705h-2l-213 -698l-134 -7l-313 879z" />
<glyph unicode="x" horiz-adv-x="907" d="M-29 0v41q80 23 125 90l230 348l-230 387l-86 52v65h430v-61l-71 -35l131 -287l139 274l-84 44v65h332v-61l-62 -52l-231 -348l248 -428l88 -31v-47q-109 -35 -238 -34.5t-190 18.5v41q53 18 53 50q0 11 -6 24l-127 268l-154 -291l94 -29v-47q-117 -35 -225 -34 q-92 0 -166 18z" />
<glyph unicode="y" horiz-adv-x="856" d="M-59 918v65h467v-61l-97 -54l197 -551h2l168 547l-103 54v65h332v-61l-55 -52l-293 -790q-215 -584 -446 -584q-78 0 -113 45t-35 152q51 -12 111 -12q66 0 148.5 80.5t131.5 222.5l25 71l-350 803z" />
<glyph unicode="z" horiz-adv-x="856" d="M45 45l455 793h-195q-59 0 -92 -21.5t-55 -73.5l-21 -45h-65l26 285h695l22 -51l-444 -787h196q125 0 164 88l27 60h65l-32 -293h-723z" />
<glyph unicode="{" horiz-adv-x="563" d="M-76 446v68q281 63 281 207v493q0 113 61.5 180.5t161.5 67.5q96 0 96 -84q-172 0 -172 -143v-500q0 -215 -342 -254v-2q170 -2 256 -71.5t86 -186.5v-481q0 -158 180 -158q0 -86 -110 -86q-106 0 -161.5 56.5t-55.5 156.5v475q0 172 -281 262z" />
<glyph unicode="|" horiz-adv-x="614" d="M238 -541v2048h139v-2048h-139z" />
<glyph unicode="}" horiz-adv-x="563" d="M33 1376q0 86 110 86q106 0 161.5 -56t55.5 -157v-473q0 -172 281 -262v-68q-281 -63 -281 -206v-496q0 -113 -61 -180.5t-162 -67.5q-96 0 -96 84q172 0 172 144v501q0 215 342 254v2q-170 2 -256 72t-86 186v480q0 157 -180 157z" />
<glyph unicode="~" d="M150 541q0 57 38.5 90t108.5 33q59 0 143 -23l125 -33q53 -14 99 -14q35 0 66.5 31.5t31.5 68.5q63 -59 63 -135q0 -53 -46 -91t-107 -38q-78 0 -140 19l-126 34q-61 16 -103 17q-37 0 -64.5 -27t-27.5 -59q-61 57 -61 127z" />
<glyph unicode="&#xa1;" horiz-adv-x="657" d="M63 -8l74 153l74 353q23 109 22 247q0 127 -32 242q121 0 193.5 -72.5t72.5 -197.5q0 -82 -32 -266.5t-32 -257.5q0 -86 29 -168q-179 -33 -369 -33zM195 1251.5q0 61.5 43 104.5t104 43t104 -43t43 -104.5t-43 -104.5t-104 -43t-104 43t-43 104.5z" />
<glyph unicode="&#xa2;" d="M158 442q0 240 134 388.5t347 160.5v195h74v-193q111 -4 158 -39.5t47 -101.5q0 -80 -56 -150q-70 82 -149 113v-665q96 8 192 63q12 -29 13 -68q0 -63 -52.5 -107t-152.5 -61v-182h-74v176q-12 -2 -37 -2q-193 0 -318.5 129t-125.5 344zM422 481q0 -143 60.5 -229 t156.5 -102v681h-10q-88 0 -147.5 -90t-59.5 -260z" />
<glyph unicode="&#xa3;" horiz-adv-x="1062" d="M96 0v55q63 25 90 63t27 113l18 367h-127v94l134 39l12 281q6 150 132 242t331 92q147 0 206.5 -26t59.5 -81q0 -61 -27 -115q-111 82 -268 82q-80 0 -133 -51t-57 -137l-13 -287h357l-21 -133h-340l-16 -436h270q78 0 117 23.5t65 78.5l21 43h74l-37 -307h-875z" />
<glyph unicode="&#xa4;" d="M141 406l90 90q-68 96 -67.5 217t69.5 217l-90 90l82 84l90 -92q100 70 217 69q119 0 216 -69l92 92l84 -84l-93 -92q70 -96 70 -215q0 -123 -70 -215l93 -92l-84 -84l-92 92q-96 -70 -215 -70t-216 70l-92 -92zM295 712.5q0 -98.5 69.5 -168t168 -69.5t168 69.5 t69.5 168t-69.5 168t-168 69.5t-168 -69.5t-69.5 -168z" />
<glyph unicode="&#xa5;" d="M-33 1237v53q115 35 242 35q111 0 221 -20v-48q-82 -33 -45 -118l201 -418h4l217 479l-105 37v53q121 35 228 35q88 0 168 -20v-48q-37 -14 -61.5 -39.5t-55.5 -84.5l-301 -539h319v-98h-327v-95h327v-98h-327v-197l127 -38v-54q-125 -33 -277 -32q-143 0 -227 18v47 q117 33 117 148v108h-312v98h312v95h-312v98h275l-307 606z" />
<glyph unicode="&#xa6;" horiz-adv-x="614" d="M238 289h139v-830h-139v830zM238 676v831h139v-831h-139z" />
<glyph unicode="&#xa7;" horiz-adv-x="1024" d="M119 -125h78l14 -68q45 -168 223 -167q78 0 133.5 62t55.5 165q0 160 -154 362l-221 289q-127 168 -127 346q0 186 136 324.5t329 138.5q188 0 319 -57l-22 -328h-76l-10 53q-16 84 -73.5 131.5t-131.5 47.5q-80 0 -123 -56.5t-43 -144.5q0 -104 158 -301l202 -254 q137 -172 138 -367q0 -229 -157 -393t-341 -164q-182 0 -307 68v313zM229 893q0 -152 127 -318l219 -282q152 -195 152 -375q0 -76 -32.5 -150.5t-82.5 -123.5q59 0 132 115.5t73 258.5q0 170 -137 344l-201 254q-147 190 -147 328q0 190 135 273q-88 0 -163 -96.5 t-75 -227.5z" />
<glyph unicode="&#xa8;" horiz-adv-x="921" d="M190 1237q0 49 32 84t81 35q47 0 76 -31t29 -82q0 -49 -32 -82t-79 -33q-49 0 -78 30t-29 79zM543 1237q0 49 31.5 84t80.5 35q47 0 76 -31t29 -82q0 -49 -32 -82t-79 -33q-49 0 -77.5 30t-28.5 79z" />
<glyph unicode="&#xa9;" horiz-adv-x="1740" d="M174 645q0 283 208 485.5t492 202.5q291 0 492 -196.5t201 -483.5q0 -285 -207 -488.5t-494 -203.5q-295 0 -493.5 196.5t-198.5 487.5zM299 651q0 -250 166 -421t407 -171q240 0 406 170t166 418q0 246 -168 417t-408 171q-238 0 -403.5 -170t-165.5 -414zM520 655 q0 178 123 296t285 118q135 0 225 -51l-18 -189h-50l-10 33q-14 45 -53 73t-94 28q-76 0 -130.5 -77t-54.5 -220q0 -131 58.5 -203t132.5 -72q121 0 164 101l10 24h49l-27 -192q-94 -51 -241 -52q-150 0 -259.5 106.5t-109.5 276.5z" />
<glyph unicode="&#xaa;" horiz-adv-x="673" d="M35 799q0 92 97 151.5t274 59.5v32q0 88 -27 125t-82 37q-47 0 -107.5 -28.5t-107.5 -73.5q-12 49 -12 78q0 66 57 98.5t197 32.5q133 0 201.5 -48.5t68.5 -136.5q0 -16 -2 -67t-2 -72l-6 -205q23 -37 59 -67q-45 -45 -145 -78q-45 25 -82 68q-29 -23 -82 -41.5 t-103 -18.5q-90 0 -143 42t-53 112zM217 819q0 -35 26.5 -56.5t69.5 -21.5q59 0 95 21v174q-88 0 -139.5 -33t-51.5 -84z" />
<glyph unicode="&#xab;" horiz-adv-x="976" d="M49 518l115 166q152 215 254 215q74 0 127 -39q-109 -90 -228 -239l-65 -91l98 -163q72 -119 170 -211q-68 -25 -137 -25q-121 0 -203 152zM455 518l114 166q152 215 254 215q74 0 127 -39q-104 -84 -227 -239l-66 -91l99 -163q72 -119 170 -211q-68 -25 -138 -25 q-121 0 -202 152z" />
<glyph unicode="&#xac;" d="M104 532v136h857v-410h-144v274h-713z" />
<glyph unicode="&#xad;" horiz-adv-x="643" d="M55 440l47 195l494 31l-43 -197z" />
<glyph unicode="&#xae;" horiz-adv-x="1740" d="M174 645q0 283 208 485.5t492 202.5q291 0 492 -196.5t201 -483.5q0 -285 -207 -488.5t-494 -203.5q-295 0 -493.5 196.5t-198.5 487.5zM299 651q0 -250 166 -421t407 -171q240 0 406 170t166 418q0 246 -168 417t-408 171q-238 0 -403.5 -170t-165.5 -414zM512 989v43 q125 27 381 27q158 0 238.5 -56.5t80.5 -152.5q0 -72 -48 -129t-126 -84l107 -141q72 -96 153 -129v-35q-61 -49 -145 -49q-59 0 -105.5 35.5t-103.5 130.5l-74 118h-75v-194l90 -23v-39q-80 -27 -197 -26q-94 0 -170 18v37q84 25 84 109v512zM791 641h47q74 0 123 48 t49 130q0 68 -41 107t-109 39q-37 0 -69 -7v-317z" />
<glyph unicode="&#xaf;" horiz-adv-x="921" d="M188 1167v152h545v-152h-545z" />
<glyph unicode="&#xb0;" horiz-adv-x="901" d="M156 1036q0 121 87 209t206 88q123 0 211 -87t88 -210q0 -121 -88.5 -206t-208.5 -85q-123 0 -209 85t-86 206zM266 1038q0 -80 56.5 -136t130 -56t128 55t54.5 133q0 82 -57.5 141.5t-129 59.5t-127 -58.5t-55.5 -138.5z" />
<glyph unicode="&#xb1;" d="M104 0v133h857v-133h-857zM104 532v136h359v264h141v-264h357v-136h-357v-274h-141v274h-359z" />
<glyph unicode="&#xb2;" horiz-adv-x="667" d="M43 739l227 187q115 94 115 182q0 49 -33 77.5t-90 28.5q-82 0 -180 -94q-23 39 -23 86q0 51 61.5 84t188.5 33q141 0 213 -49t72 -129q0 -139 -184 -254l-166 -111h121q137 0 262 33q10 -35 10 -72q0 -88 -141 -88q-29 0 -193 4.5t-250 4.5z" />
<glyph unicode="&#xb3;" horiz-adv-x="667" d="M66 739q0 33 20 64q90 -68 180 -68q63 0 103.5 26.5t40.5 69.5q0 92 -193 93q-27 0 -67 -4l-15 100l60 -2q82 -4 142 29.5t60 87.5q0 82 -121 82q-94 0 -170 -66q-16 39 -16 76q0 96 244 96q268 0 268 -152q0 -63 -62.5 -112t-168.5 -64v-2q123 0 185 -39t62 -104 q0 -90 -93 -148.5t-246 -58.5q-213 0 -213 96z" />
<glyph unicode="&#xb4;" horiz-adv-x="921" d="M285 1079q53 66 102 172.5t62 194.5q98 0 137 -24.5t39 -73.5q0 -80 -119 -182.5t-195 -102.5z" />
<glyph unicode="&#xb5;" horiz-adv-x="1146" d="M127 965q88 23 186 22h105l-17 -149v-519q0 -180 183 -180q80 0 153 39v631l-18 156q84 23 182 22h105l-17 -149v-615q0 -111 86 -110h47v-52q-82 -90 -221 -90q-117 0 -149 111q-47 -47 -130 -78t-167 -31q-74 0 -140 33v-72q0 -190 43 -266t134 -90v-55 q-66 -27 -162 -27q-188 0 -189 295q0 70 4.5 254t4.5 270v494z" />
<glyph unicode="&#xb6;" horiz-adv-x="1024" d="M88 788q0 238 166 387.5t414 149.5q172 0 352 -22v-48q-63 -27 -89 -65.5t-26 -112.5v-1456l127 -39v-53q-133 -35 -297 -35q-174 0 -268 21v47q59 23 88 63.5t29 118.5v684q-63 -37 -158 -37q-150 0 -244 103.5t-94 293.5zM696 -395h101v1614h-101v-1614z" />
<glyph unicode="&#xb7;" horiz-adv-x="563" d="M135 520.5q0 61.5 43 104.5t104.5 43t104.5 -43t43 -104.5t-43 -104.5t-104.5 -43t-104.5 43t-43 104.5z" />
<glyph unicode="&#xb8;" horiz-adv-x="552" d="M72 -266q104 -68 198 -68q43 0 72 21.5t29 50.5q0 74 -133 74l41 200h83v-112q168 0 168 -125q0 -88 -87 -157t-197 -69q-174 1 -174 185z" />
<glyph unicode="&#xb9;" horiz-adv-x="667" d="M102 666v30q154 31 154 109v405l-152 -8v68q113 47 273 47q49 0 84 -6q-14 -61 -15 -121v-449l150 -30v-31q-125 -37 -262 -37q-140 0 -232 23z" />
<glyph unicode="&#xba;" horiz-adv-x="794" d="M45 952q0 158 108.5 260.5t264.5 102.5q150 0 241 -84t91 -221q0 -170 -109 -270.5t-256 -100.5q-152 0 -246 85t-94 228zM258 961q0 -104 39 -161t96 -57q59 0 101.5 62.5t42.5 191.5q0 104 -39 158.5t-97 54.5q-59 0 -101 -62t-42 -187z" />
<glyph unicode="&#xbb;" horiz-adv-x="976" d="M29 172q115 94 225 240l68 90l-101 164q-74 123 -168 211q68 25 135 24q123 0 205 -151l131 -236l-114 -166q-152 -215 -254 -215q-74 0 -127 39zM434 172q115 94 225 240l68 90l-100 164q-74 123 -168 211q68 25 135 24q123 0 205 -151l129 -236l-113 -166 q-152 -215 -254 -215q-74 0 -127 39z" />
<glyph unicode="&#xbc;" horiz-adv-x="1515" d="M119 666v30q154 31 153 109v405l-151 -8v68q113 47 272 47q49 0 84 -6q-14 -61 -14 -121v-449l149 -30v-31q-125 -37 -262 -37q-139 0 -231 23zM291 -57l880 1470l89 -49l-883 -1470zM815 139q0 182 129 329.5t322 188.5h80q-12 -86 -13 -202v-197h31q29 0 57 12 q6 -29 6 -55q0 -43 -16 -60.5t-53 -17.5h-27v-69l105 -29v-29q-88 -29 -201 -28q-94 0 -188 22v31q96 14 96 55v49h-328zM944 260h207v135q0 84 8 127l-2 2q-68 -37 -129 -113.5t-84 -150.5z" />
<glyph unicode="&#xbd;" horiz-adv-x="1515" d="M119 666v30q154 31 153 109v405l-151 -8v68q113 47 272 47q49 0 84 -6q-14 -61 -14 -121v-449l149 -30v-31q-125 -37 -262 -37q-139 0 -231 23zM266 -57l881 1470l88 -49l-883 -1470zM870 78l228 186q115 94 114 182q0 49 -32.5 78t-89.5 29q-82 0 -181 -94 q-23 39 -22 86q0 51 61.5 84t188.5 33q141 0 212.5 -49.5t71.5 -129.5q0 -139 -184 -254l-166 -110h121q137 0 262 33q10 -35 10 -72q0 -88 -141 -88q-29 0 -192.5 4t-249.5 4z" />
<glyph unicode="&#xbe;" horiz-adv-x="1515" d="M82 739q0 33 20 64q90 -68 181 -68q63 0 103 26.5t40 69.5q0 92 -193 93q-27 0 -67 -4l-14 100l59 -2q82 -4 142.5 29.5t60.5 87.5q0 82 -121 82q-94 0 -170 -66q-16 39 -17 76q0 96 244 96q268 0 268 -152q0 -63 -62 -112t-169 -64v-2q123 0 185.5 -39t62.5 -104 q0 -90 -93 -148.5t-247 -58.5q-213 0 -213 96zM291 -57l880 1470l89 -49l-883 -1470zM807 139q0 182 129 329.5t321 188.5h80q-12 -86 -12 -202v-197h31q29 0 57 12q6 -29 6 -55q0 -43 -16.5 -60.5t-52.5 -17.5h-27v-69l104 -29v-29q-88 -29 -200 -28q-94 0 -189 22v31 q96 14 97 55v49h-328zM936 260h207v135q0 84 8 127l-2 2q-68 -37 -129 -113.5t-84 -150.5z" />
<glyph unicode="&#xbf;" horiz-adv-x="890" d="M25 270q0 100 85 197.5t277 216.5l123 76q-25 106 -78 213q37 8 64 8q76 0 124 -45t48 -115q0 -53 -29 -99t-111 -116l-112 -96q-125 -106 -125 -213q0 -158 178 -158q68 0 148.5 59.5t130.5 139.5q37 -63 36 -135q0 -98 -92 -157.5t-284 -59.5q-180 0 -281.5 76.5 t-101.5 207.5zM395 1251.5q0 61.5 43 104.5t104.5 43t104.5 -43t43 -104.5t-43 -104.5t-104.5 -43t-104.5 43t-43 104.5z" />
<glyph unicode="&#xc0;" horiz-adv-x="1210" d="M-23 0v47q51 20 77 48t44 83l398 1127l268 26l348 -1225l109 -38v-54q-104 -35 -244 -34q-145 0 -242 20v47q96 33 74 121l-59 217h-388l-75 -281l123 -36v-54q-111 -35 -260 -34q-91 0 -173 20zM399 520h320l-141 572h-3zM416 1655q0 49 40 73.5t138 24.5 q12 -88 61.5 -194.5t102.5 -172.5l-27 -16q-78 0 -196.5 102.5t-118.5 182.5z" />
<glyph unicode="&#xc1;" horiz-adv-x="1210" d="M-23 0v47q51 20 77 48t44 83l398 1127l268 26l348 -1225l109 -38v-54q-104 -35 -244 -34q-145 0 -242 20v47q96 33 74 121l-59 217h-388l-75 -281l123 -36v-54q-111 -35 -260 -34q-91 0 -173 20zM399 520h320l-141 572h-3zM479 1386q53 68 103.5 173.5t62.5 193.5 q98 0 137 -24.5t39 -73.5q0 -80 -118.5 -182.5t-194.5 -102.5z" />
<glyph unicode="&#xc2;" horiz-adv-x="1210" d="M-23 0v47q51 20 77 48t44 83l398 1127l268 26l348 -1225l109 -38v-54q-104 -35 -244 -34q-145 0 -242 20v47q96 33 74 121l-59 217h-388l-75 -281l123 -36v-54q-111 -35 -260 -34q-91 0 -173 20zM303 1477l289 264l92 16l295 -330l-35 -34q-127 0 -217 90q-61 61 -96 129 l-230 -221q-59 29 -98 86zM399 520h320l-141 572h-3z" />
<glyph unicode="&#xc3;" horiz-adv-x="1210" d="M-23 0v47q51 20 77 48t44 83l398 1127l268 26l348 -1225l109 -38v-54q-104 -35 -244 -34q-145 0 -242 20v47q96 33 74 121l-59 217h-388l-75 -281l123 -36v-54q-111 -35 -260 -34q-91 0 -173 20zM279 1538q0 57 38.5 90t108.5 33q59 0 143 -23l123 -30q53 -16 99 -17 q35 0 66.5 32t31.5 69q63 -57 63 -133q0 -55 -45 -93.5t-108 -38.5q-66 0 -140 19l-124 35q-61 16 -103 16q-37 0 -64.5 -26.5t-27.5 -59.5q-61 55 -61 127zM399 520h320l-141 572h-3z" />
<glyph unicode="&#xc4;" horiz-adv-x="1210" d="M-23 0v47q51 20 77 48t44 83l398 1127l268 26l348 -1225l109 -38v-54q-104 -35 -244 -34q-145 0 -242 20v47q96 33 74 121l-59 217h-388l-75 -281l123 -36v-54q-111 -35 -260 -34q-91 0 -173 20zM336 1517.5q0 49.5 31.5 84t81.5 34.5q47 0 75.5 -30.5t28.5 -81.5 q0 -49 -32 -82t-79 -33q-49 0 -77.5 29.5t-28.5 79zM399 520h320l-141 572h-3zM688 1517.5q0 49.5 32 84t81 34.5q47 0 75.5 -30.5t28.5 -81.5q0 -49 -31.5 -82t-78.5 -33q-49 0 -78 29.5t-29 79z" />
<glyph unicode="&#xc5;" horiz-adv-x="1210" d="M-23 0v47q51 20 77 48t44 83l398 1127l268 26l348 -1225l109 -38v-54q-104 -35 -244 -34q-145 0 -242 20v47q96 33 74 121l-59 217h-388l-75 -281l123 -36v-54q-111 -35 -260 -34q-91 0 -173 20zM399 520h320l-141 572h-3zM418 1546q0 86 57 143.5t137 57.5 q88 0 143.5 -53.5t55.5 -143.5q0 -82 -58.5 -138t-138.5 -56q-84 0 -140 52t-56 138zM518 1546q0 -47 27.5 -76.5t68.5 -29.5q45 0 71 28.5t26 77.5q0 53 -28 84t-71 31t-68.5 -32t-25.5 -83z" />
<glyph unicode="&#xc6;" horiz-adv-x="1521" d="M-14 0v47q63 29 112 131l553 1133h791l-17 -332h-75l-7 39q-12 82 -50 113.5t-126 31.5h-184v-442h193q115 0 139 74l14 45h70v-402h-70l-8 45q-20 100 -109 101h-229v-441h227q78 0 117 23.5t66 79.5l20 43h74l-37 -289h-850v55q63 25 90 63t27 113v158h-332l-106 -285 l114 -36v-54q-111 -35 -243 -34q-82 0 -164 20zM430 516h287v629h-2z" />
<glyph unicode="&#xc7;" horiz-adv-x="1144" d="M78 621q0 315 189.5 514.5t463.5 199.5q217 0 334 -59l-18 -328h-70l-10 49q-23 92 -79.5 136.5t-162.5 44.5q-143 0 -244.5 -138.5t-101.5 -390.5q0 -258 100.5 -392t241.5 -134q109 0 165 36t93 120l22 51h70l-20 -299q-127 -59 -351 -66v-74q168 0 168 -124 q0 -88 -87 -157t-197 -69q-174 0 -174 185q104 -68 198 -68q43 0 72 21.5t29 50.5q0 74 -134 73l33 164q-236 18 -383 187.5t-147 466.5z" />
<glyph unicode="&#xc8;" horiz-adv-x="1001" d="M68 1245v66h854l-17 -332h-76l-6 39q-12 82 -50 113.5t-126 31.5h-184v-442h192q115 0 140 74l14 45h70v-402h-70l-8 45q-20 100 -109 101h-229v-441h227q78 0 117 23.5t65 79.5l21 43h74l-37 -289h-850v55q63 25 90 63t27 113v959zM350 1655q0 49 40 73.5t136 24.5 q12 -88 62.5 -193.5t103.5 -173.5l-28 -16q-76 0 -195 102.5t-119 182.5z" />
<glyph unicode="&#xc9;" horiz-adv-x="1001" d="M68 1245v66h854l-17 -332h-76l-6 39q-12 82 -50 113.5t-126 31.5h-184v-442h192q115 0 140 74l14 45h70v-402h-70l-8 45q-20 100 -109 101h-229v-441h227q78 0 117 23.5t65 79.5l21 43h74l-37 -289h-850v55q63 25 90 63t27 113v959zM453 1386q53 68 103 173.5t62 193.5 q96 0 136.5 -24.5t40.5 -73.5q0 -80 -119 -182.5t-195 -102.5z" />
<glyph unicode="&#xca;" horiz-adv-x="1001" d="M68 1245v66h854l-17 -332h-76l-6 39q-12 82 -50 113.5t-126 31.5h-184v-442h192q115 0 140 74l14 45h70v-402h-70l-8 45q-20 100 -109 101h-229v-441h227q78 0 117 23.5t65 79.5l21 43h74l-37 -289h-850v55q63 25 90 63t27 113v959zM221 1475l287 266l92 16l295 -332 l-35 -32q-127 0 -217 88q-59 63 -94 129l-232 -221q-61 29 -96 86z" />
<glyph unicode="&#xcb;" horiz-adv-x="1001" d="M68 1245v66h854l-17 -332h-76l-6 39q-12 82 -50 113.5t-126 31.5h-184v-442h192q115 0 140 74l14 45h70v-402h-70l-8 45q-20 100 -109 101h-229v-441h227q78 0 117 23.5t65 79.5l21 43h74l-37 -289h-850v55q63 25 90 63t27 113v959zM283 1544q0 49 31.5 84t80.5 35 q47 0 76 -30.5t29 -82.5q0 -49 -32 -81.5t-79 -32.5q-49 0 -77.5 29.5t-28.5 78.5zM635 1544q0 49 31.5 84t81.5 35q47 0 75.5 -30.5t28.5 -82.5q0 -49 -32 -81.5t-79 -32.5q-49 0 -77.5 29.5t-28.5 78.5z" />
<glyph unicode="&#xcc;" horiz-adv-x="661" d="M68 1237v53q145 35 288 35q121 0 224 -20v-48q-63 -27 -89 -65.5t-26 -112.5v-973l127 -38v-54q-133 -35 -277 -34q-141 0 -235 20v47q59 23 88 64t29 118v967zM150 1655q0 49 38.5 73.5t137.5 24.5q12 -90 61 -194.5t102 -172.5l-26 -16q-76 0 -194.5 102.5 t-118.5 182.5z" />
<glyph unicode="&#xcd;" horiz-adv-x="661" d="M68 1237v53q145 35 288 35q121 0 224 -20v-48q-63 -27 -89 -65.5t-26 -112.5v-973l127 -38v-54q-133 -35 -277 -34q-141 0 -235 20v47q59 23 88 64t29 118v967zM203 1386q53 68 102 173.5t62 193.5q98 0 138 -24.5t40 -73.5q0 -80 -119 -182.5t-197 -102.5z" />
<glyph unicode="&#xce;" horiz-adv-x="661" d="M-6 1477l287 264l92 16l295 -332l-33 -32q-129 0 -217 88q-61 61 -96 131l-232 -223q-63 31 -96 88zM68 1237v53q145 35 288 35q121 0 224 -20v-48q-63 -27 -89 -65.5t-26 -112.5v-973l127 -38v-54q-133 -35 -277 -34q-141 0 -235 20v47q59 23 88 64t29 118v967z" />
<glyph unicode="&#xcf;" horiz-adv-x="661" d="M57 1544q0 49 32 84t81 35q47 0 75.5 -30.5t28.5 -82.5q0 -49 -31.5 -81.5t-78.5 -32.5q-49 0 -78 29.5t-29 78.5zM68 1237v53q145 35 288 35q121 0 224 -20v-48q-63 -27 -89 -65.5t-26 -112.5v-973l127 -38v-54q-133 -35 -277 -34q-141 0 -235 20v47q59 23 88 64t29 118 v967zM410 1544q0 49 31.5 84t80.5 35q47 0 76 -30.5t29 -82.5q0 -49 -32 -81.5t-79 -32.5q-49 0 -77.5 29.5t-28.5 78.5z" />
<glyph unicode="&#xd0;" horiz-adv-x="1392" d="M39 610v119h158v459l-129 47v59q221 31 491 31q356 0 556 -159.5t200 -450.5q0 -221 -108.5 -391t-288 -257t-396.5 -87q-281 0 -442 20v47q61 25 89 65t28 121v377h-158zM459 135q47 -8 92 -8q203 0 336 140.5t133 408.5q0 236 -133 368t-334 132q-29 0 -94 -5v-442h264 v-119h-264v-475z" />
<glyph unicode="&#xd1;" horiz-adv-x="1320" d="M76 1235v68q131 14 305 14h86l508 -854l2 2v735l-129 39v55q125 33 223 33q100 0 180 -20v-45q-63 -29 -86.5 -70t-23.5 -127v-1065l-187 -23l-592 996l-2 -2v-865l125 -38v-54q-94 -35 -204 -34q-119 0 -201 20v47q61 23 89 66t28 123v954zM362 1516q0 59 38 90.5 t108 31.5q63 0 143 -22l125 -31q49 -16 98 -16q35 0 67 31.5t32 68.5q63 -59 63 -133q0 -55 -45 -93t-108 -38q-66 0 -140 18l-127 35q-59 16 -102 17q-35 0 -63.5 -27t-28.5 -59q-60 55 -60 127z" />
<glyph unicode="&#xd2;" horiz-adv-x="1411" d="M78 616q0 317 195.5 519t465.5 202q262 0 428 -173t166 -457q0 -348 -189.5 -546t-463.5 -198q-268 0 -435 175t-167 478zM379 651q0 -250 94 -386t229 -136q139 0 235.5 130t96.5 407q0 250 -93 377.5t-226 127.5q-139 0 -237.5 -136t-98.5 -384zM537 1655 q0 49 39.5 73.5t138.5 24.5q12 -88 61 -193.5t103 -173.5l-29 -16q-76 0 -194.5 102.5t-118.5 182.5z" />
<glyph unicode="&#xd3;" horiz-adv-x="1411" d="M78 616q0 317 195.5 519t465.5 202q262 0 428 -173t166 -457q0 -348 -189.5 -546t-463.5 -198q-268 0 -435 175t-167 478zM379 651q0 -250 94 -386t229 -136q139 0 235.5 130t96.5 407q0 250 -93 377.5t-226 127.5q-139 0 -237.5 -136t-98.5 -384zM582 1386 q53 66 102 172.5t61 194.5q98 0 137.5 -24.5t39.5 -73.5q0 -80 -118 -182.5t-196 -102.5z" />
<glyph unicode="&#xd4;" horiz-adv-x="1411" d="M78 616q0 317 195.5 519t465.5 202q262 0 428 -173t166 -457q0 -348 -189.5 -546t-463.5 -198q-268 0 -435 175t-167 478zM379 651q0 -250 94 -386t229 -136q139 0 235.5 130t96.5 407q0 250 -93 377.5t-226 127.5q-139 0 -237.5 -136t-98.5 -384zM412 1477l286 264 l93 16l294 -330l-34 -34q-127 0 -217 90q-55 55 -95 129l-231 -221q-61 29 -96 86z" />
<glyph unicode="&#xd5;" horiz-adv-x="1411" d="M78 616q0 317 195.5 519t465.5 202q262 0 428 -173t166 -457q0 -348 -189.5 -546t-463.5 -198q-268 0 -435 175t-167 478zM379 651q0 -250 94 -386t229 -136q139 0 235.5 130t96.5 407q0 250 -93 377.5t-226 127.5q-139 0 -237.5 -136t-98.5 -384zM395 1544q0 57 39 90 t107 33q63 0 143 -22l125 -33q53 -14 98 -15q35 0 67 31t32 70q63 -63 63 -135q0 -55 -45 -92t-109 -37q-78 0 -139 18l-127 33q-55 18 -102 18q-35 0 -63.5 -26.5t-28.5 -59.5q-60 53 -60 127z" />
<glyph unicode="&#xd6;" horiz-adv-x="1411" d="M78 616q0 317 195.5 519t465.5 202q262 0 428 -173t166 -457q0 -348 -189.5 -546t-463.5 -198q-268 0 -435 175t-167 478zM379 651q0 -250 94 -386t229 -136q139 0 235.5 130t96.5 407q0 250 -93 377.5t-226 127.5q-139 0 -237.5 -136t-98.5 -384zM457 1517.5 q0 49.5 31.5 84t80.5 34.5q47 0 76 -30.5t29 -81.5q0 -49 -32 -82t-79 -33q-49 0 -77.5 29.5t-28.5 79zM809 1517.5q0 49.5 31.5 84t81.5 34.5q47 0 75.5 -30.5t28.5 -81.5q0 -49 -31.5 -82t-79.5 -33q-49 0 -77.5 29.5t-28.5 79z" />
<glyph unicode="&#xd7;" d="M160 182l278 277l-278 278l96 97l279 -279l276 279l96 -97l-280 -278l278 -277l-94 -94l-276 279l-279 -279z" />
<glyph unicode="&#xd8;" horiz-adv-x="1411" d="M78 616q0 317 195.5 519t465.5 202q160 0 293 -69l123 198l82 -43l-129 -206q225 -176 225 -510q0 -348 -189.5 -546t-463.5 -198q-170 0 -301 72l-135 -221l-84 45l141 227q-223 178 -223 530zM379 651q0 -201 63 -334l471 760q-82 94 -198 94q-139 0 -237.5 -136 t-98.5 -384zM500 229q86 -100 202 -100q139 0 235.5 130t96.5 407q0 195 -63 325z" />
<glyph unicode="&#xd9;" horiz-adv-x="1363" d="M43 1237v53q143 35 285 35q133 0 227 -20v-48q-63 -25 -90 -66.5t-27 -121.5v-635q0 -139 74 -215t207 -76q131 0 205.5 85t74.5 255v713l-127 41v53q129 37 236 37q104 0 201 -24v-46q-63 -29 -89 -67.5t-26 -108.5v-567q0 -262 -139.5 -403.5t-366.5 -141.5 q-518 0 -518 420v809zM494 1655q0 49 38.5 73.5t137.5 24.5q12 -88 61 -194.5t103 -172.5l-27 -16q-78 0 -195.5 102.5t-117.5 182.5z" />
<glyph unicode="&#xda;" horiz-adv-x="1363" d="M43 1237v53q143 35 285 35q133 0 227 -20v-48q-63 -25 -90 -66.5t-27 -121.5v-635q0 -139 74 -215t207 -76q131 0 205.5 85t74.5 255v713l-127 41v53q129 37 236 37q104 0 201 -24v-46q-63 -29 -89 -67.5t-26 -108.5v-567q0 -262 -139.5 -403.5t-366.5 -141.5 q-518 0 -518 420v809zM588 1386q53 66 102 172.5t62 194.5q98 0 137 -24.5t39 -73.5q0 -80 -119 -182.5t-195 -102.5z" />
<glyph unicode="&#xdb;" horiz-adv-x="1363" d="M43 1237v53q143 35 285 35q133 0 227 -20v-48q-63 -25 -90 -66.5t-27 -121.5v-635q0 -139 74 -215t207 -76q131 0 205.5 85t74.5 255v713l-127 41v53q129 37 236 37q104 0 201 -24v-46q-63 -29 -89 -67.5t-26 -108.5v-567q0 -262 -139.5 -403.5t-366.5 -141.5 q-518 0 -518 420v809zM381 1477l289 264l92 16l295 -330l-35 -34q-127 0 -217 90q-57 53 -96 129l-230 -221q-63 29 -98 86z" />
<glyph unicode="&#xdc;" horiz-adv-x="1363" d="M43 1237v53q143 35 285 35q133 0 227 -20v-48q-63 -25 -90 -66.5t-27 -121.5v-635q0 -139 74 -215t207 -76q131 0 205.5 85t74.5 255v713l-127 41v53q129 37 236 37q104 0 201 -24v-46q-63 -29 -89 -67.5t-26 -108.5v-567q0 -262 -139.5 -403.5t-366.5 -141.5 q-518 0 -518 420v809zM438 1517.5q0 49.5 32 84t81 34.5q47 0 75.5 -30.5t28.5 -81.5q0 -49 -31.5 -82t-78.5 -33q-49 0 -78 29.5t-29 79zM791 1517.5q0 49.5 31.5 84t80.5 34.5q47 0 76 -30.5t29 -81.5q0 -49 -32 -82t-79 -33q-49 0 -77.5 29.5t-28.5 79z" />
<glyph unicode="&#xdd;" d="M-41 1237v53q115 35 242 35q111 0 221 -20v-48q-88 -35 -45 -118l209 -418h4l225 479l-104 37v53q121 35 227 35q88 0 168 -20v-48q-37 -14 -60.5 -38.5t-56.5 -85.5l-309 -555v-472l127 -38v-54q-125 -33 -285 -32q-143 0 -227 18v47q117 33 117 148v329l-353 676z M463 1386q53 68 102 173.5t62 193.5q98 0 138 -24.5t40 -73.5q0 -80 -119 -182.5t-194 -102.5z" />
<glyph unicode="&#xde;" horiz-adv-x="1163" d="M68 1237v53q145 35 278 35q121 0 223 -20v-48q-61 -25 -86.5 -61.5t-27.5 -101.5h4q57 6 116 6q266 0 406.5 -102.5t140.5 -299.5q0 -199 -158.5 -334t-371.5 -135q-72 0 -135 29h-2v-152l127 -38v-54q-133 -35 -277 -34q-131 0 -225 20v47q59 23 88 64t29 118v967z M455 391q57 -14 118 -14q113 0 191 79t78 216q0 135 -80 209.5t-215 74.5q-63 0 -92 -4v-561z" />
<glyph unicode="&#xdf;" horiz-adv-x="1251" d="M70 819v76l112 57v158q0 164 121 264.5t363 100.5q223 0 339.5 -87.5t116.5 -230.5q0 -66 -33.5 -124t-82 -98t-97.5 -75t-82.5 -68.5t-33.5 -64.5q0 -43 26.5 -69.5t106.5 -57.5l110 -43q102 -39 150.5 -102.5t48.5 -163.5q0 -139 -112.5 -232.5t-288.5 -93.5 q-279 0 -279 178q0 49 12 107q160 -127 303 -127q61 0 96 24.5t35 67.5q0 76 -131 131l-98 41q-190 76 -190 264q0 59 32.5 115.5t78.5 99.5t92 85t79 88t33 91q0 98 -64.5 155.5t-183.5 57.5q-115 0 -175 -58t-60 -150q0 -20 4 -108.5t4 -117.5v-807l96 -32v-45 q-117 -43 -256 -43q-106 0 -190 18v41q43 18 74.5 52t31.5 73v653h-108z" />
<glyph unicode="&#xe0;" horiz-adv-x="989" d="M66 207q0 141 144 233t400 92v52q0 145 -40 200.5t-128 55.5q-74 0 -159.5 -42t-153.5 -110q-16 66 -16 105q0 102 83 153t281 51q186 0 284.5 -75.5t98.5 -208.5q0 -29 -4 -114t-4 -97l-8 -318q31 -59 88 -104q-27 -31 -84 -64.5t-113 -52.5q-66 37 -114 103 q-39 -35 -120 -65t-153 -30q-129 0 -205.5 65t-76.5 171zM311 238q0 -57 39 -91t107 -34q88 0 155 37v274q-139 0 -220 -53t-81 -133zM332 1348q0 49 39 73.5t137 24.5q12 -88 61 -194.5t103 -172.5l-27 -16q-76 0 -194.5 102.5t-118.5 182.5z" />
<glyph unicode="&#xe1;" horiz-adv-x="989" d="M66 207q0 141 144 233t400 92v52q0 145 -40 200.5t-128 55.5q-74 0 -159.5 -42t-153.5 -110q-16 66 -16 105q0 102 83 153t281 51q186 0 284.5 -75.5t98.5 -208.5q0 -29 -4 -114t-4 -97l-8 -318q31 -59 88 -104q-27 -31 -84 -64.5t-113 -52.5q-66 37 -114 103 q-39 -35 -120 -65t-153 -30q-129 0 -205.5 65t-76.5 171zM311 238q0 -57 39 -91t107 -34q88 0 155 37v274q-139 0 -220 -53t-81 -133zM383 1079q53 68 102.5 173.5t61.5 193.5q98 0 138 -24.5t40 -73.5q0 -80 -119 -182.5t-196 -102.5z" />
<glyph unicode="&#xe2;" horiz-adv-x="989" d="M66 207q0 141 144 233t400 92v52q0 145 -40 200.5t-128 55.5q-74 0 -159.5 -42t-153.5 -110q-16 66 -16 105q0 102 83 153t281 51q186 0 284.5 -75.5t98.5 -208.5q0 -29 -4 -114t-4 -97l-8 -318q31 -59 88 -104q-27 -31 -84 -64.5t-113 -52.5q-66 37 -114 103 q-39 -35 -120 -65t-153 -30q-129 0 -205.5 65t-76.5 171zM152 1169l286 265l92 16l295 -330l-34 -35q-125 0 -218 91q-55 55 -94 129l-231 -222q-61 29 -96 86zM311 238q0 -57 39 -91t107 -34q88 0 155 37v274q-139 0 -220 -53t-81 -133z" />
<glyph unicode="&#xe3;" horiz-adv-x="989" d="M66 207q0 141 144 233t400 92v52q0 145 -40 200.5t-128 55.5q-74 0 -159.5 -42t-153.5 -110q-16 66 -16 105q0 102 83 153t281 51q186 0 284.5 -75.5t98.5 -208.5q0 -29 -4 -114t-4 -97l-8 -318q31 -59 88 -104q-27 -31 -84 -64.5t-113 -52.5q-66 37 -114 103 q-39 -35 -120 -65t-153 -30q-129 0 -205.5 65t-76.5 171zM152 1231q0 57 38.5 90t108.5 33q59 0 143 -23l123 -31q53 -16 99 -16q37 0 67.5 32t30.5 68q63 -57 63 -133q0 -55 -45 -93t-108 -38q-61 0 -140 19l-124 35q-61 16 -103 16q-37 0 -64.5 -26.5t-27.5 -59.5 q-61 57 -61 127zM311 238q0 -57 39 -91t107 -34q88 0 155 37v274q-139 0 -220 -53t-81 -133z" />
<glyph unicode="&#xe4;" horiz-adv-x="989" d="M66 207q0 141 144 233t400 92v52q0 145 -40 200.5t-128 55.5q-74 0 -159.5 -42t-153.5 -110q-16 66 -16 105q0 102 83 153t281 51q186 0 284.5 -75.5t98.5 -208.5q0 -29 -4 -114t-4 -97l-8 -318q31 -59 88 -104q-27 -31 -84 -64.5t-113 -52.5q-66 37 -114 103 q-39 -35 -120 -65t-153 -30q-129 0 -205.5 65t-76.5 171zM215 1237q0 49 32 84t81 35q47 0 75.5 -31t28.5 -82q0 -49 -31.5 -82t-78.5 -33q-49 0 -78 30t-29 79zM311 238q0 -57 39 -91t107 -34q88 0 155 37v274q-139 0 -220 -53t-81 -133zM567 1237q0 49 32 84t81 35 q47 0 75.5 -31t28.5 -82q0 -49 -31.5 -82t-78.5 -33q-49 0 -78 30t-29 79z" />
<glyph unicode="&#xe5;" horiz-adv-x="989" d="M66 207q0 141 144 233t400 92v52q0 145 -40 200.5t-128 55.5q-74 0 -159.5 -42t-153.5 -110q-16 66 -16 105q0 102 83 153t281 51q186 0 284.5 -75.5t98.5 -208.5q0 -29 -4 -114t-4 -97l-8 -318q31 -59 88 -104q-27 -31 -84 -64.5t-113 -52.5q-66 37 -114 103 q-39 -35 -120 -65t-153 -30q-129 0 -205.5 65t-76.5 171zM309 1272q0 86 56.5 143.5t136.5 57.5q88 0 143 -53.5t55 -143.5q0 -82 -58 -138.5t-138 -56.5q-84 0 -139.5 52.5t-55.5 138.5zM311 238q0 -57 39 -91t107 -34q88 0 155 37v274q-139 0 -220 -53t-81 -133zM408 1272 q0 -47 27.5 -77t68.5 -30q45 0 70.5 29t25.5 78q0 53 -27.5 83.5t-70.5 30.5t-68.5 -31.5t-25.5 -82.5z" />
<glyph unicode="&#xe6;" horiz-adv-x="1507" d="M57 203q0 145 148.5 237t398.5 92v52q0 145 -40 200.5t-128 55.5q-74 0 -160 -42t-153 -110q-16 66 -17 105q0 102 83 153t282 51q219 0 301 -116q127 117 291 116q180 0 283.5 -104.5t103.5 -282.5q0 -84 -4 -145h-592q0 -139 85 -226t212 -87q137 0 281 73q6 -25 6 -61 q0 -78 -101.5 -136.5t-275.5 -58.5q-221 0 -348 146q-74 -63 -176.5 -103.5t-194.5 -40.5q-129 0 -207 64t-78 168zM303 238q0 -57 40 -91t108 -34q113 0 215 67q-63 109 -66 244h-2q-137 0 -216 -53t-79 -133zM850 592h364q0 276 -176 276q-74 0 -131 -79.5t-57 -196.5z " />
<glyph unicode="&#xe7;" horiz-adv-x="851" d="M68 442q0 252 146 401.5t374 149.5q131 0 185 -34.5t54 -106.5q0 -80 -55 -150q-109 129 -233 129q-88 0 -147.5 -90t-59.5 -260q0 -156 72.5 -245t181.5 -89q115 0 229 66q12 -29 12 -68q0 -74 -71.5 -121t-206.5 -55v-69q168 0 168 -125q0 -88 -87 -157t-198 -69 q-176 0 -176 185q104 -68 201 -68q43 0 70.5 21.5t27.5 50.5q0 74 -131 74l33 159q-170 16 -279.5 144t-109.5 327z" />
<glyph unicode="&#xe8;" horiz-adv-x="978" d="M68 440q0 262 133 409.5t334 147.5q180 0 283.5 -104.5t103.5 -282.5q0 -84 -4 -145h-592q0 -139 85 -226t212 -87q137 0 280 73q6 -25 6 -61q0 -78 -101 -136.5t-276 -58.5q-205 0 -334.5 128t-129.5 343zM322 592h364q0 276 -176 276q-74 0 -131 -79.5t-57 -196.5z M358 1348q0 49 39 73.5t138 24.5q12 -88 61 -194.5t102 -172.5l-26 -16q-76 0 -195 102.5t-119 182.5z" />
<glyph unicode="&#xe9;" horiz-adv-x="978" d="M68 440q0 262 133 409.5t334 147.5q180 0 283.5 -104.5t103.5 -282.5q0 -84 -4 -145h-592q0 -139 85 -226t212 -87q137 0 280 73q6 -25 6 -61q0 -78 -101 -136.5t-276 -58.5q-205 0 -334.5 128t-129.5 343zM322 592h364q0 276 -176 276q-74 0 -131 -79.5t-57 -196.5z M408 1079q53 68 103 173.5t62 193.5q98 0 137.5 -24.5t39.5 -73.5q0 -80 -119 -182.5t-195 -102.5z" />
<glyph unicode="&#xea;" horiz-adv-x="978" d="M68 440q0 262 133 409.5t334 147.5q180 0 283.5 -104.5t103.5 -282.5q0 -84 -4 -145h-592q0 -139 85 -226t212 -87q137 0 280 73q6 -25 6 -61q0 -78 -101 -136.5t-276 -58.5q-205 0 -334.5 128t-129.5 343zM186 1169l289 265l92 16l295 -330l-35 -35q-127 0 -217 91 q-61 61 -96 129l-229 -222q-60 29 -99 86zM322 592h364q0 276 -176 276q-74 0 -131 -79.5t-57 -196.5z" />
<glyph unicode="&#xeb;" horiz-adv-x="978" d="M68 440q0 262 133 409.5t334 147.5q180 0 283.5 -104.5t103.5 -282.5q0 -84 -4 -145h-592q0 -139 85 -226t212 -87q137 0 280 73q6 -25 6 -61q0 -78 -101 -136.5t-276 -58.5q-205 0 -334.5 128t-129.5 343zM223 1237q0 49 32 84t81 35q47 0 75.5 -31t28.5 -82 q0 -49 -31.5 -82t-78.5 -33q-49 0 -78 30t-29 79zM322 592h364q0 276 -176 276q-74 0 -131 -79.5t-57 -196.5zM575 1237q0 49 32 84t81 35q47 0 76 -31t29 -82q0 -49 -32 -82t-79 -33q-49 0 -78 30t-29 79z" />
<glyph unicode="&#xec;" horiz-adv-x="598" d="M55 883v49q147 49 289 49l105 -2l-15 -145v-738l115 -33v-47q-111 -35 -285 -34q-109 0 -188 18v41q43 18 74.5 52t31.5 73v657zM139 1348q0 49 39 73.5t137 24.5q12 -88 61.5 -194.5t102.5 -172.5l-26 -16q-78 0 -196 102.5t-118 182.5z" />
<glyph unicode="&#xed;" horiz-adv-x="598" d="M55 883v49q147 49 289 49l105 -2l-15 -145v-738l115 -33v-47q-111 -35 -285 -34q-109 0 -188 18v41q43 18 74.5 52t31.5 73v657zM166 1079q53 66 102 172.5t62 194.5q98 0 137 -24.5t39 -73.5q0 -80 -119 -182.5t-194 -102.5z" />
<glyph unicode="&#xee;" horiz-adv-x="598" d="M-29 1169l287 265l92 16l295 -330l-33 -35q-127 0 -217 91q-57 53 -96 129l-231 -222q-62 29 -97 86zM55 883v49q147 49 289 49l105 -2l-15 -145v-738l115 -33v-47q-111 -35 -285 -34q-109 0 -188 18v41q43 18 74.5 52t31.5 73v657z" />
<glyph unicode="&#xef;" horiz-adv-x="598" d="M23 1237q0 49 31.5 84t80.5 35q47 0 76 -31t29 -82q0 -49 -32 -82t-79 -33q-49 0 -77.5 30t-28.5 79zM55 883v49q147 49 289 49l105 -2l-15 -145v-738l115 -33v-47q-111 -35 -285 -34q-109 0 -188 18v41q43 18 74.5 52t31.5 73v657zM375 1237q0 49 31.5 84t80.5 35 q47 0 76 -31t29 -82q0 -49 -32 -82t-79 -33q-49 0 -77.5 30t-28.5 79z" />
<glyph unicode="&#xf0;" horiz-adv-x="1163" d="M68 444q0 240 154.5 398.5t367.5 158.5q121 0 205 -65l8 2q-66 180 -203 291l-244 -168l-63 88l207 141q-76 35 -148 35q-100 0 -213 -51q-12 43 -12 78q0 123 256 123q154 0 285 -70l184 127l63 -88l-147 -103q143 -113 226 -307t83 -463q0 -279 -150.5 -442.5 t-367.5 -163.5q-221 0 -356 131t-135 348zM340 461q0 -162 66.5 -254t161 -92t166 99t71.5 300q0 174 -17 289q-98 49 -206 49q-84 0 -163 -102.5t-79 -288.5z" />
<glyph unicode="&#xf1;" horiz-adv-x="1187" d="M57 885v51q158 51 287 47h80v-115q121 121 307 121q307 0 307 -338v-555l109 -33v-47q-109 -35 -268 -34q-94 0 -168 18v41q76 39 75 139v385q0 127 -53 187.5t-143 60.5q-92 0 -156 -41v-676l115 -33v-47q-113 -35 -283 -34q-106 0 -190 18v41q43 18 74.5 52t31.5 73 v659zM256 1231q0 57 39 90t106 33q63 0 144 -23l125 -31q53 -16 98 -16q35 0 66.5 32t31.5 68q63 -57 64 -133q0 -55 -45 -93t-109 -38q-66 0 -139 19l-127 35q-59 16 -102 16q-35 0 -64 -26.5t-29 -59.5q-59 55 -59 127z" />
<glyph unicode="&#xf2;" horiz-adv-x="1144" d="M68 444q0 244 154.5 400.5t375.5 156.5q213 0 346 -131t133 -344q0 -254 -156.5 -407.5t-367.5 -153.5q-217 0 -351 131t-134 348zM340 461q0 -162 67.5 -254t157.5 -92q94 0 167 99t73 296q0 164 -65.5 253t-159.5 89q-96 0 -168 -100.5t-72 -290.5zM371 1348 q0 49 40 73.5t138 24.5q12 -88 61 -193.5t103 -173.5l-27 -16q-78 0 -196.5 102.5t-118.5 182.5z" />
<glyph unicode="&#xf3;" horiz-adv-x="1144" d="M68 444q0 244 154.5 400.5t375.5 156.5q213 0 346 -131t133 -344q0 -254 -156.5 -407.5t-367.5 -153.5q-217 0 -351 131t-134 348zM340 461q0 -162 67.5 -254t157.5 -92q94 0 167 99t73 296q0 164 -65.5 253t-159.5 89q-96 0 -168 -100.5t-72 -290.5zM467 1079 q53 66 102 172.5t62 194.5q98 0 137 -24.5t39 -73.5q0 -80 -119 -182.5t-194 -102.5z" />
<glyph unicode="&#xf4;" horiz-adv-x="1144" d="M68 444q0 244 154.5 400.5t375.5 156.5q213 0 346 -131t133 -344q0 -254 -156.5 -407.5t-367.5 -153.5q-217 0 -351 131t-134 348zM244 1169l286 265l93 16l295 -330l-33 -35q-127 0 -217 91q-57 53 -97 129l-231 -222q-61 29 -96 86zM340 461q0 -162 67.5 -254 t157.5 -92q94 0 167 99t73 296q0 164 -65.5 253t-159.5 89q-96 0 -168 -100.5t-72 -290.5z" />
<glyph unicode="&#xf5;" horiz-adv-x="1144" d="M68 444q0 244 154.5 400.5t375.5 156.5q213 0 346 -131t133 -344q0 -254 -156.5 -407.5t-367.5 -153.5q-217 0 -351 131t-134 348zM244 1231q0 59 37.5 91t107.5 32q59 0 143 -23l125 -31q49 -16 99 -16q35 0 66.5 32t31.5 68q63 -59 64 -133q0 -55 -46.5 -93t-107.5 -38 q-66 0 -139 19l-127 35q-61 16 -103 16q-35 0 -63.5 -26.5t-28.5 -59.5q-59 55 -59 127zM340 461q0 -162 67.5 -254t157.5 -92q94 0 167 99t73 296q0 164 -65.5 253t-159.5 89q-96 0 -168 -100.5t-72 -290.5z" />
<glyph unicode="&#xf6;" horiz-adv-x="1144" d="M68 444q0 244 154.5 400.5t375.5 156.5q213 0 346 -131t133 -344q0 -254 -156.5 -407.5t-367.5 -153.5q-217 0 -351 131t-134 348zM303 1237q0 49 32 84t81 35q47 0 75.5 -31t28.5 -82q0 -49 -31.5 -82t-78.5 -33q-49 0 -78 30t-29 79zM340 461q0 -162 67.5 -254 t157.5 -92q94 0 167 99t73 296q0 164 -65.5 253t-159.5 89q-96 0 -168 -100.5t-72 -290.5zM655 1237q0 49 32 84t81 35q47 0 75.5 -31t28.5 -82q0 -49 -31.5 -82t-78.5 -33q-49 0 -78 30t-29 79z" />
<glyph unicode="&#xf7;" d="M104 395v133h857v-133h-857zM422 90q0 45 35 82t82 37q45 0 73.5 -33t28.5 -80q0 -45 -35 -79.5t-78 -34.5q-49 0 -77.5 29.5t-28.5 78.5zM422 819q0 45 35 82t82 37q45 0 73.5 -33t28.5 -80q0 -43 -35 -78.5t-78 -35.5q-49 0 -77.5 29.5t-28.5 78.5z" />
<glyph unicode="&#xf8;" horiz-adv-x="1144" d="M68 444q0 244 154.5 400.5t375.5 156.5q113 0 207 -40l119 198l84 -43l-119 -201q188 -133 188 -389q0 -254 -156.5 -407.5t-367.5 -153.5q-111 0 -209 39l-115 -194l-84 45l117 192q-194 129 -194 397zM340 461q0 -131 45 -217l328 551q-61 57 -133 57 q-96 0 -168 -100.5t-72 -290.5zM434 172q57 -57 131 -57q94 0 167 99t73 296q0 121 -41 209z" />
<glyph unicode="&#xf9;" horiz-adv-x="1146" d="M33 889v49q143 49 280 49h105l-17 -149v-437q0 -262 183 -262q80 0 153 39v651l-112 60v49q145 49 276 49h105l-17 -149v-652q31 -61 82 -112q-74 -66 -211 -111q-72 49 -108 119q-47 -47 -130 -78t-167 -31q-152 0 -228.5 81t-76.5 261v514zM389 1348q0 49 39 73.5 t137 24.5q12 -88 61.5 -194.5t102.5 -172.5l-27 -16q-76 0 -194.5 102.5t-118.5 182.5z" />
<glyph unicode="&#xfa;" horiz-adv-x="1146" d="M33 889v49q143 49 280 49h105l-17 -149v-437q0 -262 183 -262q80 0 153 39v651l-112 60v49q145 49 276 49h105l-17 -149v-652q31 -61 82 -112q-74 -66 -211 -111q-72 49 -108 119q-47 -47 -130 -78t-167 -31q-152 0 -228.5 81t-76.5 261v514zM430 1079q53 68 103.5 173.5 t62.5 193.5q98 0 137 -24.5t39 -73.5q0 -80 -118.5 -182.5t-194.5 -102.5z" />
<glyph unicode="&#xfb;" horiz-adv-x="1146" d="M33 889v49q143 49 280 49h105l-17 -149v-437q0 -262 183 -262q80 0 153 39v651l-112 60v49q145 49 276 49h105l-17 -149v-652q31 -61 82 -112q-74 -66 -211 -111q-72 49 -108 119q-47 -47 -130 -78t-167 -31q-152 0 -228.5 81t-76.5 261v514zM246 1169l286 265l93 16 l297 -330l-35 -35q-127 0 -217 91q-57 53 -97 129l-231 -222q-61 29 -96 86z" />
<glyph unicode="&#xfc;" horiz-adv-x="1146" d="M33 889v49q143 49 280 49h105l-17 -149v-437q0 -262 183 -262q80 0 153 39v651l-112 60v49q145 49 276 49h105l-17 -149v-652q31 -61 82 -112q-74 -66 -211 -111q-72 49 -108 119q-47 -47 -130 -78t-167 -31q-152 0 -228.5 81t-76.5 261v514zM289 1237q0 49 31.5 84 t80.5 35q47 0 76 -31t29 -82q0 -49 -32 -82t-79 -33q-49 0 -77.5 30t-28.5 79zM641 1237q0 49 32 84t81 35q47 0 75.5 -31t28.5 -82q0 -49 -31.5 -82t-78.5 -33q-49 0 -78 30t-29 79z" />
<glyph unicode="&#xfd;" horiz-adv-x="856" d="M-59 918v65h467v-61l-97 -54l197 -551h2l168 547l-103 54v65h332v-61l-55 -52l-293 -790q-215 -584 -446 -584q-78 0 -113 45t-35 152q51 -12 111 -12q66 0 148.5 80.5t131.5 222.5l25 71l-350 803zM319 1079q53 68 103.5 173.5t62.5 193.5q96 0 136.5 -24.5t40.5 -73.5 q0 -80 -119 -182.5t-195 -102.5z" />
<glyph unicode="&#xfe;" horiz-adv-x="1132" d="M45 1374v51q139 47 293 48h104l-14 -150v-438q111 106 258 106q174 0 276.5 -112.5t102.5 -329.5q0 -268 -147.5 -420t-362.5 -152q-61 0 -129 23v-389l133 -35v-47q-111 -35 -303 -35q-109 0 -188 19v41q43 18 74.5 52t31.5 72v1637zM424 131q51 -18 115 -18 q111 0 186.5 99t75.5 290q0 158 -67.5 239.5t-168.5 81.5q-74 0 -141 -30v-662z" />
<glyph unicode="&#xff;" horiz-adv-x="856" d="M-59 918v65h467v-61l-97 -54l197 -551h2l168 547l-103 54v65h332v-61l-55 -52l-293 -790q-215 -584 -446 -584q-78 0 -113 45t-35 152q51 -12 111 -12q66 0 148.5 80.5t131.5 222.5l25 71l-350 803zM178 1237q0 49 32 84t81 35q47 0 75.5 -31t28.5 -82q0 -49 -31.5 -82 t-78.5 -33q-49 0 -78 30t-29 79zM530 1237q0 49 32 84t81 35q47 0 76 -31t29 -82q0 -49 -32 -82t-79 -33q-49 0 -78 30t-29 79z" />
<glyph unicode="&#x152;" horiz-adv-x="1685" d="M78 616q0 313 195.5 517t463.5 204q94 0 191 -26h678l-17 -332h-76l-6 39q-12 82 -50 113.5t-126 31.5h-184v-442h192q115 0 140 74l14 45h70v-402h-70l-8 45q-20 100 -109 101h-229v-441h227q78 0 117 23.5t65 79.5l21 43h74l-37 -289h-709q-117 -37 -227 -37 q-268 0 -434 175t-166 478zM379 651q0 -252 95 -387t226 -135q100 0 183 64v913q-72 66 -166 65q-141 0 -239.5 -135t-98.5 -385z" />
<glyph unicode="&#x153;" horiz-adv-x="1708" d="M68 444q0 244 154.5 400.5t375.5 156.5q233 0 356 -157q115 154 310 153q180 0 283.5 -104.5t103.5 -282.5q0 -84 -4 -145h-592q0 -139 85 -226t212 -87q137 0 280 73q6 -25 6 -61q0 -78 -101 -136.5t-275 -58.5q-231 0 -342 164q-145 -168 -367 -168q-217 0 -351 131 t-134 348zM340 461q0 -162 67.5 -254t157.5 -92q94 0 167 99t73 296q0 164 -65.5 253t-159.5 89q-96 0 -168 -100.5t-72 -290.5zM1051 592h364q0 276 -176 276q-74 0 -131 -79.5t-57 -196.5z" />
<glyph unicode="&#x178;" d="M-41 1237v53q115 35 242 35q111 0 221 -20v-48q-88 -35 -45 -118l209 -418h4l225 479l-104 37v53q121 35 227 35q88 0 168 -20v-48q-37 -14 -60.5 -38.5t-56.5 -85.5l-309 -555v-472l127 -38v-54q-125 -33 -285 -32q-143 0 -227 18v47q117 33 117 148v329l-353 676z M283 1505q0 49 31.5 84t80.5 35q47 0 76 -30.5t29 -82.5q0 -49 -32 -81.5t-79 -32.5q-49 0 -77.5 29.5t-28.5 78.5zM635 1505q0 49 31.5 84t81.5 35q47 0 75.5 -30.5t28.5 -82.5q0 -49 -32 -81.5t-79 -32.5q-49 0 -77.5 29.5t-28.5 78.5z" />
<glyph unicode="&#x2c6;" horiz-adv-x="921" d="M137 1169l287 265l92 16l295 -330l-33 -35q-127 0 -217 91q-57 53 -96 129l-232 -222q-61 29 -96 86z" />
<glyph unicode="&#x2dc;" horiz-adv-x="921" d="M129 1231q0 57 39 90t108 33q59 0 144 -23l125 -31q49 -16 98 -16q35 0 66.5 32t31.5 68q63 -59 64 -133q0 -55 -46 -93t-108 -38q-66 0 -139 19l-127 35q-61 16 -102 16q-37 0 -65 -26.5t-28 -59.5q-61 57 -61 127z" />
<glyph unicode="&#x2000;" horiz-adv-x="878" />
<glyph unicode="&#x2001;" horiz-adv-x="1757" />
<glyph unicode="&#x2002;" horiz-adv-x="878" />
<glyph unicode="&#x2003;" horiz-adv-x="1757" />
<glyph unicode="&#x2004;" horiz-adv-x="585" />
<glyph unicode="&#x2005;" horiz-adv-x="438" />
<glyph unicode="&#x2006;" horiz-adv-x="292" />
<glyph unicode="&#x2007;" horiz-adv-x="292" />
<glyph unicode="&#x2008;" horiz-adv-x="219" />
<glyph unicode="&#x2009;" horiz-adv-x="350" />
<glyph unicode="&#x200a;" horiz-adv-x="96" />
<glyph unicode="&#x2010;" horiz-adv-x="643" d="M55 440l47 195l494 31l-43 -197z" />
<glyph unicode="&#x2011;" horiz-adv-x="643" d="M55 440l47 195l494 31l-43 -197z" />
<glyph unicode="&#x2012;" horiz-adv-x="643" d="M55 440l47 195l494 31l-43 -197z" />
<glyph unicode="&#x2013;" horiz-adv-x="1024" d="M0 395v133h1024v-133h-1024z" />
<glyph unicode="&#x2014;" horiz-adv-x="2048" d="M0 395v133h2048v-133h-2048z" />
<glyph unicode="&#x2018;" horiz-adv-x="536" d="M109 1047q0 139 88 262t190 161l80 -18q-143 -160 -143 -340l88 -106q-70 -102 -164 -103q-61 0 -100 39t-39 105z" />
<glyph unicode="&#x2019;" horiz-adv-x="536" d="M68 907q143 160 143 340l-88 107q70 102 164 102q61 0 100 -39t39 -104q0 -139 -88 -262t-191 -162z" />
<glyph unicode="&#x201a;" horiz-adv-x="536" d="M68 -274q143 160 143 340l-88 106q70 102 164 102q61 0 100 -38.5t39 -104.5q0 -139 -88 -262t-191 -162z" />
<glyph unicode="&#x201c;" horiz-adv-x="899" d="M100 1047q0 139 88 262t191 161l80 -18q-143 -160 -144 -340l88 -106q-70 -102 -163 -103q-61 0 -100.5 39t-39.5 105zM471 1047q0 139 88 262t191 161l79 -18q-143 -160 -143 -340l88 -106q-70 -102 -164 -103q-61 0 -100 39t-39 105z" />
<glyph unicode="&#x201d;" horiz-adv-x="899" d="M68 907q143 160 143 340l-88 107q70 102 164 102q61 0 100 -39t39 -104q0 -139 -88 -262t-191 -162zM438 907q143 160 144 340l-88 107q70 102 163 102q61 0 100.5 -39t39.5 -104q0 -139 -88 -262t-191 -162z" />
<glyph unicode="&#x201e;" horiz-adv-x="899" d="M68 -274q143 160 143 340l-88 106q70 102 164 102q61 0 100 -38.5t39 -104.5q0 -139 -88 -262t-191 -162zM438 -274q143 160 144 340l-88 106q70 102 163 102q61 0 100.5 -38.5t39.5 -104.5q0 -139 -88 -262t-191 -162z" />
<glyph unicode="&#x2022;" horiz-adv-x="739" d="M123 540.5q0 104.5 71.5 179.5t176.5 75q102 0 173.5 -75t71.5 -179.5t-71.5 -179t-173.5 -74.5q-104 0 -176 74.5t-72 179z" />
<glyph unicode="&#x2026;" horiz-adv-x="1425" d="M135 127q0 61 43 104t104.5 43t104.5 -43t43 -104t-43 -104t-104.5 -43t-104.5 43t-43 104zM580 127q0 61 43 104t104 43t104 -43t43 -104t-43 -104t-104 -43t-104 43t-43 104zM1024 127q0 61 43 104t104.5 43t104.5 -43t43 -104t-43 -104t-104.5 -43t-104.5 43t-43 104z " />
<glyph unicode="&#x202f;" horiz-adv-x="350" />
<glyph unicode="&#x2039;" horiz-adv-x="571" d="M49 518l115 166q152 215 254 215q74 0 127 -39q-109 -90 -228 -239l-65 -91l98 -163q72 -119 170 -211q-68 -25 -137 -25q-121 0 -203 152z" />
<glyph unicode="&#x203a;" horiz-adv-x="571" d="M29 172q115 94 225 240l68 90l-99 164q-78 125 -170 211q68 25 137 24q121 0 203 -151l131 -236l-114 -166q-152 -215 -254 -215q-74 0 -127 39z" />
<glyph unicode="&#x205f;" horiz-adv-x="438" />
<glyph unicode="&#x20ac;" d="M18 686v96l115 6q47 248 216 397.5t390 149.5q193 0 310 -59l-19 -328h-69l-11 49q-23 92 -73 136.5t-144 44.5q-106 0 -190 -96.5t-113 -274.5l475 27l-4 -93l-481 -30v-62q0 -63 2 -94l487 29l-4 -92l-471 -31q31 -168 113 -253t182 -85q96 0 146.5 35t87.5 121l22 51 h70l-21 -299q-135 -66 -366 -66q-205 0 -349.5 123t-185.5 354l-110 -6v96l98 7q-2 27 -2 82q0 47 2 71z" />
<glyph unicode="&#x2122;" horiz-adv-x="1583" d="M82 1122v185q217 -4 278 -4q55 0 273 4v-185h-51l-9 25q-27 72 -108 72h-21v-482l82 -16v-37q-88 -31 -174 -31q-72 0 -164 25v37q35 4 58.5 22.5t23.5 42.5v439h-20q-82 0 -109 -72l-8 -25h-51zM629 668v39q33 8 47 21t18 42l72 459l-74 16v51q43 6 148 7h112l127 -441 l2 2l125 439h101q104 0 147 -7v-51l-74 -16l72 -492l82 -16v-37q-88 -31 -174 -31q-55 0 -148 25v37q63 8 58 65l-29 377l-2 -2l-141 -498l-101 -10l-153 512l-2 -2l-33 -432l63 -16v-35q-51 -23 -129 -23q-61 1 -114 17z" />
<glyph unicode="&#xe000;" horiz-adv-x="985" d="M0 985h985v-985h-985v985z" />
<glyph unicode="&#xfb01;" horiz-adv-x="1214" d="M63 819v92l115 52l-2 139q-4 168 113 270.5t356 102.5q190 0 261 -31t71 -92q0 -70 -33 -125q-74 45 -176 73.5t-188 28.5q-82 0 -120 -51t-38 -170q0 -55 6 -160h299q135 33 234 33l104 -2l-14 -145v-738l114 -33v-47q-111 -35 -284 -34q-109 0 -189 18v41q43 18 75 52 t32 73v665h-369v-735l123 -33v-47q-113 -35 -291 -34q-106 0 -190 18v41q43 18 74.5 52t31.5 73v653h-115z" />
<glyph unicode="&#xfb02;" horiz-adv-x="1218" d="M63 819v92l115 52l-2 124q-4 176 105.5 282t308.5 106q117 0 182 -33q100 31 193 31h104l-14 -150v-1227l112 -33v-47q-111 -35 -282 -34q-109 0 -189 18v41q43 18 75 52t32 73v1120q-88 45 -252 45q-127 0 -127 -215q0 -90 8 -168h215l-16 -129h-201v-723l123 -33v-47 q-113 -35 -291 -34q-106 0 -190 18v41q43 18 74.5 52t31.5 73v653h-115z" />
<glyph unicode="&#xfb03;" horiz-adv-x="1849" d="M63 819v92l115 52l-2 135q-4 164 107.5 270.5t291.5 106.5q211 0 211 -111q0 -49 -20 -96q-94 59 -219 59q-53 0 -88 -51t-35 -152q0 -98 8 -176h381l-2 154q-2 168 112.5 270.5t354.5 102.5q193 0 262.5 -31t69.5 -92q0 -74 -31 -125q-74 45 -176.5 73.5t-190.5 28.5 q-82 0 -118.5 -51t-36.5 -170q0 -55 6 -160h299q135 33 233 33l105 -2l-14 -145v-738l114 -33v-47q-111 -35 -284 -34q-109 0 -189 18v41q43 18 75 52t32 73v665h-371v-735l125 -33v-47q-113 -35 -291 -34q-106 0 -190 18v41q106 45 106 123v667h-383v-735l123 -33v-47 q-113 -35 -291 -34q-106 0 -190 18v41q106 45 106 123v655h-115z" />
<glyph unicode="&#xfb04;" horiz-adv-x="1853" d="M63 819v92l115 52l-2 135q-4 164 107.5 270.5t291.5 106.5q209 0 209 -111q0 -53 -18 -96q-94 59 -219 59q-53 0 -88 -51t-35 -152q0 -98 8 -176h381l-2 139q0 176 107.5 282t306.5 106q119 0 184 -33q102 31 190 31h105l-14 -150v-1227l112 -33v-47q-111 -35 -282 -34 q-109 0 -189 18v41q43 18 75 52t32 73v1120q-84 45 -252 45q-129 0 -129 -215q0 -90 8 -168h203l-19 -123h-184v-729l123 -33v-47q-113 -35 -291 -34q-106 0 -190 18v41q43 18 74.5 52t31.5 73v665h-383v-735l123 -33v-47q-113 -35 -291 -34q-106 0 -190 18v41 q43 18 74.5 52t31.5 73v653h-115z" />
<glyph horiz-adv-x="342" />
</font>
</defs>
</svg>
